M48
; DRILL file {KiCad 8.0.8-8.0.8-0~ubuntu22.04.1} date 2025-01-31T14:51:55-0800
; FORMAT={-:-/ absolute / inch / decimal}
; #@! TF.CreationDate,2025-01-31T14:51:55-08:00
; #@! TF.GenerationSoftware,Kicad,Pcbnew,8.0.8-8.0.8-0~ubuntu22.04.1
; #@! TF.FileFunction,Plated,1,4,PTH
FMAT,2
INCH
; #@! TA.AperFunction,Plated,PTH,ViaDrill
T1C0.0126
; #@! TA.AperFunction,Plated,PTH,ViaDrill
T2C0.0154
; #@! TA.AperFunction,Plated,PTH,ComponentDrill
T3C0.0197
; #@! TA.AperFunction,Plated,PTH,ComponentDrill
T4C0.0236
; #@! TA.AperFunction,Plated,PTH,ViaDrill
T5C0.0276
; #@! TA.AperFunction,Plated,PTH,ComponentDrill
T6C0.0315
; #@! TA.AperFunction,Plated,PTH,ComponentDrill
T7C0.0394
; #@! TA.AperFunction,Plated,PTH,ComponentDrill
T8C0.0402
; #@! TA.AperFunction,Plated,PTH,ComponentDrill
T9C0.0472
; #@! TA.AperFunction,Plated,PTH,ComponentDrill
T10C0.0492
; #@! TA.AperFunction,Plated,PTH,ComponentDrill
T11C0.0500
; #@! TA.AperFunction,Plated,PTH,ComponentDrill
T12C0.0700
; #@! TA.AperFunction,Plated,PTH,ComponentDrill
T13C0.0787
; #@! TA.AperFunction,Plated,PTH,ComponentDrill
T14C0.0945
; #@! TA.AperFunction,Plated,PTH,ComponentDrill
T15C0.1063
; #@! TA.AperFunction,Plated,PTH,ComponentDrill
T16C0.1693
; #@! TA.AperFunction,Plated,PTH,ComponentDrill
T17C0.1772
%
G90
G05
T1
X1.2677Y-4.7362
X1.3386Y-5.0
X1.378Y-4.3701
X1.378Y-4.4094
X1.378Y-4.4488
X1.378Y-4.4882
X1.378Y-4.5276
X1.378Y-4.5669
X1.378Y-5.0
X1.4134Y-3.3937
X1.4173Y-4.3701
X1.4173Y-4.4094
X1.4173Y-4.4488
X1.4173Y-4.4882
X1.4173Y-4.5276
X1.4173Y-4.5669
X1.4173Y-4.6063
X1.4173Y-5.0
X1.4173Y-5.0394
X1.4272Y-4.7835
X1.4272Y-4.813
X1.4272Y-4.8425
X1.4272Y-4.872
X1.4272Y-4.9016
X1.437Y-5.0197
X1.4567Y-4.4488
X1.4567Y-4.4882
X1.4567Y-4.5276
X1.4567Y-4.5669
X1.4567Y-4.6063
X1.4567Y-4.6457
X1.4567Y-4.7835
X1.4567Y-4.813
X1.4567Y-4.8425
X1.4567Y-4.872
X1.4567Y-4.9016
X1.4567Y-5.0
X1.4567Y-5.0394
X1.4764Y-5.0197
X1.4825Y-5.1535
X1.4862Y-4.7835
X1.4862Y-4.813
X1.4862Y-4.8425
X1.4862Y-4.872
X1.4862Y-4.9016
X1.4961Y-4.4882
X1.4961Y-4.5276
X1.4961Y-4.5669
X1.4961Y-4.6063
X1.4961Y-4.6457
X1.4961Y-5.0
X1.4961Y-5.0394
X1.5157Y-4.4685
X1.5157Y-4.5079
X1.5157Y-4.5472
X1.5157Y-4.5866
X1.5157Y-4.626
X1.5157Y-4.6654
X1.5157Y-4.7835
X1.5157Y-4.813
X1.5157Y-4.8425
X1.5157Y-4.872
X1.5157Y-4.9016
X1.5157Y-5.0197
X1.5354Y-4.4488
X1.5354Y-4.4882
X1.5354Y-4.5276
X1.5354Y-4.5669
X1.5354Y-5.0
X1.5354Y-5.0394
X1.5453Y-4.8425
X1.5453Y-4.872
X1.5453Y-4.9016
X1.5551Y-4.4685
X1.5551Y-4.5079
X1.5551Y-4.5472
X1.5551Y-4.5866
X1.5551Y-5.0197
X1.5748Y-4.4488
X1.5748Y-4.4882
X1.5748Y-4.5276
X1.5748Y-4.5669
X1.5748Y-4.8425
X1.5748Y-4.872
X1.5748Y-4.9016
X1.5748Y-5.0
X1.5748Y-5.0394
X1.5945Y-4.4685
X1.5945Y-4.5079
X1.5945Y-4.5472
X1.5945Y-4.6693
X1.5945Y-5.0197
X1.6024Y-4.7559
X1.6102Y-4.6929
X1.6142Y-4.3701
X1.6142Y-4.4094
X1.6142Y-4.4488
X1.6142Y-4.4882
X1.6142Y-4.5276
X1.6142Y-4.5669
X1.6142Y-5.0
X1.6142Y-5.0394
X1.6181Y-4.7323
X1.626Y-4.6693
X1.6339Y-4.4685
X1.6339Y-4.5079
X1.6339Y-4.5472
X1.6339Y-4.7559
X1.6339Y-5.0197
X1.6417Y-4.6929
X1.6496Y-4.7323
X1.6535Y-4.3701
X1.6535Y-4.4094
X1.6535Y-4.4488
X1.6535Y-4.4882
X1.6535Y-4.5276
X1.6535Y-4.5669
X1.6535Y-5.0
X1.6535Y-5.0394
X1.6575Y-4.6693
X1.6654Y-4.7559
X1.6732Y-4.4685
X1.6732Y-4.5079
X1.6732Y-4.5472
X1.6732Y-5.0197
X1.6831Y-4.8425
X1.6831Y-4.872
X1.6831Y-4.9016
X1.6929Y-4.3701
X1.6929Y-4.4094
X1.6929Y-4.4488
X1.6929Y-4.4882
X1.6929Y-4.5276
X1.6929Y-4.5669
X1.6929Y-5.0
X1.6929Y-5.0394
X1.7126Y-4.4685
X1.7126Y-4.5079
X1.7126Y-4.5472
X1.7126Y-4.8425
X1.7126Y-4.872
X1.7126Y-4.9016
X1.7126Y-5.0197
X1.7323Y-4.3701
X1.7323Y-4.4094
X1.7323Y-4.4882
X1.7323Y-4.5276
X1.7323Y-4.5669
X1.7323Y-5.0
X1.7323Y-5.0394
X1.7421Y-4.7835
X1.7421Y-4.813
X1.7421Y-4.8425
X1.7421Y-4.872
X1.7421Y-4.9016
X1.752Y-4.5079
X1.752Y-4.5472
X1.752Y-4.5866
X1.752Y-5.0197
X1.7717Y-4.3701
X1.7717Y-4.4094
X1.7717Y-4.4488
X1.7717Y-4.5276
X1.7717Y-4.7835
X1.7717Y-4.813
X1.7717Y-4.8425
X1.7717Y-4.872
X1.7717Y-4.9016
X1.7717Y-5.0
X1.7717Y-5.0394
X1.7913Y-5.0197
X1.8012Y-4.7835
X1.8012Y-4.813
X1.8012Y-4.8425
X1.8012Y-4.872
X1.8012Y-4.9016
X1.811Y-4.3701
X1.811Y-4.4094
X1.811Y-4.4488
X1.811Y-4.4882
X1.811Y-4.5276
X1.811Y-5.0
X1.811Y-5.0394
X1.8307Y-4.7835
X1.8307Y-4.813
X1.8307Y-4.8425
X1.8307Y-4.872
X1.8307Y-4.9016
X1.8307Y-5.0197
X1.8346Y-5.1535
X1.8366Y-4.6106
X1.8504Y-4.3701
X1.8504Y-4.4094
X1.8504Y-4.4488
X1.8504Y-4.4882
X1.8504Y-4.5276
X1.8504Y-5.0
X1.8504Y-5.0394
X1.8634Y-4.6374
X1.8701Y-5.0197
X1.8898Y-4.3701
X1.8898Y-4.4094
X1.8898Y-4.4488
X1.8898Y-4.4882
X1.8898Y-4.5276
X1.8898Y-5.0
X1.8898Y-5.0394
X1.9094Y-5.0197
X1.9291Y-4.3701
X1.9291Y-4.4094
X1.9291Y-4.4488
X1.9291Y-4.4882
X1.9291Y-4.6063
X1.9291Y-4.6457
X1.9291Y-5.0
X1.9291Y-5.0394
X1.9488Y-5.0197
X1.9685Y-4.5669
X1.9685Y-4.6063
X1.9685Y-4.6457
X1.9685Y-5.0
X1.9685Y-5.0394
X1.9882Y-5.0197
X2.0079Y-4.5276
X2.0079Y-4.5669
X2.0079Y-4.6063
X2.0079Y-5.0
X2.0079Y-5.0394
X2.0197Y-4.7598
X2.0276Y-5.0197
X2.0315Y-4.7008
X2.0472Y-4.3701
X2.0472Y-5.0
X2.0472Y-5.0394
X2.0669Y-5.0197
X2.0866Y-4.3701
X2.0866Y-5.0
X2.0866Y-5.0394
X2.126Y-4.3701
X2.1496Y-4.5217
X2.1654Y-4.3701
X2.2047Y-4.3701
X2.2441Y-4.3701
X2.2575Y-4.9614
X2.2575Y-5.0008
X2.2575Y-5.0402
X2.2575Y-5.0795
X2.2815Y-4.7394
X2.2815Y-4.7787
X2.2815Y-4.8181
X2.2815Y-4.8575
X2.2835Y-4.5276
X2.2835Y-4.5669
X2.2835Y-4.6063
X2.2835Y-4.6457
X2.2835Y-4.685
X2.2969Y-4.9614
X2.2969Y-5.0008
X2.2969Y-5.0402
X2.2969Y-5.0795
X2.3209Y-4.7394
X2.3209Y-4.7787
X2.3209Y-4.8181
X2.3209Y-4.8575
X2.3228Y-4.5276
X2.3228Y-4.5669
X2.3228Y-4.6063
X2.3228Y-4.6457
X2.3228Y-4.685
X2.3362Y-4.9614
X2.3362Y-5.0008
X2.3362Y-5.0402
X2.3362Y-5.0795
X2.3602Y-4.7394
X2.3602Y-4.7787
X2.3602Y-4.8181
X2.3602Y-4.8575
X2.3622Y-4.5276
X2.3622Y-4.5669
X2.3622Y-4.6063
X2.3622Y-4.6457
X2.3622Y-4.685
X2.3756Y-4.9614
X2.3756Y-5.0008
X2.3756Y-5.0402
X2.3756Y-5.0795
X2.3996Y-4.7394
X2.3996Y-4.7787
X2.3996Y-4.8181
X2.3996Y-4.8575
X2.4016Y-4.5276
X2.4016Y-4.5669
X2.4016Y-4.6063
X2.4016Y-4.6457
X2.4016Y-4.685
X2.415Y-4.9614
X2.415Y-5.0008
X2.415Y-5.0402
X2.415Y-5.0795
X2.439Y-4.7394
X2.439Y-4.7787
X2.439Y-4.8181
X2.439Y-4.8575
X2.4409Y-4.5276
X2.4409Y-4.5669
X2.4409Y-4.6063
X2.4409Y-4.6457
X2.4409Y-4.685
X2.4543Y-4.9614
X2.4543Y-5.0008
X2.4543Y-5.0402
X2.4543Y-5.0795
X2.4783Y-4.7394
X2.4783Y-4.7787
X2.4783Y-4.8181
X2.4783Y-4.8575
X2.4803Y-4.3701
X2.4803Y-4.4094
X2.4803Y-4.4488
X2.4803Y-4.5276
X2.4803Y-4.5669
X2.4803Y-4.6063
X2.4803Y-4.6457
X2.4803Y-4.685
X2.4937Y-4.9614
X2.4937Y-5.0008
X2.4937Y-5.0402
X2.4937Y-5.0795
X2.5177Y-4.7394
X2.5177Y-4.7787
X2.5177Y-4.8181
X2.5177Y-4.8575
X2.5197Y-4.3701
X2.5197Y-4.4094
X2.5197Y-4.4488
X2.5197Y-4.5276
X2.5197Y-4.5669
X2.5197Y-4.6063
X2.5197Y-4.6457
X2.5197Y-4.685
X2.5331Y-4.9614
X2.5331Y-5.0008
X2.5331Y-5.0402
X2.5331Y-5.0795
X2.5571Y-4.7394
X2.5571Y-4.7787
X2.5571Y-4.8181
X2.5571Y-4.8575
X2.5591Y-4.3701
X2.5591Y-4.4094
X2.5591Y-4.4488
X2.5591Y-4.5276
X2.5591Y-4.5669
X2.5591Y-4.6063
X2.5591Y-4.6457
X2.5591Y-4.685
X2.5724Y-4.9614
X2.5724Y-5.0008
X2.5724Y-5.0402
X2.5724Y-5.0795
X2.5965Y-4.7394
X2.5965Y-4.7787
X2.5965Y-4.8181
X2.5965Y-4.8575
X2.5984Y-4.3701
X2.5984Y-4.4094
X2.5984Y-4.4488
X2.5984Y-4.5276
X2.5984Y-4.5669
X2.5984Y-4.6063
X2.5984Y-4.6457
X2.5984Y-4.685
X2.6118Y-4.9614
X2.6118Y-5.0008
X2.6118Y-5.0402
X2.6118Y-5.0795
X2.6358Y-4.7394
X2.6358Y-4.7787
X2.6358Y-4.8181
X2.6358Y-4.8575
X2.6378Y-4.3701
X2.6378Y-4.4094
X2.6378Y-4.4488
X2.6378Y-4.5276
X2.6378Y-4.5669
X2.6378Y-4.6063
X2.6378Y-4.6457
X2.6378Y-4.685
X2.6512Y-4.9614
X2.6512Y-5.0008
X2.6512Y-5.0402
X2.6512Y-5.0795
X2.6752Y-4.7394
X2.6752Y-4.7787
X2.6752Y-4.8181
X2.6752Y-4.8575
X2.6772Y-4.3701
X2.6772Y-4.4094
X2.6772Y-4.4488
X2.6772Y-4.5276
X2.6772Y-4.5669
X2.6772Y-4.6063
X2.6772Y-4.6457
X2.6772Y-4.685
X2.7165Y-4.3701
X2.7165Y-4.4094
X2.7165Y-4.4488
X2.7559Y-4.4094
X2.7559Y-4.4488
X2.7559Y-4.4882
X2.7559Y-4.5276
X2.7559Y-4.5669
X2.7559Y-4.6063
X2.7559Y-4.6457
X2.7559Y-4.685
X3.529Y-2.1791
X3.5325Y-2.0315
X3.5384Y-1.8858
X3.7008Y-5.7874
X3.7205Y-2.5689
X3.7898Y-5.7968
X3.8976Y-2.0315
X3.8976Y-2.1772
X3.8996Y-1.8819
X3.9567Y-5.6299
X3.9891Y-5.7313
X4.0147Y-5.5138
X4.344Y-4.001
X4.346Y-4.1486
X4.3479Y-3.8533
X4.6907Y-4.4988
X4.6959Y-4.878
X4.6988Y-3.8514
X4.6988Y-3.9951
X4.6988Y-4.1467
X5.6018Y-1.76
X5.7436Y-1.7531
X5.8031Y-3.3071
X5.8248Y-1.9409
X5.8435Y-2.9577
X6.0049Y-1.7692
X6.1424Y-3.2323
X6.1448Y-1.7687
X6.3691Y-3.274
X6.3967Y-1.7867
X6.4727Y-3.3455
X6.53Y-1.7809
X6.6939Y-5.0
X6.6939Y-5.0374
X6.6939Y-5.374
X6.6939Y-5.4114
X6.7092Y-4.9769
X6.7092Y-5.3509
X6.7574Y-1.1481
X6.8406Y-1.8471
X6.8819Y-3.1841
X6.8927Y-1.8178
X6.9104Y-5.5492
X6.9322Y-1.8761
X6.998Y-1.0256
X7.0034Y-3.2328
X7.0172Y-4.8716
X7.0221Y-5.2505
X7.0335Y-4.8061
X7.0335Y-4.8425
X7.0384Y-5.185
X7.0384Y-5.2165
X7.0817Y-3.1732
X7.0901Y-3.3602
X7.1171Y-1.3967
X7.2791Y-1.1186
X7.4409Y-3.2087
X7.499Y-1.3327
X7.5197Y-4.5079
X7.5197Y-4.5472
X7.5197Y-4.5866
X7.5394Y-4.5276
X7.5394Y-4.5669
X7.5394Y-4.6063
X7.5394Y-4.7047
X7.5394Y-4.7441
X7.5394Y-4.7835
X7.5591Y-4.5079
X7.5591Y-4.5472
X7.5591Y-4.5866
X7.5591Y-4.7244
X7.5591Y-4.7638
X7.5591Y-4.8031
X7.5787Y-4.5276
X7.5787Y-4.5669
X7.5787Y-4.6063
X7.5787Y-4.7047
X7.5787Y-4.7441
X7.5787Y-4.7835
X7.5787Y-4.8228
X7.5935Y-1.0748
X7.5984Y-4.5472
X7.5984Y-4.5866
X7.5984Y-4.7244
X7.5984Y-4.7638
X7.5984Y-4.8031
X7.6181Y-4.7441
X7.6181Y-4.7835
X7.6181Y-4.8228
X7.6191Y-4.5069
X7.6378Y-4.7638
X7.6378Y-4.8031
X7.6535Y-3.3425
X7.6575Y-4.5276
X7.6575Y-4.7441
X7.6575Y-4.7835
X7.6575Y-4.8228
X7.6772Y-4.5079
X7.6772Y-4.7638
X7.6772Y-4.8031
X7.6969Y-4.5276
X7.6969Y-4.7441
X7.6969Y-4.7835
X7.6969Y-4.8228
X7.7126Y-1.8671
X7.7165Y-4.5079
X7.7165Y-4.7638
X7.7165Y-4.8031
X7.7362Y-4.5276
X7.7362Y-4.7441
X7.7362Y-4.7835
X7.7362Y-4.8228
X7.7559Y-4.5079
X7.7559Y-4.5472
X7.7559Y-4.7244
X7.7559Y-4.7638
X7.7559Y-4.8031
X7.7756Y-4.5276
X7.7756Y-4.5669
X7.7756Y-4.6063
X7.7756Y-4.7047
X7.7756Y-4.7441
X7.7756Y-4.7835
X7.7953Y-4.5079
X7.7953Y-4.5472
X7.874Y-4.4685
X7.9553Y-1.8103
X8.2061Y-2.7165
T2
X5.8126Y-1.2237
X5.9272Y-1.7057
X5.9843Y-4.4882
X6.0236Y-4.4882
X6.063Y-4.4882
X6.0986Y-3.3521
X6.1024Y-4.4882
X6.1417Y-4.4882
X6.1417Y-4.5866
X6.1811Y-4.4882
X6.2142Y-1.2394
X6.2205Y-4.4882
X6.2598Y-4.4882
X6.2992Y-4.4882
X6.3033Y-3.8344
X6.3287Y-1.7214
X6.3386Y-4.4882
X6.378Y-4.4882
X6.4173Y-4.4882
X6.4567Y-4.4882
X6.4961Y-4.4882
X6.5354Y-4.4882
X6.5748Y-4.4882
X6.5986Y-1.2523
X6.6142Y-4.4882
X6.6378Y-3.9774
X6.6535Y-4.4882
X6.6929Y-4.4882
X6.7148Y-1.7346
X6.7208Y-3.3634
X6.7323Y-4.4882
X6.7717Y-4.4882
X6.811Y-4.4882
X6.8504Y-4.4882
X6.8898Y-4.4882
X6.9255Y-3.8457
X6.9291Y-4.4882
X6.9685Y-4.4882
X7.0079Y-4.4882
X7.0472Y-4.4882
X7.0866Y-4.4882
X7.126Y-4.4882
X7.1654Y-4.4882
X7.2047Y-4.4882
X7.2123Y-3.9764
X7.2441Y-4.4882
X7.277Y-3.3473
X7.2835Y-4.4882
X7.3228Y-4.4882
X7.3622Y-4.4882
X7.4817Y-3.8296
X7.7615Y-3.9469
T3
X1.4764Y-2.8976
X1.5256Y-2.8976
X1.5748Y-2.8976
X1.624Y-2.8976
T4
X1.3581Y-1.1528
X1.3801Y-5.6803
X1.3952Y-1.063
X1.3952Y-1.2426
X1.4173Y-5.5906
X1.4173Y-5.7701
X1.485Y-1.0258
X1.485Y-1.2797
X1.5071Y-5.5534
X1.5071Y-5.8073
X1.5748Y-1.063
X1.5748Y-1.2426
X1.5969Y-5.5906
X1.5969Y-5.7701
X1.612Y-1.1528
X1.6341Y-5.6803
X7.8368Y-1.2488
X7.874Y-1.159
X7.874Y-1.3386
X7.9134Y-5.7087
X7.9506Y-5.6189
X7.9506Y-5.7984
X7.9638Y-1.1218
X7.9638Y-1.3758
X8.0404Y-5.5817
X8.0404Y-5.8356
X8.0536Y-1.159
X8.0536Y-1.3386
X8.0908Y-1.2488
X8.1301Y-5.6189
X8.1301Y-5.7984
X8.1673Y-5.7087
T5
X1.35Y-5.3345
X2.8083Y-1.1655
X2.8406Y-1.1978
X2.9913Y-2.0701
X3.0236Y-2.1024
X3.6516Y-4.2224
X3.6839Y-4.2547
X3.83Y-5.1223
X3.8623Y-5.1546
T6
X2.6264Y-4.2126
X2.7264Y-4.2126
X5.7024Y-1.0859
X5.7812Y-1.0859
X6.1033Y-1.0984
X6.1821Y-1.0984
X6.3394Y-3.9764
X6.4181Y-3.9764
X6.4932Y-1.1058
X6.5719Y-1.1058
X6.9566Y-3.9838
X7.0353Y-3.9838
X7.5167Y-3.9724
X7.5955Y-3.9724
T7
X1.4252Y-1.8213
X1.4252Y-1.9213
X1.4252Y-2.0213
X1.4252Y-2.1213
X1.4252Y-2.2213
X1.4252Y-2.3213
X1.4252Y-2.4213
X1.4911Y-3.7732
X1.4911Y-3.8732
X1.4911Y-3.9732
X1.4911Y-4.0732
X1.5748Y-2.5197
X1.7451Y-2.5246
X1.7598Y-1.0604
X1.7598Y-1.1604
X1.7598Y-1.2604
X1.7598Y-1.3604
X1.7598Y-1.4604
X1.8189Y-3.1665
X2.599Y-3.5344
X2.699Y-3.5344
X6.2037Y-4.1563
X6.2037Y-4.2563
X6.2037Y-4.3563
X6.5167Y-4.1588
X6.5167Y-4.2588
X6.5167Y-4.3588
X6.8307Y-4.1671
X6.8307Y-4.2671
X6.8307Y-4.3671
X7.1457Y-4.1701
X7.1457Y-4.2701
X7.1457Y-4.3701
X7.4626Y-4.1701
X7.4626Y-4.2701
X7.4626Y-4.3701
X7.7736Y-4.1701
X7.7736Y-4.2701
X7.7736Y-4.3701
T8
X6.0309Y-2.0933
X6.0309Y-2.7933
X6.04Y-2.3433
X6.04Y-2.4433
X6.04Y-2.5433
X6.1309Y-2.0933
X6.1309Y-2.7933
X6.2309Y-2.0933
X6.2309Y-2.7933
X6.3309Y-2.0933
X6.3309Y-2.7933
X6.4309Y-2.0933
X6.4309Y-2.7933
X6.5309Y-2.0933
X6.5309Y-2.7933
X6.6309Y-2.0933
X6.6309Y-2.7933
X6.7309Y-2.0933
X6.7309Y-2.7933
X6.8309Y-2.0933
X6.8309Y-2.7933
X6.9309Y-2.0933
X6.9309Y-2.7933
X7.0309Y-2.0933
X7.0309Y-2.7933
X7.1309Y-2.0933
X7.1309Y-2.7933
X7.2309Y-2.0933
X7.2309Y-2.7933
X7.3309Y-2.0933
X7.3309Y-2.7933
X7.4309Y-2.0933
X7.4309Y-2.7933
X7.5309Y-2.0933
X7.5309Y-2.7933
X7.6309Y-2.0933
X7.6309Y-2.7933
X7.7309Y-2.0933
X7.7309Y-2.7933
X7.8309Y-2.0933
X7.8309Y-2.7933
X7.9309Y-2.0933
X7.9309Y-2.7933
T9
X2.6018Y-3.7825
X2.7018Y-3.7825
X4.6811Y-1.7093
X4.6811Y-1.9061
X4.689Y-1.1738
X4.689Y-1.3707
X4.689Y-2.2638
X4.689Y-2.4606
X5.5787Y-5.5945
X5.6417Y-3.7421
X5.6417Y-3.939
X5.7756Y-5.5945
X6.3967Y-5.7598
X6.5344Y-5.7598
X6.751Y-5.7598
X6.8888Y-5.7598
X7.1053Y-5.7598
X7.2431Y-5.7598
X7.4596Y-5.7598
X7.5974Y-5.7598
X7.9528Y-4.8819
X7.9528Y-5.0197
X7.9528Y-5.2362
X7.9528Y-5.374
T10
X2.2793Y-1.9195
X2.2793Y-2.5195
X3.2402Y-4.3772
X3.2402Y-4.9772
X4.1809Y-1.9195
X4.1809Y-2.2195
X4.1809Y-2.5195
X5.1417Y-4.3772
X5.1417Y-4.6772
X5.1417Y-4.9772
T11
X6.249Y-4.8957
X6.249Y-5.1957
X6.249Y-5.4957
X7.349Y-5.0457
X7.349Y-5.1957
X7.349Y-5.3457
T12
X7.349Y-4.8957
X7.349Y-5.4957
T13
X1.5108Y-3.4902
X1.5108Y-4.3563
X2.377Y-3.4902
X2.377Y-4.3563
T14
X2.2793Y-1.5195
X2.2793Y-2.9195
X3.2402Y-3.9772
X3.2402Y-5.3772
X4.1809Y-1.5195
X4.1809Y-2.9195
X5.1417Y-3.9772
X5.1417Y-5.3772
T15
X4.6339Y-2.9154
X4.6339Y-3.1122
X4.9193Y-2.9154
X4.9193Y-3.1122
X5.0915Y-1.3593
X5.0915Y-1.5561
X5.125Y-1.8356
X5.125Y-2.0325
X5.1417Y-2.3179
X5.1417Y-2.5148
X5.2205Y-2.9173
X5.2205Y-3.1142
X5.4291Y-1.3701
X5.4291Y-1.5669
X5.4321Y-1.8356
X5.4321Y-2.0325
X5.4429Y-2.315
X5.4429Y-2.5118
X5.4941Y-2.9163
X5.4941Y-3.1132
X5.5551Y-4.3071
X5.5591Y-4.5623
X5.56Y-4.8543
X5.5689Y-5.1329
X5.752Y-4.3071
X5.7559Y-4.5623
X5.7569Y-4.8543
X5.7657Y-5.1329
T16
X1.485Y-1.1528
X1.5071Y-5.6803
X7.9638Y-1.2488
X8.0404Y-5.7087
T17
X2.063Y-5.6299
X2.3465Y-5.6299
M30
