%TF.GenerationSoftware,KiCad,Pcbnew,8.0.8-8.0.8-0~ubuntu22.04.1*%
%TF.CreationDate,2025-01-31T14:52:16-08:00*%
%TF.ProjectId,Backplane_Board,4261636b-706c-4616-9e65-5f426f617264,1*%
%TF.SameCoordinates,Original*%
%TF.FileFunction,Paste,Top*%
%TF.FilePolarity,Positive*%
%FSLAX46Y46*%
G04 Gerber Fmt 4.6, Leading zero omitted, Abs format (unit mm)*
G04 Created by KiCad (PCBNEW 8.0.8-8.0.8-0~ubuntu22.04.1) date 2025-01-31 14:52:16*
%MOMM*%
%LPD*%
G01*
G04 APERTURE LIST*
G04 Aperture macros list*
%AMRoundRect*
0 Rectangle with rounded corners*
0 $1 Rounding radius*
0 $2 $3 $4 $5 $6 $7 $8 $9 X,Y pos of 4 corners*
0 Add a 4 corners polygon primitive as box body*
4,1,4,$2,$3,$4,$5,$6,$7,$8,$9,$2,$3,0*
0 Add four circle primitives for the rounded corners*
1,1,$1+$1,$2,$3*
1,1,$1+$1,$4,$5*
1,1,$1+$1,$6,$7*
1,1,$1+$1,$8,$9*
0 Add four rect primitives between the rounded corners*
20,1,$1+$1,$2,$3,$4,$5,0*
20,1,$1+$1,$4,$5,$6,$7,0*
20,1,$1+$1,$6,$7,$8,$9,0*
20,1,$1+$1,$8,$9,$2,$3,0*%
%AMFreePoly0*
4,1,9,5.362500,-0.866500,1.237500,-0.866500,1.237500,-0.450000,-1.237500,-0.450000,-1.237500,0.450000,1.237500,0.450000,1.237500,0.866500,5.362500,0.866500,5.362500,-0.866500,5.362500,-0.866500,$1*%
G04 Aperture macros list end*
%ADD10RoundRect,0.250000X0.300000X0.300000X-0.300000X0.300000X-0.300000X-0.300000X0.300000X-0.300000X0*%
%ADD11RoundRect,0.250000X-0.350000X-0.450000X0.350000X-0.450000X0.350000X0.450000X-0.350000X0.450000X0*%
%ADD12RoundRect,0.218750X-0.256250X0.218750X-0.256250X-0.218750X0.256250X-0.218750X0.256250X0.218750X0*%
%ADD13R,1.570000X1.235000*%
%ADD14R,1.570000X1.585000*%
%ADD15R,0.490000X0.490000*%
%ADD16RoundRect,0.122500X-0.122500X0.122500X-0.122500X-0.122500X0.122500X-0.122500X0.122500X0.122500X0*%
%ADD17RoundRect,0.250000X0.350000X0.450000X-0.350000X0.450000X-0.350000X-0.450000X0.350000X-0.450000X0*%
%ADD18RoundRect,0.250000X-0.450000X0.350000X-0.450000X-0.350000X0.450000X-0.350000X0.450000X0.350000X0*%
%ADD19RoundRect,0.250000X-0.262500X-0.450000X0.262500X-0.450000X0.262500X0.450000X-0.262500X0.450000X0*%
%ADD20RoundRect,0.050000X-0.250000X0.100000X-0.250000X-0.100000X0.250000X-0.100000X0.250000X0.100000X0*%
%ADD21RoundRect,0.150000X0.150000X-0.587500X0.150000X0.587500X-0.150000X0.587500X-0.150000X-0.587500X0*%
%ADD22RoundRect,0.250000X0.475000X-0.250000X0.475000X0.250000X-0.475000X0.250000X-0.475000X-0.250000X0*%
%ADD23RoundRect,0.243750X-0.456250X0.243750X-0.456250X-0.243750X0.456250X-0.243750X0.456250X0.243750X0*%
%ADD24RoundRect,0.250000X-0.700000X0.275000X-0.700000X-0.275000X0.700000X-0.275000X0.700000X0.275000X0*%
%ADD25RoundRect,0.250000X1.450000X-0.312500X1.450000X0.312500X-1.450000X0.312500X-1.450000X-0.312500X0*%
%ADD26RoundRect,0.250000X-0.475000X0.250000X-0.475000X-0.250000X0.475000X-0.250000X0.475000X0.250000X0*%
%ADD27R,2.500000X7.500000*%
%ADD28RoundRect,0.150000X-0.150000X0.587500X-0.150000X-0.587500X0.150000X-0.587500X0.150000X0.587500X0*%
%ADD29RoundRect,0.218750X0.256250X-0.218750X0.256250X0.218750X-0.256250X0.218750X-0.256250X-0.218750X0*%
%ADD30RoundRect,0.250000X1.500000X0.550000X-1.500000X0.550000X-1.500000X-0.550000X1.500000X-0.550000X0*%
%ADD31RoundRect,0.250000X0.262500X0.450000X-0.262500X0.450000X-0.262500X-0.450000X0.262500X-0.450000X0*%
%ADD32RoundRect,0.250000X0.400000X0.625000X-0.400000X0.625000X-0.400000X-0.625000X0.400000X-0.625000X0*%
%ADD33RoundRect,0.218750X-0.218750X-0.256250X0.218750X-0.256250X0.218750X0.256250X-0.218750X0.256250X0*%
%ADD34RoundRect,0.250000X-0.412500X-0.650000X0.412500X-0.650000X0.412500X0.650000X-0.412500X0.650000X0*%
%ADD35RoundRect,0.218750X0.218750X0.256250X-0.218750X0.256250X-0.218750X-0.256250X0.218750X-0.256250X0*%
%ADD36RoundRect,0.225000X0.925000X0.225000X-0.925000X0.225000X-0.925000X-0.225000X0.925000X-0.225000X0*%
%ADD37FreePoly0,180.000000*%
%ADD38R,2.235000X1.725000*%
%ADD39R,0.355600X0.762000*%
%ADD40RoundRect,0.250000X0.450000X-0.350000X0.450000X0.350000X-0.450000X0.350000X-0.450000X-0.350000X0*%
%ADD41RoundRect,0.250000X-0.300000X0.300000X-0.300000X-0.300000X0.300000X-0.300000X0.300000X0.300000X0*%
%ADD42RoundRect,0.250000X0.700000X-0.275000X0.700000X0.275000X-0.700000X0.275000X-0.700000X-0.275000X0*%
%ADD43RoundRect,0.150000X-0.150000X-0.625000X0.150000X-0.625000X0.150000X0.625000X-0.150000X0.625000X0*%
%ADD44RoundRect,0.250000X-0.350000X-0.650000X0.350000X-0.650000X0.350000X0.650000X-0.350000X0.650000X0*%
%ADD45RoundRect,0.250000X-0.625000X0.400000X-0.625000X-0.400000X0.625000X-0.400000X0.625000X0.400000X0*%
%ADD46R,0.700000X1.750000*%
%ADD47R,1.450000X1.000000*%
%ADD48R,1.000000X1.550000*%
%ADD49R,0.800000X1.500000*%
%ADD50R,1.300000X1.500000*%
%ADD51R,1.500000X1.500000*%
%ADD52R,0.800000X1.400000*%
%ADD53RoundRect,0.150000X-0.625000X0.150000X-0.625000X-0.150000X0.625000X-0.150000X0.625000X0.150000X0*%
%ADD54RoundRect,0.250000X-0.650000X0.350000X-0.650000X-0.350000X0.650000X-0.350000X0.650000X0.350000X0*%
%ADD55RoundRect,0.250000X-0.300000X-0.300000X0.300000X-0.300000X0.300000X0.300000X-0.300000X0.300000X0*%
%ADD56RoundRect,0.237500X0.300000X0.237500X-0.300000X0.237500X-0.300000X-0.237500X0.300000X-0.237500X0*%
%ADD57R,0.711200X0.304800*%
%ADD58R,1.397000X1.193800*%
G04 APERTURE END LIST*
D10*
%TO.C,D24*%
X193625037Y-93750000D03*
X190825037Y-93750000D03*
%TD*%
D11*
%TO.C,R46*%
X200500000Y-119250000D03*
X202500000Y-119250000D03*
%TD*%
D12*
%TO.C,D19*%
X145841250Y-31193825D03*
X145841250Y-32768825D03*
%TD*%
D13*
%TO.C,Q1*%
X51905000Y-131052500D03*
X49715000Y-131052500D03*
D14*
X51905000Y-132962500D03*
X49715000Y-132962500D03*
D15*
X52715000Y-134650000D03*
X51445000Y-134650000D03*
X50175000Y-134650000D03*
X48905000Y-134650000D03*
D16*
X48905000Y-129050000D03*
X52715000Y-129050000D03*
X51445000Y-129050000D03*
X50175000Y-129050000D03*
%TD*%
D17*
%TO.C,R6*%
X98500000Y-65250000D03*
X96500000Y-65250000D03*
%TD*%
D18*
%TO.C,R13*%
X119275000Y-119900000D03*
X119275000Y-121900000D03*
%TD*%
D19*
%TO.C,R43*%
X174387500Y-84550000D03*
X176212500Y-84550000D03*
%TD*%
D20*
%TO.C,D1*%
X34290000Y-128322500D03*
X34290000Y-129022500D03*
%TD*%
D21*
%TO.C,Q4*%
X167127187Y-39824762D03*
X169027187Y-39824762D03*
X168077187Y-37949762D03*
%TD*%
D12*
%TO.C,D11*%
X163927187Y-31799762D03*
X163927187Y-33374762D03*
%TD*%
D22*
%TO.C,C24*%
X163069925Y-86925000D03*
X163069925Y-85025000D03*
%TD*%
D10*
%TO.C,D25*%
X179500000Y-94200000D03*
X176700000Y-94200000D03*
%TD*%
D23*
%TO.C,F9*%
X142291250Y-41493825D03*
X142291250Y-43368825D03*
%TD*%
D21*
%TO.C,Q5*%
X157312500Y-39537500D03*
X159212500Y-39537500D03*
X158262500Y-37662500D03*
%TD*%
D24*
%TO.C,R5*%
X103500000Y-58425000D03*
X103500000Y-61575000D03*
%TD*%
D25*
%TO.C,F5*%
X161500000Y-112462500D03*
X161500000Y-108187500D03*
%TD*%
D26*
%TO.C,C21*%
X164577187Y-42287262D03*
X164577187Y-44187262D03*
%TD*%
D27*
%TO.C,C1*%
X74000000Y-48075000D03*
X74000000Y-34575000D03*
%TD*%
D28*
%TO.C,Q8*%
X190625037Y-89175000D03*
X188725037Y-89175000D03*
X189675037Y-91050000D03*
%TD*%
D29*
%TO.C,D20*%
X163719925Y-97362500D03*
X163719925Y-95787500D03*
%TD*%
D30*
%TO.C,C19*%
X177225000Y-124850000D03*
X171825000Y-124850000D03*
%TD*%
D29*
%TO.C,D27*%
X191875037Y-97287500D03*
X191875037Y-95712500D03*
%TD*%
D31*
%TO.C,R33*%
X149003750Y-44231325D03*
X147178750Y-44231325D03*
%TD*%
D24*
%TO.C,R4*%
X103150000Y-50725000D03*
X103150000Y-53875000D03*
%TD*%
D26*
%TO.C,C23*%
X144491250Y-41531325D03*
X144491250Y-43431325D03*
%TD*%
D32*
%TO.C,R8*%
X99000000Y-49800000D03*
X95900000Y-49800000D03*
%TD*%
%TO.C,R9*%
X99000000Y-53450000D03*
X95900000Y-53450000D03*
%TD*%
D33*
%TO.C,D7*%
X161462500Y-116500000D03*
X163037500Y-116500000D03*
%TD*%
D23*
%TO.C,F7*%
X162477187Y-42199762D03*
X162477187Y-44074762D03*
%TD*%
D32*
%TO.C,R10*%
X99000000Y-57150000D03*
X95900000Y-57150000D03*
%TD*%
D18*
%TO.C,R52*%
X178550000Y-75050000D03*
X178550000Y-77050000D03*
%TD*%
D32*
%TO.C,R21*%
X208435000Y-67000000D03*
X205335000Y-67000000D03*
%TD*%
D29*
%TO.C,D22*%
X193725037Y-97237500D03*
X193725037Y-95662500D03*
%TD*%
D34*
%TO.C,C18*%
X110387500Y-107225000D03*
X113512500Y-107225000D03*
%TD*%
D28*
%TO.C,Q9*%
X176450000Y-89575000D03*
X174550000Y-89575000D03*
X175500000Y-91450000D03*
%TD*%
D22*
%TO.C,C25*%
X192975037Y-86800000D03*
X192975037Y-84900000D03*
%TD*%
D31*
%TO.C,R32*%
X159350000Y-44600000D03*
X157525000Y-44600000D03*
%TD*%
D19*
%TO.C,R42*%
X188562537Y-84150000D03*
X190387537Y-84150000D03*
%TD*%
D31*
%TO.C,R41*%
X160632425Y-86625000D03*
X158807425Y-86625000D03*
%TD*%
D19*
%TO.C,R35*%
X157312500Y-42250000D03*
X159137500Y-42250000D03*
%TD*%
D25*
%TO.C,F4*%
X153575000Y-112537500D03*
X153575000Y-108262500D03*
%TD*%
D35*
%TO.C,D2*%
X96324300Y-140050000D03*
X94749300Y-140050000D03*
%TD*%
D12*
%TO.C,D12*%
X154225000Y-31562500D03*
X154225000Y-33137500D03*
%TD*%
D29*
%TO.C,D30*%
X173525000Y-80437500D03*
X173525000Y-78862500D03*
%TD*%
D17*
%TO.C,R48*%
X151850000Y-76025000D03*
X149850000Y-76025000D03*
%TD*%
D23*
%TO.C,F10*%
X168600000Y-98087500D03*
X168600000Y-99962500D03*
%TD*%
D25*
%TO.C,F2*%
X185525000Y-113000000D03*
X185525000Y-108725000D03*
%TD*%
D36*
%TO.C,U1*%
X92125000Y-146075000D03*
D37*
X92037500Y-144575000D03*
D36*
X92125000Y-143075000D03*
%TD*%
D23*
%TO.C,F12*%
X183192575Y-98125000D03*
X183192575Y-100000000D03*
%TD*%
D25*
%TO.C,F1*%
X193450000Y-112887500D03*
X193450000Y-108612500D03*
%TD*%
D34*
%TO.C,C9*%
X89787500Y-46000000D03*
X92912500Y-46000000D03*
%TD*%
D33*
%TO.C,D3*%
X100675000Y-65250000D03*
X102250000Y-65250000D03*
%TD*%
D19*
%TO.C,R38*%
X193525037Y-89850000D03*
X195350037Y-89850000D03*
%TD*%
%TO.C,R34*%
X167114687Y-42587262D03*
X168939687Y-42587262D03*
%TD*%
D29*
%TO.C,D28*%
X177750000Y-97637500D03*
X177750000Y-96062500D03*
%TD*%
D21*
%TO.C,Q6*%
X147091250Y-39268825D03*
X148991250Y-39268825D03*
X148041250Y-37393825D03*
%TD*%
D11*
%TO.C,R3*%
X32850000Y-107525000D03*
X34850000Y-107525000D03*
%TD*%
D38*
%TO.C,Q3*%
X195157600Y-117372800D03*
D39*
X194168800Y-116277000D03*
X194829200Y-116277000D03*
X195489600Y-116277000D03*
X196150000Y-116277000D03*
X196150000Y-119325000D03*
X194168800Y-119325000D03*
X194829200Y-119325000D03*
X195489600Y-119325000D03*
%TD*%
D40*
%TO.C,R51*%
X195025000Y-32125000D03*
X195025000Y-30125000D03*
%TD*%
D32*
%TO.C,R14*%
X119350000Y-95975000D03*
X116250000Y-95975000D03*
%TD*%
D41*
%TO.C,D6*%
X199000000Y-75000000D03*
X199000000Y-77800000D03*
%TD*%
D32*
%TO.C,R15*%
X119350000Y-99725000D03*
X116250000Y-99725000D03*
%TD*%
D22*
%TO.C,C26*%
X178750000Y-87300000D03*
X178750000Y-85400000D03*
%TD*%
D12*
%TO.C,D17*%
X165777187Y-31749762D03*
X165777187Y-33324762D03*
%TD*%
D17*
%TO.C,R47*%
X156000000Y-76000000D03*
X154000000Y-76000000D03*
%TD*%
D10*
%TO.C,D21*%
X163669925Y-93875000D03*
X160869925Y-93875000D03*
%TD*%
D31*
%TO.C,R44*%
X190487537Y-86450000D03*
X188662537Y-86450000D03*
%TD*%
%TO.C,R45*%
X176350000Y-86900000D03*
X174525000Y-86900000D03*
%TD*%
D42*
%TO.C,R18*%
X183275000Y-137275000D03*
X183275000Y-134125000D03*
%TD*%
D28*
%TO.C,Q7*%
X160669925Y-89300000D03*
X158769925Y-89300000D03*
X159719925Y-91175000D03*
%TD*%
D25*
%TO.C,F6*%
X169525000Y-112812500D03*
X169525000Y-108537500D03*
%TD*%
D34*
%TO.C,C12*%
X89637500Y-57200000D03*
X92762500Y-57200000D03*
%TD*%
D19*
%TO.C,R39*%
X179400000Y-90400000D03*
X181225000Y-90400000D03*
%TD*%
%TO.C,R37*%
X163607425Y-89925000D03*
X165432425Y-89925000D03*
%TD*%
D29*
%TO.C,D4*%
X119145000Y-117945000D03*
X119145000Y-116370000D03*
%TD*%
D18*
%TO.C,R50*%
X173500000Y-75100000D03*
X173500000Y-77100000D03*
%TD*%
D34*
%TO.C,C11*%
X89725000Y-53450000D03*
X92850000Y-53450000D03*
%TD*%
D43*
%TO.C,J33*%
X146450000Y-51615000D03*
X147450000Y-51615000D03*
X148450000Y-51615000D03*
D44*
X145150000Y-49090000D03*
X149750000Y-49090000D03*
%TD*%
D34*
%TO.C,C4*%
X95449300Y-143000000D03*
X98574300Y-143000000D03*
%TD*%
D40*
%TO.C,R23*%
X200500000Y-117000000D03*
X200500000Y-115000000D03*
%TD*%
D31*
%TO.C,R29*%
X154387500Y-38800000D03*
X152562500Y-38800000D03*
%TD*%
D45*
%TO.C,R1*%
X34290000Y-130772500D03*
X34290000Y-133872500D03*
%TD*%
D31*
%TO.C,R30*%
X144141250Y-38581325D03*
X142316250Y-38581325D03*
%TD*%
D32*
%TO.C,R22*%
X208550000Y-71000000D03*
X205450000Y-71000000D03*
%TD*%
D27*
%TO.C,C2*%
X95050000Y-126275000D03*
X95050000Y-112775000D03*
%TD*%
D31*
%TO.C,R31*%
X169027187Y-45087262D03*
X167202187Y-45087262D03*
%TD*%
D34*
%TO.C,C3*%
X96261800Y-145575000D03*
X99386800Y-145575000D03*
%TD*%
D46*
%TO.C,J44*%
X182525000Y-26625000D03*
X183625000Y-26625000D03*
X184725000Y-26625000D03*
X185825000Y-26625000D03*
X186925000Y-26625000D03*
X188025000Y-26625000D03*
X189125000Y-26625000D03*
X190225000Y-26625000D03*
D47*
X191350000Y-35850000D03*
D48*
X180125000Y-37425000D03*
D49*
X191675000Y-34350000D03*
D50*
X191425000Y-26750000D03*
D51*
X180075000Y-26750000D03*
D52*
X179725000Y-35000000D03*
%TD*%
D34*
%TO.C,C16*%
X110437500Y-99725000D03*
X113562500Y-99725000D03*
%TD*%
D32*
%TO.C,R17*%
X119350000Y-107225000D03*
X116250000Y-107225000D03*
%TD*%
D53*
%TO.C,J30*%
X203475000Y-44700000D03*
X203475000Y-45700000D03*
X203475000Y-46700000D03*
D54*
X206000000Y-43400000D03*
X206000000Y-48000000D03*
%TD*%
D55*
%TO.C,D16*%
X143991250Y-34631325D03*
X146791250Y-34631325D03*
%TD*%
D32*
%TO.C,R16*%
X119350000Y-103525000D03*
X116250000Y-103525000D03*
%TD*%
D17*
%TO.C,R20*%
X179275000Y-140950000D03*
X177275000Y-140950000D03*
%TD*%
D12*
%TO.C,D13*%
X143891250Y-31143825D03*
X143891250Y-32718825D03*
%TD*%
D42*
%TO.C,R19*%
X183275000Y-129775000D03*
X183275000Y-126625000D03*
%TD*%
D31*
%TO.C,R28*%
X164227187Y-39287262D03*
X162402187Y-39287262D03*
%TD*%
D33*
%TO.C,D5*%
X181700000Y-140950000D03*
X183275000Y-140950000D03*
%TD*%
D34*
%TO.C,C10*%
X89875000Y-49800000D03*
X93000000Y-49800000D03*
%TD*%
D24*
%TO.C,R11*%
X127250000Y-113425000D03*
X127250000Y-116575000D03*
%TD*%
D23*
%TO.C,F8*%
X152525000Y-41912500D03*
X152525000Y-43787500D03*
%TD*%
D17*
%TO.C,R24*%
X159500000Y-116500000D03*
X157500000Y-116500000D03*
%TD*%
D32*
%TO.C,R7*%
X99050000Y-46000000D03*
X95950000Y-46000000D03*
%TD*%
D24*
%TO.C,R12*%
X127000000Y-120925000D03*
X127000000Y-124075000D03*
%TD*%
D56*
%TO.C,C5*%
X35162500Y-119900000D03*
X33437500Y-119900000D03*
%TD*%
D29*
%TO.C,D31*%
X178550000Y-80362500D03*
X178550000Y-78787500D03*
%TD*%
D26*
%TO.C,C22*%
X154875000Y-42050000D03*
X154875000Y-43950000D03*
%TD*%
D19*
%TO.C,R40*%
X158744925Y-84175000D03*
X160569925Y-84175000D03*
%TD*%
D25*
%TO.C,F3*%
X177525000Y-112887500D03*
X177525000Y-108612500D03*
%TD*%
D34*
%TO.C,C15*%
X110487500Y-95975000D03*
X113612500Y-95975000D03*
%TD*%
D30*
%TO.C,C20*%
X177275000Y-134450000D03*
X171875000Y-134450000D03*
%TD*%
D19*
%TO.C,R36*%
X147191250Y-41881325D03*
X149016250Y-41881325D03*
%TD*%
D29*
%TO.C,D26*%
X161919925Y-97412500D03*
X161919925Y-95837500D03*
%TD*%
D57*
%TO.C,U2*%
X43250000Y-121800001D03*
X43250000Y-121200000D03*
X43250000Y-120000000D03*
X43250000Y-119400000D03*
X43250000Y-118800000D03*
X43250000Y-117599999D03*
D58*
X41400001Y-117549999D03*
D57*
X39550002Y-117599999D03*
X39550002Y-118200000D03*
X39550000Y-119400000D03*
X39550000Y-120000000D03*
X39550002Y-120600000D03*
X39550002Y-121800001D03*
D58*
X41400001Y-121850001D03*
%TD*%
D13*
%TO.C,Q2*%
X42680000Y-131052500D03*
X40490000Y-131052500D03*
D14*
X42680000Y-132962500D03*
X40490000Y-132962500D03*
D15*
X43490000Y-134650000D03*
X42220000Y-134650000D03*
X40950000Y-134650000D03*
X39680000Y-134650000D03*
D16*
X39680000Y-129050000D03*
X43490000Y-129050000D03*
X42220000Y-129050000D03*
X40950000Y-129050000D03*
%TD*%
D23*
%TO.C,F11*%
X197142650Y-97375000D03*
X197142650Y-99250000D03*
%TD*%
D12*
%TO.C,D18*%
X156025000Y-31550000D03*
X156025000Y-33125000D03*
%TD*%
D11*
%TO.C,R2*%
X98324300Y-140050000D03*
X100324300Y-140050000D03*
%TD*%
D29*
%TO.C,D23*%
X179600000Y-97637500D03*
X179600000Y-96062500D03*
%TD*%
D55*
%TO.C,D15*%
X154175000Y-35000000D03*
X156975000Y-35000000D03*
%TD*%
D34*
%TO.C,C17*%
X110337500Y-103525000D03*
X113462500Y-103525000D03*
%TD*%
D55*
%TO.C,D14*%
X164027187Y-35337262D03*
X166827187Y-35337262D03*
%TD*%
M02*
