%TF.GenerationSoftware,KiCad,Pcbnew,8.0.8-8.0.8-0~ubuntu22.04.1*%
%TF.CreationDate,2025-01-31T14:51:57-08:00*%
%TF.ProjectId,Backplane_Board,4261636b-706c-4616-9e65-5f426f617264,1*%
%TF.SameCoordinates,Original*%
%TF.FileFunction,Drillmap*%
%TF.FilePolarity,Positive*%
%FSLAX45Y45*%
G04 Gerber Fmt 4.5, Leading zero omitted, Abs format (unit mm)*
G04 Created by KiCad (PCBNEW 8.0.8-8.0.8-0~ubuntu22.04.1) date 2025-01-31 14:51:57*
%MOMM*%
%LPD*%
G01*
G04 APERTURE LIST*
%ADD10C,0.200000*%
%ADD11C,0.150000*%
%ADD12C,0.180000*%
%ADD13C,0.330000*%
G04 APERTURE END LIST*
D10*
X3130000Y-2340000D02*
X21102000Y-2340000D01*
X21102000Y-15130000D01*
X3130000Y-15130000D01*
X3130000Y-2340000D01*
D11*
X19753500Y-5888500D02*
X19903500Y-6038500D01*
X19903500Y-5888500D02*
X19753500Y-6038500D01*
X19753500Y-6373500D02*
X19903500Y-6523500D01*
X19903500Y-6373500D02*
X19753500Y-6523500D01*
D12*
X20221500Y-5933500D02*
G75*
G02*
X20041500Y-5933500I-90000J0D01*
G01*
X20041500Y-5933500D02*
G75*
G02*
X20221500Y-5933500I90000J0D01*
G01*
X20221500Y-6478500D02*
G75*
G02*
X20041500Y-6478500I-90000J0D01*
G01*
X20041500Y-6478500D02*
G75*
G02*
X20221500Y-6478500I90000J0D01*
G01*
D13*
X5789500Y-2932500D02*
X5789500Y-3262500D01*
X5624500Y-3097500D02*
X5954500Y-3097500D01*
X5789500Y-8012500D02*
X5789500Y-8342500D01*
X5624500Y-8177500D02*
X5954500Y-8177500D01*
X8230000Y-9175000D02*
X8230000Y-9505000D01*
X8065000Y-9340000D02*
X8395000Y-9340000D01*
X8230000Y-14255000D02*
X8230000Y-14585000D01*
X8065000Y-14420000D02*
X8395000Y-14420000D01*
X10619500Y-2932500D02*
X10619500Y-3262500D01*
X10454500Y-3097500D02*
X10784500Y-3097500D01*
X10619500Y-8012500D02*
X10619500Y-8342500D01*
X10454500Y-8177500D02*
X10784500Y-8177500D01*
X13060000Y-9175000D02*
X13060000Y-9505000D01*
X12895000Y-9340000D02*
X13225000Y-9340000D01*
X13060000Y-14255000D02*
X13060000Y-14585000D01*
X12895000Y-14420000D02*
X13225000Y-14420000D01*
D10*
X3380777Y-15451484D02*
X3380777Y-15251484D01*
X3380777Y-15251484D02*
X3428396Y-15251484D01*
X3428396Y-15251484D02*
X3456967Y-15261008D01*
X3456967Y-15261008D02*
X3476015Y-15280055D01*
X3476015Y-15280055D02*
X3485539Y-15299103D01*
X3485539Y-15299103D02*
X3495062Y-15337198D01*
X3495062Y-15337198D02*
X3495062Y-15365769D01*
X3495062Y-15365769D02*
X3485539Y-15403865D01*
X3485539Y-15403865D02*
X3476015Y-15422912D01*
X3476015Y-15422912D02*
X3456967Y-15441960D01*
X3456967Y-15441960D02*
X3428396Y-15451484D01*
X3428396Y-15451484D02*
X3380777Y-15451484D01*
X3580777Y-15451484D02*
X3580777Y-15318150D01*
X3580777Y-15356246D02*
X3590301Y-15337198D01*
X3590301Y-15337198D02*
X3599824Y-15327674D01*
X3599824Y-15327674D02*
X3618872Y-15318150D01*
X3618872Y-15318150D02*
X3637920Y-15318150D01*
X3704586Y-15451484D02*
X3704586Y-15318150D01*
X3704586Y-15251484D02*
X3695062Y-15261008D01*
X3695062Y-15261008D02*
X3704586Y-15270531D01*
X3704586Y-15270531D02*
X3714110Y-15261008D01*
X3714110Y-15261008D02*
X3704586Y-15251484D01*
X3704586Y-15251484D02*
X3704586Y-15270531D01*
X3828396Y-15451484D02*
X3809348Y-15441960D01*
X3809348Y-15441960D02*
X3799824Y-15422912D01*
X3799824Y-15422912D02*
X3799824Y-15251484D01*
X3933158Y-15451484D02*
X3914110Y-15441960D01*
X3914110Y-15441960D02*
X3904586Y-15422912D01*
X3904586Y-15422912D02*
X3904586Y-15251484D01*
X4161729Y-15451484D02*
X4161729Y-15251484D01*
X4161729Y-15251484D02*
X4228396Y-15394341D01*
X4228396Y-15394341D02*
X4295063Y-15251484D01*
X4295063Y-15251484D02*
X4295063Y-15451484D01*
X4476015Y-15451484D02*
X4476015Y-15346722D01*
X4476015Y-15346722D02*
X4466491Y-15327674D01*
X4466491Y-15327674D02*
X4447444Y-15318150D01*
X4447444Y-15318150D02*
X4409348Y-15318150D01*
X4409348Y-15318150D02*
X4390301Y-15327674D01*
X4476015Y-15441960D02*
X4456967Y-15451484D01*
X4456967Y-15451484D02*
X4409348Y-15451484D01*
X4409348Y-15451484D02*
X4390301Y-15441960D01*
X4390301Y-15441960D02*
X4380777Y-15422912D01*
X4380777Y-15422912D02*
X4380777Y-15403865D01*
X4380777Y-15403865D02*
X4390301Y-15384817D01*
X4390301Y-15384817D02*
X4409348Y-15375293D01*
X4409348Y-15375293D02*
X4456967Y-15375293D01*
X4456967Y-15375293D02*
X4476015Y-15365769D01*
X4571253Y-15318150D02*
X4571253Y-15518150D01*
X4571253Y-15327674D02*
X4590301Y-15318150D01*
X4590301Y-15318150D02*
X4628396Y-15318150D01*
X4628396Y-15318150D02*
X4647444Y-15327674D01*
X4647444Y-15327674D02*
X4656967Y-15337198D01*
X4656967Y-15337198D02*
X4666491Y-15356246D01*
X4666491Y-15356246D02*
X4666491Y-15413388D01*
X4666491Y-15413388D02*
X4656967Y-15432436D01*
X4656967Y-15432436D02*
X4647444Y-15441960D01*
X4647444Y-15441960D02*
X4628396Y-15451484D01*
X4628396Y-15451484D02*
X4590301Y-15451484D01*
X4590301Y-15451484D02*
X4571253Y-15441960D01*
X4752205Y-15432436D02*
X4761729Y-15441960D01*
X4761729Y-15441960D02*
X4752205Y-15451484D01*
X4752205Y-15451484D02*
X4742682Y-15441960D01*
X4742682Y-15441960D02*
X4752205Y-15432436D01*
X4752205Y-15432436D02*
X4752205Y-15451484D01*
X4752205Y-15327674D02*
X4761729Y-15337198D01*
X4761729Y-15337198D02*
X4752205Y-15346722D01*
X4752205Y-15346722D02*
X4742682Y-15337198D01*
X4742682Y-15337198D02*
X4752205Y-15327674D01*
X4752205Y-15327674D02*
X4752205Y-15346722D01*
D11*
X2970000Y-15705000D02*
X3120000Y-15855000D01*
X3120000Y-15705000D02*
X2970000Y-15855000D01*
D10*
X3485539Y-15871484D02*
X3371253Y-15871484D01*
X3428396Y-15871484D02*
X3428396Y-15671484D01*
X3428396Y-15671484D02*
X3409348Y-15700055D01*
X3409348Y-15700055D02*
X3390301Y-15719103D01*
X3390301Y-15719103D02*
X3371253Y-15728627D01*
X3571253Y-15852436D02*
X3580777Y-15861960D01*
X3580777Y-15861960D02*
X3571253Y-15871484D01*
X3571253Y-15871484D02*
X3561729Y-15861960D01*
X3561729Y-15861960D02*
X3571253Y-15852436D01*
X3571253Y-15852436D02*
X3571253Y-15871484D01*
X3761729Y-15671484D02*
X3666491Y-15671484D01*
X3666491Y-15671484D02*
X3656967Y-15766722D01*
X3656967Y-15766722D02*
X3666491Y-15757198D01*
X3666491Y-15757198D02*
X3685539Y-15747674D01*
X3685539Y-15747674D02*
X3733158Y-15747674D01*
X3733158Y-15747674D02*
X3752205Y-15757198D01*
X3752205Y-15757198D02*
X3761729Y-15766722D01*
X3761729Y-15766722D02*
X3771253Y-15785769D01*
X3771253Y-15785769D02*
X3771253Y-15833388D01*
X3771253Y-15833388D02*
X3761729Y-15852436D01*
X3761729Y-15852436D02*
X3752205Y-15861960D01*
X3752205Y-15861960D02*
X3733158Y-15871484D01*
X3733158Y-15871484D02*
X3685539Y-15871484D01*
X3685539Y-15871484D02*
X3666491Y-15861960D01*
X3666491Y-15861960D02*
X3656967Y-15852436D01*
X3895062Y-15671484D02*
X3914110Y-15671484D01*
X3914110Y-15671484D02*
X3933158Y-15681008D01*
X3933158Y-15681008D02*
X3942682Y-15690531D01*
X3942682Y-15690531D02*
X3952205Y-15709579D01*
X3952205Y-15709579D02*
X3961729Y-15747674D01*
X3961729Y-15747674D02*
X3961729Y-15795293D01*
X3961729Y-15795293D02*
X3952205Y-15833388D01*
X3952205Y-15833388D02*
X3942682Y-15852436D01*
X3942682Y-15852436D02*
X3933158Y-15861960D01*
X3933158Y-15861960D02*
X3914110Y-15871484D01*
X3914110Y-15871484D02*
X3895062Y-15871484D01*
X3895062Y-15871484D02*
X3876015Y-15861960D01*
X3876015Y-15861960D02*
X3866491Y-15852436D01*
X3866491Y-15852436D02*
X3856967Y-15833388D01*
X3856967Y-15833388D02*
X3847443Y-15795293D01*
X3847443Y-15795293D02*
X3847443Y-15747674D01*
X3847443Y-15747674D02*
X3856967Y-15709579D01*
X3856967Y-15709579D02*
X3866491Y-15690531D01*
X3866491Y-15690531D02*
X3876015Y-15681008D01*
X3876015Y-15681008D02*
X3895062Y-15671484D01*
X4085539Y-15671484D02*
X4104586Y-15671484D01*
X4104586Y-15671484D02*
X4123634Y-15681008D01*
X4123634Y-15681008D02*
X4133158Y-15690531D01*
X4133158Y-15690531D02*
X4142682Y-15709579D01*
X4142682Y-15709579D02*
X4152205Y-15747674D01*
X4152205Y-15747674D02*
X4152205Y-15795293D01*
X4152205Y-15795293D02*
X4142682Y-15833388D01*
X4142682Y-15833388D02*
X4133158Y-15852436D01*
X4133158Y-15852436D02*
X4123634Y-15861960D01*
X4123634Y-15861960D02*
X4104586Y-15871484D01*
X4104586Y-15871484D02*
X4085539Y-15871484D01*
X4085539Y-15871484D02*
X4066491Y-15861960D01*
X4066491Y-15861960D02*
X4056967Y-15852436D01*
X4056967Y-15852436D02*
X4047443Y-15833388D01*
X4047443Y-15833388D02*
X4037920Y-15795293D01*
X4037920Y-15795293D02*
X4037920Y-15747674D01*
X4037920Y-15747674D02*
X4047443Y-15709579D01*
X4047443Y-15709579D02*
X4056967Y-15690531D01*
X4056967Y-15690531D02*
X4066491Y-15681008D01*
X4066491Y-15681008D02*
X4085539Y-15671484D01*
X4237920Y-15871484D02*
X4237920Y-15738150D01*
X4237920Y-15757198D02*
X4247444Y-15747674D01*
X4247444Y-15747674D02*
X4266491Y-15738150D01*
X4266491Y-15738150D02*
X4295063Y-15738150D01*
X4295063Y-15738150D02*
X4314110Y-15747674D01*
X4314110Y-15747674D02*
X4323634Y-15766722D01*
X4323634Y-15766722D02*
X4323634Y-15871484D01*
X4323634Y-15766722D02*
X4333158Y-15747674D01*
X4333158Y-15747674D02*
X4352205Y-15738150D01*
X4352205Y-15738150D02*
X4380777Y-15738150D01*
X4380777Y-15738150D02*
X4399825Y-15747674D01*
X4399825Y-15747674D02*
X4409348Y-15766722D01*
X4409348Y-15766722D02*
X4409348Y-15871484D01*
X4504586Y-15871484D02*
X4504586Y-15738150D01*
X4504586Y-15757198D02*
X4514110Y-15747674D01*
X4514110Y-15747674D02*
X4533158Y-15738150D01*
X4533158Y-15738150D02*
X4561729Y-15738150D01*
X4561729Y-15738150D02*
X4580777Y-15747674D01*
X4580777Y-15747674D02*
X4590301Y-15766722D01*
X4590301Y-15766722D02*
X4590301Y-15871484D01*
X4590301Y-15766722D02*
X4599825Y-15747674D01*
X4599825Y-15747674D02*
X4618872Y-15738150D01*
X4618872Y-15738150D02*
X4647444Y-15738150D01*
X4647444Y-15738150D02*
X4666491Y-15747674D01*
X4666491Y-15747674D02*
X4676015Y-15766722D01*
X4676015Y-15766722D02*
X4676015Y-15871484D01*
X5066491Y-15661960D02*
X4895063Y-15919103D01*
X5323634Y-15671484D02*
X5342682Y-15671484D01*
X5342682Y-15671484D02*
X5361729Y-15681008D01*
X5361729Y-15681008D02*
X5371253Y-15690531D01*
X5371253Y-15690531D02*
X5380777Y-15709579D01*
X5380777Y-15709579D02*
X5390301Y-15747674D01*
X5390301Y-15747674D02*
X5390301Y-15795293D01*
X5390301Y-15795293D02*
X5380777Y-15833388D01*
X5380777Y-15833388D02*
X5371253Y-15852436D01*
X5371253Y-15852436D02*
X5361729Y-15861960D01*
X5361729Y-15861960D02*
X5342682Y-15871484D01*
X5342682Y-15871484D02*
X5323634Y-15871484D01*
X5323634Y-15871484D02*
X5304587Y-15861960D01*
X5304587Y-15861960D02*
X5295063Y-15852436D01*
X5295063Y-15852436D02*
X5285539Y-15833388D01*
X5285539Y-15833388D02*
X5276015Y-15795293D01*
X5276015Y-15795293D02*
X5276015Y-15747674D01*
X5276015Y-15747674D02*
X5285539Y-15709579D01*
X5285539Y-15709579D02*
X5295063Y-15690531D01*
X5295063Y-15690531D02*
X5304587Y-15681008D01*
X5304587Y-15681008D02*
X5323634Y-15671484D01*
X5476015Y-15852436D02*
X5485539Y-15861960D01*
X5485539Y-15861960D02*
X5476015Y-15871484D01*
X5476015Y-15871484D02*
X5466491Y-15861960D01*
X5466491Y-15861960D02*
X5476015Y-15852436D01*
X5476015Y-15852436D02*
X5476015Y-15871484D01*
X5609348Y-15671484D02*
X5628396Y-15671484D01*
X5628396Y-15671484D02*
X5647444Y-15681008D01*
X5647444Y-15681008D02*
X5656967Y-15690531D01*
X5656967Y-15690531D02*
X5666491Y-15709579D01*
X5666491Y-15709579D02*
X5676015Y-15747674D01*
X5676015Y-15747674D02*
X5676015Y-15795293D01*
X5676015Y-15795293D02*
X5666491Y-15833388D01*
X5666491Y-15833388D02*
X5656967Y-15852436D01*
X5656967Y-15852436D02*
X5647444Y-15861960D01*
X5647444Y-15861960D02*
X5628396Y-15871484D01*
X5628396Y-15871484D02*
X5609348Y-15871484D01*
X5609348Y-15871484D02*
X5590301Y-15861960D01*
X5590301Y-15861960D02*
X5580777Y-15852436D01*
X5580777Y-15852436D02*
X5571253Y-15833388D01*
X5571253Y-15833388D02*
X5561729Y-15795293D01*
X5561729Y-15795293D02*
X5561729Y-15747674D01*
X5561729Y-15747674D02*
X5571253Y-15709579D01*
X5571253Y-15709579D02*
X5580777Y-15690531D01*
X5580777Y-15690531D02*
X5590301Y-15681008D01*
X5590301Y-15681008D02*
X5609348Y-15671484D01*
X5856967Y-15671484D02*
X5761729Y-15671484D01*
X5761729Y-15671484D02*
X5752206Y-15766722D01*
X5752206Y-15766722D02*
X5761729Y-15757198D01*
X5761729Y-15757198D02*
X5780777Y-15747674D01*
X5780777Y-15747674D02*
X5828396Y-15747674D01*
X5828396Y-15747674D02*
X5847444Y-15757198D01*
X5847444Y-15757198D02*
X5856967Y-15766722D01*
X5856967Y-15766722D02*
X5866491Y-15785769D01*
X5866491Y-15785769D02*
X5866491Y-15833388D01*
X5866491Y-15833388D02*
X5856967Y-15852436D01*
X5856967Y-15852436D02*
X5847444Y-15861960D01*
X5847444Y-15861960D02*
X5828396Y-15871484D01*
X5828396Y-15871484D02*
X5780777Y-15871484D01*
X5780777Y-15871484D02*
X5761729Y-15861960D01*
X5761729Y-15861960D02*
X5752206Y-15852436D01*
X5961729Y-15871484D02*
X5999825Y-15871484D01*
X5999825Y-15871484D02*
X6018872Y-15861960D01*
X6018872Y-15861960D02*
X6028396Y-15852436D01*
X6028396Y-15852436D02*
X6047444Y-15823865D01*
X6047444Y-15823865D02*
X6056967Y-15785769D01*
X6056967Y-15785769D02*
X6056967Y-15709579D01*
X6056967Y-15709579D02*
X6047444Y-15690531D01*
X6047444Y-15690531D02*
X6037920Y-15681008D01*
X6037920Y-15681008D02*
X6018872Y-15671484D01*
X6018872Y-15671484D02*
X5980777Y-15671484D01*
X5980777Y-15671484D02*
X5961729Y-15681008D01*
X5961729Y-15681008D02*
X5952206Y-15690531D01*
X5952206Y-15690531D02*
X5942682Y-15709579D01*
X5942682Y-15709579D02*
X5942682Y-15757198D01*
X5942682Y-15757198D02*
X5952206Y-15776246D01*
X5952206Y-15776246D02*
X5961729Y-15785769D01*
X5961729Y-15785769D02*
X5980777Y-15795293D01*
X5980777Y-15795293D02*
X6018872Y-15795293D01*
X6018872Y-15795293D02*
X6037920Y-15785769D01*
X6037920Y-15785769D02*
X6047444Y-15776246D01*
X6047444Y-15776246D02*
X6056967Y-15757198D01*
X6247444Y-15871484D02*
X6133158Y-15871484D01*
X6190301Y-15871484D02*
X6190301Y-15671484D01*
X6190301Y-15671484D02*
X6171253Y-15700055D01*
X6171253Y-15700055D02*
X6152206Y-15719103D01*
X6152206Y-15719103D02*
X6133158Y-15728627D01*
X6323634Y-15671484D02*
X6323634Y-15709579D01*
X6399825Y-15671484D02*
X6399825Y-15709579D01*
X6695063Y-15947674D02*
X6685539Y-15938150D01*
X6685539Y-15938150D02*
X6666491Y-15909579D01*
X6666491Y-15909579D02*
X6656968Y-15890531D01*
X6656968Y-15890531D02*
X6647444Y-15861960D01*
X6647444Y-15861960D02*
X6637920Y-15814341D01*
X6637920Y-15814341D02*
X6637920Y-15776246D01*
X6637920Y-15776246D02*
X6647444Y-15728627D01*
X6647444Y-15728627D02*
X6656968Y-15700055D01*
X6656968Y-15700055D02*
X6666491Y-15681008D01*
X6666491Y-15681008D02*
X6685539Y-15652436D01*
X6685539Y-15652436D02*
X6695063Y-15642912D01*
X6761729Y-15690531D02*
X6771253Y-15681008D01*
X6771253Y-15681008D02*
X6790301Y-15671484D01*
X6790301Y-15671484D02*
X6837920Y-15671484D01*
X6837920Y-15671484D02*
X6856968Y-15681008D01*
X6856968Y-15681008D02*
X6866491Y-15690531D01*
X6866491Y-15690531D02*
X6876015Y-15709579D01*
X6876015Y-15709579D02*
X6876015Y-15728627D01*
X6876015Y-15728627D02*
X6866491Y-15757198D01*
X6866491Y-15757198D02*
X6752206Y-15871484D01*
X6752206Y-15871484D02*
X6876015Y-15871484D01*
X7114110Y-15871484D02*
X7114110Y-15671484D01*
X7199825Y-15871484D02*
X7199825Y-15766722D01*
X7199825Y-15766722D02*
X7190301Y-15747674D01*
X7190301Y-15747674D02*
X7171253Y-15738150D01*
X7171253Y-15738150D02*
X7142682Y-15738150D01*
X7142682Y-15738150D02*
X7123634Y-15747674D01*
X7123634Y-15747674D02*
X7114110Y-15757198D01*
X7323634Y-15871484D02*
X7304587Y-15861960D01*
X7304587Y-15861960D02*
X7295063Y-15852436D01*
X7295063Y-15852436D02*
X7285539Y-15833388D01*
X7285539Y-15833388D02*
X7285539Y-15776246D01*
X7285539Y-15776246D02*
X7295063Y-15757198D01*
X7295063Y-15757198D02*
X7304587Y-15747674D01*
X7304587Y-15747674D02*
X7323634Y-15738150D01*
X7323634Y-15738150D02*
X7352206Y-15738150D01*
X7352206Y-15738150D02*
X7371253Y-15747674D01*
X7371253Y-15747674D02*
X7380777Y-15757198D01*
X7380777Y-15757198D02*
X7390301Y-15776246D01*
X7390301Y-15776246D02*
X7390301Y-15833388D01*
X7390301Y-15833388D02*
X7380777Y-15852436D01*
X7380777Y-15852436D02*
X7371253Y-15861960D01*
X7371253Y-15861960D02*
X7352206Y-15871484D01*
X7352206Y-15871484D02*
X7323634Y-15871484D01*
X7504587Y-15871484D02*
X7485539Y-15861960D01*
X7485539Y-15861960D02*
X7476015Y-15842912D01*
X7476015Y-15842912D02*
X7476015Y-15671484D01*
X7656968Y-15861960D02*
X7637920Y-15871484D01*
X7637920Y-15871484D02*
X7599825Y-15871484D01*
X7599825Y-15871484D02*
X7580777Y-15861960D01*
X7580777Y-15861960D02*
X7571253Y-15842912D01*
X7571253Y-15842912D02*
X7571253Y-15766722D01*
X7571253Y-15766722D02*
X7580777Y-15747674D01*
X7580777Y-15747674D02*
X7599825Y-15738150D01*
X7599825Y-15738150D02*
X7637920Y-15738150D01*
X7637920Y-15738150D02*
X7656968Y-15747674D01*
X7656968Y-15747674D02*
X7666491Y-15766722D01*
X7666491Y-15766722D02*
X7666491Y-15785769D01*
X7666491Y-15785769D02*
X7571253Y-15804817D01*
X7742682Y-15861960D02*
X7761730Y-15871484D01*
X7761730Y-15871484D02*
X7799825Y-15871484D01*
X7799825Y-15871484D02*
X7818872Y-15861960D01*
X7818872Y-15861960D02*
X7828396Y-15842912D01*
X7828396Y-15842912D02*
X7828396Y-15833388D01*
X7828396Y-15833388D02*
X7818872Y-15814341D01*
X7818872Y-15814341D02*
X7799825Y-15804817D01*
X7799825Y-15804817D02*
X7771253Y-15804817D01*
X7771253Y-15804817D02*
X7752206Y-15795293D01*
X7752206Y-15795293D02*
X7742682Y-15776246D01*
X7742682Y-15776246D02*
X7742682Y-15766722D01*
X7742682Y-15766722D02*
X7752206Y-15747674D01*
X7752206Y-15747674D02*
X7771253Y-15738150D01*
X7771253Y-15738150D02*
X7799825Y-15738150D01*
X7799825Y-15738150D02*
X7818872Y-15747674D01*
X7895063Y-15947674D02*
X7904587Y-15938150D01*
X7904587Y-15938150D02*
X7923634Y-15909579D01*
X7923634Y-15909579D02*
X7933158Y-15890531D01*
X7933158Y-15890531D02*
X7942682Y-15861960D01*
X7942682Y-15861960D02*
X7952206Y-15814341D01*
X7952206Y-15814341D02*
X7952206Y-15776246D01*
X7952206Y-15776246D02*
X7942682Y-15728627D01*
X7942682Y-15728627D02*
X7933158Y-15700055D01*
X7933158Y-15700055D02*
X7923634Y-15681008D01*
X7923634Y-15681008D02*
X7904587Y-15652436D01*
X7904587Y-15652436D02*
X7895063Y-15642912D01*
X8256968Y-15947674D02*
X8247444Y-15938150D01*
X8247444Y-15938150D02*
X8228396Y-15909579D01*
X8228396Y-15909579D02*
X8218872Y-15890531D01*
X8218872Y-15890531D02*
X8209349Y-15861960D01*
X8209349Y-15861960D02*
X8199825Y-15814341D01*
X8199825Y-15814341D02*
X8199825Y-15776246D01*
X8199825Y-15776246D02*
X8209349Y-15728627D01*
X8209349Y-15728627D02*
X8218872Y-15700055D01*
X8218872Y-15700055D02*
X8228396Y-15681008D01*
X8228396Y-15681008D02*
X8247444Y-15652436D01*
X8247444Y-15652436D02*
X8256968Y-15642912D01*
X8333158Y-15738150D02*
X8333158Y-15871484D01*
X8333158Y-15757198D02*
X8342682Y-15747674D01*
X8342682Y-15747674D02*
X8361730Y-15738150D01*
X8361730Y-15738150D02*
X8390301Y-15738150D01*
X8390301Y-15738150D02*
X8409349Y-15747674D01*
X8409349Y-15747674D02*
X8418873Y-15766722D01*
X8418873Y-15766722D02*
X8418873Y-15871484D01*
X8542682Y-15871484D02*
X8523634Y-15861960D01*
X8523634Y-15861960D02*
X8514111Y-15852436D01*
X8514111Y-15852436D02*
X8504587Y-15833388D01*
X8504587Y-15833388D02*
X8504587Y-15776246D01*
X8504587Y-15776246D02*
X8514111Y-15757198D01*
X8514111Y-15757198D02*
X8523634Y-15747674D01*
X8523634Y-15747674D02*
X8542682Y-15738150D01*
X8542682Y-15738150D02*
X8571254Y-15738150D01*
X8571254Y-15738150D02*
X8590301Y-15747674D01*
X8590301Y-15747674D02*
X8599825Y-15757198D01*
X8599825Y-15757198D02*
X8609349Y-15776246D01*
X8609349Y-15776246D02*
X8609349Y-15833388D01*
X8609349Y-15833388D02*
X8599825Y-15852436D01*
X8599825Y-15852436D02*
X8590301Y-15861960D01*
X8590301Y-15861960D02*
X8571254Y-15871484D01*
X8571254Y-15871484D02*
X8542682Y-15871484D01*
X8666492Y-15738150D02*
X8742682Y-15738150D01*
X8695063Y-15671484D02*
X8695063Y-15842912D01*
X8695063Y-15842912D02*
X8704587Y-15861960D01*
X8704587Y-15861960D02*
X8723634Y-15871484D01*
X8723634Y-15871484D02*
X8742682Y-15871484D01*
X8961730Y-15738150D02*
X8961730Y-15938150D01*
X8961730Y-15747674D02*
X8980777Y-15738150D01*
X8980777Y-15738150D02*
X9018873Y-15738150D01*
X9018873Y-15738150D02*
X9037920Y-15747674D01*
X9037920Y-15747674D02*
X9047444Y-15757198D01*
X9047444Y-15757198D02*
X9056968Y-15776246D01*
X9056968Y-15776246D02*
X9056968Y-15833388D01*
X9056968Y-15833388D02*
X9047444Y-15852436D01*
X9047444Y-15852436D02*
X9037920Y-15861960D01*
X9037920Y-15861960D02*
X9018873Y-15871484D01*
X9018873Y-15871484D02*
X8980777Y-15871484D01*
X8980777Y-15871484D02*
X8961730Y-15861960D01*
X9171254Y-15871484D02*
X9152206Y-15861960D01*
X9152206Y-15861960D02*
X9142682Y-15842912D01*
X9142682Y-15842912D02*
X9142682Y-15671484D01*
X9333158Y-15871484D02*
X9333158Y-15766722D01*
X9333158Y-15766722D02*
X9323635Y-15747674D01*
X9323635Y-15747674D02*
X9304587Y-15738150D01*
X9304587Y-15738150D02*
X9266492Y-15738150D01*
X9266492Y-15738150D02*
X9247444Y-15747674D01*
X9333158Y-15861960D02*
X9314111Y-15871484D01*
X9314111Y-15871484D02*
X9266492Y-15871484D01*
X9266492Y-15871484D02*
X9247444Y-15861960D01*
X9247444Y-15861960D02*
X9237920Y-15842912D01*
X9237920Y-15842912D02*
X9237920Y-15823865D01*
X9237920Y-15823865D02*
X9247444Y-15804817D01*
X9247444Y-15804817D02*
X9266492Y-15795293D01*
X9266492Y-15795293D02*
X9314111Y-15795293D01*
X9314111Y-15795293D02*
X9333158Y-15785769D01*
X9399825Y-15738150D02*
X9476015Y-15738150D01*
X9428396Y-15671484D02*
X9428396Y-15842912D01*
X9428396Y-15842912D02*
X9437920Y-15861960D01*
X9437920Y-15861960D02*
X9456968Y-15871484D01*
X9456968Y-15871484D02*
X9476015Y-15871484D01*
X9618873Y-15861960D02*
X9599825Y-15871484D01*
X9599825Y-15871484D02*
X9561730Y-15871484D01*
X9561730Y-15871484D02*
X9542682Y-15861960D01*
X9542682Y-15861960D02*
X9533158Y-15842912D01*
X9533158Y-15842912D02*
X9533158Y-15766722D01*
X9533158Y-15766722D02*
X9542682Y-15747674D01*
X9542682Y-15747674D02*
X9561730Y-15738150D01*
X9561730Y-15738150D02*
X9599825Y-15738150D01*
X9599825Y-15738150D02*
X9618873Y-15747674D01*
X9618873Y-15747674D02*
X9628396Y-15766722D01*
X9628396Y-15766722D02*
X9628396Y-15785769D01*
X9628396Y-15785769D02*
X9533158Y-15804817D01*
X9799825Y-15871484D02*
X9799825Y-15671484D01*
X9799825Y-15861960D02*
X9780777Y-15871484D01*
X9780777Y-15871484D02*
X9742682Y-15871484D01*
X9742682Y-15871484D02*
X9723635Y-15861960D01*
X9723635Y-15861960D02*
X9714111Y-15852436D01*
X9714111Y-15852436D02*
X9704587Y-15833388D01*
X9704587Y-15833388D02*
X9704587Y-15776246D01*
X9704587Y-15776246D02*
X9714111Y-15757198D01*
X9714111Y-15757198D02*
X9723635Y-15747674D01*
X9723635Y-15747674D02*
X9742682Y-15738150D01*
X9742682Y-15738150D02*
X9780777Y-15738150D01*
X9780777Y-15738150D02*
X9799825Y-15747674D01*
X9876016Y-15947674D02*
X9885539Y-15938150D01*
X9885539Y-15938150D02*
X9904587Y-15909579D01*
X9904587Y-15909579D02*
X9914111Y-15890531D01*
X9914111Y-15890531D02*
X9923635Y-15861960D01*
X9923635Y-15861960D02*
X9933158Y-15814341D01*
X9933158Y-15814341D02*
X9933158Y-15776246D01*
X9933158Y-15776246D02*
X9923635Y-15728627D01*
X9923635Y-15728627D02*
X9914111Y-15700055D01*
X9914111Y-15700055D02*
X9904587Y-15681008D01*
X9904587Y-15681008D02*
X9885539Y-15652436D01*
X9885539Y-15652436D02*
X9876016Y-15642912D01*
D12*
X3120000Y-16050000D02*
G75*
G02*
X2940000Y-16050000I-90000J0D01*
G01*
X2940000Y-16050000D02*
G75*
G02*
X3120000Y-16050000I90000J0D01*
G01*
D10*
X3485539Y-16141484D02*
X3371253Y-16141484D01*
X3428396Y-16141484D02*
X3428396Y-15941484D01*
X3428396Y-15941484D02*
X3409348Y-15970055D01*
X3409348Y-15970055D02*
X3390301Y-15989103D01*
X3390301Y-15989103D02*
X3371253Y-15998627D01*
X3571253Y-16122436D02*
X3580777Y-16131960D01*
X3580777Y-16131960D02*
X3571253Y-16141484D01*
X3571253Y-16141484D02*
X3561729Y-16131960D01*
X3561729Y-16131960D02*
X3571253Y-16122436D01*
X3571253Y-16122436D02*
X3571253Y-16141484D01*
X3695062Y-16027198D02*
X3676015Y-16017674D01*
X3676015Y-16017674D02*
X3666491Y-16008150D01*
X3666491Y-16008150D02*
X3656967Y-15989103D01*
X3656967Y-15989103D02*
X3656967Y-15979579D01*
X3656967Y-15979579D02*
X3666491Y-15960531D01*
X3666491Y-15960531D02*
X3676015Y-15951008D01*
X3676015Y-15951008D02*
X3695062Y-15941484D01*
X3695062Y-15941484D02*
X3733158Y-15941484D01*
X3733158Y-15941484D02*
X3752205Y-15951008D01*
X3752205Y-15951008D02*
X3761729Y-15960531D01*
X3761729Y-15960531D02*
X3771253Y-15979579D01*
X3771253Y-15979579D02*
X3771253Y-15989103D01*
X3771253Y-15989103D02*
X3761729Y-16008150D01*
X3761729Y-16008150D02*
X3752205Y-16017674D01*
X3752205Y-16017674D02*
X3733158Y-16027198D01*
X3733158Y-16027198D02*
X3695062Y-16027198D01*
X3695062Y-16027198D02*
X3676015Y-16036722D01*
X3676015Y-16036722D02*
X3666491Y-16046246D01*
X3666491Y-16046246D02*
X3656967Y-16065293D01*
X3656967Y-16065293D02*
X3656967Y-16103388D01*
X3656967Y-16103388D02*
X3666491Y-16122436D01*
X3666491Y-16122436D02*
X3676015Y-16131960D01*
X3676015Y-16131960D02*
X3695062Y-16141484D01*
X3695062Y-16141484D02*
X3733158Y-16141484D01*
X3733158Y-16141484D02*
X3752205Y-16131960D01*
X3752205Y-16131960D02*
X3761729Y-16122436D01*
X3761729Y-16122436D02*
X3771253Y-16103388D01*
X3771253Y-16103388D02*
X3771253Y-16065293D01*
X3771253Y-16065293D02*
X3761729Y-16046246D01*
X3761729Y-16046246D02*
X3752205Y-16036722D01*
X3752205Y-16036722D02*
X3733158Y-16027198D01*
X3895062Y-15941484D02*
X3914110Y-15941484D01*
X3914110Y-15941484D02*
X3933158Y-15951008D01*
X3933158Y-15951008D02*
X3942682Y-15960531D01*
X3942682Y-15960531D02*
X3952205Y-15979579D01*
X3952205Y-15979579D02*
X3961729Y-16017674D01*
X3961729Y-16017674D02*
X3961729Y-16065293D01*
X3961729Y-16065293D02*
X3952205Y-16103388D01*
X3952205Y-16103388D02*
X3942682Y-16122436D01*
X3942682Y-16122436D02*
X3933158Y-16131960D01*
X3933158Y-16131960D02*
X3914110Y-16141484D01*
X3914110Y-16141484D02*
X3895062Y-16141484D01*
X3895062Y-16141484D02*
X3876015Y-16131960D01*
X3876015Y-16131960D02*
X3866491Y-16122436D01*
X3866491Y-16122436D02*
X3856967Y-16103388D01*
X3856967Y-16103388D02*
X3847443Y-16065293D01*
X3847443Y-16065293D02*
X3847443Y-16017674D01*
X3847443Y-16017674D02*
X3856967Y-15979579D01*
X3856967Y-15979579D02*
X3866491Y-15960531D01*
X3866491Y-15960531D02*
X3876015Y-15951008D01*
X3876015Y-15951008D02*
X3895062Y-15941484D01*
X4085539Y-15941484D02*
X4104586Y-15941484D01*
X4104586Y-15941484D02*
X4123634Y-15951008D01*
X4123634Y-15951008D02*
X4133158Y-15960531D01*
X4133158Y-15960531D02*
X4142682Y-15979579D01*
X4142682Y-15979579D02*
X4152205Y-16017674D01*
X4152205Y-16017674D02*
X4152205Y-16065293D01*
X4152205Y-16065293D02*
X4142682Y-16103388D01*
X4142682Y-16103388D02*
X4133158Y-16122436D01*
X4133158Y-16122436D02*
X4123634Y-16131960D01*
X4123634Y-16131960D02*
X4104586Y-16141484D01*
X4104586Y-16141484D02*
X4085539Y-16141484D01*
X4085539Y-16141484D02*
X4066491Y-16131960D01*
X4066491Y-16131960D02*
X4056967Y-16122436D01*
X4056967Y-16122436D02*
X4047443Y-16103388D01*
X4047443Y-16103388D02*
X4037920Y-16065293D01*
X4037920Y-16065293D02*
X4037920Y-16017674D01*
X4037920Y-16017674D02*
X4047443Y-15979579D01*
X4047443Y-15979579D02*
X4056967Y-15960531D01*
X4056967Y-15960531D02*
X4066491Y-15951008D01*
X4066491Y-15951008D02*
X4085539Y-15941484D01*
X4237920Y-16141484D02*
X4237920Y-16008150D01*
X4237920Y-16027198D02*
X4247444Y-16017674D01*
X4247444Y-16017674D02*
X4266491Y-16008150D01*
X4266491Y-16008150D02*
X4295063Y-16008150D01*
X4295063Y-16008150D02*
X4314110Y-16017674D01*
X4314110Y-16017674D02*
X4323634Y-16036722D01*
X4323634Y-16036722D02*
X4323634Y-16141484D01*
X4323634Y-16036722D02*
X4333158Y-16017674D01*
X4333158Y-16017674D02*
X4352205Y-16008150D01*
X4352205Y-16008150D02*
X4380777Y-16008150D01*
X4380777Y-16008150D02*
X4399825Y-16017674D01*
X4399825Y-16017674D02*
X4409348Y-16036722D01*
X4409348Y-16036722D02*
X4409348Y-16141484D01*
X4504586Y-16141484D02*
X4504586Y-16008150D01*
X4504586Y-16027198D02*
X4514110Y-16017674D01*
X4514110Y-16017674D02*
X4533158Y-16008150D01*
X4533158Y-16008150D02*
X4561729Y-16008150D01*
X4561729Y-16008150D02*
X4580777Y-16017674D01*
X4580777Y-16017674D02*
X4590301Y-16036722D01*
X4590301Y-16036722D02*
X4590301Y-16141484D01*
X4590301Y-16036722D02*
X4599825Y-16017674D01*
X4599825Y-16017674D02*
X4618872Y-16008150D01*
X4618872Y-16008150D02*
X4647444Y-16008150D01*
X4647444Y-16008150D02*
X4666491Y-16017674D01*
X4666491Y-16017674D02*
X4676015Y-16036722D01*
X4676015Y-16036722D02*
X4676015Y-16141484D01*
X5066491Y-15931960D02*
X4895063Y-16189103D01*
X5323634Y-15941484D02*
X5342682Y-15941484D01*
X5342682Y-15941484D02*
X5361729Y-15951008D01*
X5361729Y-15951008D02*
X5371253Y-15960531D01*
X5371253Y-15960531D02*
X5380777Y-15979579D01*
X5380777Y-15979579D02*
X5390301Y-16017674D01*
X5390301Y-16017674D02*
X5390301Y-16065293D01*
X5390301Y-16065293D02*
X5380777Y-16103388D01*
X5380777Y-16103388D02*
X5371253Y-16122436D01*
X5371253Y-16122436D02*
X5361729Y-16131960D01*
X5361729Y-16131960D02*
X5342682Y-16141484D01*
X5342682Y-16141484D02*
X5323634Y-16141484D01*
X5323634Y-16141484D02*
X5304587Y-16131960D01*
X5304587Y-16131960D02*
X5295063Y-16122436D01*
X5295063Y-16122436D02*
X5285539Y-16103388D01*
X5285539Y-16103388D02*
X5276015Y-16065293D01*
X5276015Y-16065293D02*
X5276015Y-16017674D01*
X5276015Y-16017674D02*
X5285539Y-15979579D01*
X5285539Y-15979579D02*
X5295063Y-15960531D01*
X5295063Y-15960531D02*
X5304587Y-15951008D01*
X5304587Y-15951008D02*
X5323634Y-15941484D01*
X5476015Y-16122436D02*
X5485539Y-16131960D01*
X5485539Y-16131960D02*
X5476015Y-16141484D01*
X5476015Y-16141484D02*
X5466491Y-16131960D01*
X5466491Y-16131960D02*
X5476015Y-16122436D01*
X5476015Y-16122436D02*
X5476015Y-16141484D01*
X5609348Y-15941484D02*
X5628396Y-15941484D01*
X5628396Y-15941484D02*
X5647444Y-15951008D01*
X5647444Y-15951008D02*
X5656967Y-15960531D01*
X5656967Y-15960531D02*
X5666491Y-15979579D01*
X5666491Y-15979579D02*
X5676015Y-16017674D01*
X5676015Y-16017674D02*
X5676015Y-16065293D01*
X5676015Y-16065293D02*
X5666491Y-16103388D01*
X5666491Y-16103388D02*
X5656967Y-16122436D01*
X5656967Y-16122436D02*
X5647444Y-16131960D01*
X5647444Y-16131960D02*
X5628396Y-16141484D01*
X5628396Y-16141484D02*
X5609348Y-16141484D01*
X5609348Y-16141484D02*
X5590301Y-16131960D01*
X5590301Y-16131960D02*
X5580777Y-16122436D01*
X5580777Y-16122436D02*
X5571253Y-16103388D01*
X5571253Y-16103388D02*
X5561729Y-16065293D01*
X5561729Y-16065293D02*
X5561729Y-16017674D01*
X5561729Y-16017674D02*
X5571253Y-15979579D01*
X5571253Y-15979579D02*
X5580777Y-15960531D01*
X5580777Y-15960531D02*
X5590301Y-15951008D01*
X5590301Y-15951008D02*
X5609348Y-15941484D01*
X5742682Y-15941484D02*
X5876015Y-15941484D01*
X5876015Y-15941484D02*
X5790301Y-16141484D01*
X5990301Y-15941484D02*
X6009348Y-15941484D01*
X6009348Y-15941484D02*
X6028396Y-15951008D01*
X6028396Y-15951008D02*
X6037920Y-15960531D01*
X6037920Y-15960531D02*
X6047444Y-15979579D01*
X6047444Y-15979579D02*
X6056967Y-16017674D01*
X6056967Y-16017674D02*
X6056967Y-16065293D01*
X6056967Y-16065293D02*
X6047444Y-16103388D01*
X6047444Y-16103388D02*
X6037920Y-16122436D01*
X6037920Y-16122436D02*
X6028396Y-16131960D01*
X6028396Y-16131960D02*
X6009348Y-16141484D01*
X6009348Y-16141484D02*
X5990301Y-16141484D01*
X5990301Y-16141484D02*
X5971253Y-16131960D01*
X5971253Y-16131960D02*
X5961729Y-16122436D01*
X5961729Y-16122436D02*
X5952206Y-16103388D01*
X5952206Y-16103388D02*
X5942682Y-16065293D01*
X5942682Y-16065293D02*
X5942682Y-16017674D01*
X5942682Y-16017674D02*
X5952206Y-15979579D01*
X5952206Y-15979579D02*
X5961729Y-15960531D01*
X5961729Y-15960531D02*
X5971253Y-15951008D01*
X5971253Y-15951008D02*
X5990301Y-15941484D01*
X6152206Y-16141484D02*
X6190301Y-16141484D01*
X6190301Y-16141484D02*
X6209348Y-16131960D01*
X6209348Y-16131960D02*
X6218872Y-16122436D01*
X6218872Y-16122436D02*
X6237920Y-16093865D01*
X6237920Y-16093865D02*
X6247444Y-16055769D01*
X6247444Y-16055769D02*
X6247444Y-15979579D01*
X6247444Y-15979579D02*
X6237920Y-15960531D01*
X6237920Y-15960531D02*
X6228396Y-15951008D01*
X6228396Y-15951008D02*
X6209348Y-15941484D01*
X6209348Y-15941484D02*
X6171253Y-15941484D01*
X6171253Y-15941484D02*
X6152206Y-15951008D01*
X6152206Y-15951008D02*
X6142682Y-15960531D01*
X6142682Y-15960531D02*
X6133158Y-15979579D01*
X6133158Y-15979579D02*
X6133158Y-16027198D01*
X6133158Y-16027198D02*
X6142682Y-16046246D01*
X6142682Y-16046246D02*
X6152206Y-16055769D01*
X6152206Y-16055769D02*
X6171253Y-16065293D01*
X6171253Y-16065293D02*
X6209348Y-16065293D01*
X6209348Y-16065293D02*
X6228396Y-16055769D01*
X6228396Y-16055769D02*
X6237920Y-16046246D01*
X6237920Y-16046246D02*
X6247444Y-16027198D01*
X6323634Y-15941484D02*
X6323634Y-15979579D01*
X6399825Y-15941484D02*
X6399825Y-15979579D01*
X6695063Y-16217674D02*
X6685539Y-16208150D01*
X6685539Y-16208150D02*
X6666491Y-16179579D01*
X6666491Y-16179579D02*
X6656968Y-16160531D01*
X6656968Y-16160531D02*
X6647444Y-16131960D01*
X6647444Y-16131960D02*
X6637920Y-16084341D01*
X6637920Y-16084341D02*
X6637920Y-16046246D01*
X6637920Y-16046246D02*
X6647444Y-15998627D01*
X6647444Y-15998627D02*
X6656968Y-15970055D01*
X6656968Y-15970055D02*
X6666491Y-15951008D01*
X6666491Y-15951008D02*
X6685539Y-15922436D01*
X6685539Y-15922436D02*
X6695063Y-15912912D01*
X6761729Y-15960531D02*
X6771253Y-15951008D01*
X6771253Y-15951008D02*
X6790301Y-15941484D01*
X6790301Y-15941484D02*
X6837920Y-15941484D01*
X6837920Y-15941484D02*
X6856968Y-15951008D01*
X6856968Y-15951008D02*
X6866491Y-15960531D01*
X6866491Y-15960531D02*
X6876015Y-15979579D01*
X6876015Y-15979579D02*
X6876015Y-15998627D01*
X6876015Y-15998627D02*
X6866491Y-16027198D01*
X6866491Y-16027198D02*
X6752206Y-16141484D01*
X6752206Y-16141484D02*
X6876015Y-16141484D01*
X7114110Y-16141484D02*
X7114110Y-15941484D01*
X7199825Y-16141484D02*
X7199825Y-16036722D01*
X7199825Y-16036722D02*
X7190301Y-16017674D01*
X7190301Y-16017674D02*
X7171253Y-16008150D01*
X7171253Y-16008150D02*
X7142682Y-16008150D01*
X7142682Y-16008150D02*
X7123634Y-16017674D01*
X7123634Y-16017674D02*
X7114110Y-16027198D01*
X7323634Y-16141484D02*
X7304587Y-16131960D01*
X7304587Y-16131960D02*
X7295063Y-16122436D01*
X7295063Y-16122436D02*
X7285539Y-16103388D01*
X7285539Y-16103388D02*
X7285539Y-16046246D01*
X7285539Y-16046246D02*
X7295063Y-16027198D01*
X7295063Y-16027198D02*
X7304587Y-16017674D01*
X7304587Y-16017674D02*
X7323634Y-16008150D01*
X7323634Y-16008150D02*
X7352206Y-16008150D01*
X7352206Y-16008150D02*
X7371253Y-16017674D01*
X7371253Y-16017674D02*
X7380777Y-16027198D01*
X7380777Y-16027198D02*
X7390301Y-16046246D01*
X7390301Y-16046246D02*
X7390301Y-16103388D01*
X7390301Y-16103388D02*
X7380777Y-16122436D01*
X7380777Y-16122436D02*
X7371253Y-16131960D01*
X7371253Y-16131960D02*
X7352206Y-16141484D01*
X7352206Y-16141484D02*
X7323634Y-16141484D01*
X7504587Y-16141484D02*
X7485539Y-16131960D01*
X7485539Y-16131960D02*
X7476015Y-16112912D01*
X7476015Y-16112912D02*
X7476015Y-15941484D01*
X7656968Y-16131960D02*
X7637920Y-16141484D01*
X7637920Y-16141484D02*
X7599825Y-16141484D01*
X7599825Y-16141484D02*
X7580777Y-16131960D01*
X7580777Y-16131960D02*
X7571253Y-16112912D01*
X7571253Y-16112912D02*
X7571253Y-16036722D01*
X7571253Y-16036722D02*
X7580777Y-16017674D01*
X7580777Y-16017674D02*
X7599825Y-16008150D01*
X7599825Y-16008150D02*
X7637920Y-16008150D01*
X7637920Y-16008150D02*
X7656968Y-16017674D01*
X7656968Y-16017674D02*
X7666491Y-16036722D01*
X7666491Y-16036722D02*
X7666491Y-16055769D01*
X7666491Y-16055769D02*
X7571253Y-16074817D01*
X7742682Y-16131960D02*
X7761730Y-16141484D01*
X7761730Y-16141484D02*
X7799825Y-16141484D01*
X7799825Y-16141484D02*
X7818872Y-16131960D01*
X7818872Y-16131960D02*
X7828396Y-16112912D01*
X7828396Y-16112912D02*
X7828396Y-16103388D01*
X7828396Y-16103388D02*
X7818872Y-16084341D01*
X7818872Y-16084341D02*
X7799825Y-16074817D01*
X7799825Y-16074817D02*
X7771253Y-16074817D01*
X7771253Y-16074817D02*
X7752206Y-16065293D01*
X7752206Y-16065293D02*
X7742682Y-16046246D01*
X7742682Y-16046246D02*
X7742682Y-16036722D01*
X7742682Y-16036722D02*
X7752206Y-16017674D01*
X7752206Y-16017674D02*
X7771253Y-16008150D01*
X7771253Y-16008150D02*
X7799825Y-16008150D01*
X7799825Y-16008150D02*
X7818872Y-16017674D01*
X7895063Y-16217674D02*
X7904587Y-16208150D01*
X7904587Y-16208150D02*
X7923634Y-16179579D01*
X7923634Y-16179579D02*
X7933158Y-16160531D01*
X7933158Y-16160531D02*
X7942682Y-16131960D01*
X7942682Y-16131960D02*
X7952206Y-16084341D01*
X7952206Y-16084341D02*
X7952206Y-16046246D01*
X7952206Y-16046246D02*
X7942682Y-15998627D01*
X7942682Y-15998627D02*
X7933158Y-15970055D01*
X7933158Y-15970055D02*
X7923634Y-15951008D01*
X7923634Y-15951008D02*
X7904587Y-15922436D01*
X7904587Y-15922436D02*
X7895063Y-15912912D01*
X8256968Y-16217674D02*
X8247444Y-16208150D01*
X8247444Y-16208150D02*
X8228396Y-16179579D01*
X8228396Y-16179579D02*
X8218872Y-16160531D01*
X8218872Y-16160531D02*
X8209349Y-16131960D01*
X8209349Y-16131960D02*
X8199825Y-16084341D01*
X8199825Y-16084341D02*
X8199825Y-16046246D01*
X8199825Y-16046246D02*
X8209349Y-15998627D01*
X8209349Y-15998627D02*
X8218872Y-15970055D01*
X8218872Y-15970055D02*
X8228396Y-15951008D01*
X8228396Y-15951008D02*
X8247444Y-15922436D01*
X8247444Y-15922436D02*
X8256968Y-15912912D01*
X8333158Y-16008150D02*
X8333158Y-16141484D01*
X8333158Y-16027198D02*
X8342682Y-16017674D01*
X8342682Y-16017674D02*
X8361730Y-16008150D01*
X8361730Y-16008150D02*
X8390301Y-16008150D01*
X8390301Y-16008150D02*
X8409349Y-16017674D01*
X8409349Y-16017674D02*
X8418873Y-16036722D01*
X8418873Y-16036722D02*
X8418873Y-16141484D01*
X8542682Y-16141484D02*
X8523634Y-16131960D01*
X8523634Y-16131960D02*
X8514111Y-16122436D01*
X8514111Y-16122436D02*
X8504587Y-16103388D01*
X8504587Y-16103388D02*
X8504587Y-16046246D01*
X8504587Y-16046246D02*
X8514111Y-16027198D01*
X8514111Y-16027198D02*
X8523634Y-16017674D01*
X8523634Y-16017674D02*
X8542682Y-16008150D01*
X8542682Y-16008150D02*
X8571254Y-16008150D01*
X8571254Y-16008150D02*
X8590301Y-16017674D01*
X8590301Y-16017674D02*
X8599825Y-16027198D01*
X8599825Y-16027198D02*
X8609349Y-16046246D01*
X8609349Y-16046246D02*
X8609349Y-16103388D01*
X8609349Y-16103388D02*
X8599825Y-16122436D01*
X8599825Y-16122436D02*
X8590301Y-16131960D01*
X8590301Y-16131960D02*
X8571254Y-16141484D01*
X8571254Y-16141484D02*
X8542682Y-16141484D01*
X8666492Y-16008150D02*
X8742682Y-16008150D01*
X8695063Y-15941484D02*
X8695063Y-16112912D01*
X8695063Y-16112912D02*
X8704587Y-16131960D01*
X8704587Y-16131960D02*
X8723634Y-16141484D01*
X8723634Y-16141484D02*
X8742682Y-16141484D01*
X8961730Y-16008150D02*
X8961730Y-16208150D01*
X8961730Y-16017674D02*
X8980777Y-16008150D01*
X8980777Y-16008150D02*
X9018873Y-16008150D01*
X9018873Y-16008150D02*
X9037920Y-16017674D01*
X9037920Y-16017674D02*
X9047444Y-16027198D01*
X9047444Y-16027198D02*
X9056968Y-16046246D01*
X9056968Y-16046246D02*
X9056968Y-16103388D01*
X9056968Y-16103388D02*
X9047444Y-16122436D01*
X9047444Y-16122436D02*
X9037920Y-16131960D01*
X9037920Y-16131960D02*
X9018873Y-16141484D01*
X9018873Y-16141484D02*
X8980777Y-16141484D01*
X8980777Y-16141484D02*
X8961730Y-16131960D01*
X9171254Y-16141484D02*
X9152206Y-16131960D01*
X9152206Y-16131960D02*
X9142682Y-16112912D01*
X9142682Y-16112912D02*
X9142682Y-15941484D01*
X9333158Y-16141484D02*
X9333158Y-16036722D01*
X9333158Y-16036722D02*
X9323635Y-16017674D01*
X9323635Y-16017674D02*
X9304587Y-16008150D01*
X9304587Y-16008150D02*
X9266492Y-16008150D01*
X9266492Y-16008150D02*
X9247444Y-16017674D01*
X9333158Y-16131960D02*
X9314111Y-16141484D01*
X9314111Y-16141484D02*
X9266492Y-16141484D01*
X9266492Y-16141484D02*
X9247444Y-16131960D01*
X9247444Y-16131960D02*
X9237920Y-16112912D01*
X9237920Y-16112912D02*
X9237920Y-16093865D01*
X9237920Y-16093865D02*
X9247444Y-16074817D01*
X9247444Y-16074817D02*
X9266492Y-16065293D01*
X9266492Y-16065293D02*
X9314111Y-16065293D01*
X9314111Y-16065293D02*
X9333158Y-16055769D01*
X9399825Y-16008150D02*
X9476015Y-16008150D01*
X9428396Y-15941484D02*
X9428396Y-16112912D01*
X9428396Y-16112912D02*
X9437920Y-16131960D01*
X9437920Y-16131960D02*
X9456968Y-16141484D01*
X9456968Y-16141484D02*
X9476015Y-16141484D01*
X9618873Y-16131960D02*
X9599825Y-16141484D01*
X9599825Y-16141484D02*
X9561730Y-16141484D01*
X9561730Y-16141484D02*
X9542682Y-16131960D01*
X9542682Y-16131960D02*
X9533158Y-16112912D01*
X9533158Y-16112912D02*
X9533158Y-16036722D01*
X9533158Y-16036722D02*
X9542682Y-16017674D01*
X9542682Y-16017674D02*
X9561730Y-16008150D01*
X9561730Y-16008150D02*
X9599825Y-16008150D01*
X9599825Y-16008150D02*
X9618873Y-16017674D01*
X9618873Y-16017674D02*
X9628396Y-16036722D01*
X9628396Y-16036722D02*
X9628396Y-16055769D01*
X9628396Y-16055769D02*
X9533158Y-16074817D01*
X9799825Y-16141484D02*
X9799825Y-15941484D01*
X9799825Y-16131960D02*
X9780777Y-16141484D01*
X9780777Y-16141484D02*
X9742682Y-16141484D01*
X9742682Y-16141484D02*
X9723635Y-16131960D01*
X9723635Y-16131960D02*
X9714111Y-16122436D01*
X9714111Y-16122436D02*
X9704587Y-16103388D01*
X9704587Y-16103388D02*
X9704587Y-16046246D01*
X9704587Y-16046246D02*
X9714111Y-16027198D01*
X9714111Y-16027198D02*
X9723635Y-16017674D01*
X9723635Y-16017674D02*
X9742682Y-16008150D01*
X9742682Y-16008150D02*
X9780777Y-16008150D01*
X9780777Y-16008150D02*
X9799825Y-16017674D01*
X9876016Y-16217674D02*
X9885539Y-16208150D01*
X9885539Y-16208150D02*
X9904587Y-16179579D01*
X9904587Y-16179579D02*
X9914111Y-16160531D01*
X9914111Y-16160531D02*
X9923635Y-16131960D01*
X9923635Y-16131960D02*
X9933158Y-16084341D01*
X9933158Y-16084341D02*
X9933158Y-16046246D01*
X9933158Y-16046246D02*
X9923635Y-15998627D01*
X9923635Y-15998627D02*
X9914111Y-15970055D01*
X9914111Y-15970055D02*
X9904587Y-15951008D01*
X9904587Y-15951008D02*
X9885539Y-15922436D01*
X9885539Y-15922436D02*
X9876016Y-15912912D01*
X3020000Y-16250000D02*
X3020000Y-16450000D01*
X2920000Y-16350000D02*
X3120000Y-16350000D01*
X3361729Y-16241484D02*
X3485539Y-16241484D01*
X3485539Y-16241484D02*
X3418872Y-16317674D01*
X3418872Y-16317674D02*
X3447443Y-16317674D01*
X3447443Y-16317674D02*
X3466491Y-16327198D01*
X3466491Y-16327198D02*
X3476015Y-16336722D01*
X3476015Y-16336722D02*
X3485539Y-16355769D01*
X3485539Y-16355769D02*
X3485539Y-16403388D01*
X3485539Y-16403388D02*
X3476015Y-16422436D01*
X3476015Y-16422436D02*
X3466491Y-16431960D01*
X3466491Y-16431960D02*
X3447443Y-16441484D01*
X3447443Y-16441484D02*
X3390301Y-16441484D01*
X3390301Y-16441484D02*
X3371253Y-16431960D01*
X3371253Y-16431960D02*
X3361729Y-16422436D01*
X3571253Y-16422436D02*
X3580777Y-16431960D01*
X3580777Y-16431960D02*
X3571253Y-16441484D01*
X3571253Y-16441484D02*
X3561729Y-16431960D01*
X3561729Y-16431960D02*
X3571253Y-16422436D01*
X3571253Y-16422436D02*
X3571253Y-16441484D01*
X3647443Y-16241484D02*
X3771253Y-16241484D01*
X3771253Y-16241484D02*
X3704586Y-16317674D01*
X3704586Y-16317674D02*
X3733158Y-16317674D01*
X3733158Y-16317674D02*
X3752205Y-16327198D01*
X3752205Y-16327198D02*
X3761729Y-16336722D01*
X3761729Y-16336722D02*
X3771253Y-16355769D01*
X3771253Y-16355769D02*
X3771253Y-16403388D01*
X3771253Y-16403388D02*
X3761729Y-16422436D01*
X3761729Y-16422436D02*
X3752205Y-16431960D01*
X3752205Y-16431960D02*
X3733158Y-16441484D01*
X3733158Y-16441484D02*
X3676015Y-16441484D01*
X3676015Y-16441484D02*
X3656967Y-16431960D01*
X3656967Y-16431960D02*
X3647443Y-16422436D01*
X3895062Y-16241484D02*
X3914110Y-16241484D01*
X3914110Y-16241484D02*
X3933158Y-16251008D01*
X3933158Y-16251008D02*
X3942682Y-16260531D01*
X3942682Y-16260531D02*
X3952205Y-16279579D01*
X3952205Y-16279579D02*
X3961729Y-16317674D01*
X3961729Y-16317674D02*
X3961729Y-16365293D01*
X3961729Y-16365293D02*
X3952205Y-16403388D01*
X3952205Y-16403388D02*
X3942682Y-16422436D01*
X3942682Y-16422436D02*
X3933158Y-16431960D01*
X3933158Y-16431960D02*
X3914110Y-16441484D01*
X3914110Y-16441484D02*
X3895062Y-16441484D01*
X3895062Y-16441484D02*
X3876015Y-16431960D01*
X3876015Y-16431960D02*
X3866491Y-16422436D01*
X3866491Y-16422436D02*
X3856967Y-16403388D01*
X3856967Y-16403388D02*
X3847443Y-16365293D01*
X3847443Y-16365293D02*
X3847443Y-16317674D01*
X3847443Y-16317674D02*
X3856967Y-16279579D01*
X3856967Y-16279579D02*
X3866491Y-16260531D01*
X3866491Y-16260531D02*
X3876015Y-16251008D01*
X3876015Y-16251008D02*
X3895062Y-16241484D01*
X4085539Y-16241484D02*
X4104586Y-16241484D01*
X4104586Y-16241484D02*
X4123634Y-16251008D01*
X4123634Y-16251008D02*
X4133158Y-16260531D01*
X4133158Y-16260531D02*
X4142682Y-16279579D01*
X4142682Y-16279579D02*
X4152205Y-16317674D01*
X4152205Y-16317674D02*
X4152205Y-16365293D01*
X4152205Y-16365293D02*
X4142682Y-16403388D01*
X4142682Y-16403388D02*
X4133158Y-16422436D01*
X4133158Y-16422436D02*
X4123634Y-16431960D01*
X4123634Y-16431960D02*
X4104586Y-16441484D01*
X4104586Y-16441484D02*
X4085539Y-16441484D01*
X4085539Y-16441484D02*
X4066491Y-16431960D01*
X4066491Y-16431960D02*
X4056967Y-16422436D01*
X4056967Y-16422436D02*
X4047443Y-16403388D01*
X4047443Y-16403388D02*
X4037920Y-16365293D01*
X4037920Y-16365293D02*
X4037920Y-16317674D01*
X4037920Y-16317674D02*
X4047443Y-16279579D01*
X4047443Y-16279579D02*
X4056967Y-16260531D01*
X4056967Y-16260531D02*
X4066491Y-16251008D01*
X4066491Y-16251008D02*
X4085539Y-16241484D01*
X4237920Y-16441484D02*
X4237920Y-16308150D01*
X4237920Y-16327198D02*
X4247444Y-16317674D01*
X4247444Y-16317674D02*
X4266491Y-16308150D01*
X4266491Y-16308150D02*
X4295063Y-16308150D01*
X4295063Y-16308150D02*
X4314110Y-16317674D01*
X4314110Y-16317674D02*
X4323634Y-16336722D01*
X4323634Y-16336722D02*
X4323634Y-16441484D01*
X4323634Y-16336722D02*
X4333158Y-16317674D01*
X4333158Y-16317674D02*
X4352205Y-16308150D01*
X4352205Y-16308150D02*
X4380777Y-16308150D01*
X4380777Y-16308150D02*
X4399825Y-16317674D01*
X4399825Y-16317674D02*
X4409348Y-16336722D01*
X4409348Y-16336722D02*
X4409348Y-16441484D01*
X4504586Y-16441484D02*
X4504586Y-16308150D01*
X4504586Y-16327198D02*
X4514110Y-16317674D01*
X4514110Y-16317674D02*
X4533158Y-16308150D01*
X4533158Y-16308150D02*
X4561729Y-16308150D01*
X4561729Y-16308150D02*
X4580777Y-16317674D01*
X4580777Y-16317674D02*
X4590301Y-16336722D01*
X4590301Y-16336722D02*
X4590301Y-16441484D01*
X4590301Y-16336722D02*
X4599825Y-16317674D01*
X4599825Y-16317674D02*
X4618872Y-16308150D01*
X4618872Y-16308150D02*
X4647444Y-16308150D01*
X4647444Y-16308150D02*
X4666491Y-16317674D01*
X4666491Y-16317674D02*
X4676015Y-16336722D01*
X4676015Y-16336722D02*
X4676015Y-16441484D01*
X5066491Y-16231960D02*
X4895063Y-16489103D01*
X5323634Y-16241484D02*
X5342682Y-16241484D01*
X5342682Y-16241484D02*
X5361729Y-16251008D01*
X5361729Y-16251008D02*
X5371253Y-16260531D01*
X5371253Y-16260531D02*
X5380777Y-16279579D01*
X5380777Y-16279579D02*
X5390301Y-16317674D01*
X5390301Y-16317674D02*
X5390301Y-16365293D01*
X5390301Y-16365293D02*
X5380777Y-16403388D01*
X5380777Y-16403388D02*
X5371253Y-16422436D01*
X5371253Y-16422436D02*
X5361729Y-16431960D01*
X5361729Y-16431960D02*
X5342682Y-16441484D01*
X5342682Y-16441484D02*
X5323634Y-16441484D01*
X5323634Y-16441484D02*
X5304587Y-16431960D01*
X5304587Y-16431960D02*
X5295063Y-16422436D01*
X5295063Y-16422436D02*
X5285539Y-16403388D01*
X5285539Y-16403388D02*
X5276015Y-16365293D01*
X5276015Y-16365293D02*
X5276015Y-16317674D01*
X5276015Y-16317674D02*
X5285539Y-16279579D01*
X5285539Y-16279579D02*
X5295063Y-16260531D01*
X5295063Y-16260531D02*
X5304587Y-16251008D01*
X5304587Y-16251008D02*
X5323634Y-16241484D01*
X5476015Y-16422436D02*
X5485539Y-16431960D01*
X5485539Y-16431960D02*
X5476015Y-16441484D01*
X5476015Y-16441484D02*
X5466491Y-16431960D01*
X5466491Y-16431960D02*
X5476015Y-16422436D01*
X5476015Y-16422436D02*
X5476015Y-16441484D01*
X5676015Y-16441484D02*
X5561729Y-16441484D01*
X5618872Y-16441484D02*
X5618872Y-16241484D01*
X5618872Y-16241484D02*
X5599825Y-16270055D01*
X5599825Y-16270055D02*
X5580777Y-16289103D01*
X5580777Y-16289103D02*
X5561729Y-16298627D01*
X5752206Y-16260531D02*
X5761729Y-16251008D01*
X5761729Y-16251008D02*
X5780777Y-16241484D01*
X5780777Y-16241484D02*
X5828396Y-16241484D01*
X5828396Y-16241484D02*
X5847444Y-16251008D01*
X5847444Y-16251008D02*
X5856967Y-16260531D01*
X5856967Y-16260531D02*
X5866491Y-16279579D01*
X5866491Y-16279579D02*
X5866491Y-16298627D01*
X5866491Y-16298627D02*
X5856967Y-16327198D01*
X5856967Y-16327198D02*
X5742682Y-16441484D01*
X5742682Y-16441484D02*
X5866491Y-16441484D01*
X5961729Y-16441484D02*
X5999825Y-16441484D01*
X5999825Y-16441484D02*
X6018872Y-16431960D01*
X6018872Y-16431960D02*
X6028396Y-16422436D01*
X6028396Y-16422436D02*
X6047444Y-16393865D01*
X6047444Y-16393865D02*
X6056967Y-16355769D01*
X6056967Y-16355769D02*
X6056967Y-16279579D01*
X6056967Y-16279579D02*
X6047444Y-16260531D01*
X6047444Y-16260531D02*
X6037920Y-16251008D01*
X6037920Y-16251008D02*
X6018872Y-16241484D01*
X6018872Y-16241484D02*
X5980777Y-16241484D01*
X5980777Y-16241484D02*
X5961729Y-16251008D01*
X5961729Y-16251008D02*
X5952206Y-16260531D01*
X5952206Y-16260531D02*
X5942682Y-16279579D01*
X5942682Y-16279579D02*
X5942682Y-16327198D01*
X5942682Y-16327198D02*
X5952206Y-16346246D01*
X5952206Y-16346246D02*
X5961729Y-16355769D01*
X5961729Y-16355769D02*
X5980777Y-16365293D01*
X5980777Y-16365293D02*
X6018872Y-16365293D01*
X6018872Y-16365293D02*
X6037920Y-16355769D01*
X6037920Y-16355769D02*
X6047444Y-16346246D01*
X6047444Y-16346246D02*
X6056967Y-16327198D01*
X6152206Y-16441484D02*
X6190301Y-16441484D01*
X6190301Y-16441484D02*
X6209348Y-16431960D01*
X6209348Y-16431960D02*
X6218872Y-16422436D01*
X6218872Y-16422436D02*
X6237920Y-16393865D01*
X6237920Y-16393865D02*
X6247444Y-16355769D01*
X6247444Y-16355769D02*
X6247444Y-16279579D01*
X6247444Y-16279579D02*
X6237920Y-16260531D01*
X6237920Y-16260531D02*
X6228396Y-16251008D01*
X6228396Y-16251008D02*
X6209348Y-16241484D01*
X6209348Y-16241484D02*
X6171253Y-16241484D01*
X6171253Y-16241484D02*
X6152206Y-16251008D01*
X6152206Y-16251008D02*
X6142682Y-16260531D01*
X6142682Y-16260531D02*
X6133158Y-16279579D01*
X6133158Y-16279579D02*
X6133158Y-16327198D01*
X6133158Y-16327198D02*
X6142682Y-16346246D01*
X6142682Y-16346246D02*
X6152206Y-16355769D01*
X6152206Y-16355769D02*
X6171253Y-16365293D01*
X6171253Y-16365293D02*
X6209348Y-16365293D01*
X6209348Y-16365293D02*
X6228396Y-16355769D01*
X6228396Y-16355769D02*
X6237920Y-16346246D01*
X6237920Y-16346246D02*
X6247444Y-16327198D01*
X6323634Y-16241484D02*
X6323634Y-16279579D01*
X6399825Y-16241484D02*
X6399825Y-16279579D01*
X6695063Y-16517674D02*
X6685539Y-16508150D01*
X6685539Y-16508150D02*
X6666491Y-16479579D01*
X6666491Y-16479579D02*
X6656968Y-16460531D01*
X6656968Y-16460531D02*
X6647444Y-16431960D01*
X6647444Y-16431960D02*
X6637920Y-16384341D01*
X6637920Y-16384341D02*
X6637920Y-16346246D01*
X6637920Y-16346246D02*
X6647444Y-16298627D01*
X6647444Y-16298627D02*
X6656968Y-16270055D01*
X6656968Y-16270055D02*
X6666491Y-16251008D01*
X6666491Y-16251008D02*
X6685539Y-16222436D01*
X6685539Y-16222436D02*
X6695063Y-16212912D01*
X6799825Y-16327198D02*
X6780777Y-16317674D01*
X6780777Y-16317674D02*
X6771253Y-16308150D01*
X6771253Y-16308150D02*
X6761729Y-16289103D01*
X6761729Y-16289103D02*
X6761729Y-16279579D01*
X6761729Y-16279579D02*
X6771253Y-16260531D01*
X6771253Y-16260531D02*
X6780777Y-16251008D01*
X6780777Y-16251008D02*
X6799825Y-16241484D01*
X6799825Y-16241484D02*
X6837920Y-16241484D01*
X6837920Y-16241484D02*
X6856968Y-16251008D01*
X6856968Y-16251008D02*
X6866491Y-16260531D01*
X6866491Y-16260531D02*
X6876015Y-16279579D01*
X6876015Y-16279579D02*
X6876015Y-16289103D01*
X6876015Y-16289103D02*
X6866491Y-16308150D01*
X6866491Y-16308150D02*
X6856968Y-16317674D01*
X6856968Y-16317674D02*
X6837920Y-16327198D01*
X6837920Y-16327198D02*
X6799825Y-16327198D01*
X6799825Y-16327198D02*
X6780777Y-16336722D01*
X6780777Y-16336722D02*
X6771253Y-16346246D01*
X6771253Y-16346246D02*
X6761729Y-16365293D01*
X6761729Y-16365293D02*
X6761729Y-16403388D01*
X6761729Y-16403388D02*
X6771253Y-16422436D01*
X6771253Y-16422436D02*
X6780777Y-16431960D01*
X6780777Y-16431960D02*
X6799825Y-16441484D01*
X6799825Y-16441484D02*
X6837920Y-16441484D01*
X6837920Y-16441484D02*
X6856968Y-16431960D01*
X6856968Y-16431960D02*
X6866491Y-16422436D01*
X6866491Y-16422436D02*
X6876015Y-16403388D01*
X6876015Y-16403388D02*
X6876015Y-16365293D01*
X6876015Y-16365293D02*
X6866491Y-16346246D01*
X6866491Y-16346246D02*
X6856968Y-16336722D01*
X6856968Y-16336722D02*
X6837920Y-16327198D01*
X7114110Y-16441484D02*
X7114110Y-16241484D01*
X7199825Y-16441484D02*
X7199825Y-16336722D01*
X7199825Y-16336722D02*
X7190301Y-16317674D01*
X7190301Y-16317674D02*
X7171253Y-16308150D01*
X7171253Y-16308150D02*
X7142682Y-16308150D01*
X7142682Y-16308150D02*
X7123634Y-16317674D01*
X7123634Y-16317674D02*
X7114110Y-16327198D01*
X7323634Y-16441484D02*
X7304587Y-16431960D01*
X7304587Y-16431960D02*
X7295063Y-16422436D01*
X7295063Y-16422436D02*
X7285539Y-16403388D01*
X7285539Y-16403388D02*
X7285539Y-16346246D01*
X7285539Y-16346246D02*
X7295063Y-16327198D01*
X7295063Y-16327198D02*
X7304587Y-16317674D01*
X7304587Y-16317674D02*
X7323634Y-16308150D01*
X7323634Y-16308150D02*
X7352206Y-16308150D01*
X7352206Y-16308150D02*
X7371253Y-16317674D01*
X7371253Y-16317674D02*
X7380777Y-16327198D01*
X7380777Y-16327198D02*
X7390301Y-16346246D01*
X7390301Y-16346246D02*
X7390301Y-16403388D01*
X7390301Y-16403388D02*
X7380777Y-16422436D01*
X7380777Y-16422436D02*
X7371253Y-16431960D01*
X7371253Y-16431960D02*
X7352206Y-16441484D01*
X7352206Y-16441484D02*
X7323634Y-16441484D01*
X7504587Y-16441484D02*
X7485539Y-16431960D01*
X7485539Y-16431960D02*
X7476015Y-16412912D01*
X7476015Y-16412912D02*
X7476015Y-16241484D01*
X7656968Y-16431960D02*
X7637920Y-16441484D01*
X7637920Y-16441484D02*
X7599825Y-16441484D01*
X7599825Y-16441484D02*
X7580777Y-16431960D01*
X7580777Y-16431960D02*
X7571253Y-16412912D01*
X7571253Y-16412912D02*
X7571253Y-16336722D01*
X7571253Y-16336722D02*
X7580777Y-16317674D01*
X7580777Y-16317674D02*
X7599825Y-16308150D01*
X7599825Y-16308150D02*
X7637920Y-16308150D01*
X7637920Y-16308150D02*
X7656968Y-16317674D01*
X7656968Y-16317674D02*
X7666491Y-16336722D01*
X7666491Y-16336722D02*
X7666491Y-16355769D01*
X7666491Y-16355769D02*
X7571253Y-16374817D01*
X7742682Y-16431960D02*
X7761730Y-16441484D01*
X7761730Y-16441484D02*
X7799825Y-16441484D01*
X7799825Y-16441484D02*
X7818872Y-16431960D01*
X7818872Y-16431960D02*
X7828396Y-16412912D01*
X7828396Y-16412912D02*
X7828396Y-16403388D01*
X7828396Y-16403388D02*
X7818872Y-16384341D01*
X7818872Y-16384341D02*
X7799825Y-16374817D01*
X7799825Y-16374817D02*
X7771253Y-16374817D01*
X7771253Y-16374817D02*
X7752206Y-16365293D01*
X7752206Y-16365293D02*
X7742682Y-16346246D01*
X7742682Y-16346246D02*
X7742682Y-16336722D01*
X7742682Y-16336722D02*
X7752206Y-16317674D01*
X7752206Y-16317674D02*
X7771253Y-16308150D01*
X7771253Y-16308150D02*
X7799825Y-16308150D01*
X7799825Y-16308150D02*
X7818872Y-16317674D01*
X7895063Y-16517674D02*
X7904587Y-16508150D01*
X7904587Y-16508150D02*
X7923634Y-16479579D01*
X7923634Y-16479579D02*
X7933158Y-16460531D01*
X7933158Y-16460531D02*
X7942682Y-16431960D01*
X7942682Y-16431960D02*
X7952206Y-16384341D01*
X7952206Y-16384341D02*
X7952206Y-16346246D01*
X7952206Y-16346246D02*
X7942682Y-16298627D01*
X7942682Y-16298627D02*
X7933158Y-16270055D01*
X7933158Y-16270055D02*
X7923634Y-16251008D01*
X7923634Y-16251008D02*
X7904587Y-16222436D01*
X7904587Y-16222436D02*
X7895063Y-16212912D01*
X8256968Y-16517674D02*
X8247444Y-16508150D01*
X8247444Y-16508150D02*
X8228396Y-16479579D01*
X8228396Y-16479579D02*
X8218872Y-16460531D01*
X8218872Y-16460531D02*
X8209349Y-16431960D01*
X8209349Y-16431960D02*
X8199825Y-16384341D01*
X8199825Y-16384341D02*
X8199825Y-16346246D01*
X8199825Y-16346246D02*
X8209349Y-16298627D01*
X8209349Y-16298627D02*
X8218872Y-16270055D01*
X8218872Y-16270055D02*
X8228396Y-16251008D01*
X8228396Y-16251008D02*
X8247444Y-16222436D01*
X8247444Y-16222436D02*
X8256968Y-16212912D01*
X8333158Y-16308150D02*
X8333158Y-16441484D01*
X8333158Y-16327198D02*
X8342682Y-16317674D01*
X8342682Y-16317674D02*
X8361730Y-16308150D01*
X8361730Y-16308150D02*
X8390301Y-16308150D01*
X8390301Y-16308150D02*
X8409349Y-16317674D01*
X8409349Y-16317674D02*
X8418873Y-16336722D01*
X8418873Y-16336722D02*
X8418873Y-16441484D01*
X8542682Y-16441484D02*
X8523634Y-16431960D01*
X8523634Y-16431960D02*
X8514111Y-16422436D01*
X8514111Y-16422436D02*
X8504587Y-16403388D01*
X8504587Y-16403388D02*
X8504587Y-16346246D01*
X8504587Y-16346246D02*
X8514111Y-16327198D01*
X8514111Y-16327198D02*
X8523634Y-16317674D01*
X8523634Y-16317674D02*
X8542682Y-16308150D01*
X8542682Y-16308150D02*
X8571254Y-16308150D01*
X8571254Y-16308150D02*
X8590301Y-16317674D01*
X8590301Y-16317674D02*
X8599825Y-16327198D01*
X8599825Y-16327198D02*
X8609349Y-16346246D01*
X8609349Y-16346246D02*
X8609349Y-16403388D01*
X8609349Y-16403388D02*
X8599825Y-16422436D01*
X8599825Y-16422436D02*
X8590301Y-16431960D01*
X8590301Y-16431960D02*
X8571254Y-16441484D01*
X8571254Y-16441484D02*
X8542682Y-16441484D01*
X8666492Y-16308150D02*
X8742682Y-16308150D01*
X8695063Y-16241484D02*
X8695063Y-16412912D01*
X8695063Y-16412912D02*
X8704587Y-16431960D01*
X8704587Y-16431960D02*
X8723634Y-16441484D01*
X8723634Y-16441484D02*
X8742682Y-16441484D01*
X8961730Y-16308150D02*
X8961730Y-16508150D01*
X8961730Y-16317674D02*
X8980777Y-16308150D01*
X8980777Y-16308150D02*
X9018873Y-16308150D01*
X9018873Y-16308150D02*
X9037920Y-16317674D01*
X9037920Y-16317674D02*
X9047444Y-16327198D01*
X9047444Y-16327198D02*
X9056968Y-16346246D01*
X9056968Y-16346246D02*
X9056968Y-16403388D01*
X9056968Y-16403388D02*
X9047444Y-16422436D01*
X9047444Y-16422436D02*
X9037920Y-16431960D01*
X9037920Y-16431960D02*
X9018873Y-16441484D01*
X9018873Y-16441484D02*
X8980777Y-16441484D01*
X8980777Y-16441484D02*
X8961730Y-16431960D01*
X9171254Y-16441484D02*
X9152206Y-16431960D01*
X9152206Y-16431960D02*
X9142682Y-16412912D01*
X9142682Y-16412912D02*
X9142682Y-16241484D01*
X9333158Y-16441484D02*
X9333158Y-16336722D01*
X9333158Y-16336722D02*
X9323635Y-16317674D01*
X9323635Y-16317674D02*
X9304587Y-16308150D01*
X9304587Y-16308150D02*
X9266492Y-16308150D01*
X9266492Y-16308150D02*
X9247444Y-16317674D01*
X9333158Y-16431960D02*
X9314111Y-16441484D01*
X9314111Y-16441484D02*
X9266492Y-16441484D01*
X9266492Y-16441484D02*
X9247444Y-16431960D01*
X9247444Y-16431960D02*
X9237920Y-16412912D01*
X9237920Y-16412912D02*
X9237920Y-16393865D01*
X9237920Y-16393865D02*
X9247444Y-16374817D01*
X9247444Y-16374817D02*
X9266492Y-16365293D01*
X9266492Y-16365293D02*
X9314111Y-16365293D01*
X9314111Y-16365293D02*
X9333158Y-16355769D01*
X9399825Y-16308150D02*
X9476015Y-16308150D01*
X9428396Y-16241484D02*
X9428396Y-16412912D01*
X9428396Y-16412912D02*
X9437920Y-16431960D01*
X9437920Y-16431960D02*
X9456968Y-16441484D01*
X9456968Y-16441484D02*
X9476015Y-16441484D01*
X9618873Y-16431960D02*
X9599825Y-16441484D01*
X9599825Y-16441484D02*
X9561730Y-16441484D01*
X9561730Y-16441484D02*
X9542682Y-16431960D01*
X9542682Y-16431960D02*
X9533158Y-16412912D01*
X9533158Y-16412912D02*
X9533158Y-16336722D01*
X9533158Y-16336722D02*
X9542682Y-16317674D01*
X9542682Y-16317674D02*
X9561730Y-16308150D01*
X9561730Y-16308150D02*
X9599825Y-16308150D01*
X9599825Y-16308150D02*
X9618873Y-16317674D01*
X9618873Y-16317674D02*
X9628396Y-16336722D01*
X9628396Y-16336722D02*
X9628396Y-16355769D01*
X9628396Y-16355769D02*
X9533158Y-16374817D01*
X9799825Y-16441484D02*
X9799825Y-16241484D01*
X9799825Y-16431960D02*
X9780777Y-16441484D01*
X9780777Y-16441484D02*
X9742682Y-16441484D01*
X9742682Y-16441484D02*
X9723635Y-16431960D01*
X9723635Y-16431960D02*
X9714111Y-16422436D01*
X9714111Y-16422436D02*
X9704587Y-16403388D01*
X9704587Y-16403388D02*
X9704587Y-16346246D01*
X9704587Y-16346246D02*
X9714111Y-16327198D01*
X9714111Y-16327198D02*
X9723635Y-16317674D01*
X9723635Y-16317674D02*
X9742682Y-16308150D01*
X9742682Y-16308150D02*
X9780777Y-16308150D01*
X9780777Y-16308150D02*
X9799825Y-16317674D01*
X9876016Y-16517674D02*
X9885539Y-16508150D01*
X9885539Y-16508150D02*
X9904587Y-16479579D01*
X9904587Y-16479579D02*
X9914111Y-16460531D01*
X9914111Y-16460531D02*
X9923635Y-16431960D01*
X9923635Y-16431960D02*
X9933158Y-16384341D01*
X9933158Y-16384341D02*
X9933158Y-16346246D01*
X9933158Y-16346246D02*
X9923635Y-16298627D01*
X9923635Y-16298627D02*
X9914111Y-16270055D01*
X9914111Y-16270055D02*
X9904587Y-16251008D01*
X9904587Y-16251008D02*
X9885539Y-16222436D01*
X9885539Y-16222436D02*
X9876016Y-16212912D01*
M02*
