%TF.GenerationSoftware,KiCad,Pcbnew,8.0.8-8.0.8-0~ubuntu22.04.1*%
%TF.CreationDate,2025-01-31T14:52:17-08:00*%
%TF.ProjectId,Backplane_Board,4261636b-706c-4616-9e65-5f426f617264,1*%
%TF.SameCoordinates,Original*%
%TF.FileFunction,Soldermask,Top*%
%TF.FilePolarity,Negative*%
%FSLAX46Y46*%
G04 Gerber Fmt 4.6, Leading zero omitted, Abs format (unit mm)*
G04 Created by KiCad (PCBNEW 8.0.8-8.0.8-0~ubuntu22.04.1) date 2025-01-31 14:52:17*
%MOMM*%
%LPD*%
G01*
G04 APERTURE LIST*
G04 Aperture macros list*
%AMRoundRect*
0 Rectangle with rounded corners*
0 $1 Rounding radius*
0 $2 $3 $4 $5 $6 $7 $8 $9 X,Y pos of 4 corners*
0 Add a 4 corners polygon primitive as box body*
4,1,4,$2,$3,$4,$5,$6,$7,$8,$9,$2,$3,0*
0 Add four circle primitives for the rounded corners*
1,1,$1+$1,$2,$3*
1,1,$1+$1,$4,$5*
1,1,$1+$1,$6,$7*
1,1,$1+$1,$8,$9*
0 Add four rect primitives between the rounded corners*
20,1,$1+$1,$2,$3,$4,$5,0*
20,1,$1+$1,$4,$5,$6,$7,0*
20,1,$1+$1,$6,$7,$8,$9,0*
20,1,$1+$1,$8,$9,$2,$3,0*%
%AMFreePoly0*
4,1,9,5.362500,-0.866500,1.237500,-0.866500,1.237500,-0.450000,-1.237500,-0.450000,-1.237500,0.450000,1.237500,0.450000,1.237500,0.866500,5.362500,0.866500,5.362500,-0.866500,5.362500,-0.866500,$1*%
%AMFreePoly1*
4,1,19,0.500000,-0.750000,0.000000,-0.750000,0.000000,-0.744911,-0.071157,-0.744911,-0.207708,-0.704816,-0.327430,-0.627875,-0.420627,-0.520320,-0.479746,-0.390866,-0.500000,-0.250000,-0.500000,0.250000,-0.479746,0.390866,-0.420627,0.520320,-0.327430,0.627875,-0.207708,0.704816,-0.071157,0.744911,0.000000,0.744911,0.000000,0.750000,0.500000,0.750000,0.500000,-0.750000,0.500000,-0.750000,
$1*%
%AMFreePoly2*
4,1,19,0.000000,0.744911,0.071157,0.744911,0.207708,0.704816,0.327430,0.627875,0.420627,0.520320,0.479746,0.390866,0.500000,0.250000,0.500000,-0.250000,0.479746,-0.390866,0.420627,-0.520320,0.327430,-0.627875,0.207708,-0.704816,0.071157,-0.744911,0.000000,-0.744911,0.000000,-0.750000,-0.500000,-0.750000,-0.500000,0.750000,0.000000,0.750000,0.000000,0.744911,0.000000,0.744911,
$1*%
G04 Aperture macros list end*
%ADD10RoundRect,0.250000X0.300000X0.300000X-0.300000X0.300000X-0.300000X-0.300000X0.300000X-0.300000X0*%
%ADD11R,2.400000X2.400000*%
%ADD12C,2.400000*%
%ADD13RoundRect,0.250000X-0.350000X-0.450000X0.350000X-0.450000X0.350000X0.450000X-0.350000X0.450000X0*%
%ADD14RoundRect,0.218750X-0.256250X0.218750X-0.256250X-0.218750X0.256250X-0.218750X0.256250X0.218750X0*%
%ADD15R,4.510000X4.350000*%
%ADD16R,0.700000X0.700000*%
%ADD17RoundRect,0.175000X-0.175000X0.175000X-0.175000X-0.175000X0.175000X-0.175000X0.175000X0.175000X0*%
%ADD18RoundRect,0.250000X0.350000X0.450000X-0.350000X0.450000X-0.350000X-0.450000X0.350000X-0.450000X0*%
%ADD19RoundRect,0.250000X-0.450000X0.350000X-0.450000X-0.350000X0.450000X-0.350000X0.450000X0.350000X0*%
%ADD20RoundRect,0.250000X-0.262500X-0.450000X0.262500X-0.450000X0.262500X0.450000X-0.262500X0.450000X0*%
%ADD21RoundRect,0.050000X-0.300000X0.150000X-0.300000X-0.150000X0.300000X-0.150000X0.300000X0.150000X0*%
%ADD22RoundRect,0.150000X0.150000X-0.587500X0.150000X0.587500X-0.150000X0.587500X-0.150000X-0.587500X0*%
%ADD23RoundRect,0.250000X0.475000X-0.250000X0.475000X0.250000X-0.475000X0.250000X-0.475000X-0.250000X0*%
%ADD24RoundRect,0.243750X-0.456250X0.243750X-0.456250X-0.243750X0.456250X-0.243750X0.456250X0.243750X0*%
%ADD25RoundRect,0.250000X-0.700000X0.275000X-0.700000X-0.275000X0.700000X-0.275000X0.700000X0.275000X0*%
%ADD26RoundRect,0.250000X1.450000X-0.312500X1.450000X0.312500X-1.450000X0.312500X-1.450000X-0.312500X0*%
%ADD27RoundRect,0.250000X-0.475000X0.250000X-0.475000X-0.250000X0.475000X-0.250000X0.475000X0.250000X0*%
%ADD28RoundRect,0.102000X1.250000X-3.750000X1.250000X3.750000X-1.250000X3.750000X-1.250000X-3.750000X0*%
%ADD29RoundRect,0.150000X-0.150000X0.587500X-0.150000X-0.587500X0.150000X-0.587500X0.150000X0.587500X0*%
%ADD30RoundRect,0.218750X0.256250X-0.218750X0.256250X0.218750X-0.256250X0.218750X-0.256250X-0.218750X0*%
%ADD31RoundRect,0.250000X1.500000X0.550000X-1.500000X0.550000X-1.500000X-0.550000X1.500000X-0.550000X0*%
%ADD32RoundRect,0.250000X0.262500X0.450000X-0.262500X0.450000X-0.262500X-0.450000X0.262500X-0.450000X0*%
%ADD33RoundRect,0.250000X0.400000X0.625000X-0.400000X0.625000X-0.400000X-0.625000X0.400000X-0.625000X0*%
%ADD34R,1.700000X1.700000*%
%ADD35O,1.700000X1.700000*%
%ADD36RoundRect,0.760000X1.140000X1.140000X-1.140000X1.140000X-1.140000X-1.140000X1.140000X-1.140000X0*%
%ADD37C,3.800000*%
%ADD38RoundRect,0.250000X0.350000X0.650000X-0.350000X0.650000X-0.350000X-0.650000X0.350000X-0.650000X0*%
%ADD39O,1.200000X1.800000*%
%ADD40RoundRect,0.218750X-0.218750X-0.256250X0.218750X-0.256250X0.218750X0.256250X-0.218750X0.256250X0*%
%ADD41C,6.500000*%
%ADD42C,4.500000*%
%ADD43C,2.500000*%
%ADD44RoundRect,0.250000X-0.412500X-0.650000X0.412500X-0.650000X0.412500X0.650000X-0.412500X0.650000X0*%
%ADD45C,2.000000*%
%ADD46RoundRect,0.250000X-0.350000X-0.650000X0.350000X-0.650000X0.350000X0.650000X-0.350000X0.650000X0*%
%ADD47RoundRect,0.218750X0.218750X0.256250X-0.218750X0.256250X-0.218750X-0.256250X0.218750X-0.256250X0*%
%ADD48RoundRect,0.760000X1.140000X-1.140000X1.140000X1.140000X-1.140000X1.140000X-1.140000X-1.140000X0*%
%ADD49RoundRect,0.225000X0.925000X0.225000X-0.925000X0.225000X-0.925000X-0.225000X0.925000X-0.225000X0*%
%ADD50FreePoly0,180.000000*%
%ADD51C,0.900000*%
%ADD52C,8.600000*%
%ADD53R,2.235000X1.725000*%
%ADD54R,0.355600X0.762000*%
%ADD55RoundRect,0.250000X0.450000X-0.350000X0.450000X0.350000X-0.450000X0.350000X-0.450000X-0.350000X0*%
%ADD56RoundRect,0.250000X-0.300000X0.300000X-0.300000X-0.300000X0.300000X-0.300000X0.300000X0.300000X0*%
%ADD57R,2.000000X2.000000*%
%ADD58C,1.400000*%
%ADD59RoundRect,0.250000X0.700000X-0.275000X0.700000X0.275000X-0.700000X0.275000X-0.700000X-0.275000X0*%
%ADD60RoundRect,0.200000X0.200000X0.450000X-0.200000X0.450000X-0.200000X-0.450000X0.200000X-0.450000X0*%
%ADD61O,0.800000X1.300000*%
%ADD62RoundRect,0.150000X-0.150000X-0.625000X0.150000X-0.625000X0.150000X0.625000X-0.150000X0.625000X0*%
%ADD63RoundRect,0.250000X-0.625000X0.400000X-0.625000X-0.400000X0.625000X-0.400000X0.625000X0.400000X0*%
%ADD64R,0.700000X1.750000*%
%ADD65R,1.450000X1.000000*%
%ADD66R,1.000000X1.550000*%
%ADD67R,0.800000X1.500000*%
%ADD68R,1.300000X1.500000*%
%ADD69R,1.500000X1.500000*%
%ADD70R,0.800000X1.400000*%
%ADD71RoundRect,0.150000X-0.625000X0.150000X-0.625000X-0.150000X0.625000X-0.150000X0.625000X0.150000X0*%
%ADD72RoundRect,0.250000X-0.650000X0.350000X-0.650000X-0.350000X0.650000X-0.350000X0.650000X0.350000X0*%
%ADD73RoundRect,0.250000X-0.300000X-0.300000X0.300000X-0.300000X0.300000X0.300000X-0.300000X0.300000X0*%
%ADD74O,1.800000X1.800000*%
%ADD75O,1.500000X1.500000*%
%ADD76R,1.700000X3.500000*%
%ADD77R,3.500000X1.700000*%
%ADD78RoundRect,1.500000X1.500000X1.500000X-1.500000X1.500000X-1.500000X-1.500000X1.500000X-1.500000X0*%
%ADD79C,6.000000*%
%ADD80RoundRect,0.237500X0.300000X0.237500X-0.300000X0.237500X-0.300000X-0.237500X0.300000X-0.237500X0*%
%ADD81RoundRect,0.102000X0.754000X-0.754000X0.754000X0.754000X-0.754000X0.754000X-0.754000X-0.754000X0*%
%ADD82C,1.712000*%
%ADD83C,3.204000*%
%ADD84R,0.711200X0.304800*%
%ADD85R,1.397000X1.193800*%
%ADD86FreePoly1,270.000000*%
%ADD87FreePoly2,270.000000*%
%ADD88C,3.000000*%
%ADD89C,3.700000*%
G04 APERTURE END LIST*
D10*
%TO.C,D24*%
X193625037Y-93750000D03*
X190825037Y-93750000D03*
%TD*%
D11*
%TO.C,J8*%
X202000000Y-124000000D03*
D12*
X202000000Y-127500000D03*
%TD*%
D13*
%TO.C,R46*%
X200500000Y-119250000D03*
X202500000Y-119250000D03*
%TD*%
D14*
%TO.C,D19*%
X145841250Y-31193825D03*
X145841250Y-32768825D03*
%TD*%
D15*
%TO.C,Q1*%
X50810000Y-132180000D03*
D16*
X52715000Y-134650000D03*
X51445000Y-134650000D03*
X50175000Y-134650000D03*
X48905000Y-134650000D03*
D17*
X48905000Y-129050000D03*
X52715000Y-129050000D03*
X51445000Y-129050000D03*
X50175000Y-129050000D03*
%TD*%
D18*
%TO.C,R6*%
X98500000Y-65250000D03*
X96500000Y-65250000D03*
%TD*%
D11*
%TO.C,C8*%
X119100000Y-62500000D03*
D12*
X119100000Y-57500000D03*
%TD*%
D19*
%TO.C,R13*%
X119275000Y-119900000D03*
X119275000Y-121900000D03*
%TD*%
D20*
%TO.C,R43*%
X174387500Y-84550000D03*
X176212500Y-84550000D03*
%TD*%
D21*
%TO.C,D1*%
X34290000Y-128322500D03*
X34290000Y-129022500D03*
%TD*%
D22*
%TO.C,Q4*%
X167127187Y-39824762D03*
X169027187Y-39824762D03*
X168077187Y-37949762D03*
%TD*%
D14*
%TO.C,D11*%
X163927187Y-31799762D03*
X163927187Y-33374762D03*
%TD*%
D23*
%TO.C,C24*%
X163069925Y-86925000D03*
X163069925Y-85025000D03*
%TD*%
D11*
%TO.C,C13*%
X141700000Y-142100000D03*
D12*
X146700000Y-142100000D03*
%TD*%
D10*
%TO.C,D25*%
X179500000Y-94200000D03*
X176700000Y-94200000D03*
%TD*%
D24*
%TO.C,F9*%
X142291250Y-41493825D03*
X142291250Y-43368825D03*
%TD*%
D22*
%TO.C,Q5*%
X157312500Y-39537500D03*
X159212500Y-39537500D03*
X158262500Y-37662500D03*
%TD*%
D25*
%TO.C,R5*%
X103500000Y-58425000D03*
X103500000Y-61575000D03*
%TD*%
D26*
%TO.C,F5*%
X161500000Y-112462500D03*
X161500000Y-108187500D03*
%TD*%
D27*
%TO.C,C21*%
X164577187Y-42287262D03*
X164577187Y-44187262D03*
%TD*%
D28*
%TO.C,C1*%
X74000000Y-48075000D03*
X74000000Y-34575000D03*
%TD*%
D29*
%TO.C,Q8*%
X190625037Y-89175000D03*
X188725037Y-89175000D03*
X189675037Y-91050000D03*
%TD*%
D11*
%TO.C,J19*%
X192975000Y-146300000D03*
D12*
X189475000Y-146300000D03*
%TD*%
D30*
%TO.C,D20*%
X163719925Y-97362500D03*
X163719925Y-95787500D03*
%TD*%
D31*
%TO.C,C19*%
X177225000Y-124850000D03*
X171825000Y-124850000D03*
%TD*%
D30*
%TO.C,D27*%
X191875037Y-97287500D03*
X191875037Y-95712500D03*
%TD*%
D32*
%TO.C,R33*%
X149003750Y-44231325D03*
X147178750Y-44231325D03*
%TD*%
D25*
%TO.C,R4*%
X103150000Y-50725000D03*
X103150000Y-53875000D03*
%TD*%
D27*
%TO.C,C23*%
X144491250Y-41531325D03*
X144491250Y-43431325D03*
%TD*%
D33*
%TO.C,R8*%
X99000000Y-49800000D03*
X95900000Y-49800000D03*
%TD*%
D34*
%TO.C,J27*%
X197450000Y-111000000D03*
D35*
X197450000Y-108460000D03*
X197450000Y-105920000D03*
%TD*%
D36*
%TO.C,J25*%
X146100000Y-109400000D03*
D37*
X141100000Y-109400000D03*
%TD*%
D38*
%TO.C,J42*%
X178697500Y-101187500D03*
D39*
X176697500Y-101187500D03*
%TD*%
D33*
%TO.C,R9*%
X99000000Y-53450000D03*
X95900000Y-53450000D03*
%TD*%
D40*
%TO.C,D7*%
X161462500Y-116500000D03*
X163037500Y-116500000D03*
%TD*%
D41*
%TO.C,U3*%
X57895000Y-30975000D03*
X57895000Y-81775000D03*
X106195000Y-30975000D03*
X106195000Y-81775000D03*
D42*
X57895000Y-74155000D03*
D43*
X57895000Y-63995000D03*
X57895000Y-48755000D03*
D42*
X57895000Y-38595000D03*
X106195000Y-38595000D03*
D43*
X106195000Y-48755000D03*
X106195000Y-56375000D03*
X106195000Y-63995000D03*
D42*
X106195000Y-74155000D03*
%TD*%
D24*
%TO.C,F7*%
X162477187Y-42199762D03*
X162477187Y-44074762D03*
%TD*%
D33*
%TO.C,R10*%
X99000000Y-57150000D03*
X95900000Y-57150000D03*
%TD*%
D19*
%TO.C,R52*%
X178550000Y-75050000D03*
X178550000Y-77050000D03*
%TD*%
D33*
%TO.C,R21*%
X208435000Y-67000000D03*
X205335000Y-67000000D03*
%TD*%
D30*
%TO.C,D22*%
X193725037Y-97237500D03*
X193725037Y-95662500D03*
%TD*%
D44*
%TO.C,C18*%
X110387500Y-107225000D03*
X113512500Y-107225000D03*
%TD*%
D29*
%TO.C,Q9*%
X176450000Y-89575000D03*
X174550000Y-89575000D03*
X175500000Y-91450000D03*
%TD*%
D23*
%TO.C,C25*%
X192975037Y-86800000D03*
X192975037Y-84900000D03*
%TD*%
D45*
%TO.C,TP8*%
X46200000Y-80430000D03*
%TD*%
D32*
%TO.C,R32*%
X159350000Y-44600000D03*
X157525000Y-44600000D03*
%TD*%
D11*
%TO.C,J20*%
X174975000Y-146300000D03*
D12*
X171475000Y-146300000D03*
%TD*%
D20*
%TO.C,R42*%
X188562537Y-84150000D03*
X190387537Y-84150000D03*
%TD*%
D46*
%TO.C,J37*%
X164927187Y-28087262D03*
D39*
X166927187Y-28087262D03*
%TD*%
D32*
%TO.C,R41*%
X160632425Y-86625000D03*
X158807425Y-86625000D03*
%TD*%
D34*
%TO.C,J35*%
X165525000Y-110712500D03*
D35*
X165525000Y-108172500D03*
X165525000Y-105632500D03*
%TD*%
D20*
%TO.C,R35*%
X157312500Y-42250000D03*
X159137500Y-42250000D03*
%TD*%
D26*
%TO.C,F4*%
X153575000Y-112537500D03*
X153575000Y-108262500D03*
%TD*%
D34*
%TO.C,J36*%
X173500000Y-110925000D03*
D35*
X173500000Y-108385000D03*
X173500000Y-105845000D03*
%TD*%
D47*
%TO.C,D2*%
X96324300Y-140050000D03*
X94749300Y-140050000D03*
%TD*%
D14*
%TO.C,D12*%
X154225000Y-31562500D03*
X154225000Y-33137500D03*
%TD*%
D48*
%TO.C,J15*%
X124950000Y-79050000D03*
D37*
X124950000Y-74050000D03*
%TD*%
D30*
%TO.C,D30*%
X173525000Y-80437500D03*
X173525000Y-78862500D03*
%TD*%
D18*
%TO.C,R48*%
X151850000Y-76025000D03*
X149850000Y-76025000D03*
%TD*%
D24*
%TO.C,F10*%
X168600000Y-98087500D03*
X168600000Y-99962500D03*
%TD*%
D26*
%TO.C,F2*%
X185525000Y-113000000D03*
X185525000Y-108725000D03*
%TD*%
D49*
%TO.C,U1*%
X92125000Y-146075000D03*
D50*
X92037500Y-144575000D03*
D49*
X92125000Y-143075000D03*
%TD*%
D24*
%TO.C,F12*%
X183192575Y-98125000D03*
X183192575Y-100000000D03*
%TD*%
D26*
%TO.C,F1*%
X193450000Y-112887500D03*
X193450000Y-108612500D03*
%TD*%
D44*
%TO.C,C9*%
X89787500Y-46000000D03*
X92912500Y-46000000D03*
%TD*%
D40*
%TO.C,D3*%
X100675000Y-65250000D03*
X102250000Y-65250000D03*
%TD*%
D20*
%TO.C,R38*%
X193525037Y-89850000D03*
X195350037Y-89850000D03*
%TD*%
D38*
%TO.C,J41*%
X192925037Y-100900000D03*
D39*
X190925037Y-100900000D03*
%TD*%
D20*
%TO.C,R34*%
X167114687Y-42587262D03*
X168939687Y-42587262D03*
%TD*%
D48*
%TO.C,J17*%
X139550000Y-79075000D03*
D37*
X139550000Y-74075000D03*
%TD*%
D45*
%TO.C,TP1*%
X44325000Y-64125000D03*
%TD*%
D30*
%TO.C,D28*%
X177750000Y-97637500D03*
X177750000Y-96062500D03*
%TD*%
D51*
%TO.C,H2*%
X199055419Y-31719581D03*
X200000000Y-29439162D03*
X200000000Y-34000000D03*
X202280419Y-28494581D03*
D52*
X202280419Y-31719581D03*
D51*
X202280419Y-34944581D03*
X204560838Y-29439162D03*
X204560838Y-34000000D03*
X205505419Y-31719581D03*
%TD*%
D22*
%TO.C,Q6*%
X147091250Y-39268825D03*
X148991250Y-39268825D03*
X148041250Y-37393825D03*
%TD*%
D13*
%TO.C,R3*%
X32850000Y-107525000D03*
X34850000Y-107525000D03*
%TD*%
D11*
%TO.C,J6*%
X202000000Y-133000000D03*
D12*
X202000000Y-136500000D03*
%TD*%
D48*
%TO.C,J9*%
X138250000Y-63800000D03*
D37*
X138250000Y-58800000D03*
%TD*%
D53*
%TO.C,Q3*%
X195157600Y-117372800D03*
D54*
X194168800Y-116277000D03*
X194829200Y-116277000D03*
X195489600Y-116277000D03*
X196150000Y-116277000D03*
X196150000Y-119325000D03*
X194168800Y-119325000D03*
X194829200Y-119325000D03*
X195489600Y-119325000D03*
%TD*%
D55*
%TO.C,R51*%
X195025000Y-32125000D03*
X195025000Y-30125000D03*
%TD*%
D33*
%TO.C,R14*%
X119350000Y-95975000D03*
X116250000Y-95975000D03*
%TD*%
D56*
%TO.C,D6*%
X199000000Y-75000000D03*
X199000000Y-77800000D03*
%TD*%
D33*
%TO.C,R15*%
X119350000Y-99725000D03*
X116250000Y-99725000D03*
%TD*%
D23*
%TO.C,C26*%
X178750000Y-87300000D03*
X178750000Y-85400000D03*
%TD*%
D57*
%TO.C,SW1*%
X68625000Y-96075000D03*
D45*
X66085000Y-96075000D03*
%TD*%
D34*
%TO.C,J29*%
X181500000Y-111000000D03*
D35*
X181500000Y-108460000D03*
X181500000Y-105920000D03*
%TD*%
D14*
%TO.C,D17*%
X165777187Y-31749762D03*
X165777187Y-33324762D03*
%TD*%
D18*
%TO.C,R47*%
X156000000Y-76000000D03*
X154000000Y-76000000D03*
%TD*%
D10*
%TO.C,D21*%
X163669925Y-93875000D03*
X160869925Y-93875000D03*
%TD*%
D32*
%TO.C,R44*%
X190487537Y-86450000D03*
X188662537Y-86450000D03*
%TD*%
%TO.C,R45*%
X176350000Y-86900000D03*
X174525000Y-86900000D03*
%TD*%
D58*
%TO.C,J26*%
X69250000Y-107000000D03*
X66710000Y-107000000D03*
%TD*%
D59*
%TO.C,R18*%
X183275000Y-137275000D03*
X183275000Y-134125000D03*
%TD*%
D29*
%TO.C,Q7*%
X160669925Y-89300000D03*
X158769925Y-89300000D03*
X159719925Y-91175000D03*
%TD*%
D26*
%TO.C,F6*%
X169525000Y-112812500D03*
X169525000Y-108537500D03*
%TD*%
D44*
%TO.C,C12*%
X89637500Y-57200000D03*
X92762500Y-57200000D03*
%TD*%
D20*
%TO.C,R39*%
X179400000Y-90400000D03*
X181225000Y-90400000D03*
%TD*%
%TO.C,R37*%
X163607425Y-89925000D03*
X165432425Y-89925000D03*
%TD*%
D30*
%TO.C,D4*%
X119145000Y-117945000D03*
X119145000Y-116370000D03*
%TD*%
D60*
%TO.C,J31*%
X41250000Y-73600000D03*
D61*
X40000000Y-73600000D03*
X38750000Y-73600000D03*
X37500000Y-73600000D03*
%TD*%
D19*
%TO.C,R50*%
X173500000Y-75100000D03*
X173500000Y-77100000D03*
%TD*%
D44*
%TO.C,C11*%
X89725000Y-53450000D03*
X92850000Y-53450000D03*
%TD*%
D62*
%TO.C,J33*%
X146450000Y-51615000D03*
X147450000Y-51615000D03*
X148450000Y-51615000D03*
D46*
X145150000Y-49090000D03*
X149750000Y-49090000D03*
%TD*%
D44*
%TO.C,C4*%
X95449300Y-143000000D03*
X98574300Y-143000000D03*
%TD*%
D41*
%TO.C,U4*%
X82300000Y-93400000D03*
X82300000Y-144200000D03*
X130600000Y-93400000D03*
X130600000Y-144200000D03*
D42*
X82300000Y-136580000D03*
D43*
X82300000Y-126420000D03*
X82300000Y-111180000D03*
D42*
X82300000Y-101020000D03*
X130600000Y-101020000D03*
D43*
X130600000Y-111180000D03*
X130600000Y-118800000D03*
X130600000Y-126420000D03*
D42*
X130600000Y-136580000D03*
%TD*%
D55*
%TO.C,R23*%
X200500000Y-117000000D03*
X200500000Y-115000000D03*
%TD*%
D34*
%TO.C,J4*%
X36200000Y-46260000D03*
D35*
X36200000Y-48800000D03*
X36200000Y-51340000D03*
X36200000Y-53880000D03*
X36200000Y-56420000D03*
X36200000Y-58960000D03*
X36200000Y-61500000D03*
%TD*%
D48*
%TO.C,J16*%
X132600000Y-79100000D03*
D37*
X132600000Y-74100000D03*
%TD*%
D32*
%TO.C,R29*%
X154387500Y-38800000D03*
X152562500Y-38800000D03*
%TD*%
D11*
%TO.C,J21*%
X165975000Y-146300000D03*
D12*
X162475000Y-146300000D03*
%TD*%
D36*
%TO.C,J22*%
X146450000Y-130375000D03*
D37*
X141450000Y-130375000D03*
%TD*%
D63*
%TO.C,R1*%
X34290000Y-130772500D03*
X34290000Y-133872500D03*
%TD*%
D34*
%TO.C,J34*%
X157575000Y-110650000D03*
D35*
X157575000Y-108110000D03*
X157575000Y-105570000D03*
%TD*%
D32*
%TO.C,R30*%
X144141250Y-38581325D03*
X142316250Y-38581325D03*
%TD*%
D36*
%TO.C,J24*%
X146200000Y-115881600D03*
D37*
X141200000Y-115881600D03*
%TD*%
D33*
%TO.C,R22*%
X208550000Y-71000000D03*
X205450000Y-71000000D03*
%TD*%
D28*
%TO.C,C2*%
X95050000Y-126275000D03*
X95050000Y-112775000D03*
%TD*%
D32*
%TO.C,R31*%
X169027187Y-45087262D03*
X167202187Y-45087262D03*
%TD*%
D44*
%TO.C,C3*%
X96261800Y-145575000D03*
X99386800Y-145575000D03*
%TD*%
D36*
%TO.C,J23*%
X146224600Y-123300000D03*
D37*
X141224600Y-123300000D03*
%TD*%
D64*
%TO.C,J44*%
X182525000Y-26625000D03*
X183625000Y-26625000D03*
X184725000Y-26625000D03*
X185825000Y-26625000D03*
X186925000Y-26625000D03*
X188025000Y-26625000D03*
X189125000Y-26625000D03*
X190225000Y-26625000D03*
D65*
X191350000Y-35850000D03*
D66*
X180125000Y-37425000D03*
D67*
X191675000Y-34350000D03*
D68*
X191425000Y-26750000D03*
D69*
X180075000Y-26750000D03*
D70*
X179725000Y-35000000D03*
%TD*%
D44*
%TO.C,C16*%
X110437500Y-99725000D03*
X113562500Y-99725000D03*
%TD*%
D33*
%TO.C,R17*%
X119350000Y-107225000D03*
X116250000Y-107225000D03*
%TD*%
D71*
%TO.C,J30*%
X203475000Y-44700000D03*
X203475000Y-45700000D03*
X203475000Y-46700000D03*
D72*
X206000000Y-43400000D03*
X206000000Y-48000000D03*
%TD*%
D73*
%TO.C,D16*%
X143991250Y-34631325D03*
X146791250Y-34631325D03*
%TD*%
D34*
%TO.C,J28*%
X189550000Y-111000000D03*
D35*
X189550000Y-108460000D03*
X189550000Y-105920000D03*
%TD*%
D48*
%TO.C,J12*%
X137975000Y-51625000D03*
D37*
X137975000Y-46625000D03*
%TD*%
D11*
%TO.C,J7*%
X183975000Y-146300000D03*
D12*
X180475000Y-146300000D03*
%TD*%
D51*
%TO.C,H4*%
X34494581Y-29280419D03*
X35439162Y-27000000D03*
X35439162Y-31560838D03*
X37719581Y-26055419D03*
D52*
X37719581Y-29280419D03*
D51*
X37719581Y-32505419D03*
X40000000Y-27000000D03*
X40000000Y-31560838D03*
X40944581Y-29280419D03*
%TD*%
D33*
%TO.C,R16*%
X119350000Y-103525000D03*
X116250000Y-103525000D03*
%TD*%
D18*
%TO.C,R20*%
X179275000Y-140950000D03*
X177275000Y-140950000D03*
%TD*%
D14*
%TO.C,D13*%
X143891250Y-31143825D03*
X143891250Y-32718825D03*
%TD*%
D51*
%TO.C,H1*%
X201000000Y-145000000D03*
X201944581Y-142719581D03*
X201944581Y-147280419D03*
X204225000Y-141775000D03*
D52*
X204225000Y-145000000D03*
D51*
X204225000Y-148225000D03*
X206505419Y-142719581D03*
X206505419Y-147280419D03*
X207450000Y-145000000D03*
%TD*%
D11*
%TO.C,C14*%
X143300000Y-95050000D03*
D12*
X143300000Y-100050000D03*
%TD*%
D59*
%TO.C,R19*%
X183275000Y-129775000D03*
X183275000Y-126625000D03*
%TD*%
D32*
%TO.C,R28*%
X164227187Y-39287262D03*
X162402187Y-39287262D03*
%TD*%
D38*
%TO.C,J40*%
X163019925Y-101000000D03*
D39*
X161019925Y-101000000D03*
%TD*%
D40*
%TO.C,D5*%
X181700000Y-140950000D03*
X183275000Y-140950000D03*
%TD*%
D45*
%TO.C,TP2*%
X40000000Y-64000000D03*
%TD*%
D34*
%TO.C,J5*%
X68555000Y-89775000D03*
D35*
X66015000Y-89775000D03*
%TD*%
D44*
%TO.C,C10*%
X89875000Y-49800000D03*
X93000000Y-49800000D03*
%TD*%
D74*
%TO.C,U6*%
X201315000Y-59335000D03*
D75*
X198285000Y-59635000D03*
X198285000Y-64485000D03*
D74*
X201315000Y-64785000D03*
D35*
X201445000Y-53170000D03*
D76*
X201445000Y-52270000D03*
D35*
X198905000Y-53170000D03*
D76*
X198905000Y-52270000D03*
D34*
X196365000Y-53170000D03*
D76*
X196365000Y-52270000D03*
D35*
X193825000Y-53170000D03*
D76*
X193825000Y-52270000D03*
D35*
X191285000Y-53170000D03*
D76*
X191285000Y-52270000D03*
D35*
X188745000Y-53170000D03*
D76*
X188745000Y-52270000D03*
D35*
X186205000Y-53170000D03*
D76*
X186205000Y-52270000D03*
D34*
X183665000Y-53170000D03*
D76*
X183665000Y-52270000D03*
D35*
X181125000Y-53170000D03*
D76*
X181125000Y-52270000D03*
D35*
X178585000Y-53170000D03*
D76*
X178585000Y-52270000D03*
D35*
X176045000Y-53170000D03*
D76*
X176045000Y-52270000D03*
D35*
X173505000Y-53170000D03*
D76*
X173505000Y-52270000D03*
D34*
X170965000Y-53170000D03*
D76*
X170965000Y-52270000D03*
D35*
X168425000Y-53170000D03*
D76*
X168425000Y-52270000D03*
D35*
X165885000Y-53170000D03*
D76*
X165885000Y-52270000D03*
D35*
X163345000Y-53170000D03*
D76*
X163345000Y-52270000D03*
D35*
X160805000Y-53170000D03*
D76*
X160805000Y-52270000D03*
D34*
X158265000Y-53170000D03*
D76*
X158265000Y-52270000D03*
D35*
X155725000Y-53170000D03*
D76*
X155725000Y-52270000D03*
D35*
X153185000Y-53170000D03*
D76*
X153185000Y-52270000D03*
D35*
X153185000Y-70950000D03*
D76*
X153185000Y-71850000D03*
D35*
X155725000Y-70950000D03*
D76*
X155725000Y-71850000D03*
D34*
X158265000Y-70950000D03*
D76*
X158265000Y-71850000D03*
D35*
X160805000Y-70950000D03*
D76*
X160805000Y-71850000D03*
D35*
X163345000Y-70950000D03*
D76*
X163345000Y-71850000D03*
D35*
X165885000Y-70950000D03*
D76*
X165885000Y-71850000D03*
D35*
X168425000Y-70950000D03*
D76*
X168425000Y-71850000D03*
D34*
X170965000Y-70950000D03*
D76*
X170965000Y-71850000D03*
D35*
X173505000Y-70950000D03*
D76*
X173505000Y-71850000D03*
D35*
X176045000Y-70950000D03*
D76*
X176045000Y-71850000D03*
D35*
X178585000Y-70950000D03*
D76*
X178585000Y-71850000D03*
D35*
X181125000Y-70950000D03*
D76*
X181125000Y-71850000D03*
D34*
X183665000Y-70950000D03*
D76*
X183665000Y-71850000D03*
D35*
X186205000Y-70950000D03*
D76*
X186205000Y-71850000D03*
D35*
X188745000Y-70950000D03*
D76*
X188745000Y-71850000D03*
D35*
X191285000Y-70950000D03*
D76*
X191285000Y-71850000D03*
D35*
X193825000Y-70950000D03*
D76*
X193825000Y-71850000D03*
D34*
X196365000Y-70950000D03*
D76*
X196365000Y-71850000D03*
D35*
X198905000Y-70950000D03*
D76*
X198905000Y-71850000D03*
D35*
X201445000Y-70950000D03*
D76*
X201445000Y-71850000D03*
D35*
X153415000Y-59520000D03*
D77*
X152515000Y-59520000D03*
D34*
X153415000Y-62060000D03*
D77*
X152515000Y-62060000D03*
D35*
X153415000Y-64600000D03*
D77*
X152515000Y-64600000D03*
%TD*%
D34*
%TO.C,J32*%
X44700000Y-26935000D03*
D35*
X44700000Y-29475000D03*
X44700000Y-32015000D03*
X44700000Y-34555000D03*
X44700000Y-37095000D03*
%TD*%
D25*
%TO.C,R11*%
X127250000Y-113425000D03*
X127250000Y-116575000D03*
%TD*%
D24*
%TO.C,F8*%
X152525000Y-41912500D03*
X152525000Y-43787500D03*
%TD*%
D18*
%TO.C,R24*%
X159500000Y-116500000D03*
X157500000Y-116500000D03*
%TD*%
D33*
%TO.C,R7*%
X99050000Y-46000000D03*
X95950000Y-46000000D03*
%TD*%
D11*
%TO.C,C7*%
X118900000Y-48415216D03*
D12*
X118900000Y-43415216D03*
%TD*%
D25*
%TO.C,R12*%
X127000000Y-120925000D03*
X127000000Y-124075000D03*
%TD*%
D78*
%TO.C,J3*%
X59600000Y-143000000D03*
D79*
X52400000Y-143000000D03*
%TD*%
D80*
%TO.C,C5*%
X35162500Y-119900000D03*
X33437500Y-119900000D03*
%TD*%
D51*
%TO.C,H3*%
X35055419Y-144280419D03*
X36000000Y-142000000D03*
X36000000Y-146560838D03*
X38280419Y-141055419D03*
D52*
X38280419Y-144280419D03*
D51*
X38280419Y-147505419D03*
X40560838Y-142000000D03*
X40560838Y-146560838D03*
X41505419Y-144280419D03*
%TD*%
D30*
%TO.C,D31*%
X178550000Y-80362500D03*
X178550000Y-78787500D03*
%TD*%
D81*
%TO.C,Brd1*%
X37875000Y-103460000D03*
D82*
X37875000Y-100920000D03*
X37875000Y-98380000D03*
X37875000Y-95840000D03*
D83*
X38375000Y-110650000D03*
X38375000Y-88650000D03*
X60375000Y-88650000D03*
X60375000Y-110650000D03*
%TD*%
D27*
%TO.C,C22*%
X154875000Y-42050000D03*
X154875000Y-43950000D03*
%TD*%
D20*
%TO.C,R40*%
X158744925Y-84175000D03*
X160569925Y-84175000D03*
%TD*%
D26*
%TO.C,F3*%
X177525000Y-112887500D03*
X177525000Y-108612500D03*
%TD*%
D48*
%TO.C,J10*%
X130600000Y-63875000D03*
D37*
X130600000Y-58875000D03*
%TD*%
D48*
%TO.C,J18*%
X137900000Y-39800000D03*
D37*
X137900000Y-34800000D03*
%TD*%
D48*
%TO.C,J11*%
X129325000Y-39525000D03*
D37*
X129325000Y-34525000D03*
%TD*%
D44*
%TO.C,C15*%
X110487500Y-95975000D03*
X113612500Y-95975000D03*
%TD*%
D48*
%TO.C,J13*%
X130175000Y-51625000D03*
D37*
X130175000Y-46625000D03*
%TD*%
D48*
%TO.C,J14*%
X117700000Y-79050000D03*
D37*
X117700000Y-74050000D03*
%TD*%
D31*
%TO.C,C20*%
X177275000Y-134450000D03*
X171875000Y-134450000D03*
%TD*%
D20*
%TO.C,R36*%
X147191250Y-41881325D03*
X149016250Y-41881325D03*
%TD*%
D30*
%TO.C,D26*%
X161919925Y-97412500D03*
X161919925Y-95837500D03*
%TD*%
D84*
%TO.C,U2*%
X43250000Y-121800001D03*
X43250000Y-121200000D03*
X43250000Y-120000000D03*
X43250000Y-119400000D03*
X43250000Y-118800000D03*
X43250000Y-117599999D03*
D85*
X41400001Y-117549999D03*
D84*
X39550002Y-117599999D03*
X39550002Y-118200000D03*
X39550000Y-119400000D03*
X39550000Y-120000000D03*
X39550002Y-120600000D03*
X39550002Y-121800001D03*
D85*
X41400001Y-121850001D03*
%TD*%
D86*
%TO.C,JP5*%
X156000000Y-79000000D03*
D87*
X156000000Y-80300000D03*
%TD*%
D15*
%TO.C,Q2*%
X41585000Y-132180000D03*
D16*
X43490000Y-134650000D03*
X42220000Y-134650000D03*
X40950000Y-134650000D03*
X39680000Y-134650000D03*
D17*
X39680000Y-129050000D03*
X43490000Y-129050000D03*
X42220000Y-129050000D03*
X40950000Y-129050000D03*
%TD*%
D24*
%TO.C,F11*%
X197142650Y-97375000D03*
X197142650Y-99250000D03*
%TD*%
D14*
%TO.C,D18*%
X156025000Y-31550000D03*
X156025000Y-33125000D03*
%TD*%
D13*
%TO.C,R2*%
X98324300Y-140050000D03*
X100324300Y-140050000D03*
%TD*%
D30*
%TO.C,D23*%
X179600000Y-97637500D03*
X179600000Y-96062500D03*
%TD*%
D73*
%TO.C,D15*%
X154175000Y-35000000D03*
X156975000Y-35000000D03*
%TD*%
D46*
%TO.C,J38*%
X155025000Y-27900000D03*
D39*
X157025000Y-27900000D03*
%TD*%
D46*
%TO.C,J39*%
X144841250Y-27581325D03*
D39*
X146841250Y-27581325D03*
%TD*%
D11*
%TO.C,C6*%
X119100000Y-34815216D03*
D12*
X119100000Y-29815216D03*
%TD*%
D44*
%TO.C,C17*%
X110337500Y-103525000D03*
X113462500Y-103525000D03*
%TD*%
D73*
%TO.C,D14*%
X164027187Y-35337262D03*
X166827187Y-35337262D03*
%TD*%
D88*
%TO.C,U5*%
X158725000Y-139590000D03*
X158725000Y-131970000D03*
X158725000Y-124350000D03*
D89*
X186665000Y-124350000D03*
D88*
X186665000Y-128160000D03*
X186665000Y-131970000D03*
X186665000Y-135780000D03*
D89*
X186665000Y-139590000D03*
%TD*%
G36*
X64700432Y-113783053D02*
G01*
X64710957Y-113783158D01*
X64721450Y-113783208D01*
X66757125Y-113787614D01*
X66766032Y-113787954D01*
X67039190Y-113808220D01*
X67056812Y-113810810D01*
X67319898Y-113869041D01*
X67336970Y-113874130D01*
X67588993Y-113969455D01*
X67605158Y-113976938D01*
X67840919Y-114107389D01*
X67855845Y-114117110D01*
X68070485Y-114279996D01*
X68083865Y-114291756D01*
X68272952Y-114483718D01*
X68284508Y-114497273D01*
X68444134Y-114714338D01*
X68453630Y-114729409D01*
X68580517Y-114967125D01*
X68587754Y-114983402D01*
X68679264Y-115236826D01*
X68684095Y-115253971D01*
X68738352Y-115517905D01*
X68740676Y-115535566D01*
X68756819Y-115808994D01*
X68757025Y-115817904D01*
X68681943Y-121629216D01*
X68681515Y-121638024D01*
X68658761Y-121908104D01*
X68656037Y-121925519D01*
X68596206Y-122185350D01*
X68591040Y-122202202D01*
X68494974Y-122450923D01*
X68487470Y-122466873D01*
X68357113Y-122699452D01*
X68347424Y-122714177D01*
X68185397Y-122925934D01*
X68173718Y-122939135D01*
X67983315Y-123125769D01*
X67969882Y-123137182D01*
X67754936Y-123294936D01*
X67740021Y-123304329D01*
X67504875Y-123430014D01*
X67488779Y-123437197D01*
X67238187Y-123528272D01*
X67221235Y-123533100D01*
X66960269Y-123587722D01*
X66942803Y-123590098D01*
X66672303Y-123607449D01*
X66663488Y-123607700D01*
X58448487Y-123549578D01*
X58439639Y-123549199D01*
X58168305Y-123527854D01*
X58150805Y-123525210D01*
X57889614Y-123466429D01*
X57872667Y-123461321D01*
X57622490Y-123365945D01*
X57606444Y-123358475D01*
X57372410Y-123228460D01*
X57357591Y-123218783D01*
X57144444Y-123056768D01*
X57131153Y-123045079D01*
X56943244Y-122854367D01*
X56931753Y-122840905D01*
X56772909Y-122625380D01*
X56763452Y-122610418D01*
X56636918Y-122374485D01*
X56629687Y-122358331D01*
X56538026Y-122106772D01*
X56533169Y-122089751D01*
X56478262Y-121827718D01*
X56475877Y-121810180D01*
X56458551Y-121538544D01*
X56458304Y-121529692D01*
X56503423Y-115694280D01*
X56503809Y-115685410D01*
X56525441Y-115413367D01*
X56528110Y-115395822D01*
X56587372Y-115133997D01*
X56592519Y-115117013D01*
X56688547Y-114866338D01*
X56696064Y-114850263D01*
X56826890Y-114615866D01*
X56836626Y-114601028D01*
X56999582Y-114387693D01*
X57011337Y-114374397D01*
X57203070Y-114186519D01*
X57216601Y-114175038D01*
X57433191Y-114016451D01*
X57448224Y-114007018D01*
X57685235Y-113880976D01*
X57701459Y-113873786D01*
X57954033Y-113782867D01*
X57971118Y-113778066D01*
X58234093Y-113724132D01*
X58251688Y-113721820D01*
X58524111Y-113705715D01*
X58532988Y-113705509D01*
X64700432Y-113783053D01*
G37*
G36*
X64436425Y-125275293D02*
G01*
X64437944Y-125275321D01*
X64484741Y-125276483D01*
X64487783Y-125276596D01*
X64534470Y-125278903D01*
X64535987Y-125278987D01*
X66571661Y-125404596D01*
X66580156Y-125405415D01*
X66840216Y-125439537D01*
X66856934Y-125442914D01*
X67105728Y-125511267D01*
X67121826Y-125516906D01*
X67358890Y-125618757D01*
X67374062Y-125626552D01*
X67594907Y-125759973D01*
X67608866Y-125769777D01*
X67809308Y-125932240D01*
X67821789Y-125943866D01*
X67998045Y-126132304D01*
X68008812Y-126145533D01*
X68157536Y-126356369D01*
X68166386Y-126370950D01*
X68284774Y-126600208D01*
X68291539Y-126615866D01*
X68377342Y-126859193D01*
X68381895Y-126875632D01*
X68433494Y-127128436D01*
X68435748Y-127145343D01*
X68452440Y-127407121D01*
X68452689Y-127415651D01*
X68422231Y-133324622D01*
X68421860Y-133333598D01*
X68400450Y-133608883D01*
X68397765Y-133626636D01*
X68337819Y-133891539D01*
X68332599Y-133908719D01*
X68235029Y-134162175D01*
X68227382Y-134178421D01*
X68094221Y-134415144D01*
X68084308Y-134430114D01*
X67918360Y-134645120D01*
X67906389Y-134658503D01*
X67711131Y-134847287D01*
X67697352Y-134858800D01*
X67476875Y-135017406D01*
X67461579Y-135026809D01*
X67220502Y-135151914D01*
X67204008Y-135159008D01*
X66947406Y-135247979D01*
X66930060Y-135252618D01*
X66663288Y-135303600D01*
X66645455Y-135305684D01*
X66369599Y-135317804D01*
X66360615Y-135317873D01*
X58180429Y-135084182D01*
X58171712Y-135083626D01*
X57904554Y-135057087D01*
X57887347Y-135054142D01*
X57630837Y-134991392D01*
X57614212Y-134986060D01*
X57369058Y-134887906D01*
X57353349Y-134880293D01*
X57124398Y-134748678D01*
X57109912Y-134738933D01*
X56901727Y-134576478D01*
X56888754Y-134564796D01*
X56705437Y-134374702D01*
X56694233Y-134361313D01*
X56539434Y-134147364D01*
X56530222Y-134132535D01*
X56407006Y-133898970D01*
X56399967Y-133882994D01*
X56310771Y-133634432D01*
X56306046Y-133617626D01*
X56252643Y-133359004D01*
X56250325Y-133341700D01*
X56233498Y-133073768D01*
X56233258Y-133065037D01*
X56278707Y-127187014D01*
X56279093Y-127178144D01*
X56300725Y-126906101D01*
X56303394Y-126888556D01*
X56362656Y-126626731D01*
X56367803Y-126609747D01*
X56463831Y-126359072D01*
X56471348Y-126342997D01*
X56602174Y-126108600D01*
X56611910Y-126093762D01*
X56774866Y-125880427D01*
X56786621Y-125867131D01*
X56978354Y-125679253D01*
X56991885Y-125667772D01*
X57208475Y-125509185D01*
X57223508Y-125499752D01*
X57460519Y-125373710D01*
X57476743Y-125366520D01*
X57729317Y-125275601D01*
X57746402Y-125270800D01*
X58009377Y-125216866D01*
X58026972Y-125214554D01*
X58299395Y-125198449D01*
X58308272Y-125198243D01*
X64436425Y-125275293D01*
G37*
M02*
