%TF.GenerationSoftware,KiCad,Pcbnew,8.0.8-8.0.8-0~ubuntu22.04.1*%
%TF.CreationDate,2025-01-31T14:52:16-08:00*%
%TF.ProjectId,Backplane_Board,4261636b-706c-4616-9e65-5f426f617264,1*%
%TF.SameCoordinates,Original*%
%TF.FileFunction,Copper,L4,Bot*%
%TF.FilePolarity,Positive*%
%FSLAX46Y46*%
G04 Gerber Fmt 4.6, Leading zero omitted, Abs format (unit mm)*
G04 Created by KiCad (PCBNEW 8.0.8-8.0.8-0~ubuntu22.04.1) date 2025-01-31 14:52:16*
%MOMM*%
%LPD*%
G01*
G04 APERTURE LIST*
G04 Aperture macros list*
%AMRoundRect*
0 Rectangle with rounded corners*
0 $1 Rounding radius*
0 $2 $3 $4 $5 $6 $7 $8 $9 X,Y pos of 4 corners*
0 Add a 4 corners polygon primitive as box body*
4,1,4,$2,$3,$4,$5,$6,$7,$8,$9,$2,$3,0*
0 Add four circle primitives for the rounded corners*
1,1,$1+$1,$2,$3*
1,1,$1+$1,$4,$5*
1,1,$1+$1,$6,$7*
1,1,$1+$1,$8,$9*
0 Add four rect primitives between the rounded corners*
20,1,$1+$1,$2,$3,$4,$5,0*
20,1,$1+$1,$4,$5,$6,$7,0*
20,1,$1+$1,$6,$7,$8,$9,0*
20,1,$1+$1,$8,$9,$2,$3,0*%
%AMFreePoly0*
4,1,19,0.500000,-0.750000,0.000000,-0.750000,0.000000,-0.744911,-0.071157,-0.744911,-0.207708,-0.704816,-0.327430,-0.627875,-0.420627,-0.520320,-0.479746,-0.390866,-0.500000,-0.250000,-0.500000,0.250000,-0.479746,0.390866,-0.420627,0.520320,-0.327430,0.627875,-0.207708,0.704816,-0.071157,0.744911,0.000000,0.744911,0.000000,0.750000,0.500000,0.750000,0.500000,-0.750000,0.500000,-0.750000,
$1*%
%AMFreePoly1*
4,1,19,0.000000,0.744911,0.071157,0.744911,0.207708,0.704816,0.327430,0.627875,0.420627,0.520320,0.479746,0.390866,0.500000,0.250000,0.500000,-0.250000,0.479746,-0.390866,0.420627,-0.520320,0.327430,-0.627875,0.207708,-0.704816,0.071157,-0.744911,0.000000,-0.744911,0.000000,-0.750000,-0.500000,-0.750000,-0.500000,0.750000,0.000000,0.750000,0.000000,0.744911,0.000000,0.744911,
$1*%
G04 Aperture macros list end*
%TA.AperFunction,EtchedComponent*%
%ADD10C,0.000000*%
%TD*%
%TA.AperFunction,ComponentPad*%
%ADD11R,2.400000X2.400000*%
%TD*%
%TA.AperFunction,ComponentPad*%
%ADD12C,2.400000*%
%TD*%
%TA.AperFunction,ComponentPad*%
%ADD13R,1.700000X1.700000*%
%TD*%
%TA.AperFunction,ComponentPad*%
%ADD14O,1.700000X1.700000*%
%TD*%
%TA.AperFunction,ComponentPad*%
%ADD15RoundRect,0.760000X1.140000X1.140000X-1.140000X1.140000X-1.140000X-1.140000X1.140000X-1.140000X0*%
%TD*%
%TA.AperFunction,ComponentPad*%
%ADD16C,3.800000*%
%TD*%
%TA.AperFunction,ComponentPad*%
%ADD17RoundRect,0.250000X0.350000X0.650000X-0.350000X0.650000X-0.350000X-0.650000X0.350000X-0.650000X0*%
%TD*%
%TA.AperFunction,ComponentPad*%
%ADD18O,1.200000X1.800000*%
%TD*%
%TA.AperFunction,ComponentPad*%
%ADD19C,4.500000*%
%TD*%
%TA.AperFunction,ComponentPad*%
%ADD20C,2.500000*%
%TD*%
%TA.AperFunction,ComponentPad*%
%ADD21C,2.000000*%
%TD*%
%TA.AperFunction,ComponentPad*%
%ADD22RoundRect,0.250000X-0.350000X-0.650000X0.350000X-0.650000X0.350000X0.650000X-0.350000X0.650000X0*%
%TD*%
%TA.AperFunction,ComponentPad*%
%ADD23RoundRect,0.760000X1.140000X-1.140000X1.140000X1.140000X-1.140000X1.140000X-1.140000X-1.140000X0*%
%TD*%
%TA.AperFunction,ComponentPad*%
%ADD24C,0.900000*%
%TD*%
%TA.AperFunction,ComponentPad*%
%ADD25C,8.600000*%
%TD*%
%TA.AperFunction,ComponentPad*%
%ADD26R,2.000000X2.000000*%
%TD*%
%TA.AperFunction,ComponentPad*%
%ADD27C,1.400000*%
%TD*%
%TA.AperFunction,ComponentPad*%
%ADD28RoundRect,0.200000X0.200000X0.450000X-0.200000X0.450000X-0.200000X-0.450000X0.200000X-0.450000X0*%
%TD*%
%TA.AperFunction,ComponentPad*%
%ADD29O,0.800000X1.300000*%
%TD*%
%TA.AperFunction,ComponentPad*%
%ADD30RoundRect,1.500000X1.500000X1.500000X-1.500000X1.500000X-1.500000X-1.500000X1.500000X-1.500000X0*%
%TD*%
%TA.AperFunction,ComponentPad*%
%ADD31C,6.000000*%
%TD*%
%TA.AperFunction,ComponentPad*%
%ADD32R,1.508000X1.508000*%
%TD*%
%TA.AperFunction,ComponentPad*%
%ADD33C,1.508000*%
%TD*%
%TA.AperFunction,ComponentPad*%
%ADD34C,3.000000*%
%TD*%
%TA.AperFunction,SMDPad,CuDef*%
%ADD35R,2.500000X2.500000*%
%TD*%
%TA.AperFunction,ComponentPad*%
%ADD36C,3.700000*%
%TD*%
%TA.AperFunction,SMDPad,CuDef*%
%ADD37RoundRect,0.250000X-0.412500X-0.650000X0.412500X-0.650000X0.412500X0.650000X-0.412500X0.650000X0*%
%TD*%
%TA.AperFunction,SMDPad,CuDef*%
%ADD38FreePoly0,0.000000*%
%TD*%
%TA.AperFunction,SMDPad,CuDef*%
%ADD39FreePoly1,0.000000*%
%TD*%
%TA.AperFunction,ViaPad*%
%ADD40C,0.700000*%
%TD*%
%TA.AperFunction,ViaPad*%
%ADD41C,1.100000*%
%TD*%
%TA.AperFunction,ViaPad*%
%ADD42C,0.770000*%
%TD*%
%TA.AperFunction,ViaPad*%
%ADD43C,1.200000*%
%TD*%
%TA.AperFunction,Conductor*%
%ADD44C,0.500000*%
%TD*%
%TA.AperFunction,Conductor*%
%ADD45C,0.260000*%
%TD*%
%TA.AperFunction,Conductor*%
%ADD46C,1.000000*%
%TD*%
%TA.AperFunction,Conductor*%
%ADD47C,0.160000*%
%TD*%
%TA.AperFunction,Conductor*%
%ADD48C,0.200000*%
%TD*%
G04 APERTURE END LIST*
D10*
%TA.AperFunction,EtchedComponent*%
%TO.C,JP4*%
G36*
X54200000Y-113850000D02*
G01*
X53700000Y-113850000D01*
X53700000Y-113250000D01*
X54200000Y-113250000D01*
X54200000Y-113850000D01*
G37*
%TD.AperFunction*%
%TA.AperFunction,EtchedComponent*%
%TO.C,JP3*%
G36*
X54200000Y-116450000D02*
G01*
X53700000Y-116450000D01*
X53700000Y-115850000D01*
X54200000Y-115850000D01*
X54200000Y-116450000D01*
G37*
%TD.AperFunction*%
%TD*%
D11*
%TO.P,J8,1,Pin_1*%
%TO.N,GND*%
X202000000Y-124000000D03*
D12*
%TO.P,J8,2,Pin_2*%
%TO.N,+5V*%
X202000000Y-127500000D03*
%TD*%
D11*
%TO.P,C8,1*%
%TO.N,12V_ESC*%
X119100000Y-62500000D03*
D12*
%TO.P,C8,2*%
%TO.N,GND*%
X119100000Y-57500000D03*
%TD*%
D11*
%TO.P,C13,1*%
%TO.N,+12V*%
X141700000Y-142100000D03*
D12*
%TO.P,C13,2*%
%TO.N,GND*%
X146700000Y-142100000D03*
%TD*%
D11*
%TO.P,J19,1,Pin_1*%
%TO.N,GND*%
X192975000Y-146300000D03*
D12*
%TO.P,J19,2,Pin_2*%
%TO.N,+5V*%
X189475000Y-146300000D03*
%TD*%
D13*
%TO.P,J27,1,Pin_1*%
%TO.N,GND*%
X197450000Y-111000000D03*
D14*
%TO.P,J27,2,Pin_2*%
%TO.N,Net-(J27-Pin_2)*%
X197450000Y-108460000D03*
%TO.P,J27,3,Pin_3*%
%TO.N,SERVO0*%
X197450000Y-105920000D03*
%TD*%
D15*
%TO.P,J25,1,Pin_1*%
%TO.N,GND*%
X146100000Y-109400000D03*
D16*
%TO.P,J25,2,Pin_2*%
%TO.N,+12V*%
X141100000Y-109400000D03*
%TD*%
D17*
%TO.P,J42,1,Pin_1*%
%TO.N,Net-(D25-K)*%
X178697500Y-101187500D03*
D18*
%TO.P,J42,2,Pin_2*%
%TO.N,Net-(D25-A)*%
X176697500Y-101187500D03*
%TD*%
D19*
%TO.P,U3,1,+In*%
%TO.N,60V*%
X57895000Y-74155000D03*
D20*
%TO.P,U3,2,RC*%
%TO.N,KillSW*%
X57895000Y-63995000D03*
%TO.P,U3,3,Case*%
%TO.N,unconnected-(U3-Case-Pad3)*%
X57895000Y-48755000D03*
D19*
%TO.P,U3,4,-In*%
%TO.N,GND*%
X57895000Y-38595000D03*
%TO.P,U3,5,-Out*%
X106195000Y-38595000D03*
D20*
%TO.P,U3,6,-Sense*%
X106195000Y-48755000D03*
%TO.P,U3,7,V_adj*%
%TO.N,Net-(U3-V_adj)*%
X106195000Y-56375000D03*
%TO.P,U3,8,+Sense*%
%TO.N,12V_ESC*%
X106195000Y-63995000D03*
D19*
%TO.P,U3,9,+Out*%
X106195000Y-74155000D03*
%TD*%
D21*
%TO.P,TP8,1,1*%
%TO.N,GND*%
X46200000Y-80430000D03*
%TD*%
D11*
%TO.P,J20,1,Pin_1*%
%TO.N,GND*%
X174975000Y-146300000D03*
D12*
%TO.P,J20,2,Pin_2*%
%TO.N,+5V*%
X171475000Y-146300000D03*
%TD*%
D22*
%TO.P,J37,1,Pin_1*%
%TO.N,Net-(D14-K)*%
X164927187Y-28087262D03*
D18*
%TO.P,J37,2,Pin_2*%
%TO.N,Net-(D14-A)*%
X166927187Y-28087262D03*
%TD*%
D13*
%TO.P,J35,1,Pin_1*%
%TO.N,GND*%
X165525000Y-110712500D03*
D14*
%TO.P,J35,2,Pin_2*%
%TO.N,Net-(J35-Pin_2)*%
X165525000Y-108172500D03*
%TO.P,J35,3,Pin_3*%
%TO.N,SERVO4*%
X165525000Y-105632500D03*
%TD*%
D13*
%TO.P,J36,1,Pin_1*%
%TO.N,GND*%
X173500000Y-110925000D03*
D14*
%TO.P,J36,2,Pin_2*%
%TO.N,Net-(J36-Pin_2)*%
X173500000Y-108385000D03*
%TO.P,J36,3,Pin_3*%
%TO.N,SERVO3*%
X173500000Y-105845000D03*
%TD*%
D23*
%TO.P,J15,1,Pin_1*%
%TO.N,GND*%
X124950000Y-79050000D03*
D16*
%TO.P,J15,2,Pin_2*%
%TO.N,12V_ESC*%
X124950000Y-74050000D03*
%TD*%
D17*
%TO.P,J41,1,Pin_1*%
%TO.N,Net-(D24-K)*%
X192925037Y-100900000D03*
D18*
%TO.P,J41,2,Pin_2*%
%TO.N,Net-(D24-A)*%
X190925037Y-100900000D03*
%TD*%
D23*
%TO.P,J17,1,Pin_1*%
%TO.N,GND*%
X139550000Y-79075000D03*
D16*
%TO.P,J17,2,Pin_2*%
%TO.N,12V_ESC*%
X139550000Y-74075000D03*
%TD*%
D21*
%TO.P,TP1,1,1*%
%TO.N,I2C+*%
X44325000Y-64125000D03*
%TD*%
D24*
%TO.P,H2,1,1*%
%TO.N,GND*%
X199055419Y-31719581D03*
X200000000Y-29439162D03*
X200000000Y-34000000D03*
X202280419Y-28494581D03*
D25*
X202280419Y-31719581D03*
D24*
X202280419Y-34944581D03*
X204560838Y-29439162D03*
X204560838Y-34000000D03*
X205505419Y-31719581D03*
%TD*%
D11*
%TO.P,J6,1,Pin_1*%
%TO.N,GND*%
X202000000Y-133000000D03*
D12*
%TO.P,J6,2,Pin_2*%
%TO.N,+5V*%
X202000000Y-136500000D03*
%TD*%
D23*
%TO.P,J9,1,Pin_1*%
%TO.N,GND*%
X138250000Y-63800000D03*
D16*
%TO.P,J9,2,Pin_2*%
%TO.N,12V_ESC*%
X138250000Y-58800000D03*
%TD*%
D26*
%TO.P,SW1,1,A*%
%TO.N,KillSW*%
X68625000Y-96075000D03*
D21*
%TO.P,SW1,2,B*%
%TO.N,GND*%
X66085000Y-96075000D03*
%TD*%
D13*
%TO.P,J29,1,Pin_1*%
%TO.N,GND*%
X181500000Y-111000000D03*
D14*
%TO.P,J29,2,Pin_2*%
%TO.N,Net-(J29-Pin_2)*%
X181500000Y-108460000D03*
%TO.P,J29,3,Pin_3*%
%TO.N,SERVO2*%
X181500000Y-105920000D03*
%TD*%
D27*
%TO.P,J26,1,Pin_1*%
%TO.N,60V*%
X69250000Y-107000000D03*
%TO.P,J26,2,Pin_2*%
%TO.N,GND*%
X66710000Y-107000000D03*
%TD*%
D28*
%TO.P,J31,1,Pin_1*%
%TO.N,GND*%
X41250000Y-73600000D03*
D29*
%TO.P,J31,2,Pin_2*%
%TO.N,+3.3V*%
X40000000Y-73600000D03*
%TO.P,J31,3,Pin_3*%
%TO.N,I2C+*%
X38750000Y-73600000D03*
%TO.P,J31,4,Pin_4*%
%TO.N,I2C-*%
X37500000Y-73600000D03*
%TD*%
D19*
%TO.P,U4,1,+In*%
%TO.N,60V*%
X82300000Y-136580000D03*
D20*
%TO.P,U4,2,RC*%
%TO.N,GND*%
X82300000Y-126420000D03*
%TO.P,U4,3,Case*%
%TO.N,unconnected-(U4-Case-Pad3)*%
X82300000Y-111180000D03*
D19*
%TO.P,U4,4,-In*%
%TO.N,GND*%
X82300000Y-101020000D03*
%TO.P,U4,5,-Out*%
X130600000Y-101020000D03*
D20*
%TO.P,U4,6,-Sense*%
X130600000Y-111180000D03*
%TO.P,U4,7,V_adj*%
%TO.N,Net-(U4-V_adj)*%
X130600000Y-118800000D03*
%TO.P,U4,8,+Sense*%
%TO.N,+12V*%
X130600000Y-126420000D03*
D19*
%TO.P,U4,9,+Out*%
X130600000Y-136580000D03*
%TD*%
D13*
%TO.P,J4,1,Pin_1*%
%TO.N,+3.3V*%
X36200000Y-46260000D03*
D14*
%TO.P,J4,2,Pin_2*%
%TO.N,unconnected-(J4-Pin_2-Pad2)*%
X36200000Y-48800000D03*
%TO.P,J4,3,Pin_3*%
%TO.N,GND*%
X36200000Y-51340000D03*
%TO.P,J4,4,Pin_4*%
%TO.N,I2C+*%
X36200000Y-53880000D03*
%TO.P,J4,5,Pin_5*%
%TO.N,unconnected-(J4-Pin_5-Pad5)*%
X36200000Y-56420000D03*
%TO.P,J4,6,Pin_6*%
%TO.N,I2C-*%
X36200000Y-58960000D03*
%TO.P,J4,7,Pin_7*%
%TO.N,unconnected-(J4-Pin_7-Pad7)*%
X36200000Y-61500000D03*
%TD*%
D23*
%TO.P,J16,1,Pin_1*%
%TO.N,GND*%
X132600000Y-79100000D03*
D16*
%TO.P,J16,2,Pin_2*%
%TO.N,12V_ESC*%
X132600000Y-74100000D03*
%TD*%
D11*
%TO.P,J21,1,Pin_1*%
%TO.N,GND*%
X165975000Y-146300000D03*
D12*
%TO.P,J21,2,Pin_2*%
%TO.N,+5V*%
X162475000Y-146300000D03*
%TD*%
D15*
%TO.P,J22,1,Pin_1*%
%TO.N,GND*%
X146450000Y-130375000D03*
D16*
%TO.P,J22,2,Pin_2*%
%TO.N,+12V*%
X141450000Y-130375000D03*
%TD*%
D13*
%TO.P,J34,1,Pin_1*%
%TO.N,GND*%
X157575000Y-110650000D03*
D14*
%TO.P,J34,2,Pin_2*%
%TO.N,Net-(J34-Pin_2)*%
X157575000Y-108110000D03*
%TO.P,J34,3,Pin_3*%
%TO.N,SERVO5*%
X157575000Y-105570000D03*
%TD*%
D15*
%TO.P,J24,1,Pin_1*%
%TO.N,GND*%
X146200000Y-115881600D03*
D16*
%TO.P,J24,2,Pin_2*%
%TO.N,+12V*%
X141200000Y-115881600D03*
%TD*%
D15*
%TO.P,J23,1,Pin_1*%
%TO.N,GND*%
X146224600Y-123300000D03*
D16*
%TO.P,J23,2,Pin_2*%
%TO.N,+12V*%
X141224600Y-123300000D03*
%TD*%
D13*
%TO.P,J28,1,Pin_1*%
%TO.N,GND*%
X189550000Y-111000000D03*
D14*
%TO.P,J28,2,Pin_2*%
%TO.N,Net-(J28-Pin_2)*%
X189550000Y-108460000D03*
%TO.P,J28,3,Pin_3*%
%TO.N,SERVO1*%
X189550000Y-105920000D03*
%TD*%
D23*
%TO.P,J12,1,Pin_1*%
%TO.N,GND*%
X137975000Y-51625000D03*
D16*
%TO.P,J12,2,Pin_2*%
%TO.N,12V_ESC*%
X137975000Y-46625000D03*
%TD*%
D11*
%TO.P,J7,1,Pin_1*%
%TO.N,GND*%
X183975000Y-146300000D03*
D12*
%TO.P,J7,2,Pin_2*%
%TO.N,+5V*%
X180475000Y-146300000D03*
%TD*%
D24*
%TO.P,H4,1,1*%
%TO.N,GND*%
X34494581Y-29280419D03*
X35439162Y-27000000D03*
X35439162Y-31560838D03*
X37719581Y-26055419D03*
D25*
X37719581Y-29280419D03*
D24*
X37719581Y-32505419D03*
X40000000Y-27000000D03*
X40000000Y-31560838D03*
X40944581Y-29280419D03*
%TD*%
%TO.P,H1,1,1*%
%TO.N,GND*%
X201000000Y-145000000D03*
X201944581Y-142719581D03*
X201944581Y-147280419D03*
X204225000Y-141775000D03*
D25*
X204225000Y-145000000D03*
D24*
X204225000Y-148225000D03*
X206505419Y-142719581D03*
X206505419Y-147280419D03*
X207450000Y-145000000D03*
%TD*%
D11*
%TO.P,C14,1*%
%TO.N,+12V*%
X143300000Y-95050000D03*
D12*
%TO.P,C14,2*%
%TO.N,GND*%
X143300000Y-100050000D03*
%TD*%
D17*
%TO.P,J40,1,Pin_1*%
%TO.N,Net-(D21-K)*%
X163019925Y-101000000D03*
D18*
%TO.P,J40,2,Pin_2*%
%TO.N,Net-(D21-A)*%
X161019925Y-101000000D03*
%TD*%
D21*
%TO.P,TP2,1,1*%
%TO.N,I2C-*%
X40000000Y-64000000D03*
%TD*%
D13*
%TO.P,J5,1,Pin_1*%
%TO.N,KillSW*%
X68555000Y-89775000D03*
D14*
%TO.P,J5,2,Pin_2*%
%TO.N,GND*%
X66015000Y-89775000D03*
%TD*%
%TO.P,U6,1,GPIO0*%
%TO.N,UART(TX)*%
X201445000Y-53170000D03*
%TO.P,U6,2,GPIO1*%
%TO.N,UART(RX)*%
X198905000Y-53170000D03*
D13*
%TO.P,U6,3,GND*%
%TO.N,GND*%
X196365000Y-53170000D03*
D14*
%TO.P,U6,4,GPIO2*%
%TO.N,I2C+*%
X193825000Y-53170000D03*
%TO.P,U6,5,GPIO3*%
%TO.N,I2C-*%
X191285000Y-53170000D03*
%TO.P,U6,6,GPIO4*%
%TO.N,SW2*%
X188745000Y-53170000D03*
%TO.P,U6,7,GPIO5*%
%TO.N,SW0*%
X186205000Y-53170000D03*
D13*
%TO.P,U6,8,GND*%
%TO.N,GND*%
X183665000Y-53170000D03*
D14*
%TO.P,U6,9,GPIO6*%
%TO.N,SCK*%
X181125000Y-53170000D03*
%TO.P,U6,10,GPIO7*%
%TO.N,MOSI*%
X178585000Y-53170000D03*
%TO.P,U6,11,GPIO8*%
%TO.N,MISO*%
X176045000Y-53170000D03*
%TO.P,U6,12,GPIO9*%
%TO.N,CS*%
X173505000Y-53170000D03*
D13*
%TO.P,U6,13,GND*%
%TO.N,GND*%
X170965000Y-53170000D03*
D14*
%TO.P,U6,14,GPIO10*%
%TO.N,SW1*%
X168425000Y-53170000D03*
%TO.P,U6,15,GPIO11*%
%TO.N,SERVO1*%
X165885000Y-53170000D03*
%TO.P,U6,16,GPIO12*%
%TO.N,SERVO2*%
X163345000Y-53170000D03*
%TO.P,U6,17,GPIO13*%
%TO.N,SERVO3*%
X160805000Y-53170000D03*
D13*
%TO.P,U6,18,GND*%
%TO.N,GND*%
X158265000Y-53170000D03*
D14*
%TO.P,U6,19,GPIO14*%
%TO.N,SERVO4*%
X155725000Y-53170000D03*
%TO.P,U6,20,GPIO15*%
%TO.N,SERVO5*%
X153185000Y-53170000D03*
%TO.P,U6,21,GPIO16*%
%TO.N,esc_status*%
X153185000Y-70950000D03*
%TO.P,U6,22,GPIO17*%
%TO.N,ALERT*%
X155725000Y-70950000D03*
D13*
%TO.P,U6,23,GND*%
%TO.N,GND*%
X158265000Y-70950000D03*
D14*
%TO.P,U6,24,GPIO18*%
%TO.N,SW5*%
X160805000Y-70950000D03*
%TO.P,U6,25,GPIO19*%
%TO.N,SW4*%
X163345000Y-70950000D03*
%TO.P,U6,26,GPIO20*%
%TO.N,SW3*%
X165885000Y-70950000D03*
%TO.P,U6,27,GPIO21*%
%TO.N,SERVO0*%
X168425000Y-70950000D03*
D13*
%TO.P,U6,28,GND*%
%TO.N,GND*%
X170965000Y-70950000D03*
D14*
%TO.P,U6,29,GPIO22*%
%TO.N,Net-(U6-GPIO22)*%
X173505000Y-70950000D03*
%TO.P,U6,30,RUN*%
%TO.N,RUN*%
X176045000Y-70950000D03*
%TO.P,U6,31,GPIO26_ADC0*%
%TO.N,Net-(U6-GPIO26_ADC0)*%
X178585000Y-70950000D03*
%TO.P,U6,32,GPIO27_ADC1*%
%TO.N,unconnected-(U6-GPIO27_ADC1-Pad32)*%
X181125000Y-70950000D03*
D13*
%TO.P,U6,33,AGND*%
%TO.N,GND*%
X183665000Y-70950000D03*
D14*
%TO.P,U6,34,GPIO28_ADC2*%
%TO.N,unconnected-(U6-GPIO28_ADC2-Pad34)_1*%
X186205000Y-70950000D03*
%TO.P,U6,35,ADC_VREF*%
%TO.N,unconnected-(U6-ADC_VREF-Pad35)*%
X188745000Y-70950000D03*
%TO.P,U6,36,3V3*%
%TO.N,+3.3V*%
X191285000Y-70950000D03*
%TO.P,U6,37,3V3_EN*%
%TO.N,unconnected-(U6-3V3_EN-Pad37)*%
X193825000Y-70950000D03*
D13*
%TO.P,U6,38,GND*%
%TO.N,GND*%
X196365000Y-70950000D03*
D14*
%TO.P,U6,39,VSYS*%
%TO.N,Net-(D6-K)*%
X198905000Y-70950000D03*
%TO.P,U6,40,VBUS*%
%TO.N,unconnected-(U6-VBUS-Pad40)_1*%
X201445000Y-70950000D03*
%TO.P,U6,41,SWCLK*%
%TO.N,/BoardBoardConnections/DEBUG+*%
X153415000Y-59520000D03*
D13*
%TO.P,U6,42,GND*%
%TO.N,GND*%
X153415000Y-62060000D03*
D14*
%TO.P,U6,43,SWDIO*%
%TO.N,/BoardBoardConnections/DEBUG-*%
X153415000Y-64600000D03*
%TD*%
D13*
%TO.P,J32,1,Pin_1*%
%TO.N,+3.3V*%
X44700000Y-26935000D03*
D14*
%TO.P,J32,2,Pin_2*%
%TO.N,RUN*%
X44700000Y-29475000D03*
%TO.P,J32,3,Pin_3*%
%TO.N,I2C+*%
X44700000Y-32015000D03*
%TO.P,J32,4,Pin_4*%
%TO.N,I2C-*%
X44700000Y-34555000D03*
%TO.P,J32,5,Pin_5*%
%TO.N,GND*%
X44700000Y-37095000D03*
%TD*%
D11*
%TO.P,C7,1*%
%TO.N,12V_ESC*%
X118900000Y-48415216D03*
D12*
%TO.P,C7,2*%
%TO.N,GND*%
X118900000Y-43415216D03*
%TD*%
D30*
%TO.P,J3,1,Pin_1*%
%TO.N,GND*%
X59600000Y-143000000D03*
D31*
%TO.P,J3,2,Pin_2*%
%TO.N,PWR_IN*%
X52400000Y-143000000D03*
%TD*%
D24*
%TO.P,H3,1,1*%
%TO.N,GND*%
X35055419Y-144280419D03*
X36000000Y-142000000D03*
X36000000Y-146560838D03*
X38280419Y-141055419D03*
D25*
X38280419Y-144280419D03*
D24*
X38280419Y-147505419D03*
X40560838Y-142000000D03*
X40560838Y-146560838D03*
X41505419Y-144280419D03*
%TD*%
D32*
%TO.P,Brd1,1,GND*%
%TO.N,GND*%
X37875000Y-103460000D03*
D33*
%TO.P,Brd1,2,VCC*%
%TO.N,+3.3V*%
X37875000Y-100920000D03*
%TO.P,Brd1,3,SCL*%
%TO.N,I2C-*%
X37875000Y-98380000D03*
%TO.P,Brd1,4,SDA*%
%TO.N,I2C+*%
X37875000Y-95840000D03*
D34*
%TO.P,Brd1,S1*%
%TO.N,N/C*%
X38375000Y-110650000D03*
%TO.P,Brd1,S2*%
X38375000Y-88650000D03*
%TO.P,Brd1,S3*%
X60375000Y-88650000D03*
%TO.P,Brd1,S4*%
X60375000Y-110650000D03*
%TD*%
D23*
%TO.P,J10,1,Pin_1*%
%TO.N,GND*%
X130600000Y-63875000D03*
D16*
%TO.P,J10,2,Pin_2*%
%TO.N,12V_ESC*%
X130600000Y-58875000D03*
%TD*%
D23*
%TO.P,J18,1,Pin_1*%
%TO.N,GND*%
X137900000Y-39800000D03*
D16*
%TO.P,J18,2,Pin_2*%
%TO.N,12V_ESC*%
X137900000Y-34800000D03*
%TD*%
D23*
%TO.P,J11,1,Pin_1*%
%TO.N,GND*%
X129325000Y-39525000D03*
D16*
%TO.P,J11,2,Pin_2*%
%TO.N,12V_ESC*%
X129325000Y-34525000D03*
%TD*%
D23*
%TO.P,J13,1,Pin_1*%
%TO.N,GND*%
X130175000Y-51625000D03*
D16*
%TO.P,J13,2,Pin_2*%
%TO.N,12V_ESC*%
X130175000Y-46625000D03*
%TD*%
D23*
%TO.P,J14,1,Pin_1*%
%TO.N,GND*%
X117700000Y-79050000D03*
D16*
%TO.P,J14,2,Pin_2*%
%TO.N,12V_ESC*%
X117700000Y-74050000D03*
%TD*%
D22*
%TO.P,J38,1,Pin_1*%
%TO.N,Net-(D15-K)*%
X155025000Y-27900000D03*
D18*
%TO.P,J38,2,Pin_2*%
%TO.N,Net-(D15-A)*%
X157025000Y-27900000D03*
%TD*%
D22*
%TO.P,J39,1,Pin_1*%
%TO.N,Net-(D16-K)*%
X144841250Y-27581325D03*
D18*
%TO.P,J39,2,Pin_2*%
%TO.N,Net-(D16-A)*%
X146841250Y-27581325D03*
%TD*%
D11*
%TO.P,C6,1*%
%TO.N,12V_ESC*%
X119100000Y-34815216D03*
D12*
%TO.P,C6,2*%
%TO.N,GND*%
X119100000Y-29815216D03*
%TD*%
D35*
%TO.P,TP7,1,1*%
%TO.N,+3.3V*%
X147599400Y-80543400D03*
%TD*%
D34*
%TO.P,U5,1,+VIN*%
%TO.N,+12V*%
X158725000Y-139590000D03*
%TO.P,U5,2,ON/OFF*%
%TO.N,GND*%
X158725000Y-131970000D03*
%TO.P,U5,3,-VIN*%
X158725000Y-124350000D03*
D36*
%TO.P,U5,4,-VO*%
X186665000Y-124350000D03*
D34*
%TO.P,U5,5,SENSE*%
X186665000Y-128160000D03*
%TO.P,U5,6,TRIM*%
%TO.N,Net-(U5-TRIM)*%
X186665000Y-131970000D03*
%TO.P,U5,7,SENSE*%
%TO.N,+5V*%
X186665000Y-135780000D03*
D36*
%TO.P,U5,8,+VO*%
X186665000Y-139590000D03*
%TD*%
D35*
%TO.P,TP6,1,1*%
%TO.N,KillSW*%
X72212200Y-91109800D03*
%TD*%
%TO.P,TP5,1,1*%
%TO.N,Net-(D1-A)*%
X41986200Y-134162800D03*
%TD*%
%TO.P,TP3,1,1*%
%TO.N,UART(TX)*%
X206000000Y-57000000D03*
%TD*%
D37*
%TO.P,C27,1*%
%TO.N,+3.3V*%
X186775000Y-32100000D03*
%TO.P,C27,2*%
%TO.N,GND*%
X189900000Y-32100000D03*
%TD*%
D38*
%TO.P,JP4,1,A*%
%TO.N,A0*%
X53300000Y-113550000D03*
D39*
%TO.P,JP4,2,B*%
%TO.N,GND*%
X54600000Y-113550000D03*
%TD*%
D38*
%TO.P,JP2,1,A*%
%TO.N,A0*%
X53300000Y-118850000D03*
D39*
%TO.P,JP2,2,B*%
%TO.N,I2C-*%
X54600000Y-118850000D03*
%TD*%
D38*
%TO.P,JP1,1,A*%
%TO.N,A1*%
X53300000Y-121550000D03*
D39*
%TO.P,JP1,2,B*%
%TO.N,I2C-*%
X54600000Y-121550000D03*
%TD*%
D38*
%TO.P,JP3,1,A*%
%TO.N,A1*%
X53300000Y-116150000D03*
D39*
%TO.P,JP3,2,B*%
%TO.N,GND*%
X54600000Y-116150000D03*
%TD*%
D35*
%TO.P,TP4,1,1*%
%TO.N,UART(RX)*%
X195000000Y-57000000D03*
%TD*%
D40*
%TO.N,60V*%
X43000000Y-115000000D03*
X40000000Y-113000000D03*
X46000000Y-111000000D03*
X68000000Y-112000000D03*
X70000000Y-116000000D03*
X70000000Y-118000000D03*
X40500000Y-115500000D03*
X50000000Y-116000000D03*
X65000000Y-117000000D03*
D41*
X75979754Y-52579754D03*
D40*
X68000000Y-118000000D03*
X66000000Y-112000000D03*
X36000000Y-114000000D03*
X38000000Y-116000000D03*
X65000000Y-112000000D03*
X53000000Y-111000000D03*
X35000000Y-115000000D03*
X69000000Y-112000000D03*
X64000000Y-116000000D03*
X61000000Y-115000000D03*
X67000000Y-112000000D03*
X41000000Y-114000000D03*
X42500000Y-115500000D03*
X63000000Y-117000000D03*
X46000000Y-113000000D03*
X51000000Y-117000000D03*
X44000000Y-114000000D03*
X49000000Y-118000000D03*
X38500000Y-114500000D03*
X70000000Y-117000000D03*
X54000000Y-111000000D03*
X52000000Y-111000000D03*
X35000000Y-112000000D03*
X70000000Y-115000000D03*
X35000000Y-111000000D03*
X38500000Y-115500000D03*
X67000000Y-111000000D03*
X69000000Y-113000000D03*
X37000000Y-113000000D03*
X70000000Y-112000000D03*
X51000000Y-115000000D03*
X66000000Y-115000000D03*
X96261800Y-147238200D03*
X61000000Y-117000000D03*
X66000000Y-113000000D03*
X40500000Y-118600000D03*
X57000000Y-111000000D03*
X63000000Y-112000000D03*
X38500000Y-117500000D03*
X42100000Y-118600000D03*
X38500000Y-118500000D03*
X49000000Y-111000000D03*
X50000000Y-117000000D03*
X64000000Y-119000000D03*
X67000000Y-115000000D03*
X41000000Y-111000000D03*
X62000000Y-117000000D03*
X43500000Y-113500000D03*
X39500000Y-116500000D03*
X68000000Y-111000000D03*
X58000000Y-116000000D03*
D41*
X97282500Y-130107500D03*
D40*
X67000000Y-117000000D03*
X59000000Y-116000000D03*
X43500000Y-114500000D03*
X62000000Y-116000000D03*
X35000000Y-114000000D03*
X45000000Y-115000000D03*
X67000000Y-116000000D03*
X60000000Y-116000000D03*
X62000000Y-118000000D03*
X38000000Y-114000000D03*
X59000000Y-118000000D03*
X45000000Y-112000000D03*
X59000000Y-119000000D03*
X39000000Y-114000000D03*
X48000000Y-111000000D03*
X39000000Y-113000000D03*
X48000000Y-114000000D03*
X39500000Y-113500000D03*
X35000000Y-113000000D03*
X39000000Y-116000000D03*
X64000000Y-111000000D03*
X46000000Y-115000000D03*
X63000000Y-116000000D03*
X66000000Y-116000000D03*
X65000000Y-111000000D03*
X61000000Y-119000000D03*
X37000000Y-118000000D03*
X45000000Y-111000000D03*
X36000000Y-115000000D03*
X42000000Y-114000000D03*
X42000000Y-116000000D03*
X60000000Y-117000000D03*
X38000000Y-118000000D03*
X64000000Y-112000000D03*
X40000000Y-114000000D03*
X59000000Y-115000000D03*
X41000000Y-116000000D03*
X61000000Y-116000000D03*
X60000000Y-118000000D03*
X65000000Y-115000000D03*
X62000000Y-119000000D03*
X48000000Y-115000000D03*
X42500000Y-114500000D03*
X67000000Y-119000000D03*
X66000000Y-119000000D03*
X41000000Y-112000000D03*
X49000000Y-113000000D03*
X59000000Y-117000000D03*
X63000000Y-115000000D03*
X66000000Y-117000000D03*
X36000000Y-112000000D03*
X48000000Y-113000000D03*
X46000000Y-114000000D03*
X63000000Y-111000000D03*
X40900000Y-119200000D03*
X38000000Y-117000000D03*
X51000000Y-116000000D03*
X50000000Y-118000000D03*
X43500000Y-115500000D03*
X43000000Y-112000000D03*
X64000000Y-113000000D03*
X41500000Y-115500000D03*
X49000000Y-112000000D03*
X58000000Y-115000000D03*
X41000000Y-115000000D03*
X70000000Y-114000000D03*
D41*
X98102745Y-130927745D03*
D40*
X41700000Y-119200000D03*
X66000000Y-118000000D03*
X44000000Y-115000000D03*
X63000000Y-113000000D03*
X41300000Y-118600000D03*
X36000000Y-113000000D03*
X37000000Y-116000000D03*
X41500000Y-114500000D03*
X47000000Y-113000000D03*
X68000000Y-113000000D03*
X44000000Y-116000000D03*
X43000000Y-113000000D03*
X36000000Y-111000000D03*
X64000000Y-118000000D03*
X41000000Y-113000000D03*
X70000000Y-119000000D03*
X60000000Y-115000000D03*
X36000000Y-117000000D03*
X47000000Y-112000000D03*
X58000000Y-118000000D03*
X37000000Y-117000000D03*
X43000000Y-114000000D03*
X42000000Y-113000000D03*
X37000000Y-114000000D03*
X69000000Y-111000000D03*
X40000000Y-116000000D03*
X68000000Y-116000000D03*
X58000000Y-119000000D03*
X68000000Y-117000000D03*
X44500000Y-116500000D03*
X39500000Y-115500000D03*
X67000000Y-113000000D03*
X48000000Y-112000000D03*
X64000000Y-117000000D03*
X60000000Y-119000000D03*
X45000000Y-113000000D03*
X44500000Y-115500000D03*
X43000000Y-111000000D03*
X65000000Y-118000000D03*
X68000000Y-115000000D03*
X61000000Y-118000000D03*
X44000000Y-111000000D03*
X43000000Y-116000000D03*
X49000000Y-114000000D03*
X63000000Y-118000000D03*
X49000000Y-117000000D03*
X63000000Y-119000000D03*
X40000000Y-115000000D03*
X37000000Y-115000000D03*
X38500000Y-116500000D03*
X38500000Y-113500000D03*
D41*
X76800000Y-53400000D03*
D40*
X65000000Y-119000000D03*
X62000000Y-115000000D03*
X39500000Y-114500000D03*
X38000000Y-115000000D03*
X42000000Y-115000000D03*
X47000000Y-115000000D03*
X46000000Y-112000000D03*
X47000000Y-114000000D03*
X70000000Y-113000000D03*
X67000000Y-118000000D03*
X47000000Y-111000000D03*
X39000000Y-115000000D03*
X41500000Y-113500000D03*
X55000000Y-111000000D03*
X65000000Y-116000000D03*
X35000000Y-116000000D03*
X42500000Y-113500000D03*
X40500000Y-114500000D03*
X44000000Y-112000000D03*
X68000000Y-119000000D03*
X36000000Y-116000000D03*
X44500000Y-114500000D03*
X66000000Y-111000000D03*
X64000000Y-115000000D03*
X40500000Y-113500000D03*
X56000000Y-111000000D03*
X58000000Y-117000000D03*
X65000000Y-113000000D03*
X42000000Y-112000000D03*
X42000000Y-111000000D03*
%TO.N,GND*%
X119275000Y-123900000D03*
X164407406Y-84975000D03*
D42*
X170554762Y-44059687D03*
D40*
X170025000Y-137450000D03*
D42*
X160748712Y-43723713D03*
D40*
X94500000Y-65250000D03*
D42*
X156000000Y-116500000D03*
D40*
X148425000Y-75125000D03*
X32200000Y-120300000D03*
X89875000Y-47900000D03*
X54600000Y-114850000D03*
X170412500Y-135912500D03*
D42*
X147641250Y-31081325D03*
D40*
X170025000Y-127000000D03*
X180087481Y-85350000D03*
D41*
X93570000Y-108070000D03*
D40*
X202064760Y-45981760D03*
X110337500Y-101625000D03*
X101974300Y-140050000D03*
D41*
X92749754Y-107249754D03*
D40*
X145886212Y-44529963D03*
D41*
X71329754Y-29604754D03*
D40*
X170025000Y-136500000D03*
X192875000Y-27300000D03*
X110387500Y-105375000D03*
X94000000Y-147000000D03*
X89725000Y-51600000D03*
D42*
X154903675Y-85143675D03*
D40*
X101324300Y-145575000D03*
X170412500Y-126412500D03*
D41*
X72150000Y-30425000D03*
D42*
X175908750Y-97681175D03*
D43*
X34290000Y-135497500D03*
D40*
X156078712Y-44923713D03*
X175525000Y-140950000D03*
X100500000Y-143000000D03*
X177750000Y-26050000D03*
X194400000Y-84900000D03*
D42*
X157839962Y-31480038D03*
D40*
X147950000Y-49300000D03*
D42*
X184836325Y-85021250D03*
D40*
X179875000Y-80600000D03*
X89637500Y-55350000D03*
D42*
X190036325Y-97271250D03*
D40*
X190475000Y-33850000D03*
X180775000Y-35475000D03*
D42*
X170708750Y-85431175D03*
D40*
X110437500Y-97875000D03*
D42*
X150550000Y-43325000D03*
D40*
X165861012Y-45235937D03*
D42*
X167604762Y-31809687D03*
D40*
X170025000Y-127950000D03*
X174800000Y-80875000D03*
D42*
X160103675Y-97393675D03*
D40*
%TO.N,+3.3V*%
X208435000Y-69000000D03*
X147400000Y-84000000D03*
X184888260Y-28413260D03*
X195900000Y-47425000D03*
X35900000Y-86200000D03*
%TO.N,12V_ESC*%
X152525000Y-44937501D03*
X142286212Y-44704963D03*
X99000000Y-51600000D03*
X99000000Y-55300000D03*
X162477187Y-45382112D03*
X99050000Y-47800000D03*
%TO.N,SHUNT+*%
X64340000Y-129020000D03*
X36250000Y-121500000D03*
X59340000Y-126020000D03*
X41000000Y-127000000D03*
X44250000Y-122250000D03*
X37750000Y-123750000D03*
X38000000Y-128000000D03*
X44250000Y-121500000D03*
X45750000Y-121500000D03*
X65340000Y-129020000D03*
X45000000Y-128000000D03*
X66340000Y-128020000D03*
X45500000Y-127500000D03*
X60950000Y-122380000D03*
X60340000Y-128020000D03*
X40000000Y-128000000D03*
X43000000Y-127000000D03*
X60950000Y-121380000D03*
X62340000Y-126020000D03*
X37750000Y-124500000D03*
X52500000Y-127500000D03*
X59340000Y-127020000D03*
X44000000Y-127000000D03*
X63340000Y-126020000D03*
X41100000Y-120200000D03*
X59340000Y-128020000D03*
X45000000Y-127000000D03*
X44000000Y-128000000D03*
X40000000Y-123750000D03*
X46500000Y-123750000D03*
X59340000Y-129020000D03*
X36250000Y-123750000D03*
X47500000Y-127500000D03*
X62950000Y-121380000D03*
X45000000Y-122250000D03*
X66950000Y-120380000D03*
X43500000Y-127500000D03*
X62950000Y-120380000D03*
X52000000Y-127000000D03*
X63950000Y-123380000D03*
X37000000Y-123750000D03*
X42000000Y-127000000D03*
X44500000Y-127500000D03*
X58950000Y-120380000D03*
X41900000Y-120200000D03*
X43000000Y-128000000D03*
X62340000Y-127020000D03*
X65950000Y-122380000D03*
X34000000Y-127000000D03*
X46000000Y-127000000D03*
X44250000Y-123750000D03*
X35000000Y-127000000D03*
X49500000Y-127500000D03*
X37750000Y-123000000D03*
X60950000Y-120380000D03*
X64340000Y-127020000D03*
X58340000Y-129020000D03*
X60340000Y-129020000D03*
X59950000Y-122380000D03*
X61950000Y-121380000D03*
X42300000Y-120800000D03*
X38500000Y-123000000D03*
X66950000Y-123380000D03*
X58950000Y-123380000D03*
X48500000Y-127500000D03*
X46500000Y-124500000D03*
X61340000Y-128020000D03*
X50000000Y-127000000D03*
X37000000Y-124500000D03*
X50000000Y-128000000D03*
X63340000Y-129020000D03*
X58340000Y-126020000D03*
X67340000Y-126020000D03*
X38500000Y-127500000D03*
X47000000Y-128000000D03*
X67950000Y-121380000D03*
X63950000Y-121380000D03*
X44250000Y-124500000D03*
X48000000Y-128000000D03*
X39250000Y-123000000D03*
X43500000Y-123750000D03*
X65950000Y-120380000D03*
X42500000Y-127500000D03*
X46500000Y-122250000D03*
X39250000Y-123750000D03*
X39250000Y-124500000D03*
X45000000Y-121500000D03*
X40000000Y-124500000D03*
X61950000Y-122380000D03*
X40500000Y-127500000D03*
X38500000Y-123750000D03*
X39500000Y-127500000D03*
X45000000Y-124500000D03*
X42750000Y-123750000D03*
X64950000Y-120380000D03*
X60950000Y-123380000D03*
X37750000Y-121500000D03*
X42000000Y-128000000D03*
X59950000Y-123380000D03*
X39000000Y-127000000D03*
X51000000Y-128000000D03*
X63340000Y-128020000D03*
X36250000Y-123000000D03*
X64340000Y-128020000D03*
X57950000Y-123380000D03*
X37000000Y-123000000D03*
X66340000Y-127020000D03*
X45750000Y-123750000D03*
X51000000Y-127000000D03*
X66950000Y-121380000D03*
X41500000Y-120800000D03*
X46500000Y-121500000D03*
X43500000Y-123000000D03*
X62950000Y-122380000D03*
X39000000Y-128000000D03*
X62340000Y-129020000D03*
X38000000Y-127000000D03*
X47000000Y-127000000D03*
X40000000Y-123000000D03*
X36250000Y-122250000D03*
X66950000Y-122380000D03*
X45750000Y-122250000D03*
X57950000Y-122380000D03*
X63950000Y-120380000D03*
X37500000Y-127500000D03*
X50500000Y-127500000D03*
X53000000Y-128000000D03*
X62950000Y-123380000D03*
X57950000Y-120380000D03*
X49000000Y-127000000D03*
X61340000Y-127020000D03*
X38500000Y-122250000D03*
X38500000Y-121500000D03*
X44250000Y-123000000D03*
X36500000Y-127500000D03*
X45750000Y-123000000D03*
X65340000Y-128020000D03*
X60340000Y-127020000D03*
X61950000Y-123380000D03*
X67950000Y-120380000D03*
X59950000Y-120380000D03*
X58340000Y-127020000D03*
X40700000Y-120800000D03*
X40000000Y-127000000D03*
X41000000Y-128000000D03*
X57340000Y-126020000D03*
X57950000Y-121380000D03*
X62340000Y-128020000D03*
X42750000Y-124500000D03*
X45750000Y-124500000D03*
X58950000Y-122380000D03*
X65340000Y-127020000D03*
X67950000Y-122380000D03*
X51500000Y-127500000D03*
X66340000Y-129020000D03*
X48000000Y-127000000D03*
X65950000Y-123380000D03*
X37000000Y-128000000D03*
X64340000Y-126020000D03*
X60340000Y-126020000D03*
X67340000Y-128020000D03*
X37000000Y-121500000D03*
X64950000Y-122380000D03*
X63950000Y-122380000D03*
X57340000Y-127020000D03*
X53000000Y-127000000D03*
X42750000Y-123000000D03*
X64950000Y-123380000D03*
X61340000Y-126020000D03*
X66340000Y-126020000D03*
X63340000Y-127020000D03*
X65340000Y-126020000D03*
X41500000Y-127500000D03*
X45000000Y-123000000D03*
X59950000Y-121380000D03*
X57340000Y-129020000D03*
X38500000Y-124500000D03*
X46000000Y-128000000D03*
X52000000Y-128000000D03*
X58950000Y-121380000D03*
X36000000Y-127000000D03*
X67340000Y-129020000D03*
X36000000Y-128000000D03*
X58340000Y-128020000D03*
X61340000Y-129020000D03*
X46500000Y-123000000D03*
X61950000Y-120380000D03*
X45000000Y-123750000D03*
X64950000Y-121380000D03*
X65950000Y-121380000D03*
X49000000Y-128000000D03*
X67340000Y-127020000D03*
X37750000Y-122250000D03*
X43500000Y-124500000D03*
X67950000Y-123380000D03*
X36250000Y-124500000D03*
X37000000Y-127000000D03*
X46500000Y-127500000D03*
X37000000Y-122250000D03*
X57340000Y-128020000D03*
%TO.N,Net-(D1-A)*%
X46600000Y-130900000D03*
X37656600Y-130900000D03*
%TO.N,+5V*%
X191500000Y-121500000D03*
X194000000Y-121000000D03*
X197000000Y-122000000D03*
X193500000Y-121500000D03*
X191500000Y-120500000D03*
X178362500Y-133362500D03*
X192500000Y-119500000D03*
X193500000Y-120500000D03*
X178775000Y-132500000D03*
X192000000Y-120000000D03*
X197000000Y-120000000D03*
X192000000Y-122000000D03*
X192500000Y-122500000D03*
X196000000Y-122000000D03*
X194500000Y-122500000D03*
X193000000Y-121000000D03*
X193000000Y-122000000D03*
X195000000Y-121000000D03*
X193000000Y-120000000D03*
X195000000Y-122000000D03*
X192000000Y-121000000D03*
X178775000Y-131700000D03*
X197500000Y-121500000D03*
X192500000Y-121500000D03*
X178650000Y-123000000D03*
X197500000Y-120500000D03*
X178650000Y-122075000D03*
X197500000Y-119500000D03*
X195500000Y-120500000D03*
X194500000Y-121500000D03*
X196000000Y-121000000D03*
X197000000Y-121000000D03*
X196500000Y-121500000D03*
X193500000Y-122500000D03*
X178237500Y-123737500D03*
X195500000Y-122500000D03*
X192500000Y-120500000D03*
X195500000Y-121500000D03*
X196500000Y-120500000D03*
X194500000Y-120500000D03*
X194000000Y-122000000D03*
X191500000Y-119500000D03*
X196500000Y-122500000D03*
D42*
%TO.N,5V_KillSW*%
X156000000Y-114000000D03*
X166000000Y-114000000D03*
D40*
X192000000Y-116500000D03*
D42*
X162000000Y-114000000D03*
D40*
X195500000Y-115000000D03*
D42*
X178000000Y-114000000D03*
X160000000Y-114000000D03*
D40*
X192500000Y-115000000D03*
D42*
X172000000Y-114000000D03*
X157000000Y-114000000D03*
D40*
X193000000Y-115500000D03*
D42*
X155000000Y-114000000D03*
D40*
X195000000Y-114500000D03*
X196000000Y-114500000D03*
X196500000Y-115000000D03*
D42*
X174000000Y-114000000D03*
X183000000Y-114000000D03*
X184000000Y-114000000D03*
D40*
X197500000Y-116000000D03*
D42*
X181000000Y-114000000D03*
D40*
X197000000Y-114500000D03*
D42*
X173000000Y-114000000D03*
X197142650Y-100250000D03*
X171000000Y-114000000D03*
X169000000Y-114000000D03*
D40*
X193000000Y-116500000D03*
X194500000Y-115000000D03*
X191500000Y-116000000D03*
D42*
X177000000Y-114000000D03*
D40*
X198000000Y-115500000D03*
X191000000Y-116500000D03*
D42*
X161000000Y-114000000D03*
X168600000Y-101025000D03*
X182000000Y-114000000D03*
D40*
X191500000Y-115000000D03*
D42*
X180000000Y-114000000D03*
X154000000Y-114000000D03*
X175000000Y-114000000D03*
X153000000Y-114000000D03*
D40*
X193525000Y-114475000D03*
X192500000Y-116000000D03*
X197500000Y-115000000D03*
X197500000Y-117000000D03*
X197000000Y-115500000D03*
D42*
X183192575Y-101000000D03*
X163000000Y-114000000D03*
X158000000Y-114000000D03*
X164000000Y-114000000D03*
X167000000Y-114000000D03*
X176000000Y-114000000D03*
D40*
X191000000Y-115500000D03*
D42*
X168000000Y-114000000D03*
X165000000Y-114000000D03*
D40*
X191500000Y-117000000D03*
D42*
X152000000Y-114000000D03*
X179000000Y-114000000D03*
D40*
X198000000Y-114500000D03*
D42*
X187000000Y-114000000D03*
X185000000Y-114000000D03*
X186000000Y-114000000D03*
D40*
X192000000Y-115500000D03*
D42*
X170000000Y-114000000D03*
X159000000Y-114000000D03*
D40*
X192500000Y-117000000D03*
X191000000Y-114500000D03*
X192000000Y-114500000D03*
%TO.N,+12V*%
X119145000Y-114270000D03*
X119350000Y-97825000D03*
X119350000Y-101475000D03*
X119350000Y-105325000D03*
%TO.N,KillSW*%
X200000000Y-113500000D03*
X156016224Y-82100000D03*
%TO.N,RUN*%
X171637500Y-29162500D03*
%TO.N,A1*%
X51300000Y-120900000D03*
%TO.N,A0*%
X51600000Y-119400000D03*
%TO.N,SW2*%
X175075000Y-46171740D03*
%TO.N,SW0*%
X173750000Y-46917262D03*
%TO.N,SW5*%
X161775000Y-83160000D03*
%TO.N,SW3*%
X189000000Y-81500000D03*
%TO.N,SW4*%
X177887537Y-82112463D03*
%TO.N,I2C+*%
X47329412Y-117789012D03*
%TO.N,I2C-*%
X46650588Y-117110188D03*
%TO.N,MISO*%
X176076740Y-47651740D03*
%TD*%
D44*
%TO.N,GND*%
X66015000Y-96005000D02*
X66085000Y-96075000D01*
D45*
X54600000Y-116150000D02*
X54600000Y-114850000D01*
X54600000Y-114850000D02*
X54600000Y-113550000D01*
X190475000Y-33850000D02*
X190125000Y-33850000D01*
X189900000Y-33625000D02*
X189900000Y-32100000D01*
D44*
X66015000Y-89775000D02*
X66015000Y-96005000D01*
D45*
X190125000Y-33850000D02*
X189900000Y-33625000D01*
%TO.N,+3.3V*%
X184888260Y-33363260D02*
X195900000Y-44375000D01*
D46*
X35900000Y-86200000D02*
X145175000Y-86200000D01*
X147400000Y-84000000D02*
X147400000Y-80742800D01*
D45*
X195900000Y-44375000D02*
X195900000Y-47425000D01*
X186775000Y-32100000D02*
X184888260Y-32100000D01*
X184888260Y-28413260D02*
X184888260Y-32100000D01*
D46*
X147400000Y-84000000D02*
X147225000Y-84175000D01*
X147225000Y-84175000D02*
X147200000Y-84175000D01*
D45*
X184888260Y-32100000D02*
X184888260Y-33363260D01*
D46*
X147200000Y-84175000D02*
X145175000Y-86200000D01*
X147400000Y-80742800D02*
X147599400Y-80543400D01*
D44*
%TO.N,Net-(D1-A)*%
X37656600Y-130900000D02*
X41986200Y-130900000D01*
X41986200Y-130900000D02*
X46600000Y-130900000D01*
D45*
X41986200Y-134162800D02*
X41986200Y-130900000D01*
D44*
%TO.N,KillSW*%
X70877400Y-89775000D02*
X72212200Y-91109800D01*
X68555000Y-89775000D02*
X70877400Y-89775000D01*
X200000000Y-113500000D02*
X197230000Y-113500000D01*
X156260000Y-96485000D02*
X156260000Y-82343776D01*
X196090000Y-107934740D02*
X187380260Y-99225000D01*
X69125000Y-89775000D02*
X68555000Y-89775000D01*
X156260000Y-82343776D02*
X156016224Y-82100000D01*
X159000000Y-99225000D02*
X156260000Y-96485000D01*
X196090000Y-112360000D02*
X196090000Y-107934740D01*
X68625000Y-96075000D02*
X68625000Y-89845000D01*
X187380260Y-99225000D02*
X159000000Y-99225000D01*
X68625000Y-89845000D02*
X68555000Y-89775000D01*
X197230000Y-113500000D02*
X196090000Y-112360000D01*
D45*
%TO.N,SERVO0*%
X189740000Y-95802939D02*
X189740000Y-81190000D01*
X173577964Y-77950000D02*
X168425000Y-72797036D01*
X186500000Y-77950000D02*
X173577964Y-77950000D01*
X197450000Y-105920000D02*
X197450000Y-103512939D01*
X189740000Y-81190000D02*
X186500000Y-77950000D01*
X197450000Y-103512939D02*
X189740000Y-95802939D01*
X168425000Y-72797036D02*
X168425000Y-70950000D01*
%TO.N,UART(TX)*%
X205275000Y-57000000D02*
X201445000Y-53170000D01*
X206000000Y-57000000D02*
X205275000Y-57000000D01*
%TO.N,UART(RX)*%
X195075000Y-57000000D02*
X198905000Y-53170000D01*
X195000000Y-57000000D02*
X195075000Y-57000000D01*
D47*
%TO.N,RUN*%
X172315000Y-29840000D02*
X172315000Y-67220000D01*
X171637500Y-29162500D02*
X172315000Y-29840000D01*
X172315000Y-67220000D02*
X176045000Y-70950000D01*
D45*
%TO.N,A1*%
X50860000Y-120460000D02*
X51950000Y-121550000D01*
X53250000Y-121600000D02*
X53300000Y-121550000D01*
X52000000Y-121600000D02*
X53250000Y-121600000D01*
X51950000Y-121550000D02*
X52000000Y-121600000D01*
X50860000Y-118590000D02*
X50860000Y-120460000D01*
X53300000Y-116150000D02*
X50860000Y-118590000D01*
X51300000Y-120900000D02*
X51950000Y-121550000D01*
%TO.N,A0*%
X54095000Y-117300000D02*
X54971155Y-117300000D01*
X52000000Y-119400000D02*
X52550000Y-118850000D01*
X55500091Y-116771064D02*
X55500091Y-112928936D01*
X51600000Y-119400000D02*
X52000000Y-119400000D01*
X55500091Y-112928936D02*
X54976155Y-112405000D01*
X52550000Y-118850000D02*
X53300000Y-118850000D01*
X53690000Y-112405000D02*
X53300000Y-112795000D01*
X53300000Y-118850000D02*
X53300000Y-118095000D01*
X54971155Y-117300000D02*
X55500091Y-116771064D01*
X54976155Y-112405000D02*
X53690000Y-112405000D01*
X53300000Y-112795000D02*
X53300000Y-113550000D01*
X53300000Y-118095000D02*
X54095000Y-117300000D01*
%TO.N,SW2*%
X175078260Y-46175000D02*
X185175000Y-46175000D01*
X185175000Y-46175000D02*
X188745000Y-49745000D01*
X188745000Y-49745000D02*
X188745000Y-53170000D01*
X175075000Y-46171740D02*
X175078260Y-46175000D01*
%TO.N,SW0*%
X173750000Y-46917262D02*
X173755522Y-46911740D01*
X184286740Y-46911740D02*
X186205000Y-48830000D01*
X173755522Y-46911740D02*
X184286740Y-46911740D01*
X186205000Y-48830000D02*
X186205000Y-53170000D01*
%TO.N,SW5*%
X161775000Y-71920000D02*
X160805000Y-70950000D01*
X161775000Y-83160000D02*
X161775000Y-71920000D01*
D48*
%TO.N,SW3*%
X173560000Y-78625000D02*
X165885000Y-70950000D01*
X189000000Y-81500000D02*
X186125000Y-78625000D01*
X186125000Y-78625000D02*
X173560000Y-78625000D01*
%TO.N,SW4*%
X165215269Y-72820269D02*
X163345000Y-70950000D01*
X174875074Y-79100000D02*
X173384462Y-79100000D01*
X173384462Y-79100000D02*
X167104731Y-72820269D01*
X167104731Y-72820269D02*
X165215269Y-72820269D01*
X177887537Y-82112463D02*
X174875074Y-79100000D01*
D45*
%TO.N,SERVO3*%
X157666321Y-103172304D02*
X156648088Y-103172304D01*
X156648088Y-103172304D02*
X150415000Y-96939216D01*
X150415000Y-96939216D02*
X150415000Y-57410784D01*
X150415000Y-57410784D02*
X152135588Y-55690196D01*
X152135588Y-55690196D02*
X158284804Y-55690196D01*
X172047500Y-104392500D02*
X158886517Y-104392500D01*
X158284804Y-55690196D02*
X160805000Y-53170000D01*
X173500000Y-105845000D02*
X172047500Y-104392500D01*
X158886517Y-104392500D02*
X157666321Y-103172304D01*
%TO.N,SERVO5*%
X153185000Y-53170000D02*
X149375000Y-56980000D01*
X149375000Y-97370000D02*
X157575000Y-105570000D01*
X149375000Y-56980000D02*
X149375000Y-97370000D01*
%TO.N,SERVO1*%
X158097104Y-102132304D02*
X157078872Y-102132304D01*
X152566372Y-56730196D02*
X162324804Y-56730196D01*
X151455000Y-57841568D02*
X152566372Y-56730196D01*
X151455000Y-96508432D02*
X151455000Y-57841568D01*
X162324804Y-56730196D02*
X165885000Y-53170000D01*
X187287109Y-103657109D02*
X172782892Y-103657109D01*
X172782892Y-103657109D02*
X172478283Y-103352500D01*
X172478283Y-103352500D02*
X159317300Y-103352500D01*
X189550000Y-105920000D02*
X187287109Y-103657109D01*
X157078872Y-102132304D02*
X151455000Y-96508432D01*
X159317300Y-103352500D02*
X158097104Y-102132304D01*
%TO.N,SERVO2*%
X150935000Y-57626176D02*
X150935000Y-96723824D01*
X150935000Y-96723824D02*
X156863480Y-102652304D01*
X172567500Y-104177109D02*
X179757109Y-104177109D01*
X179757109Y-104177109D02*
X181500000Y-105920000D01*
X172262892Y-103872500D02*
X172567500Y-104177109D01*
X160304804Y-56210196D02*
X152350980Y-56210196D01*
X163345000Y-53170000D02*
X160304804Y-56210196D01*
X159101909Y-103872500D02*
X172262892Y-103872500D01*
X157881713Y-102652304D02*
X159101909Y-103872500D01*
X152350980Y-56210196D02*
X150935000Y-57626176D01*
X156863480Y-102652304D02*
X157881713Y-102652304D01*
%TO.N,SERVO4*%
X151920196Y-55170196D02*
X153724804Y-55170196D01*
X159391125Y-105632500D02*
X157450929Y-103692304D01*
X165525000Y-105632500D02*
X159391125Y-105632500D01*
X153724804Y-55170196D02*
X155725000Y-53170000D01*
X149895000Y-97154608D02*
X149895000Y-57195392D01*
X157450929Y-103692304D02*
X156432696Y-103692304D01*
X156432696Y-103692304D02*
X149895000Y-97154608D01*
X149895000Y-57195392D02*
X151920196Y-55170196D01*
%TO.N,I2C+*%
X38750000Y-79050000D02*
X34450000Y-83350000D01*
X38280000Y-53880000D02*
X44325000Y-59925000D01*
X47329412Y-117452499D02*
X50800000Y-113981911D01*
X36290000Y-95840000D02*
X37875000Y-95840000D01*
X193825000Y-44125000D02*
X193825000Y-53170000D01*
X34450000Y-94000000D02*
X36290000Y-95840000D01*
X44325000Y-64125000D02*
X44325000Y-66000000D01*
X50800000Y-100600000D02*
X46040000Y-95840000D01*
X50800000Y-113981911D02*
X50800000Y-100600000D01*
X44325000Y-66000000D02*
X38750000Y-71575000D01*
X174700000Y-25000000D02*
X54675000Y-25000000D01*
X38750000Y-73600000D02*
X38750000Y-79050000D01*
X54675000Y-25000000D02*
X47660000Y-32015000D01*
X38750000Y-71575000D02*
X38750000Y-73600000D01*
X193825000Y-44125000D02*
X174700000Y-25000000D01*
X46040000Y-95840000D02*
X37875000Y-95840000D01*
X44325000Y-59925000D02*
X44325000Y-64125000D01*
X47329412Y-117789012D02*
X47329412Y-117452499D01*
X34450000Y-83350000D02*
X34450000Y-94000000D01*
X47660000Y-32015000D02*
X44700000Y-32015000D01*
X36200000Y-53880000D02*
X38280000Y-53880000D01*
%TO.N,I2C-*%
X33400000Y-82475000D02*
X33400000Y-95225000D01*
X54600000Y-118850000D02*
X54600000Y-122058617D01*
X37500000Y-78375000D02*
X33400000Y-82475000D01*
X46650588Y-117110188D02*
X46936331Y-117110188D01*
X36200000Y-58960000D02*
X38010000Y-58960000D01*
X54600000Y-122058617D02*
X53544817Y-123113800D01*
X191285000Y-53170000D02*
X191325000Y-53130000D01*
X37500000Y-73600000D02*
X37500000Y-78375000D01*
X191285000Y-43585000D02*
X173960000Y-26260000D01*
X53544817Y-123113800D02*
X49657000Y-123113800D01*
X49750000Y-114296519D02*
X49750000Y-101425000D01*
X40000000Y-67825000D02*
X37500000Y-70325000D01*
X191285000Y-53170000D02*
X191285000Y-43585000D01*
X37500000Y-70325000D02*
X37500000Y-73600000D01*
X46589412Y-120046212D02*
X46589412Y-117171364D01*
X33400000Y-95225000D02*
X36555000Y-98380000D01*
X49750000Y-101425000D02*
X46705000Y-98380000D01*
X36555000Y-98380000D02*
X37875000Y-98380000D01*
X40000000Y-60950000D02*
X40000000Y-64000000D01*
X46705000Y-98380000D02*
X37875000Y-98380000D01*
X47095000Y-34555000D02*
X44700000Y-34555000D01*
X40000000Y-64000000D02*
X40000000Y-67825000D01*
X46589412Y-117171364D02*
X46650588Y-117110188D01*
X173960000Y-26260000D02*
X55390000Y-26260000D01*
X49657000Y-123113800D02*
X46589412Y-120046212D01*
X54600000Y-121550000D02*
X54600000Y-118850000D01*
X55390000Y-26260000D02*
X47095000Y-34555000D01*
X38010000Y-58960000D02*
X40000000Y-60950000D01*
X46936331Y-117110188D02*
X49750000Y-114296519D01*
%TO.N,MISO*%
X176076740Y-47651740D02*
X176045000Y-47683480D01*
X176045000Y-47683480D02*
X176045000Y-53170000D01*
%TD*%
M02*
