%TF.GenerationSoftware,KiCad,Pcbnew,8.0.8-8.0.8-0~ubuntu22.04.1*%
%TF.CreationDate,2025-01-31T14:52:15-08:00*%
%TF.ProjectId,Backplane_Board,4261636b-706c-4616-9e65-5f426f617264,1*%
%TF.SameCoordinates,Original*%
%TF.FileFunction,Copper,L1,Top*%
%TF.FilePolarity,Positive*%
%FSLAX46Y46*%
G04 Gerber Fmt 4.6, Leading zero omitted, Abs format (unit mm)*
G04 Created by KiCad (PCBNEW 8.0.8-8.0.8-0~ubuntu22.04.1) date 2025-01-31 14:52:15*
%MOMM*%
%LPD*%
G01*
G04 APERTURE LIST*
G04 Aperture macros list*
%AMRoundRect*
0 Rectangle with rounded corners*
0 $1 Rounding radius*
0 $2 $3 $4 $5 $6 $7 $8 $9 X,Y pos of 4 corners*
0 Add a 4 corners polygon primitive as box body*
4,1,4,$2,$3,$4,$5,$6,$7,$8,$9,$2,$3,0*
0 Add four circle primitives for the rounded corners*
1,1,$1+$1,$2,$3*
1,1,$1+$1,$4,$5*
1,1,$1+$1,$6,$7*
1,1,$1+$1,$8,$9*
0 Add four rect primitives between the rounded corners*
20,1,$1+$1,$2,$3,$4,$5,0*
20,1,$1+$1,$4,$5,$6,$7,0*
20,1,$1+$1,$6,$7,$8,$9,0*
20,1,$1+$1,$8,$9,$2,$3,0*%
%AMFreePoly0*
4,1,9,5.362500,-0.866500,1.237500,-0.866500,1.237500,-0.450000,-1.237500,-0.450000,-1.237500,0.450000,1.237500,0.450000,1.237500,0.866500,5.362500,0.866500,5.362500,-0.866500,5.362500,-0.866500,$1*%
%AMFreePoly1*
4,1,19,0.500000,-0.750000,0.000000,-0.750000,0.000000,-0.744911,-0.071157,-0.744911,-0.207708,-0.704816,-0.327430,-0.627875,-0.420627,-0.520320,-0.479746,-0.390866,-0.500000,-0.250000,-0.500000,0.250000,-0.479746,0.390866,-0.420627,0.520320,-0.327430,0.627875,-0.207708,0.704816,-0.071157,0.744911,0.000000,0.744911,0.000000,0.750000,0.500000,0.750000,0.500000,-0.750000,0.500000,-0.750000,
$1*%
%AMFreePoly2*
4,1,19,0.000000,0.744911,0.071157,0.744911,0.207708,0.704816,0.327430,0.627875,0.420627,0.520320,0.479746,0.390866,0.500000,0.250000,0.500000,-0.250000,0.479746,-0.390866,0.420627,-0.520320,0.327430,-0.627875,0.207708,-0.704816,0.071157,-0.744911,0.000000,-0.744911,0.000000,-0.750000,-0.500000,-0.750000,-0.500000,0.750000,0.000000,0.750000,0.000000,0.744911,0.000000,0.744911,
$1*%
G04 Aperture macros list end*
%TA.AperFunction,EtchedComponent*%
%ADD10C,0.000000*%
%TD*%
%TA.AperFunction,SMDPad,CuDef*%
%ADD11RoundRect,0.250000X0.300000X0.300000X-0.300000X0.300000X-0.300000X-0.300000X0.300000X-0.300000X0*%
%TD*%
%TA.AperFunction,ComponentPad*%
%ADD12R,2.400000X2.400000*%
%TD*%
%TA.AperFunction,ComponentPad*%
%ADD13C,2.400000*%
%TD*%
%TA.AperFunction,SMDPad,CuDef*%
%ADD14RoundRect,0.250000X-0.350000X-0.450000X0.350000X-0.450000X0.350000X0.450000X-0.350000X0.450000X0*%
%TD*%
%TA.AperFunction,SMDPad,CuDef*%
%ADD15RoundRect,0.218750X-0.256250X0.218750X-0.256250X-0.218750X0.256250X-0.218750X0.256250X0.218750X0*%
%TD*%
%TA.AperFunction,SMDPad,CuDef*%
%ADD16R,4.510000X4.350000*%
%TD*%
%TA.AperFunction,SMDPad,CuDef*%
%ADD17R,0.700000X0.700000*%
%TD*%
%TA.AperFunction,SMDPad,CuDef*%
%ADD18RoundRect,0.175000X-0.175000X0.175000X-0.175000X-0.175000X0.175000X-0.175000X0.175000X0.175000X0*%
%TD*%
%TA.AperFunction,SMDPad,CuDef*%
%ADD19RoundRect,0.250000X0.350000X0.450000X-0.350000X0.450000X-0.350000X-0.450000X0.350000X-0.450000X0*%
%TD*%
%TA.AperFunction,SMDPad,CuDef*%
%ADD20RoundRect,0.250000X-0.450000X0.350000X-0.450000X-0.350000X0.450000X-0.350000X0.450000X0.350000X0*%
%TD*%
%TA.AperFunction,SMDPad,CuDef*%
%ADD21RoundRect,0.250000X-0.262500X-0.450000X0.262500X-0.450000X0.262500X0.450000X-0.262500X0.450000X0*%
%TD*%
%TA.AperFunction,SMDPad,CuDef*%
%ADD22RoundRect,0.050000X-0.300000X0.150000X-0.300000X-0.150000X0.300000X-0.150000X0.300000X0.150000X0*%
%TD*%
%TA.AperFunction,SMDPad,CuDef*%
%ADD23RoundRect,0.150000X0.150000X-0.587500X0.150000X0.587500X-0.150000X0.587500X-0.150000X-0.587500X0*%
%TD*%
%TA.AperFunction,SMDPad,CuDef*%
%ADD24RoundRect,0.250000X0.475000X-0.250000X0.475000X0.250000X-0.475000X0.250000X-0.475000X-0.250000X0*%
%TD*%
%TA.AperFunction,SMDPad,CuDef*%
%ADD25RoundRect,0.243750X-0.456250X0.243750X-0.456250X-0.243750X0.456250X-0.243750X0.456250X0.243750X0*%
%TD*%
%TA.AperFunction,SMDPad,CuDef*%
%ADD26RoundRect,0.250000X-0.700000X0.275000X-0.700000X-0.275000X0.700000X-0.275000X0.700000X0.275000X0*%
%TD*%
%TA.AperFunction,SMDPad,CuDef*%
%ADD27RoundRect,0.250000X1.450000X-0.312500X1.450000X0.312500X-1.450000X0.312500X-1.450000X-0.312500X0*%
%TD*%
%TA.AperFunction,SMDPad,CuDef*%
%ADD28RoundRect,0.250000X-0.475000X0.250000X-0.475000X-0.250000X0.475000X-0.250000X0.475000X0.250000X0*%
%TD*%
%TA.AperFunction,SMDPad,CuDef*%
%ADD29R,2.500000X7.500000*%
%TD*%
%TA.AperFunction,SMDPad,CuDef*%
%ADD30RoundRect,0.150000X-0.150000X0.587500X-0.150000X-0.587500X0.150000X-0.587500X0.150000X0.587500X0*%
%TD*%
%TA.AperFunction,SMDPad,CuDef*%
%ADD31RoundRect,0.218750X0.256250X-0.218750X0.256250X0.218750X-0.256250X0.218750X-0.256250X-0.218750X0*%
%TD*%
%TA.AperFunction,SMDPad,CuDef*%
%ADD32RoundRect,0.250000X1.500000X0.550000X-1.500000X0.550000X-1.500000X-0.550000X1.500000X-0.550000X0*%
%TD*%
%TA.AperFunction,SMDPad,CuDef*%
%ADD33RoundRect,0.250000X0.262500X0.450000X-0.262500X0.450000X-0.262500X-0.450000X0.262500X-0.450000X0*%
%TD*%
%TA.AperFunction,SMDPad,CuDef*%
%ADD34RoundRect,0.250000X0.400000X0.625000X-0.400000X0.625000X-0.400000X-0.625000X0.400000X-0.625000X0*%
%TD*%
%TA.AperFunction,ComponentPad*%
%ADD35R,1.700000X1.700000*%
%TD*%
%TA.AperFunction,ComponentPad*%
%ADD36O,1.700000X1.700000*%
%TD*%
%TA.AperFunction,ComponentPad*%
%ADD37RoundRect,0.760000X1.140000X1.140000X-1.140000X1.140000X-1.140000X-1.140000X1.140000X-1.140000X0*%
%TD*%
%TA.AperFunction,ComponentPad*%
%ADD38C,3.800000*%
%TD*%
%TA.AperFunction,ComponentPad*%
%ADD39RoundRect,0.250000X0.350000X0.650000X-0.350000X0.650000X-0.350000X-0.650000X0.350000X-0.650000X0*%
%TD*%
%TA.AperFunction,ComponentPad*%
%ADD40O,1.200000X1.800000*%
%TD*%
%TA.AperFunction,SMDPad,CuDef*%
%ADD41RoundRect,0.218750X-0.218750X-0.256250X0.218750X-0.256250X0.218750X0.256250X-0.218750X0.256250X0*%
%TD*%
%TA.AperFunction,ComponentPad*%
%ADD42C,4.500000*%
%TD*%
%TA.AperFunction,ComponentPad*%
%ADD43C,2.500000*%
%TD*%
%TA.AperFunction,SMDPad,CuDef*%
%ADD44RoundRect,0.250000X-0.412500X-0.650000X0.412500X-0.650000X0.412500X0.650000X-0.412500X0.650000X0*%
%TD*%
%TA.AperFunction,ComponentPad*%
%ADD45C,2.000000*%
%TD*%
%TA.AperFunction,ComponentPad*%
%ADD46RoundRect,0.250000X-0.350000X-0.650000X0.350000X-0.650000X0.350000X0.650000X-0.350000X0.650000X0*%
%TD*%
%TA.AperFunction,SMDPad,CuDef*%
%ADD47RoundRect,0.218750X0.218750X0.256250X-0.218750X0.256250X-0.218750X-0.256250X0.218750X-0.256250X0*%
%TD*%
%TA.AperFunction,ComponentPad*%
%ADD48RoundRect,0.760000X1.140000X-1.140000X1.140000X1.140000X-1.140000X1.140000X-1.140000X-1.140000X0*%
%TD*%
%TA.AperFunction,SMDPad,CuDef*%
%ADD49RoundRect,0.225000X0.925000X0.225000X-0.925000X0.225000X-0.925000X-0.225000X0.925000X-0.225000X0*%
%TD*%
%TA.AperFunction,SMDPad,CuDef*%
%ADD50FreePoly0,180.000000*%
%TD*%
%TA.AperFunction,ComponentPad*%
%ADD51C,0.900000*%
%TD*%
%TA.AperFunction,ComponentPad*%
%ADD52C,8.600000*%
%TD*%
%TA.AperFunction,SMDPad,CuDef*%
%ADD53R,2.235000X1.725000*%
%TD*%
%TA.AperFunction,SMDPad,CuDef*%
%ADD54R,0.355600X0.762000*%
%TD*%
%TA.AperFunction,SMDPad,CuDef*%
%ADD55RoundRect,0.250000X0.450000X-0.350000X0.450000X0.350000X-0.450000X0.350000X-0.450000X-0.350000X0*%
%TD*%
%TA.AperFunction,SMDPad,CuDef*%
%ADD56RoundRect,0.250000X-0.300000X0.300000X-0.300000X-0.300000X0.300000X-0.300000X0.300000X0.300000X0*%
%TD*%
%TA.AperFunction,ComponentPad*%
%ADD57R,2.000000X2.000000*%
%TD*%
%TA.AperFunction,ComponentPad*%
%ADD58C,1.400000*%
%TD*%
%TA.AperFunction,SMDPad,CuDef*%
%ADD59RoundRect,0.250000X0.700000X-0.275000X0.700000X0.275000X-0.700000X0.275000X-0.700000X-0.275000X0*%
%TD*%
%TA.AperFunction,ComponentPad*%
%ADD60RoundRect,0.200000X0.200000X0.450000X-0.200000X0.450000X-0.200000X-0.450000X0.200000X-0.450000X0*%
%TD*%
%TA.AperFunction,ComponentPad*%
%ADD61O,0.800000X1.300000*%
%TD*%
%TA.AperFunction,SMDPad,CuDef*%
%ADD62RoundRect,0.150000X-0.150000X-0.625000X0.150000X-0.625000X0.150000X0.625000X-0.150000X0.625000X0*%
%TD*%
%TA.AperFunction,SMDPad,CuDef*%
%ADD63RoundRect,0.250000X-0.350000X-0.650000X0.350000X-0.650000X0.350000X0.650000X-0.350000X0.650000X0*%
%TD*%
%TA.AperFunction,SMDPad,CuDef*%
%ADD64RoundRect,0.250000X-0.625000X0.400000X-0.625000X-0.400000X0.625000X-0.400000X0.625000X0.400000X0*%
%TD*%
%TA.AperFunction,SMDPad,CuDef*%
%ADD65R,0.700000X1.750000*%
%TD*%
%TA.AperFunction,SMDPad,CuDef*%
%ADD66R,1.450000X1.000000*%
%TD*%
%TA.AperFunction,SMDPad,CuDef*%
%ADD67R,1.000000X1.550000*%
%TD*%
%TA.AperFunction,SMDPad,CuDef*%
%ADD68R,0.800000X1.500000*%
%TD*%
%TA.AperFunction,SMDPad,CuDef*%
%ADD69R,1.300000X1.500000*%
%TD*%
%TA.AperFunction,SMDPad,CuDef*%
%ADD70R,1.500000X1.500000*%
%TD*%
%TA.AperFunction,SMDPad,CuDef*%
%ADD71R,0.800000X1.400000*%
%TD*%
%TA.AperFunction,SMDPad,CuDef*%
%ADD72RoundRect,0.150000X-0.625000X0.150000X-0.625000X-0.150000X0.625000X-0.150000X0.625000X0.150000X0*%
%TD*%
%TA.AperFunction,SMDPad,CuDef*%
%ADD73RoundRect,0.250000X-0.650000X0.350000X-0.650000X-0.350000X0.650000X-0.350000X0.650000X0.350000X0*%
%TD*%
%TA.AperFunction,SMDPad,CuDef*%
%ADD74RoundRect,0.250000X-0.300000X-0.300000X0.300000X-0.300000X0.300000X0.300000X-0.300000X0.300000X0*%
%TD*%
%TA.AperFunction,SMDPad,CuDef*%
%ADD75R,1.700000X3.500000*%
%TD*%
%TA.AperFunction,SMDPad,CuDef*%
%ADD76R,3.500000X1.700000*%
%TD*%
%TA.AperFunction,ComponentPad*%
%ADD77RoundRect,1.500000X1.500000X1.500000X-1.500000X1.500000X-1.500000X-1.500000X1.500000X-1.500000X0*%
%TD*%
%TA.AperFunction,ComponentPad*%
%ADD78C,6.000000*%
%TD*%
%TA.AperFunction,SMDPad,CuDef*%
%ADD79RoundRect,0.237500X0.300000X0.237500X-0.300000X0.237500X-0.300000X-0.237500X0.300000X-0.237500X0*%
%TD*%
%TA.AperFunction,ComponentPad*%
%ADD80R,1.508000X1.508000*%
%TD*%
%TA.AperFunction,ComponentPad*%
%ADD81C,1.508000*%
%TD*%
%TA.AperFunction,ComponentPad*%
%ADD82C,3.000000*%
%TD*%
%TA.AperFunction,SMDPad,CuDef*%
%ADD83R,0.711200X0.304800*%
%TD*%
%TA.AperFunction,SMDPad,CuDef*%
%ADD84R,1.397000X1.193800*%
%TD*%
%TA.AperFunction,SMDPad,CuDef*%
%ADD85FreePoly1,270.000000*%
%TD*%
%TA.AperFunction,SMDPad,CuDef*%
%ADD86FreePoly2,270.000000*%
%TD*%
%TA.AperFunction,ComponentPad*%
%ADD87C,3.700000*%
%TD*%
%TA.AperFunction,ViaPad*%
%ADD88C,0.700000*%
%TD*%
%TA.AperFunction,ViaPad*%
%ADD89C,1.100000*%
%TD*%
%TA.AperFunction,ViaPad*%
%ADD90C,0.770000*%
%TD*%
%TA.AperFunction,ViaPad*%
%ADD91C,1.200000*%
%TD*%
%TA.AperFunction,Conductor*%
%ADD92C,0.500000*%
%TD*%
%TA.AperFunction,Conductor*%
%ADD93C,1.000000*%
%TD*%
%TA.AperFunction,Conductor*%
%ADD94C,1.500000*%
%TD*%
%TA.AperFunction,Conductor*%
%ADD95C,0.260000*%
%TD*%
%TA.AperFunction,Conductor*%
%ADD96C,0.200000*%
%TD*%
%TA.AperFunction,Conductor*%
%ADD97C,0.160000*%
%TD*%
G04 APERTURE END LIST*
D10*
%TA.AperFunction,EtchedComponent*%
%TO.C,JP5*%
G36*
X156300000Y-79900000D02*
G01*
X155700000Y-79900000D01*
X155700000Y-79400000D01*
X156300000Y-79400000D01*
X156300000Y-79900000D01*
G37*
%TD.AperFunction*%
%TD*%
D11*
%TO.P,D24,1,K*%
%TO.N,Net-(D24-K)*%
X193625037Y-93750000D03*
%TO.P,D24,2,A*%
%TO.N,Net-(D24-A)*%
X190825037Y-93750000D03*
%TD*%
D12*
%TO.P,J8,1,Pin_1*%
%TO.N,GND*%
X202000000Y-124000000D03*
D13*
%TO.P,J8,2,Pin_2*%
%TO.N,+5V*%
X202000000Y-127500000D03*
%TD*%
D14*
%TO.P,R46,1*%
%TO.N,Net-(Q3-G)*%
X200500000Y-119250000D03*
%TO.P,R46,2*%
%TO.N,+5V*%
X202500000Y-119250000D03*
%TD*%
D15*
%TO.P,D19,1,K*%
%TO.N,GND*%
X145841250Y-31193825D03*
%TO.P,D19,2,A*%
%TO.N,Net-(D19-A)*%
X145841250Y-32768825D03*
%TD*%
D16*
%TO.P,Q1,1,D*%
%TO.N,PWR_IN*%
X50810000Y-132180000D03*
D17*
X52715000Y-134650000D03*
X51445000Y-134650000D03*
X50175000Y-134650000D03*
X48905000Y-134650000D03*
D18*
%TO.P,Q1,2,G*%
%TO.N,Net-(D1-A)*%
X48905000Y-129050000D03*
%TO.P,Q1,3,S*%
%TO.N,SHUNT+*%
X52715000Y-129050000D03*
X51445000Y-129050000D03*
X50175000Y-129050000D03*
%TD*%
D19*
%TO.P,R6,1*%
%TO.N,Net-(D3-K)*%
X98500000Y-65250000D03*
%TO.P,R6,2*%
%TO.N,GND*%
X96500000Y-65250000D03*
%TD*%
D12*
%TO.P,C8,1*%
%TO.N,12V_ESC*%
X119100000Y-62500000D03*
D13*
%TO.P,C8,2*%
%TO.N,GND*%
X119100000Y-57500000D03*
%TD*%
D20*
%TO.P,R13,1*%
%TO.N,Net-(D4-K)*%
X119275000Y-119900000D03*
%TO.P,R13,2*%
%TO.N,GND*%
X119275000Y-121900000D03*
%TD*%
D21*
%TO.P,R43,1,1*%
%TO.N,GND*%
X174387500Y-84550000D03*
%TO.P,R43,2,2*%
%TO.N,SW4*%
X176212500Y-84550000D03*
%TD*%
D22*
%TO.P,D1,1,K*%
%TO.N,SHUNT+*%
X34290000Y-128322500D03*
%TO.P,D1,2,A*%
%TO.N,Net-(D1-A)*%
X34290000Y-129022500D03*
%TD*%
D23*
%TO.P,Q4,1,G*%
%TO.N,SW2*%
X167127187Y-39824762D03*
%TO.P,Q4,2,S*%
%TO.N,GND*%
X169027187Y-39824762D03*
%TO.P,Q4,3,D*%
%TO.N,Net-(D14-A)*%
X168077187Y-37949762D03*
%TD*%
D15*
%TO.P,D11,1,K*%
%TO.N,GND*%
X163927187Y-31799762D03*
%TO.P,D11,2,A*%
%TO.N,Net-(D11-A)*%
X163927187Y-33374762D03*
%TD*%
D24*
%TO.P,C24,1,1*%
%TO.N,Net-(D21-K)*%
X163069925Y-86925000D03*
%TO.P,C24,2,2*%
%TO.N,GND*%
X163069925Y-85025000D03*
%TD*%
D12*
%TO.P,C13,1*%
%TO.N,+12V*%
X141700000Y-142100000D03*
D13*
%TO.P,C13,2*%
%TO.N,GND*%
X146700000Y-142100000D03*
%TD*%
D11*
%TO.P,D25,1,K*%
%TO.N,Net-(D25-K)*%
X179500000Y-94200000D03*
%TO.P,D25,2,A*%
%TO.N,Net-(D25-A)*%
X176700000Y-94200000D03*
%TD*%
D25*
%TO.P,F9,1*%
%TO.N,Net-(D16-K)*%
X142291250Y-41493825D03*
%TO.P,F9,2*%
%TO.N,12V_ESC*%
X142291250Y-43368825D03*
%TD*%
D23*
%TO.P,Q5,1,G*%
%TO.N,SW0*%
X157312500Y-39537500D03*
%TO.P,Q5,2,S*%
%TO.N,GND*%
X159212500Y-39537500D03*
%TO.P,Q5,3,D*%
%TO.N,Net-(D15-A)*%
X158262500Y-37662500D03*
%TD*%
D26*
%TO.P,R5,1*%
%TO.N,Net-(U3-V_adj)*%
X103500000Y-58425000D03*
%TO.P,R5,2*%
%TO.N,12V_ESC*%
X103500000Y-61575000D03*
%TD*%
D27*
%TO.P,F5,1*%
%TO.N,5V_KillSW*%
X161500000Y-112462500D03*
%TO.P,F5,2*%
%TO.N,Net-(J35-Pin_2)*%
X161500000Y-108187500D03*
%TD*%
D28*
%TO.P,C21,1,1*%
%TO.N,Net-(D14-K)*%
X164577187Y-42287262D03*
%TO.P,C21,2,2*%
%TO.N,GND*%
X164577187Y-44187262D03*
%TD*%
D29*
%TO.P,C1,1*%
%TO.N,60V*%
X74000000Y-48075000D03*
%TO.P,C1,2*%
%TO.N,GND*%
X74000000Y-34575000D03*
%TD*%
D30*
%TO.P,Q8,1,G*%
%TO.N,SW3*%
X190625037Y-89175000D03*
%TO.P,Q8,2,S*%
%TO.N,GND*%
X188725037Y-89175000D03*
%TO.P,Q8,3,D*%
%TO.N,Net-(D24-A)*%
X189675037Y-91050000D03*
%TD*%
D12*
%TO.P,J19,1,Pin_1*%
%TO.N,GND*%
X192975000Y-146300000D03*
D13*
%TO.P,J19,2,Pin_2*%
%TO.N,+5V*%
X189475000Y-146300000D03*
%TD*%
D31*
%TO.P,D20,1,K*%
%TO.N,GND*%
X163719925Y-97362500D03*
%TO.P,D20,2,A*%
%TO.N,Net-(D20-A)*%
X163719925Y-95787500D03*
%TD*%
D32*
%TO.P,C19,1*%
%TO.N,+5V*%
X177225000Y-124850000D03*
%TO.P,C19,2*%
%TO.N,GND*%
X171825000Y-124850000D03*
%TD*%
D31*
%TO.P,D27,1,K*%
%TO.N,GND*%
X191875037Y-97287500D03*
%TO.P,D27,2,A*%
%TO.N,Net-(D27-A)*%
X191875037Y-95712500D03*
%TD*%
D33*
%TO.P,R33,1,1*%
%TO.N,GND*%
X149003750Y-44231325D03*
%TO.P,R33,2,2*%
%TO.N,SW1*%
X147178750Y-44231325D03*
%TD*%
D26*
%TO.P,R4,1*%
%TO.N,GND*%
X103150000Y-50725000D03*
%TO.P,R4,2*%
%TO.N,Net-(U3-V_adj)*%
X103150000Y-53875000D03*
%TD*%
D28*
%TO.P,C23,1,1*%
%TO.N,Net-(D16-K)*%
X144491250Y-41531325D03*
%TO.P,C23,2,2*%
%TO.N,GND*%
X144491250Y-43431325D03*
%TD*%
D34*
%TO.P,R8,1*%
%TO.N,12V_ESC*%
X99000000Y-49800000D03*
%TO.P,R8,2*%
%TO.N,Net-(C10-Pad2)*%
X95900000Y-49800000D03*
%TD*%
D35*
%TO.P,J27,1,Pin_1*%
%TO.N,GND*%
X197450000Y-111000000D03*
D36*
%TO.P,J27,2,Pin_2*%
%TO.N,Net-(J27-Pin_2)*%
X197450000Y-108460000D03*
%TO.P,J27,3,Pin_3*%
%TO.N,SERVO0*%
X197450000Y-105920000D03*
%TD*%
D37*
%TO.P,J25,1,Pin_1*%
%TO.N,GND*%
X146100000Y-109400000D03*
D38*
%TO.P,J25,2,Pin_2*%
%TO.N,+12V*%
X141100000Y-109400000D03*
%TD*%
D39*
%TO.P,J42,1,Pin_1*%
%TO.N,Net-(D25-K)*%
X178697500Y-101187500D03*
D40*
%TO.P,J42,2,Pin_2*%
%TO.N,Net-(D25-A)*%
X176697500Y-101187500D03*
%TD*%
D34*
%TO.P,R9,1*%
%TO.N,12V_ESC*%
X99000000Y-53450000D03*
%TO.P,R9,2*%
%TO.N,Net-(C11-Pad2)*%
X95900000Y-53450000D03*
%TD*%
D41*
%TO.P,D7,1,K*%
%TO.N,Net-(D7-K)*%
X161462500Y-116500000D03*
%TO.P,D7,2,A*%
%TO.N,5V_KillSW*%
X163037500Y-116500000D03*
%TD*%
D42*
%TO.P,U3,1,+In*%
%TO.N,60V*%
X57895000Y-74155000D03*
D43*
%TO.P,U3,2,RC*%
%TO.N,KillSW*%
X57895000Y-63995000D03*
%TO.P,U3,3,Case*%
%TO.N,unconnected-(U3-Case-Pad3)*%
X57895000Y-48755000D03*
D42*
%TO.P,U3,4,-In*%
%TO.N,GND*%
X57895000Y-38595000D03*
%TO.P,U3,5,-Out*%
X106195000Y-38595000D03*
D43*
%TO.P,U3,6,-Sense*%
X106195000Y-48755000D03*
%TO.P,U3,7,V_adj*%
%TO.N,Net-(U3-V_adj)*%
X106195000Y-56375000D03*
%TO.P,U3,8,+Sense*%
%TO.N,12V_ESC*%
X106195000Y-63995000D03*
D42*
%TO.P,U3,9,+Out*%
X106195000Y-74155000D03*
%TD*%
D25*
%TO.P,F7,1*%
%TO.N,Net-(D14-K)*%
X162477187Y-42199762D03*
%TO.P,F7,2*%
%TO.N,12V_ESC*%
X162477187Y-44074762D03*
%TD*%
D34*
%TO.P,R10,1*%
%TO.N,12V_ESC*%
X99000000Y-57150000D03*
%TO.P,R10,2*%
%TO.N,Net-(C12-Pad2)*%
X95900000Y-57150000D03*
%TD*%
D20*
%TO.P,R52,1*%
%TO.N,Net-(U6-GPIO26_ADC0)*%
X178550000Y-75050000D03*
%TO.P,R52,2*%
%TO.N,Net-(D31-A)*%
X178550000Y-77050000D03*
%TD*%
D34*
%TO.P,R21,1*%
%TO.N,+3.3V*%
X208435000Y-67000000D03*
%TO.P,R21,2*%
%TO.N,I2C+*%
X205335000Y-67000000D03*
%TD*%
D31*
%TO.P,D22,1,K*%
%TO.N,GND*%
X193725037Y-97237500D03*
%TO.P,D22,2,A*%
%TO.N,Net-(D22-A)*%
X193725037Y-95662500D03*
%TD*%
D44*
%TO.P,C18,1*%
%TO.N,GND*%
X110387500Y-107225000D03*
%TO.P,C18,2*%
%TO.N,Net-(C18-Pad2)*%
X113512500Y-107225000D03*
%TD*%
D30*
%TO.P,Q9,1,G*%
%TO.N,SW4*%
X176450000Y-89575000D03*
%TO.P,Q9,2,S*%
%TO.N,GND*%
X174550000Y-89575000D03*
%TO.P,Q9,3,D*%
%TO.N,Net-(D25-A)*%
X175500000Y-91450000D03*
%TD*%
D24*
%TO.P,C25,1,1*%
%TO.N,Net-(D24-K)*%
X192975037Y-86800000D03*
%TO.P,C25,2,2*%
%TO.N,GND*%
X192975037Y-84900000D03*
%TD*%
D45*
%TO.P,TP8,1,1*%
%TO.N,GND*%
X46200000Y-80430000D03*
%TD*%
D33*
%TO.P,R32,1,1*%
%TO.N,GND*%
X159350000Y-44600000D03*
%TO.P,R32,2,2*%
%TO.N,SW0*%
X157525000Y-44600000D03*
%TD*%
D12*
%TO.P,J20,1,Pin_1*%
%TO.N,GND*%
X174975000Y-146300000D03*
D13*
%TO.P,J20,2,Pin_2*%
%TO.N,+5V*%
X171475000Y-146300000D03*
%TD*%
D21*
%TO.P,R42,1,1*%
%TO.N,GND*%
X188562537Y-84150000D03*
%TO.P,R42,2,2*%
%TO.N,SW3*%
X190387537Y-84150000D03*
%TD*%
D46*
%TO.P,J37,1,Pin_1*%
%TO.N,Net-(D14-K)*%
X164927187Y-28087262D03*
D40*
%TO.P,J37,2,Pin_2*%
%TO.N,Net-(D14-A)*%
X166927187Y-28087262D03*
%TD*%
D33*
%TO.P,R41,1,1*%
%TO.N,Net-(D26-A)*%
X160632425Y-86625000D03*
%TO.P,R41,2,2*%
%TO.N,SW5*%
X158807425Y-86625000D03*
%TD*%
D35*
%TO.P,J35,1,Pin_1*%
%TO.N,GND*%
X165525000Y-110712500D03*
D36*
%TO.P,J35,2,Pin_2*%
%TO.N,Net-(J35-Pin_2)*%
X165525000Y-108172500D03*
%TO.P,J35,3,Pin_3*%
%TO.N,SERVO4*%
X165525000Y-105632500D03*
%TD*%
D21*
%TO.P,R35,1,1*%
%TO.N,Net-(D18-A)*%
X157312500Y-42250000D03*
%TO.P,R35,2,2*%
%TO.N,SW0*%
X159137500Y-42250000D03*
%TD*%
D27*
%TO.P,F4,1*%
%TO.N,5V_KillSW*%
X153575000Y-112537500D03*
%TO.P,F4,2*%
%TO.N,Net-(J34-Pin_2)*%
X153575000Y-108262500D03*
%TD*%
D35*
%TO.P,J36,1,Pin_1*%
%TO.N,GND*%
X173500000Y-110925000D03*
D36*
%TO.P,J36,2,Pin_2*%
%TO.N,Net-(J36-Pin_2)*%
X173500000Y-108385000D03*
%TO.P,J36,3,Pin_3*%
%TO.N,SERVO3*%
X173500000Y-105845000D03*
%TD*%
D47*
%TO.P,D2,1,K*%
%TO.N,Net-(D2-K)*%
X96324300Y-140050000D03*
%TO.P,D2,2,A*%
%TO.N,Net-(D2-A)*%
X94749300Y-140050000D03*
%TD*%
D15*
%TO.P,D12,1,K*%
%TO.N,GND*%
X154225000Y-31562500D03*
%TO.P,D12,2,A*%
%TO.N,Net-(D12-A)*%
X154225000Y-33137500D03*
%TD*%
D48*
%TO.P,J15,1,Pin_1*%
%TO.N,GND*%
X124950000Y-79050000D03*
D38*
%TO.P,J15,2,Pin_2*%
%TO.N,12V_ESC*%
X124950000Y-74050000D03*
%TD*%
D31*
%TO.P,D30,1,K*%
%TO.N,GND*%
X173525000Y-80437500D03*
%TO.P,D30,2,A*%
%TO.N,Net-(D30-A)*%
X173525000Y-78862500D03*
%TD*%
D19*
%TO.P,R48,1*%
%TO.N,esc_status*%
X151850000Y-76025000D03*
%TO.P,R48,2*%
%TO.N,GND*%
X149850000Y-76025000D03*
%TD*%
D25*
%TO.P,F10,1*%
%TO.N,Net-(D21-K)*%
X168600000Y-98087500D03*
%TO.P,F10,2*%
%TO.N,5V_KillSW*%
X168600000Y-99962500D03*
%TD*%
D27*
%TO.P,F2,1*%
%TO.N,5V_KillSW*%
X185525000Y-113000000D03*
%TO.P,F2,2*%
%TO.N,Net-(J28-Pin_2)*%
X185525000Y-108725000D03*
%TD*%
D49*
%TO.P,U1,1,GND*%
%TO.N,GND*%
X92125000Y-146075000D03*
D50*
%TO.P,U1,2,VIN*%
%TO.N,60V*%
X92037500Y-144575000D03*
D49*
%TO.P,U1,3,VOUT*%
%TO.N,Net-(D2-A)*%
X92125000Y-143075000D03*
%TD*%
D25*
%TO.P,F12,1*%
%TO.N,Net-(D25-K)*%
X183192575Y-98125000D03*
%TO.P,F12,2*%
%TO.N,5V_KillSW*%
X183192575Y-100000000D03*
%TD*%
D27*
%TO.P,F1,1*%
%TO.N,5V_KillSW*%
X193450000Y-112887500D03*
%TO.P,F1,2*%
%TO.N,Net-(J27-Pin_2)*%
X193450000Y-108612500D03*
%TD*%
D44*
%TO.P,C9,1*%
%TO.N,GND*%
X89787500Y-46000000D03*
%TO.P,C9,2*%
%TO.N,Net-(C9-Pad2)*%
X92912500Y-46000000D03*
%TD*%
D41*
%TO.P,D3,1,K*%
%TO.N,Net-(D3-K)*%
X100675000Y-65250000D03*
%TO.P,D3,2,A*%
%TO.N,12V_ESC*%
X102250000Y-65250000D03*
%TD*%
D21*
%TO.P,R38,1,1*%
%TO.N,Net-(D22-A)*%
X193525037Y-89850000D03*
%TO.P,R38,2,2*%
%TO.N,Net-(D24-K)*%
X195350037Y-89850000D03*
%TD*%
D39*
%TO.P,J41,1,Pin_1*%
%TO.N,Net-(D24-K)*%
X192925037Y-100900000D03*
D40*
%TO.P,J41,2,Pin_2*%
%TO.N,Net-(D24-A)*%
X190925037Y-100900000D03*
%TD*%
D21*
%TO.P,R34,1,1*%
%TO.N,Net-(D17-A)*%
X167114687Y-42587262D03*
%TO.P,R34,2,2*%
%TO.N,SW2*%
X168939687Y-42587262D03*
%TD*%
D48*
%TO.P,J17,1,Pin_1*%
%TO.N,GND*%
X139550000Y-79075000D03*
D38*
%TO.P,J17,2,Pin_2*%
%TO.N,12V_ESC*%
X139550000Y-74075000D03*
%TD*%
D45*
%TO.P,TP1,1,1*%
%TO.N,I2C+*%
X44325000Y-64125000D03*
%TD*%
D31*
%TO.P,D28,1,K*%
%TO.N,GND*%
X177750000Y-97637500D03*
%TO.P,D28,2,A*%
%TO.N,Net-(D28-A)*%
X177750000Y-96062500D03*
%TD*%
D51*
%TO.P,H2,1,1*%
%TO.N,GND*%
X199055419Y-31719581D03*
X200000000Y-29439162D03*
X200000000Y-34000000D03*
X202280419Y-28494581D03*
D52*
X202280419Y-31719581D03*
D51*
X202280419Y-34944581D03*
X204560838Y-29439162D03*
X204560838Y-34000000D03*
X205505419Y-31719581D03*
%TD*%
D23*
%TO.P,Q6,1,G*%
%TO.N,SW1*%
X147091250Y-39268825D03*
%TO.P,Q6,2,S*%
%TO.N,GND*%
X148991250Y-39268825D03*
%TO.P,Q6,3,D*%
%TO.N,Net-(D16-A)*%
X148041250Y-37393825D03*
%TD*%
D14*
%TO.P,R3,1*%
%TO.N,+3.3V*%
X32850000Y-107525000D03*
%TO.P,R3,2*%
%TO.N,ALERT*%
X34850000Y-107525000D03*
%TD*%
D12*
%TO.P,J6,1,Pin_1*%
%TO.N,GND*%
X202000000Y-133000000D03*
D13*
%TO.P,J6,2,Pin_2*%
%TO.N,+5V*%
X202000000Y-136500000D03*
%TD*%
D48*
%TO.P,J9,1,Pin_1*%
%TO.N,GND*%
X138250000Y-63800000D03*
D38*
%TO.P,J9,2,Pin_2*%
%TO.N,12V_ESC*%
X138250000Y-58800000D03*
%TD*%
D53*
%TO.P,Q3,1,D*%
%TO.N,5V_KillSW*%
X195157600Y-117372800D03*
D54*
X194168800Y-116277000D03*
X194829200Y-116277000D03*
X195489600Y-116277000D03*
X196150000Y-116277000D03*
%TO.P,Q3,2,G*%
%TO.N,Net-(Q3-G)*%
X196150000Y-119325000D03*
%TO.P,Q3,3,S*%
%TO.N,+5V*%
X194168800Y-119325000D03*
X194829200Y-119325000D03*
X195489600Y-119325000D03*
%TD*%
D55*
%TO.P,R51,1*%
%TO.N,GND*%
X195025000Y-32125000D03*
%TO.P,R51,2*%
%TO.N,SCK*%
X195025000Y-30125000D03*
%TD*%
D34*
%TO.P,R14,1*%
%TO.N,+12V*%
X119350000Y-95975000D03*
%TO.P,R14,2*%
%TO.N,Net-(C15-Pad2)*%
X116250000Y-95975000D03*
%TD*%
D56*
%TO.P,D6,1,K*%
%TO.N,Net-(D6-K)*%
X199000000Y-75000000D03*
%TO.P,D6,2,A*%
%TO.N,+5V*%
X199000000Y-77800000D03*
%TD*%
D34*
%TO.P,R15,1*%
%TO.N,+12V*%
X119350000Y-99725000D03*
%TO.P,R15,2*%
%TO.N,Net-(C16-Pad2)*%
X116250000Y-99725000D03*
%TD*%
D24*
%TO.P,C26,1,1*%
%TO.N,Net-(D25-K)*%
X178750000Y-87300000D03*
%TO.P,C26,2,2*%
%TO.N,GND*%
X178750000Y-85400000D03*
%TD*%
D57*
%TO.P,SW1,1,A*%
%TO.N,KillSW*%
X68625000Y-96075000D03*
D45*
%TO.P,SW1,2,B*%
%TO.N,GND*%
X66085000Y-96075000D03*
%TD*%
D35*
%TO.P,J29,1,Pin_1*%
%TO.N,GND*%
X181500000Y-111000000D03*
D36*
%TO.P,J29,2,Pin_2*%
%TO.N,Net-(J29-Pin_2)*%
X181500000Y-108460000D03*
%TO.P,J29,3,Pin_3*%
%TO.N,SERVO2*%
X181500000Y-105920000D03*
%TD*%
D15*
%TO.P,D17,1,K*%
%TO.N,GND*%
X165777187Y-31749762D03*
%TO.P,D17,2,A*%
%TO.N,Net-(D17-A)*%
X165777187Y-33324762D03*
%TD*%
D19*
%TO.P,R47,1*%
%TO.N,Net-(JP5-A)*%
X156000000Y-76000000D03*
%TO.P,R47,2*%
%TO.N,esc_status*%
X154000000Y-76000000D03*
%TD*%
D11*
%TO.P,D21,1,K*%
%TO.N,Net-(D21-K)*%
X163669925Y-93875000D03*
%TO.P,D21,2,A*%
%TO.N,Net-(D21-A)*%
X160869925Y-93875000D03*
%TD*%
D33*
%TO.P,R44,1,1*%
%TO.N,Net-(D27-A)*%
X190487537Y-86450000D03*
%TO.P,R44,2,2*%
%TO.N,SW3*%
X188662537Y-86450000D03*
%TD*%
%TO.P,R45,1,1*%
%TO.N,Net-(D28-A)*%
X176350000Y-86900000D03*
%TO.P,R45,2,2*%
%TO.N,SW4*%
X174525000Y-86900000D03*
%TD*%
D58*
%TO.P,J26,1,Pin_1*%
%TO.N,60V*%
X69250000Y-107000000D03*
%TO.P,J26,2,Pin_2*%
%TO.N,GND*%
X66710000Y-107000000D03*
%TD*%
D59*
%TO.P,R18,1*%
%TO.N,+5V*%
X183275000Y-137275000D03*
%TO.P,R18,2*%
%TO.N,Net-(U5-TRIM)*%
X183275000Y-134125000D03*
%TD*%
D30*
%TO.P,Q7,1,G*%
%TO.N,SW5*%
X160669925Y-89300000D03*
%TO.P,Q7,2,S*%
%TO.N,GND*%
X158769925Y-89300000D03*
%TO.P,Q7,3,D*%
%TO.N,Net-(D21-A)*%
X159719925Y-91175000D03*
%TD*%
D27*
%TO.P,F6,1*%
%TO.N,5V_KillSW*%
X169525000Y-112812500D03*
%TO.P,F6,2*%
%TO.N,Net-(J36-Pin_2)*%
X169525000Y-108537500D03*
%TD*%
D44*
%TO.P,C12,1*%
%TO.N,GND*%
X89637500Y-57200000D03*
%TO.P,C12,2*%
%TO.N,Net-(C12-Pad2)*%
X92762500Y-57200000D03*
%TD*%
D21*
%TO.P,R39,1,1*%
%TO.N,Net-(D23-A)*%
X179400000Y-90400000D03*
%TO.P,R39,2,2*%
%TO.N,Net-(D25-K)*%
X181225000Y-90400000D03*
%TD*%
%TO.P,R37,1,1*%
%TO.N,Net-(D20-A)*%
X163607425Y-89925000D03*
%TO.P,R37,2,2*%
%TO.N,Net-(D21-K)*%
X165432425Y-89925000D03*
%TD*%
D31*
%TO.P,D4,1,K*%
%TO.N,Net-(D4-K)*%
X119145000Y-117945000D03*
%TO.P,D4,2,A*%
%TO.N,+12V*%
X119145000Y-116370000D03*
%TD*%
D60*
%TO.P,J31,1,Pin_1*%
%TO.N,GND*%
X41250000Y-73600000D03*
D61*
%TO.P,J31,2,Pin_2*%
%TO.N,+3.3V*%
X40000000Y-73600000D03*
%TO.P,J31,3,Pin_3*%
%TO.N,I2C+*%
X38750000Y-73600000D03*
%TO.P,J31,4,Pin_4*%
%TO.N,I2C-*%
X37500000Y-73600000D03*
%TD*%
D20*
%TO.P,R50,1*%
%TO.N,Net-(U6-GPIO22)*%
X173500000Y-75100000D03*
%TO.P,R50,2*%
%TO.N,Net-(D30-A)*%
X173500000Y-77100000D03*
%TD*%
D44*
%TO.P,C11,1*%
%TO.N,GND*%
X89725000Y-53450000D03*
%TO.P,C11,2*%
%TO.N,Net-(C11-Pad2)*%
X92850000Y-53450000D03*
%TD*%
D62*
%TO.P,J33,1,Pin_1*%
%TO.N,/BoardBoardConnections/DEBUG-*%
X146450000Y-51615000D03*
%TO.P,J33,2,Pin_2*%
%TO.N,GND*%
X147450000Y-51615000D03*
%TO.P,J33,3,Pin_3*%
%TO.N,/BoardBoardConnections/DEBUG+*%
X148450000Y-51615000D03*
D63*
%TO.P,J33,MP*%
%TO.N,N/C*%
X145150000Y-49090000D03*
X149750000Y-49090000D03*
%TD*%
D44*
%TO.P,C4,1*%
%TO.N,Net-(D2-A)*%
X95449300Y-143000000D03*
%TO.P,C4,2*%
%TO.N,GND*%
X98574300Y-143000000D03*
%TD*%
D42*
%TO.P,U4,1,+In*%
%TO.N,60V*%
X82300000Y-136580000D03*
D43*
%TO.P,U4,2,RC*%
%TO.N,GND*%
X82300000Y-126420000D03*
%TO.P,U4,3,Case*%
%TO.N,unconnected-(U4-Case-Pad3)*%
X82300000Y-111180000D03*
D42*
%TO.P,U4,4,-In*%
%TO.N,GND*%
X82300000Y-101020000D03*
%TO.P,U4,5,-Out*%
X130600000Y-101020000D03*
D43*
%TO.P,U4,6,-Sense*%
X130600000Y-111180000D03*
%TO.P,U4,7,V_adj*%
%TO.N,Net-(U4-V_adj)*%
X130600000Y-118800000D03*
%TO.P,U4,8,+Sense*%
%TO.N,+12V*%
X130600000Y-126420000D03*
D42*
%TO.P,U4,9,+Out*%
X130600000Y-136580000D03*
%TD*%
D55*
%TO.P,R23,1*%
%TO.N,Net-(Q3-G)*%
X200500000Y-117000000D03*
%TO.P,R23,2*%
%TO.N,KillSW*%
X200500000Y-115000000D03*
%TD*%
D35*
%TO.P,J4,1,Pin_1*%
%TO.N,+3.3V*%
X36200000Y-46260000D03*
D36*
%TO.P,J4,2,Pin_2*%
%TO.N,unconnected-(J4-Pin_2-Pad2)*%
X36200000Y-48800000D03*
%TO.P,J4,3,Pin_3*%
%TO.N,GND*%
X36200000Y-51340000D03*
%TO.P,J4,4,Pin_4*%
%TO.N,I2C+*%
X36200000Y-53880000D03*
%TO.P,J4,5,Pin_5*%
%TO.N,unconnected-(J4-Pin_5-Pad5)*%
X36200000Y-56420000D03*
%TO.P,J4,6,Pin_6*%
%TO.N,I2C-*%
X36200000Y-58960000D03*
%TO.P,J4,7,Pin_7*%
%TO.N,unconnected-(J4-Pin_7-Pad7)*%
X36200000Y-61500000D03*
%TD*%
D48*
%TO.P,J16,1,Pin_1*%
%TO.N,GND*%
X132600000Y-79100000D03*
D38*
%TO.P,J16,2,Pin_2*%
%TO.N,12V_ESC*%
X132600000Y-74100000D03*
%TD*%
D33*
%TO.P,R29,1,1*%
%TO.N,Net-(D12-A)*%
X154387500Y-38800000D03*
%TO.P,R29,2,2*%
%TO.N,Net-(D15-K)*%
X152562500Y-38800000D03*
%TD*%
D12*
%TO.P,J21,1,Pin_1*%
%TO.N,GND*%
X165975000Y-146300000D03*
D13*
%TO.P,J21,2,Pin_2*%
%TO.N,+5V*%
X162475000Y-146300000D03*
%TD*%
D37*
%TO.P,J22,1,Pin_1*%
%TO.N,GND*%
X146450000Y-130375000D03*
D38*
%TO.P,J22,2,Pin_2*%
%TO.N,+12V*%
X141450000Y-130375000D03*
%TD*%
D64*
%TO.P,R1,1*%
%TO.N,Net-(D1-A)*%
X34290000Y-130772500D03*
%TO.P,R1,2*%
%TO.N,GND*%
X34290000Y-133872500D03*
%TD*%
D35*
%TO.P,J34,1,Pin_1*%
%TO.N,GND*%
X157575000Y-110650000D03*
D36*
%TO.P,J34,2,Pin_2*%
%TO.N,Net-(J34-Pin_2)*%
X157575000Y-108110000D03*
%TO.P,J34,3,Pin_3*%
%TO.N,SERVO5*%
X157575000Y-105570000D03*
%TD*%
D33*
%TO.P,R30,1,1*%
%TO.N,Net-(D13-A)*%
X144141250Y-38581325D03*
%TO.P,R30,2,2*%
%TO.N,Net-(D16-K)*%
X142316250Y-38581325D03*
%TD*%
D37*
%TO.P,J24,1,Pin_1*%
%TO.N,GND*%
X146200000Y-115881600D03*
D38*
%TO.P,J24,2,Pin_2*%
%TO.N,+12V*%
X141200000Y-115881600D03*
%TD*%
D34*
%TO.P,R22,1*%
%TO.N,+3.3V*%
X208550000Y-71000000D03*
%TO.P,R22,2*%
%TO.N,I2C-*%
X205450000Y-71000000D03*
%TD*%
D29*
%TO.P,C2,1*%
%TO.N,60V*%
X95050000Y-126275000D03*
%TO.P,C2,2*%
%TO.N,GND*%
X95050000Y-112775000D03*
%TD*%
D33*
%TO.P,R31,1,1*%
%TO.N,GND*%
X169027187Y-45087262D03*
%TO.P,R31,2,2*%
%TO.N,SW2*%
X167202187Y-45087262D03*
%TD*%
D44*
%TO.P,C3,1*%
%TO.N,60V*%
X96261800Y-145575000D03*
%TO.P,C3,2*%
%TO.N,GND*%
X99386800Y-145575000D03*
%TD*%
D37*
%TO.P,J23,1,Pin_1*%
%TO.N,GND*%
X146224600Y-123300000D03*
D38*
%TO.P,J23,2,Pin_2*%
%TO.N,+12V*%
X141224600Y-123300000D03*
%TD*%
D65*
%TO.P,J44,1,DAT2*%
%TO.N,unconnected-(J44-DAT2-Pad1)*%
X182525000Y-26625000D03*
%TO.P,J44,2,DAT3/CD*%
%TO.N,CS*%
X183625000Y-26625000D03*
%TO.P,J44,3,CMD*%
%TO.N,MOSI*%
X184725000Y-26625000D03*
%TO.P,J44,4,VDD*%
%TO.N,+3.3V*%
X185825000Y-26625000D03*
%TO.P,J44,5,CLK*%
%TO.N,SCK*%
X186925000Y-26625000D03*
%TO.P,J44,6,VSS*%
%TO.N,GND*%
X188025000Y-26625000D03*
%TO.P,J44,7,DAT0*%
%TO.N,MISO*%
X189125000Y-26625000D03*
%TO.P,J44,8,DAT1*%
%TO.N,unconnected-(J44-DAT1-Pad8)*%
X190225000Y-26625000D03*
D66*
%TO.P,J44,9,DET_B*%
%TO.N,unconnected-(J44-DET_B-Pad9)*%
X191350000Y-35850000D03*
D67*
%TO.P,J44,10,DET_A*%
%TO.N,unconnected-(J44-DET_A-Pad10)*%
X180125000Y-37425000D03*
D68*
%TO.P,J44,11,SHIELD*%
%TO.N,GND*%
X191675000Y-34350000D03*
D69*
X191425000Y-26750000D03*
D70*
X180075000Y-26750000D03*
D71*
X179725000Y-35000000D03*
%TD*%
D44*
%TO.P,C16,1*%
%TO.N,GND*%
X110437500Y-99725000D03*
%TO.P,C16,2*%
%TO.N,Net-(C16-Pad2)*%
X113562500Y-99725000D03*
%TD*%
D34*
%TO.P,R17,1*%
%TO.N,+12V*%
X119350000Y-107225000D03*
%TO.P,R17,2*%
%TO.N,Net-(C18-Pad2)*%
X116250000Y-107225000D03*
%TD*%
D72*
%TO.P,J30,1,Pin_1*%
%TO.N,UART(RX)*%
X203475000Y-44700000D03*
%TO.P,J30,2,Pin_2*%
%TO.N,GND*%
X203475000Y-45700000D03*
%TO.P,J30,3,Pin_3*%
%TO.N,UART(TX)*%
X203475000Y-46700000D03*
D73*
%TO.P,J30,MP*%
%TO.N,N/C*%
X206000000Y-43400000D03*
X206000000Y-48000000D03*
%TD*%
D74*
%TO.P,D16,1,K*%
%TO.N,Net-(D16-K)*%
X143991250Y-34631325D03*
%TO.P,D16,2,A*%
%TO.N,Net-(D16-A)*%
X146791250Y-34631325D03*
%TD*%
D35*
%TO.P,J28,1,Pin_1*%
%TO.N,GND*%
X189550000Y-111000000D03*
D36*
%TO.P,J28,2,Pin_2*%
%TO.N,Net-(J28-Pin_2)*%
X189550000Y-108460000D03*
%TO.P,J28,3,Pin_3*%
%TO.N,SERVO1*%
X189550000Y-105920000D03*
%TD*%
D48*
%TO.P,J12,1,Pin_1*%
%TO.N,GND*%
X137975000Y-51625000D03*
D38*
%TO.P,J12,2,Pin_2*%
%TO.N,12V_ESC*%
X137975000Y-46625000D03*
%TD*%
D12*
%TO.P,J7,1,Pin_1*%
%TO.N,GND*%
X183975000Y-146300000D03*
D13*
%TO.P,J7,2,Pin_2*%
%TO.N,+5V*%
X180475000Y-146300000D03*
%TD*%
D51*
%TO.P,H4,1,1*%
%TO.N,GND*%
X34494581Y-29280419D03*
X35439162Y-27000000D03*
X35439162Y-31560838D03*
X37719581Y-26055419D03*
D52*
X37719581Y-29280419D03*
D51*
X37719581Y-32505419D03*
X40000000Y-27000000D03*
X40000000Y-31560838D03*
X40944581Y-29280419D03*
%TD*%
D34*
%TO.P,R16,1*%
%TO.N,+12V*%
X119350000Y-103525000D03*
%TO.P,R16,2*%
%TO.N,Net-(C17-Pad2)*%
X116250000Y-103525000D03*
%TD*%
D19*
%TO.P,R20,1*%
%TO.N,Net-(D5-K)*%
X179275000Y-140950000D03*
%TO.P,R20,2*%
%TO.N,GND*%
X177275000Y-140950000D03*
%TD*%
D15*
%TO.P,D13,1,K*%
%TO.N,GND*%
X143891250Y-31143825D03*
%TO.P,D13,2,A*%
%TO.N,Net-(D13-A)*%
X143891250Y-32718825D03*
%TD*%
D51*
%TO.P,H1,1,1*%
%TO.N,GND*%
X201000000Y-145000000D03*
X201944581Y-142719581D03*
X201944581Y-147280419D03*
X204225000Y-141775000D03*
D52*
X204225000Y-145000000D03*
D51*
X204225000Y-148225000D03*
X206505419Y-142719581D03*
X206505419Y-147280419D03*
X207450000Y-145000000D03*
%TD*%
D12*
%TO.P,C14,1*%
%TO.N,+12V*%
X143300000Y-95050000D03*
D13*
%TO.P,C14,2*%
%TO.N,GND*%
X143300000Y-100050000D03*
%TD*%
D59*
%TO.P,R19,1*%
%TO.N,Net-(U5-TRIM)*%
X183275000Y-129775000D03*
%TO.P,R19,2*%
%TO.N,GND*%
X183275000Y-126625000D03*
%TD*%
D33*
%TO.P,R28,1,1*%
%TO.N,Net-(D11-A)*%
X164227187Y-39287262D03*
%TO.P,R28,2,2*%
%TO.N,Net-(D14-K)*%
X162402187Y-39287262D03*
%TD*%
D39*
%TO.P,J40,1,Pin_1*%
%TO.N,Net-(D21-K)*%
X163019925Y-101000000D03*
D40*
%TO.P,J40,2,Pin_2*%
%TO.N,Net-(D21-A)*%
X161019925Y-101000000D03*
%TD*%
D41*
%TO.P,D5,1,K*%
%TO.N,Net-(D5-K)*%
X181700000Y-140950000D03*
%TO.P,D5,2,A*%
%TO.N,+5V*%
X183275000Y-140950000D03*
%TD*%
D45*
%TO.P,TP2,1,1*%
%TO.N,I2C-*%
X40000000Y-64000000D03*
%TD*%
D35*
%TO.P,J5,1,Pin_1*%
%TO.N,KillSW*%
X68555000Y-89775000D03*
D36*
%TO.P,J5,2,Pin_2*%
%TO.N,GND*%
X66015000Y-89775000D03*
%TD*%
D44*
%TO.P,C10,1*%
%TO.N,GND*%
X89875000Y-49800000D03*
%TO.P,C10,2*%
%TO.N,Net-(C10-Pad2)*%
X93000000Y-49800000D03*
%TD*%
D36*
%TO.P,U6,1,GPIO0*%
%TO.N,UART(TX)*%
X201445000Y-53170000D03*
D75*
X201445000Y-52270000D03*
D36*
%TO.P,U6,2,GPIO1*%
%TO.N,UART(RX)*%
X198905000Y-53170000D03*
D75*
X198905000Y-52270000D03*
D35*
%TO.P,U6,3,GND*%
%TO.N,GND*%
X196365000Y-53170000D03*
D75*
X196365000Y-52270000D03*
D36*
%TO.P,U6,4,GPIO2*%
%TO.N,I2C+*%
X193825000Y-53170000D03*
D75*
X193825000Y-52270000D03*
D36*
%TO.P,U6,5,GPIO3*%
%TO.N,I2C-*%
X191285000Y-53170000D03*
D75*
X191285000Y-52270000D03*
D36*
%TO.P,U6,6,GPIO4*%
%TO.N,SW2*%
X188745000Y-53170000D03*
D75*
X188745000Y-52270000D03*
D36*
%TO.P,U6,7,GPIO5*%
%TO.N,SW0*%
X186205000Y-53170000D03*
D75*
X186205000Y-52270000D03*
D35*
%TO.P,U6,8,GND*%
%TO.N,GND*%
X183665000Y-53170000D03*
D75*
X183665000Y-52270000D03*
D36*
%TO.P,U6,9,GPIO6*%
%TO.N,SCK*%
X181125000Y-53170000D03*
D75*
X181125000Y-52270000D03*
D36*
%TO.P,U6,10,GPIO7*%
%TO.N,MOSI*%
X178585000Y-53170000D03*
D75*
X178585000Y-52270000D03*
D36*
%TO.P,U6,11,GPIO8*%
%TO.N,MISO*%
X176045000Y-53170000D03*
D75*
X176045000Y-52270000D03*
D36*
%TO.P,U6,12,GPIO9*%
%TO.N,CS*%
X173505000Y-53170000D03*
D75*
X173505000Y-52270000D03*
D35*
%TO.P,U6,13,GND*%
%TO.N,GND*%
X170965000Y-53170000D03*
D75*
X170965000Y-52270000D03*
D36*
%TO.P,U6,14,GPIO10*%
%TO.N,SW1*%
X168425000Y-53170000D03*
D75*
X168425000Y-52270000D03*
D36*
%TO.P,U6,15,GPIO11*%
%TO.N,SERVO1*%
X165885000Y-53170000D03*
D75*
X165885000Y-52270000D03*
D36*
%TO.P,U6,16,GPIO12*%
%TO.N,SERVO2*%
X163345000Y-53170000D03*
D75*
X163345000Y-52270000D03*
D36*
%TO.P,U6,17,GPIO13*%
%TO.N,SERVO3*%
X160805000Y-53170000D03*
D75*
X160805000Y-52270000D03*
D35*
%TO.P,U6,18,GND*%
%TO.N,GND*%
X158265000Y-53170000D03*
D75*
X158265000Y-52270000D03*
D36*
%TO.P,U6,19,GPIO14*%
%TO.N,SERVO4*%
X155725000Y-53170000D03*
D75*
X155725000Y-52270000D03*
D36*
%TO.P,U6,20,GPIO15*%
%TO.N,SERVO5*%
X153185000Y-53170000D03*
D75*
X153185000Y-52270000D03*
D36*
%TO.P,U6,21,GPIO16*%
%TO.N,esc_status*%
X153185000Y-70950000D03*
D75*
X153185000Y-71850000D03*
D36*
%TO.P,U6,22,GPIO17*%
%TO.N,ALERT*%
X155725000Y-70950000D03*
D75*
X155725000Y-71850000D03*
D35*
%TO.P,U6,23,GND*%
%TO.N,GND*%
X158265000Y-70950000D03*
D75*
X158265000Y-71850000D03*
D36*
%TO.P,U6,24,GPIO18*%
%TO.N,SW5*%
X160805000Y-70950000D03*
D75*
X160805000Y-71850000D03*
D36*
%TO.P,U6,25,GPIO19*%
%TO.N,SW4*%
X163345000Y-70950000D03*
D75*
X163345000Y-71850000D03*
D36*
%TO.P,U6,26,GPIO20*%
%TO.N,SW3*%
X165885000Y-70950000D03*
D75*
X165885000Y-71850000D03*
D36*
%TO.P,U6,27,GPIO21*%
%TO.N,SERVO0*%
X168425000Y-70950000D03*
D75*
X168425000Y-71850000D03*
D35*
%TO.P,U6,28,GND*%
%TO.N,GND*%
X170965000Y-70950000D03*
D75*
X170965000Y-71850000D03*
D36*
%TO.P,U6,29,GPIO22*%
%TO.N,Net-(U6-GPIO22)*%
X173505000Y-70950000D03*
D75*
X173505000Y-71850000D03*
D36*
%TO.P,U6,30,RUN*%
%TO.N,RUN*%
X176045000Y-70950000D03*
D75*
X176045000Y-71850000D03*
D36*
%TO.P,U6,31,GPIO26_ADC0*%
%TO.N,Net-(U6-GPIO26_ADC0)*%
X178585000Y-70950000D03*
D75*
X178585000Y-71850000D03*
D36*
%TO.P,U6,32,GPIO27_ADC1*%
%TO.N,unconnected-(U6-GPIO27_ADC1-Pad32)*%
X181125000Y-70950000D03*
D75*
%TO.N,unconnected-(U6-GPIO27_ADC1-Pad32)_1*%
X181125000Y-71850000D03*
D35*
%TO.P,U6,33,AGND*%
%TO.N,GND*%
X183665000Y-70950000D03*
D75*
X183665000Y-71850000D03*
D36*
%TO.P,U6,34,GPIO28_ADC2*%
%TO.N,unconnected-(U6-GPIO28_ADC2-Pad34)_1*%
X186205000Y-70950000D03*
D75*
%TO.N,unconnected-(U6-GPIO28_ADC2-Pad34)*%
X186205000Y-71850000D03*
D36*
%TO.P,U6,35,ADC_VREF*%
%TO.N,unconnected-(U6-ADC_VREF-Pad35)*%
X188745000Y-70950000D03*
D75*
%TO.N,unconnected-(U6-ADC_VREF-Pad35)_1*%
X188745000Y-71850000D03*
D36*
%TO.P,U6,36,3V3*%
%TO.N,+3.3V*%
X191285000Y-70950000D03*
D75*
X191285000Y-71850000D03*
D36*
%TO.P,U6,37,3V3_EN*%
%TO.N,unconnected-(U6-3V3_EN-Pad37)*%
X193825000Y-70950000D03*
D75*
%TO.N,unconnected-(U6-3V3_EN-Pad37)_1*%
X193825000Y-71850000D03*
D35*
%TO.P,U6,38,GND*%
%TO.N,GND*%
X196365000Y-70950000D03*
D75*
X196365000Y-71850000D03*
D36*
%TO.P,U6,39,VSYS*%
%TO.N,Net-(D6-K)*%
X198905000Y-70950000D03*
D75*
X198905000Y-71850000D03*
D36*
%TO.P,U6,40,VBUS*%
%TO.N,unconnected-(U6-VBUS-Pad40)_1*%
X201445000Y-70950000D03*
D75*
%TO.N,unconnected-(U6-VBUS-Pad40)*%
X201445000Y-71850000D03*
D36*
%TO.P,U6,41,SWCLK*%
%TO.N,/BoardBoardConnections/DEBUG+*%
X153415000Y-59520000D03*
D76*
X152515000Y-59520000D03*
D35*
%TO.P,U6,42,GND*%
%TO.N,GND*%
X153415000Y-62060000D03*
D76*
X152515000Y-62060000D03*
D36*
%TO.P,U6,43,SWDIO*%
%TO.N,/BoardBoardConnections/DEBUG-*%
X153415000Y-64600000D03*
D76*
X152515000Y-64600000D03*
%TD*%
D35*
%TO.P,J32,1,Pin_1*%
%TO.N,+3.3V*%
X44700000Y-26935000D03*
D36*
%TO.P,J32,2,Pin_2*%
%TO.N,RUN*%
X44700000Y-29475000D03*
%TO.P,J32,3,Pin_3*%
%TO.N,I2C+*%
X44700000Y-32015000D03*
%TO.P,J32,4,Pin_4*%
%TO.N,I2C-*%
X44700000Y-34555000D03*
%TO.P,J32,5,Pin_5*%
%TO.N,GND*%
X44700000Y-37095000D03*
%TD*%
D26*
%TO.P,R11,1*%
%TO.N,GND*%
X127250000Y-113425000D03*
%TO.P,R11,2*%
%TO.N,Net-(U4-V_adj)*%
X127250000Y-116575000D03*
%TD*%
D25*
%TO.P,F8,1*%
%TO.N,Net-(D15-K)*%
X152525000Y-41912500D03*
%TO.P,F8,2*%
%TO.N,12V_ESC*%
X152525000Y-43787500D03*
%TD*%
D19*
%TO.P,R24,1*%
%TO.N,Net-(D7-K)*%
X159500000Y-116500000D03*
%TO.P,R24,2*%
%TO.N,GND*%
X157500000Y-116500000D03*
%TD*%
D34*
%TO.P,R7,1*%
%TO.N,12V_ESC*%
X99050000Y-46000000D03*
%TO.P,R7,2*%
%TO.N,Net-(C9-Pad2)*%
X95950000Y-46000000D03*
%TD*%
D12*
%TO.P,C7,1*%
%TO.N,12V_ESC*%
X118900000Y-48415216D03*
D13*
%TO.P,C7,2*%
%TO.N,GND*%
X118900000Y-43415216D03*
%TD*%
D26*
%TO.P,R12,1*%
%TO.N,Net-(U4-V_adj)*%
X127000000Y-120925000D03*
%TO.P,R12,2*%
%TO.N,+12V*%
X127000000Y-124075000D03*
%TD*%
D77*
%TO.P,J3,1,Pin_1*%
%TO.N,GND*%
X59600000Y-143000000D03*
D78*
%TO.P,J3,2,Pin_2*%
%TO.N,PWR_IN*%
X52400000Y-143000000D03*
%TD*%
D79*
%TO.P,C5,1*%
%TO.N,+3.3V*%
X35162500Y-119900000D03*
%TO.P,C5,2*%
%TO.N,GND*%
X33437500Y-119900000D03*
%TD*%
D51*
%TO.P,H3,1,1*%
%TO.N,GND*%
X35055419Y-144280419D03*
X36000000Y-142000000D03*
X36000000Y-146560838D03*
X38280419Y-141055419D03*
D52*
X38280419Y-144280419D03*
D51*
X38280419Y-147505419D03*
X40560838Y-142000000D03*
X40560838Y-146560838D03*
X41505419Y-144280419D03*
%TD*%
D31*
%TO.P,D31,1,K*%
%TO.N,GND*%
X178550000Y-80362500D03*
%TO.P,D31,2,A*%
%TO.N,Net-(D31-A)*%
X178550000Y-78787500D03*
%TD*%
D80*
%TO.P,Brd1,1,GND*%
%TO.N,GND*%
X37875000Y-103460000D03*
D81*
%TO.P,Brd1,2,VCC*%
%TO.N,+3.3V*%
X37875000Y-100920000D03*
%TO.P,Brd1,3,SCL*%
%TO.N,I2C-*%
X37875000Y-98380000D03*
%TO.P,Brd1,4,SDA*%
%TO.N,I2C+*%
X37875000Y-95840000D03*
D82*
%TO.P,Brd1,S1*%
%TO.N,N/C*%
X38375000Y-110650000D03*
%TO.P,Brd1,S2*%
X38375000Y-88650000D03*
%TO.P,Brd1,S3*%
X60375000Y-88650000D03*
%TO.P,Brd1,S4*%
X60375000Y-110650000D03*
%TD*%
D28*
%TO.P,C22,1,1*%
%TO.N,Net-(D15-K)*%
X154875000Y-42050000D03*
%TO.P,C22,2,2*%
%TO.N,GND*%
X154875000Y-43950000D03*
%TD*%
D21*
%TO.P,R40,1,1*%
%TO.N,GND*%
X158744925Y-84175000D03*
%TO.P,R40,2,2*%
%TO.N,SW5*%
X160569925Y-84175000D03*
%TD*%
D27*
%TO.P,F3,1*%
%TO.N,5V_KillSW*%
X177525000Y-112887500D03*
%TO.P,F3,2*%
%TO.N,Net-(J29-Pin_2)*%
X177525000Y-108612500D03*
%TD*%
D48*
%TO.P,J10,1,Pin_1*%
%TO.N,GND*%
X130600000Y-63875000D03*
D38*
%TO.P,J10,2,Pin_2*%
%TO.N,12V_ESC*%
X130600000Y-58875000D03*
%TD*%
D48*
%TO.P,J18,1,Pin_1*%
%TO.N,GND*%
X137900000Y-39800000D03*
D38*
%TO.P,J18,2,Pin_2*%
%TO.N,12V_ESC*%
X137900000Y-34800000D03*
%TD*%
D48*
%TO.P,J11,1,Pin_1*%
%TO.N,GND*%
X129325000Y-39525000D03*
D38*
%TO.P,J11,2,Pin_2*%
%TO.N,12V_ESC*%
X129325000Y-34525000D03*
%TD*%
D44*
%TO.P,C15,1*%
%TO.N,GND*%
X110487500Y-95975000D03*
%TO.P,C15,2*%
%TO.N,Net-(C15-Pad2)*%
X113612500Y-95975000D03*
%TD*%
D48*
%TO.P,J13,1,Pin_1*%
%TO.N,GND*%
X130175000Y-51625000D03*
D38*
%TO.P,J13,2,Pin_2*%
%TO.N,12V_ESC*%
X130175000Y-46625000D03*
%TD*%
D48*
%TO.P,J14,1,Pin_1*%
%TO.N,GND*%
X117700000Y-79050000D03*
D38*
%TO.P,J14,2,Pin_2*%
%TO.N,12V_ESC*%
X117700000Y-74050000D03*
%TD*%
D32*
%TO.P,C20,1*%
%TO.N,+5V*%
X177275000Y-134450000D03*
%TO.P,C20,2*%
%TO.N,GND*%
X171875000Y-134450000D03*
%TD*%
D21*
%TO.P,R36,1,1*%
%TO.N,Net-(D19-A)*%
X147191250Y-41881325D03*
%TO.P,R36,2,2*%
%TO.N,SW1*%
X149016250Y-41881325D03*
%TD*%
D31*
%TO.P,D26,1,K*%
%TO.N,GND*%
X161919925Y-97412500D03*
%TO.P,D26,2,A*%
%TO.N,Net-(D26-A)*%
X161919925Y-95837500D03*
%TD*%
D83*
%TO.P,U2,1,SH+*%
%TO.N,Net-(U2-IN+)*%
X43250000Y-121800001D03*
%TO.P,U2,2,IN+*%
X43250000Y-121200000D03*
%TO.P,U2,3,A1*%
%TO.N,A1*%
X43250000Y-120000000D03*
%TO.P,U2,4,A0*%
%TO.N,A0*%
X43250000Y-119400000D03*
%TO.P,U2,5,SDA*%
%TO.N,I2C+*%
X43250000Y-118800000D03*
%TO.P,U2,6,SCL*%
%TO.N,I2C-*%
X43250000Y-117599999D03*
D84*
%TO.P,U2,7,IS-*%
%TO.N,60V*%
X41400001Y-117549999D03*
D83*
%TO.P,U2,8,SH-*%
%TO.N,Net-(U2-IN-)*%
X39550002Y-117599999D03*
%TO.P,U2,9,IN-*%
X39550002Y-118200000D03*
%TO.P,U2,10,ALERT*%
%TO.N,ALERT*%
X39550000Y-119400000D03*
%TO.P,U2,11,VS*%
%TO.N,+3.3V*%
X39550000Y-120000000D03*
%TO.P,U2,12,GND*%
%TO.N,GND*%
X39550002Y-120600000D03*
%TO.P,U2,13,VBUS*%
%TO.N,SHUNT+*%
X39550002Y-121800001D03*
D84*
%TO.P,U2,14,IS+*%
X41400001Y-121850001D03*
%TD*%
D85*
%TO.P,JP5,1,A*%
%TO.N,Net-(JP5-A)*%
X156000000Y-79000000D03*
D86*
%TO.P,JP5,2,B*%
%TO.N,KillSW*%
X156000000Y-80300000D03*
%TD*%
D16*
%TO.P,Q2,1,D*%
%TO.N,PWR_IN*%
X41585000Y-132180000D03*
D17*
X43490000Y-134650000D03*
X42220000Y-134650000D03*
X40950000Y-134650000D03*
X39680000Y-134650000D03*
D18*
%TO.P,Q2,2,G*%
%TO.N,Net-(D1-A)*%
X39680000Y-129050000D03*
%TO.P,Q2,3,S*%
%TO.N,SHUNT+*%
X43490000Y-129050000D03*
X42220000Y-129050000D03*
X40950000Y-129050000D03*
%TD*%
D25*
%TO.P,F11,1*%
%TO.N,Net-(D24-K)*%
X197142650Y-97375000D03*
%TO.P,F11,2*%
%TO.N,5V_KillSW*%
X197142650Y-99250000D03*
%TD*%
D15*
%TO.P,D18,1,K*%
%TO.N,GND*%
X156025000Y-31550000D03*
%TO.P,D18,2,A*%
%TO.N,Net-(D18-A)*%
X156025000Y-33125000D03*
%TD*%
D14*
%TO.P,R2,1*%
%TO.N,Net-(D2-K)*%
X98324300Y-140050000D03*
%TO.P,R2,2*%
%TO.N,GND*%
X100324300Y-140050000D03*
%TD*%
D31*
%TO.P,D23,1,K*%
%TO.N,GND*%
X179600000Y-97637500D03*
%TO.P,D23,2,A*%
%TO.N,Net-(D23-A)*%
X179600000Y-96062500D03*
%TD*%
D74*
%TO.P,D15,1,K*%
%TO.N,Net-(D15-K)*%
X154175000Y-35000000D03*
%TO.P,D15,2,A*%
%TO.N,Net-(D15-A)*%
X156975000Y-35000000D03*
%TD*%
D46*
%TO.P,J38,1,Pin_1*%
%TO.N,Net-(D15-K)*%
X155025000Y-27900000D03*
D40*
%TO.P,J38,2,Pin_2*%
%TO.N,Net-(D15-A)*%
X157025000Y-27900000D03*
%TD*%
D46*
%TO.P,J39,1,Pin_1*%
%TO.N,Net-(D16-K)*%
X144841250Y-27581325D03*
D40*
%TO.P,J39,2,Pin_2*%
%TO.N,Net-(D16-A)*%
X146841250Y-27581325D03*
%TD*%
D12*
%TO.P,C6,1*%
%TO.N,12V_ESC*%
X119100000Y-34815216D03*
D13*
%TO.P,C6,2*%
%TO.N,GND*%
X119100000Y-29815216D03*
%TD*%
D44*
%TO.P,C17,1*%
%TO.N,GND*%
X110337500Y-103525000D03*
%TO.P,C17,2*%
%TO.N,Net-(C17-Pad2)*%
X113462500Y-103525000D03*
%TD*%
D74*
%TO.P,D14,1,K*%
%TO.N,Net-(D14-K)*%
X164027187Y-35337262D03*
%TO.P,D14,2,A*%
%TO.N,Net-(D14-A)*%
X166827187Y-35337262D03*
%TD*%
D82*
%TO.P,U5,1,+VIN*%
%TO.N,+12V*%
X158725000Y-139590000D03*
%TO.P,U5,2,ON/OFF*%
%TO.N,GND*%
X158725000Y-131970000D03*
%TO.P,U5,3,-VIN*%
X158725000Y-124350000D03*
D87*
%TO.P,U5,4,-VO*%
X186665000Y-124350000D03*
D82*
%TO.P,U5,5,SENSE*%
X186665000Y-128160000D03*
%TO.P,U5,6,TRIM*%
%TO.N,Net-(U5-TRIM)*%
X186665000Y-131970000D03*
%TO.P,U5,7,SENSE*%
%TO.N,+5V*%
X186665000Y-135780000D03*
D87*
%TO.P,U5,8,+VO*%
X186665000Y-139590000D03*
%TD*%
D88*
%TO.N,60V*%
X43000000Y-115000000D03*
X40000000Y-113000000D03*
X46000000Y-111000000D03*
X68000000Y-112000000D03*
X70000000Y-116000000D03*
X70000000Y-118000000D03*
X40500000Y-115500000D03*
X50000000Y-116000000D03*
X65000000Y-117000000D03*
D89*
X75979754Y-52579754D03*
D88*
X68000000Y-118000000D03*
X66000000Y-112000000D03*
X36000000Y-114000000D03*
X38000000Y-116000000D03*
X65000000Y-112000000D03*
X53000000Y-111000000D03*
X35000000Y-115000000D03*
X69000000Y-112000000D03*
X64000000Y-116000000D03*
X61000000Y-115000000D03*
X67000000Y-112000000D03*
X41000000Y-114000000D03*
X42500000Y-115500000D03*
X63000000Y-117000000D03*
X46000000Y-113000000D03*
X51000000Y-117000000D03*
X44000000Y-114000000D03*
X49000000Y-118000000D03*
X38500000Y-114500000D03*
X70000000Y-117000000D03*
X54000000Y-111000000D03*
X52000000Y-111000000D03*
X35000000Y-112000000D03*
X70000000Y-115000000D03*
X35000000Y-111000000D03*
X38500000Y-115500000D03*
X67000000Y-111000000D03*
X69000000Y-113000000D03*
X37000000Y-113000000D03*
X70000000Y-112000000D03*
X51000000Y-115000000D03*
X66000000Y-115000000D03*
X96261800Y-147238200D03*
X61000000Y-117000000D03*
X66000000Y-113000000D03*
X40500000Y-118600000D03*
X57000000Y-111000000D03*
X63000000Y-112000000D03*
X38500000Y-117500000D03*
X42100000Y-118600000D03*
X38500000Y-118500000D03*
X49000000Y-111000000D03*
X50000000Y-117000000D03*
X64000000Y-119000000D03*
X67000000Y-115000000D03*
X41000000Y-111000000D03*
X62000000Y-117000000D03*
X43500000Y-113500000D03*
X39500000Y-116500000D03*
X68000000Y-111000000D03*
X58000000Y-116000000D03*
D89*
X97282500Y-130107500D03*
D88*
X67000000Y-117000000D03*
X59000000Y-116000000D03*
X43500000Y-114500000D03*
X62000000Y-116000000D03*
X35000000Y-114000000D03*
X45000000Y-115000000D03*
X67000000Y-116000000D03*
X60000000Y-116000000D03*
X62000000Y-118000000D03*
X38000000Y-114000000D03*
X59000000Y-118000000D03*
X45000000Y-112000000D03*
X59000000Y-119000000D03*
X39000000Y-114000000D03*
X48000000Y-111000000D03*
X39000000Y-113000000D03*
X48000000Y-114000000D03*
X39500000Y-113500000D03*
X35000000Y-113000000D03*
X39000000Y-116000000D03*
X64000000Y-111000000D03*
X46000000Y-115000000D03*
X63000000Y-116000000D03*
X66000000Y-116000000D03*
X65000000Y-111000000D03*
X61000000Y-119000000D03*
X37000000Y-118000000D03*
X45000000Y-111000000D03*
X36000000Y-115000000D03*
X42000000Y-114000000D03*
X42000000Y-116000000D03*
X60000000Y-117000000D03*
X38000000Y-118000000D03*
X64000000Y-112000000D03*
X40000000Y-114000000D03*
X59000000Y-115000000D03*
X41000000Y-116000000D03*
X61000000Y-116000000D03*
X60000000Y-118000000D03*
X65000000Y-115000000D03*
X62000000Y-119000000D03*
X48000000Y-115000000D03*
X42500000Y-114500000D03*
X67000000Y-119000000D03*
X66000000Y-119000000D03*
X41000000Y-112000000D03*
X49000000Y-113000000D03*
X59000000Y-117000000D03*
X63000000Y-115000000D03*
X66000000Y-117000000D03*
X36000000Y-112000000D03*
X48000000Y-113000000D03*
X46000000Y-114000000D03*
X63000000Y-111000000D03*
X40900000Y-119200000D03*
X38000000Y-117000000D03*
X51000000Y-116000000D03*
X50000000Y-118000000D03*
X43500000Y-115500000D03*
X43000000Y-112000000D03*
X64000000Y-113000000D03*
X41500000Y-115500000D03*
X49000000Y-112000000D03*
X58000000Y-115000000D03*
X41000000Y-115000000D03*
X70000000Y-114000000D03*
D89*
X98102745Y-130927745D03*
D88*
X41700000Y-119200000D03*
X66000000Y-118000000D03*
X44000000Y-115000000D03*
X63000000Y-113000000D03*
X41300000Y-118600000D03*
X36000000Y-113000000D03*
X37000000Y-116000000D03*
X41500000Y-114500000D03*
X47000000Y-113000000D03*
X68000000Y-113000000D03*
X44000000Y-116000000D03*
X43000000Y-113000000D03*
X36000000Y-111000000D03*
X64000000Y-118000000D03*
X41000000Y-113000000D03*
X70000000Y-119000000D03*
X60000000Y-115000000D03*
X36000000Y-117000000D03*
X47000000Y-112000000D03*
X58000000Y-118000000D03*
X37000000Y-117000000D03*
X43000000Y-114000000D03*
X42000000Y-113000000D03*
X37000000Y-114000000D03*
X69000000Y-111000000D03*
X40000000Y-116000000D03*
X68000000Y-116000000D03*
X58000000Y-119000000D03*
X68000000Y-117000000D03*
X44500000Y-116500000D03*
X39500000Y-115500000D03*
X67000000Y-113000000D03*
X48000000Y-112000000D03*
X64000000Y-117000000D03*
X60000000Y-119000000D03*
X45000000Y-113000000D03*
X44500000Y-115500000D03*
X43000000Y-111000000D03*
X65000000Y-118000000D03*
X68000000Y-115000000D03*
X61000000Y-118000000D03*
X44000000Y-111000000D03*
X43000000Y-116000000D03*
X49000000Y-114000000D03*
X63000000Y-118000000D03*
X49000000Y-117000000D03*
X63000000Y-119000000D03*
X40000000Y-115000000D03*
X37000000Y-115000000D03*
X38500000Y-116500000D03*
X38500000Y-113500000D03*
D89*
X76800000Y-53400000D03*
D88*
X65000000Y-119000000D03*
X62000000Y-115000000D03*
X39500000Y-114500000D03*
X38000000Y-115000000D03*
X42000000Y-115000000D03*
X47000000Y-115000000D03*
X46000000Y-112000000D03*
X47000000Y-114000000D03*
X70000000Y-113000000D03*
X67000000Y-118000000D03*
X47000000Y-111000000D03*
X39000000Y-115000000D03*
X41500000Y-113500000D03*
X55000000Y-111000000D03*
X65000000Y-116000000D03*
X35000000Y-116000000D03*
X42500000Y-113500000D03*
X40500000Y-114500000D03*
X44000000Y-112000000D03*
X68000000Y-119000000D03*
X36000000Y-116000000D03*
X44500000Y-114500000D03*
X66000000Y-111000000D03*
X64000000Y-115000000D03*
X40500000Y-113500000D03*
X56000000Y-111000000D03*
X58000000Y-117000000D03*
X65000000Y-113000000D03*
X42000000Y-112000000D03*
X42000000Y-111000000D03*
%TO.N,GND*%
X119275000Y-123900000D03*
X164407406Y-84975000D03*
D90*
X170554762Y-44059687D03*
D88*
X170025000Y-137450000D03*
D90*
X160748712Y-43723713D03*
D88*
X94500000Y-65250000D03*
D90*
X156000000Y-116500000D03*
D88*
X148425000Y-75125000D03*
X32200000Y-120300000D03*
X89875000Y-47900000D03*
X54600000Y-114850000D03*
X170412500Y-135912500D03*
D90*
X147641250Y-31081325D03*
D88*
X170025000Y-127000000D03*
X180087481Y-85350000D03*
D89*
X93570000Y-108070000D03*
D88*
X202064760Y-45981760D03*
X110337500Y-101625000D03*
X101974300Y-140050000D03*
D89*
X92749754Y-107249754D03*
D88*
X145886212Y-44529963D03*
D89*
X71329754Y-29604754D03*
D88*
X170025000Y-136500000D03*
X192875000Y-27300000D03*
X110387500Y-105375000D03*
X94000000Y-147000000D03*
X89725000Y-51600000D03*
D90*
X154903675Y-85143675D03*
D88*
X101324300Y-145575000D03*
X170412500Y-126412500D03*
D89*
X72150000Y-30425000D03*
D90*
X175908750Y-97681175D03*
D91*
X34290000Y-135497500D03*
D88*
X156078712Y-44923713D03*
X175525000Y-140950000D03*
X100500000Y-143000000D03*
X177750000Y-26050000D03*
X194400000Y-84900000D03*
D90*
X157839962Y-31480038D03*
D88*
X147950000Y-49300000D03*
D90*
X184836325Y-85021250D03*
D88*
X179875000Y-80600000D03*
X89637500Y-55350000D03*
D90*
X190036325Y-97271250D03*
D88*
X190475000Y-33850000D03*
X180775000Y-35475000D03*
D90*
X170708750Y-85431175D03*
D88*
X110437500Y-97875000D03*
D90*
X150550000Y-43325000D03*
D88*
X165861012Y-45235937D03*
D90*
X167604762Y-31809687D03*
D88*
X170025000Y-127950000D03*
X174800000Y-80875000D03*
D90*
X160103675Y-97393675D03*
D88*
%TO.N,+3.3V*%
X208435000Y-69000000D03*
X147400000Y-84000000D03*
X184888260Y-28413260D03*
X195900000Y-47425000D03*
X35900000Y-86200000D03*
%TO.N,12V_ESC*%
X152525000Y-44937501D03*
X142286212Y-44704963D03*
X99000000Y-51600000D03*
X99000000Y-55300000D03*
X162477187Y-45382112D03*
X99050000Y-47800000D03*
%TO.N,SHUNT+*%
X64340000Y-129020000D03*
X36250000Y-121500000D03*
X59340000Y-126020000D03*
X41000000Y-127000000D03*
X44250000Y-122250000D03*
X37750000Y-123750000D03*
X38000000Y-128000000D03*
X44250000Y-121500000D03*
X45750000Y-121500000D03*
X65340000Y-129020000D03*
X45000000Y-128000000D03*
X66340000Y-128020000D03*
X45500000Y-127500000D03*
X60950000Y-122380000D03*
X60340000Y-128020000D03*
X40000000Y-128000000D03*
X43000000Y-127000000D03*
X60950000Y-121380000D03*
X62340000Y-126020000D03*
X37750000Y-124500000D03*
X52500000Y-127500000D03*
X59340000Y-127020000D03*
X44000000Y-127000000D03*
X63340000Y-126020000D03*
X41100000Y-120200000D03*
X59340000Y-128020000D03*
X45000000Y-127000000D03*
X44000000Y-128000000D03*
X40000000Y-123750000D03*
X46500000Y-123750000D03*
X59340000Y-129020000D03*
X36250000Y-123750000D03*
X47500000Y-127500000D03*
X62950000Y-121380000D03*
X45000000Y-122250000D03*
X66950000Y-120380000D03*
X43500000Y-127500000D03*
X62950000Y-120380000D03*
X52000000Y-127000000D03*
X63950000Y-123380000D03*
X37000000Y-123750000D03*
X42000000Y-127000000D03*
X44500000Y-127500000D03*
X58950000Y-120380000D03*
X41900000Y-120200000D03*
X43000000Y-128000000D03*
X62340000Y-127020000D03*
X65950000Y-122380000D03*
X34000000Y-127000000D03*
X46000000Y-127000000D03*
X44250000Y-123750000D03*
X35000000Y-127000000D03*
X49500000Y-127500000D03*
X37750000Y-123000000D03*
X60950000Y-120380000D03*
X64340000Y-127020000D03*
X58340000Y-129020000D03*
X60340000Y-129020000D03*
X59950000Y-122380000D03*
X61950000Y-121380000D03*
X42300000Y-120800000D03*
X38500000Y-123000000D03*
X66950000Y-123380000D03*
X58950000Y-123380000D03*
X48500000Y-127500000D03*
X46500000Y-124500000D03*
X61340000Y-128020000D03*
X50000000Y-127000000D03*
X37000000Y-124500000D03*
X50000000Y-128000000D03*
X63340000Y-129020000D03*
X58340000Y-126020000D03*
X67340000Y-126020000D03*
X38500000Y-127500000D03*
X47000000Y-128000000D03*
X67950000Y-121380000D03*
X63950000Y-121380000D03*
X44250000Y-124500000D03*
X48000000Y-128000000D03*
X39250000Y-123000000D03*
X43500000Y-123750000D03*
X65950000Y-120380000D03*
X42500000Y-127500000D03*
X46500000Y-122250000D03*
X39250000Y-123750000D03*
X39250000Y-124500000D03*
X45000000Y-121500000D03*
X40000000Y-124500000D03*
X61950000Y-122380000D03*
X40500000Y-127500000D03*
X38500000Y-123750000D03*
X39500000Y-127500000D03*
X45000000Y-124500000D03*
X42750000Y-123750000D03*
X64950000Y-120380000D03*
X60950000Y-123380000D03*
X37750000Y-121500000D03*
X42000000Y-128000000D03*
X59950000Y-123380000D03*
X39000000Y-127000000D03*
X51000000Y-128000000D03*
X63340000Y-128020000D03*
X36250000Y-123000000D03*
X64340000Y-128020000D03*
X57950000Y-123380000D03*
X37000000Y-123000000D03*
X66340000Y-127020000D03*
X45750000Y-123750000D03*
X51000000Y-127000000D03*
X66950000Y-121380000D03*
X41500000Y-120800000D03*
X46500000Y-121500000D03*
X43500000Y-123000000D03*
X62950000Y-122380000D03*
X39000000Y-128000000D03*
X62340000Y-129020000D03*
X38000000Y-127000000D03*
X47000000Y-127000000D03*
X40000000Y-123000000D03*
X36250000Y-122250000D03*
X66950000Y-122380000D03*
X45750000Y-122250000D03*
X57950000Y-122380000D03*
X63950000Y-120380000D03*
X37500000Y-127500000D03*
X50500000Y-127500000D03*
X53000000Y-128000000D03*
X62950000Y-123380000D03*
X57950000Y-120380000D03*
X49000000Y-127000000D03*
X61340000Y-127020000D03*
X38500000Y-122250000D03*
X38500000Y-121500000D03*
X44250000Y-123000000D03*
X36500000Y-127500000D03*
X45750000Y-123000000D03*
X65340000Y-128020000D03*
X60340000Y-127020000D03*
X61950000Y-123380000D03*
X67950000Y-120380000D03*
X59950000Y-120380000D03*
X58340000Y-127020000D03*
X40700000Y-120800000D03*
X40000000Y-127000000D03*
X41000000Y-128000000D03*
X57340000Y-126020000D03*
X57950000Y-121380000D03*
X62340000Y-128020000D03*
X42750000Y-124500000D03*
X45750000Y-124500000D03*
X58950000Y-122380000D03*
X65340000Y-127020000D03*
X67950000Y-122380000D03*
X51500000Y-127500000D03*
X66340000Y-129020000D03*
X48000000Y-127000000D03*
X65950000Y-123380000D03*
X37000000Y-128000000D03*
X64340000Y-126020000D03*
X60340000Y-126020000D03*
X67340000Y-128020000D03*
X37000000Y-121500000D03*
X64950000Y-122380000D03*
X63950000Y-122380000D03*
X57340000Y-127020000D03*
X53000000Y-127000000D03*
X42750000Y-123000000D03*
X64950000Y-123380000D03*
X61340000Y-126020000D03*
X66340000Y-126020000D03*
X63340000Y-127020000D03*
X65340000Y-126020000D03*
X41500000Y-127500000D03*
X45000000Y-123000000D03*
X59950000Y-121380000D03*
X57340000Y-129020000D03*
X38500000Y-124500000D03*
X46000000Y-128000000D03*
X52000000Y-128000000D03*
X58950000Y-121380000D03*
X36000000Y-127000000D03*
X67340000Y-129020000D03*
X36000000Y-128000000D03*
X58340000Y-128020000D03*
X61340000Y-129020000D03*
X46500000Y-123000000D03*
X61950000Y-120380000D03*
X45000000Y-123750000D03*
X64950000Y-121380000D03*
X65950000Y-121380000D03*
X49000000Y-128000000D03*
X67340000Y-127020000D03*
X37750000Y-122250000D03*
X43500000Y-124500000D03*
X67950000Y-123380000D03*
X36250000Y-124500000D03*
X37000000Y-127000000D03*
X46500000Y-127500000D03*
X37000000Y-122250000D03*
X57340000Y-128020000D03*
%TO.N,Net-(D1-A)*%
X46600000Y-130900000D03*
X37656600Y-130900000D03*
%TO.N,+5V*%
X191500000Y-121500000D03*
X194000000Y-121000000D03*
X197000000Y-122000000D03*
X193500000Y-121500000D03*
X191500000Y-120500000D03*
X178362500Y-133362500D03*
X192500000Y-119500000D03*
X193500000Y-120500000D03*
X178775000Y-132500000D03*
X192000000Y-120000000D03*
X197000000Y-120000000D03*
X192000000Y-122000000D03*
X192500000Y-122500000D03*
X196000000Y-122000000D03*
X194500000Y-122500000D03*
X193000000Y-121000000D03*
X193000000Y-122000000D03*
X195000000Y-121000000D03*
X193000000Y-120000000D03*
X195000000Y-122000000D03*
X192000000Y-121000000D03*
X178775000Y-131700000D03*
X197500000Y-121500000D03*
X192500000Y-121500000D03*
X178650000Y-123000000D03*
X197500000Y-120500000D03*
X178650000Y-122075000D03*
X197500000Y-119500000D03*
X195500000Y-120500000D03*
X194500000Y-121500000D03*
X196000000Y-121000000D03*
X197000000Y-121000000D03*
X196500000Y-121500000D03*
X193500000Y-122500000D03*
X178237500Y-123737500D03*
X195500000Y-122500000D03*
X192500000Y-120500000D03*
X195500000Y-121500000D03*
X196500000Y-120500000D03*
X194500000Y-120500000D03*
X194000000Y-122000000D03*
X191500000Y-119500000D03*
X196500000Y-122500000D03*
D90*
%TO.N,5V_KillSW*%
X156000000Y-114000000D03*
X166000000Y-114000000D03*
D88*
X192000000Y-116500000D03*
D90*
X162000000Y-114000000D03*
D88*
X195500000Y-115000000D03*
D90*
X178000000Y-114000000D03*
X160000000Y-114000000D03*
D88*
X192500000Y-115000000D03*
D90*
X172000000Y-114000000D03*
X157000000Y-114000000D03*
D88*
X193000000Y-115500000D03*
D90*
X155000000Y-114000000D03*
D88*
X195000000Y-114500000D03*
X196000000Y-114500000D03*
X196500000Y-115000000D03*
D90*
X174000000Y-114000000D03*
X183000000Y-114000000D03*
X184000000Y-114000000D03*
D88*
X197500000Y-116000000D03*
D90*
X181000000Y-114000000D03*
D88*
X197000000Y-114500000D03*
D90*
X173000000Y-114000000D03*
X197142650Y-100250000D03*
X171000000Y-114000000D03*
X169000000Y-114000000D03*
D88*
X193000000Y-116500000D03*
X194500000Y-115000000D03*
X191500000Y-116000000D03*
D90*
X177000000Y-114000000D03*
D88*
X198000000Y-115500000D03*
X191000000Y-116500000D03*
D90*
X161000000Y-114000000D03*
X168600000Y-101025000D03*
X182000000Y-114000000D03*
D88*
X191500000Y-115000000D03*
D90*
X180000000Y-114000000D03*
X154000000Y-114000000D03*
X175000000Y-114000000D03*
X153000000Y-114000000D03*
D88*
X193525000Y-114475000D03*
X192500000Y-116000000D03*
X197500000Y-115000000D03*
X197500000Y-117000000D03*
X197000000Y-115500000D03*
D90*
X183192575Y-101000000D03*
X163000000Y-114000000D03*
X158000000Y-114000000D03*
X164000000Y-114000000D03*
X167000000Y-114000000D03*
X176000000Y-114000000D03*
D88*
X191000000Y-115500000D03*
D90*
X168000000Y-114000000D03*
X165000000Y-114000000D03*
D88*
X191500000Y-117000000D03*
D90*
X152000000Y-114000000D03*
X179000000Y-114000000D03*
D88*
X198000000Y-114500000D03*
D90*
X187000000Y-114000000D03*
X185000000Y-114000000D03*
X186000000Y-114000000D03*
D88*
X192000000Y-115500000D03*
D90*
X170000000Y-114000000D03*
X159000000Y-114000000D03*
D88*
X192500000Y-117000000D03*
X191000000Y-114500000D03*
X192000000Y-114500000D03*
%TO.N,+12V*%
X119145000Y-114270000D03*
X119350000Y-97825000D03*
X119350000Y-101475000D03*
X119350000Y-105325000D03*
%TO.N,KillSW*%
X200000000Y-113500000D03*
X156016224Y-82100000D03*
%TO.N,RUN*%
X171637500Y-29162500D03*
%TO.N,A1*%
X51300000Y-120900000D03*
%TO.N,A0*%
X51600000Y-119400000D03*
%TO.N,SW2*%
X175075000Y-46171740D03*
%TO.N,SW0*%
X173750000Y-46917262D03*
%TO.N,SW5*%
X161775000Y-83160000D03*
%TO.N,SW3*%
X189000000Y-81500000D03*
%TO.N,SW4*%
X177887537Y-82112463D03*
%TO.N,I2C+*%
X47329412Y-117789012D03*
%TO.N,I2C-*%
X46650588Y-117110188D03*
%TO.N,MISO*%
X176076740Y-47651740D03*
%TD*%
D92*
%TO.N,60V*%
X96261800Y-145575000D02*
X96261800Y-147238200D01*
D93*
X76800000Y-53400000D02*
X74000000Y-50600000D01*
D92*
X96261800Y-145575000D02*
X95261800Y-144575000D01*
D93*
X95250000Y-128075000D02*
X95250000Y-125550000D01*
X98102745Y-130927745D02*
X95250000Y-128075000D01*
D92*
X95261800Y-144575000D02*
X92037500Y-144575000D01*
D93*
X74000000Y-50600000D02*
X74000000Y-48075000D01*
D94*
%TO.N,GND*%
X170025000Y-127000000D02*
X170025000Y-127200000D01*
D92*
X177275000Y-140950000D02*
X175525000Y-140950000D01*
X89637500Y-53537500D02*
X89725000Y-53450000D01*
D93*
X187127575Y-85027575D02*
X187127575Y-88177575D01*
D92*
X101974300Y-140050000D02*
X100324300Y-140050000D01*
D95*
X191877575Y-97315075D02*
X190115075Y-97315075D01*
X191175000Y-33850000D02*
X191675000Y-34350000D01*
D96*
X178662518Y-85350000D02*
X180087481Y-85350000D01*
D92*
X89875000Y-46087500D02*
X89787500Y-46000000D01*
D94*
X170025000Y-127200000D02*
X170025000Y-127950000D01*
D96*
X129126600Y-111123400D02*
X127250000Y-113000000D01*
D92*
X89725000Y-53450000D02*
X89725000Y-51600000D01*
D96*
X127250000Y-113000000D02*
X127250000Y-113425000D01*
D95*
X156078712Y-44923713D02*
X154948712Y-43793713D01*
D96*
X103150000Y-49600000D02*
X103995000Y-48755000D01*
D93*
X160748712Y-40573713D02*
X159763787Y-39588788D01*
X173000000Y-88587500D02*
X173984925Y-89572425D01*
D94*
X170200000Y-126625000D02*
X170025000Y-126800000D01*
D93*
X173927575Y-84509925D02*
X173000000Y-85437500D01*
D95*
X155998712Y-31436213D02*
X157761212Y-31436213D01*
D92*
X89637500Y-57200000D02*
X89637500Y-55350000D01*
D93*
X149622425Y-44252575D02*
X150550000Y-43325000D01*
D94*
X171875000Y-134450000D02*
X170575000Y-135750000D01*
D95*
X163954762Y-31772187D02*
X165804762Y-31772187D01*
D92*
X89637500Y-55350000D02*
X89637500Y-53537500D01*
D95*
X191425000Y-26750000D02*
X191425000Y-27904000D01*
D93*
X157194925Y-85150000D02*
X157194925Y-88300000D01*
X169037262Y-44987262D02*
X169627187Y-44987262D01*
D95*
X161944925Y-97437500D02*
X160182425Y-97437500D01*
D94*
X170025000Y-126800000D02*
X170025000Y-127000000D01*
D95*
X145800000Y-31037500D02*
X147562500Y-31037500D01*
X191425000Y-27904000D02*
X190957200Y-28371800D01*
D93*
X188112500Y-89162500D02*
X188627575Y-89162500D01*
X150550000Y-43325000D02*
X150550000Y-40175000D01*
D92*
X96500000Y-65250000D02*
X94500000Y-65250000D01*
D95*
X195025000Y-32125000D02*
X195025000Y-32275000D01*
D93*
X157194925Y-88300000D02*
X158179850Y-89284925D01*
D95*
X190475000Y-33850000D02*
X191175000Y-33850000D01*
X178450000Y-26750000D02*
X177750000Y-26050000D01*
D92*
X89875000Y-47900000D02*
X89875000Y-46087500D01*
D95*
X190957200Y-28371800D02*
X188442600Y-28371800D01*
D92*
X110337500Y-101625000D02*
X110337500Y-99825000D01*
D95*
X34302500Y-120765000D02*
X33437500Y-119900000D01*
X36035000Y-120765000D02*
X34302500Y-120765000D01*
X149325000Y-76025000D02*
X148425000Y-75125000D01*
X177750000Y-97725000D02*
X175987500Y-97725000D01*
D92*
X92125000Y-146075000D02*
X93075000Y-146075000D01*
D95*
X167567262Y-31772187D02*
X167604762Y-31809687D01*
X202064760Y-45981760D02*
X202351920Y-45694600D01*
X175987500Y-97725000D02*
X175950000Y-97687500D01*
X36200000Y-120600000D02*
X36035000Y-120765000D01*
D92*
X89725000Y-51600000D02*
X89725000Y-49950000D01*
D96*
X103995000Y-48755000D02*
X106195000Y-48755000D01*
D93*
X150550000Y-40175000D02*
X149565075Y-39190075D01*
D95*
X188442600Y-28371800D02*
X188025000Y-27954200D01*
X180075000Y-26750000D02*
X178450000Y-26750000D01*
D96*
X192975037Y-84900000D02*
X194400000Y-84900000D01*
D93*
X158179850Y-89284925D02*
X158694925Y-89284925D01*
D95*
X145884963Y-44529963D02*
X144750000Y-43395000D01*
D93*
X173984925Y-89572425D02*
X174500000Y-89572425D01*
X173000000Y-85437500D02*
X173000000Y-88587500D01*
D92*
X179637500Y-80362500D02*
X179875000Y-80600000D01*
D95*
X195025000Y-32275000D02*
X192950000Y-34350000D01*
D93*
X95250000Y-109750000D02*
X95250000Y-112050000D01*
D97*
X147450000Y-49800000D02*
X147450000Y-51615000D01*
D92*
X178550000Y-80362500D02*
X179637500Y-80362500D01*
X110437500Y-97875000D02*
X110437500Y-96025000D01*
D93*
X158712425Y-84222425D02*
X158122500Y-84222425D01*
X158122500Y-84222425D02*
X157194925Y-85150000D01*
D95*
X157761212Y-31436213D02*
X157798712Y-31473713D01*
D92*
X174362500Y-80437500D02*
X174800000Y-80875000D01*
D95*
X145886212Y-44529963D02*
X145884963Y-44529963D01*
X143950000Y-31037500D02*
X145800000Y-31037500D01*
X165804762Y-31772187D02*
X167567262Y-31772187D01*
D92*
X110437500Y-96025000D02*
X110487500Y-95975000D01*
X119275000Y-123900000D02*
X119275000Y-121900000D01*
D93*
X92749754Y-107249754D02*
X95250000Y-109750000D01*
D92*
X93075000Y-146075000D02*
X94000000Y-147000000D01*
X110437500Y-99725000D02*
X110437500Y-97875000D01*
D94*
X170025000Y-136300000D02*
X170025000Y-136500000D01*
D95*
X39550002Y-120600000D02*
X36200000Y-120600000D01*
D93*
X149032500Y-44252575D02*
X149622425Y-44252575D01*
X173000000Y-85437500D02*
X170700000Y-85437500D01*
X170554762Y-40909687D02*
X169569837Y-39924762D01*
D95*
X180200000Y-35475000D02*
X179725000Y-35000000D01*
D92*
X34290000Y-133872500D02*
X34290000Y-135497500D01*
D93*
X169569837Y-39924762D02*
X169054762Y-39924762D01*
D96*
X162982443Y-84975000D02*
X164407406Y-84975000D01*
D95*
X163794925Y-97437500D02*
X161944925Y-97437500D01*
X149850000Y-76025000D02*
X149325000Y-76025000D01*
X180775000Y-35475000D02*
X180200000Y-35475000D01*
X154148712Y-31436213D02*
X155998712Y-31436213D01*
D92*
X110387500Y-107225000D02*
X110387500Y-105375000D01*
D94*
X170200000Y-136125000D02*
X170025000Y-136300000D01*
D95*
X160182425Y-97437500D02*
X160144925Y-97400000D01*
D96*
X129874600Y-111123400D02*
X129126600Y-111123400D01*
D92*
X99386800Y-145575000D02*
X101324300Y-145575000D01*
D93*
X187127575Y-85027575D02*
X184827575Y-85027575D01*
X174517500Y-84509925D02*
X173927575Y-84509925D01*
D95*
X165861012Y-45235937D02*
X164754762Y-44129687D01*
D94*
X170412500Y-135912500D02*
X170200000Y-136125000D01*
D97*
X147950000Y-49300000D02*
X147450000Y-49800000D01*
D93*
X159763787Y-39588788D02*
X159248712Y-39588788D01*
D92*
X89725000Y-49950000D02*
X89875000Y-49800000D01*
D93*
X157194925Y-85150000D02*
X154894925Y-85150000D01*
D94*
X170025000Y-136700000D02*
X170025000Y-137450000D01*
D93*
X188055150Y-84100000D02*
X187127575Y-85027575D01*
D92*
X173525000Y-80437500D02*
X174362500Y-80437500D01*
D96*
X183525000Y-126625000D02*
X185800000Y-124350000D01*
D95*
X190115075Y-97315075D02*
X190077575Y-97277575D01*
D93*
X159821137Y-44651288D02*
X160748712Y-43723713D01*
X71329754Y-29604754D02*
X74000000Y-32275000D01*
D92*
X110337500Y-99825000D02*
X110437500Y-99725000D01*
D93*
X169627187Y-44987262D02*
X170554762Y-44059687D01*
D96*
X33437500Y-119900000D02*
X32600000Y-119900000D01*
D93*
X160748712Y-43723713D02*
X160748712Y-40573713D01*
D95*
X192325000Y-26750000D02*
X192875000Y-27300000D01*
D94*
X170575000Y-135750000D02*
X170412500Y-135912500D01*
D92*
X110337500Y-103525000D02*
X110337500Y-101625000D01*
D93*
X170554762Y-44059687D02*
X170554762Y-40909687D01*
D95*
X192950000Y-34350000D02*
X191675000Y-34350000D01*
D93*
X187127575Y-88177575D02*
X188112500Y-89162500D01*
D95*
X147562500Y-31037500D02*
X147600000Y-31075000D01*
D96*
X32600000Y-119900000D02*
X32200000Y-120300000D01*
D94*
X170025000Y-136500000D02*
X170025000Y-136700000D01*
D96*
X103150000Y-50725000D02*
X103150000Y-49600000D01*
D95*
X202351920Y-45694600D02*
X203469600Y-45694600D01*
X188025000Y-27954200D02*
X188025000Y-26625000D01*
D92*
X110387500Y-105375000D02*
X110387500Y-103575000D01*
X110387500Y-103575000D02*
X110337500Y-103525000D01*
D94*
X170412500Y-126412500D02*
X170200000Y-126625000D01*
D95*
X193727575Y-97315075D02*
X191877575Y-97315075D01*
D94*
X170575000Y-126250000D02*
X170412500Y-126412500D01*
D95*
X191425000Y-26750000D02*
X192325000Y-26750000D01*
D93*
X74000000Y-32275000D02*
X74000000Y-34575000D01*
D92*
X157500000Y-116500000D02*
X156000000Y-116500000D01*
D93*
X149565075Y-39190075D02*
X149050000Y-39190075D01*
D96*
X185800000Y-124350000D02*
X186665000Y-124350000D01*
D92*
X98574300Y-143000000D02*
X100500000Y-143000000D01*
X89875000Y-49800000D02*
X89875000Y-47900000D01*
D93*
X188645075Y-84100000D02*
X188055150Y-84100000D01*
X159231212Y-44651288D02*
X159821137Y-44651288D01*
D94*
X171875000Y-124950000D02*
X170575000Y-126250000D01*
D95*
X179600000Y-97725000D02*
X177750000Y-97725000D01*
X203469600Y-45694600D02*
X203475000Y-45700000D01*
D92*
%TO.N,Net-(D2-A)*%
X95449300Y-143000000D02*
X95374300Y-143075000D01*
X94749300Y-140050000D02*
X94749300Y-143000000D01*
X94749300Y-143000000D02*
X95449300Y-143000000D01*
X95374300Y-143075000D02*
X92125000Y-143075000D01*
%TO.N,+3.3V*%
X36200000Y-46260000D02*
X32855000Y-46260000D01*
D96*
X39550000Y-120000000D02*
X35262500Y-120000000D01*
D95*
X208435000Y-70885000D02*
X208550000Y-71000000D01*
D92*
X40000000Y-71450000D02*
X40000000Y-73600000D01*
X32800000Y-107475000D02*
X32850000Y-107525000D01*
X43340000Y-28295000D02*
X44700000Y-26935000D01*
X32800000Y-85500000D02*
X32800000Y-86200000D01*
X39150000Y-70600000D02*
X40000000Y-71450000D01*
X32800000Y-101000000D02*
X32800000Y-107475000D01*
X43340000Y-31210000D02*
X43340000Y-28295000D01*
X32915000Y-70700000D02*
X32815000Y-70600000D01*
X32815000Y-70600000D02*
X39150000Y-70600000D01*
X32815000Y-70915000D02*
X32815000Y-70600000D01*
X32855000Y-46260000D02*
X32815000Y-46300000D01*
X32815000Y-70600000D02*
X32815000Y-46300000D01*
X32815000Y-70915000D02*
X32800000Y-70900000D01*
X32815000Y-41735000D02*
X43340000Y-31210000D01*
D95*
X185825000Y-27476520D02*
X184888260Y-28413260D01*
D96*
X35262500Y-120000000D02*
X35162500Y-119900000D01*
D92*
X32850000Y-107525000D02*
X32850000Y-117587500D01*
X32815000Y-46300000D02*
X32815000Y-41735000D01*
X32850000Y-117587500D02*
X35162500Y-119900000D01*
D93*
X35900000Y-86200000D02*
X32800000Y-86200000D01*
D92*
X32820000Y-100920000D02*
X37875000Y-100920000D01*
D95*
X185825000Y-26625000D02*
X185825000Y-27476520D01*
D92*
X32800000Y-101000000D02*
X32800000Y-70900000D01*
D95*
X208435000Y-67000000D02*
X208435000Y-69000000D01*
X208435000Y-69000000D02*
X208435000Y-70885000D01*
D92*
X32800000Y-100900000D02*
X32820000Y-100920000D01*
X32800000Y-101000000D02*
X32800000Y-100900000D01*
D96*
%TO.N,12V_ESC*%
X103500000Y-61575000D02*
X103500000Y-62750000D01*
D92*
X99050000Y-49750000D02*
X99000000Y-49800000D01*
X99000000Y-55300000D02*
X99000000Y-57150000D01*
D93*
X162477187Y-44074762D02*
X162477187Y-45382112D01*
D92*
X99050000Y-47800000D02*
X99050000Y-49750000D01*
X104940000Y-65250000D02*
X106195000Y-63995000D01*
D93*
X142291250Y-44699925D02*
X142286212Y-44704963D01*
X152525000Y-43787500D02*
X152525000Y-44937501D01*
D92*
X99000000Y-51600000D02*
X99000000Y-53450000D01*
D96*
X104745000Y-63995000D02*
X106195000Y-63995000D01*
X103500000Y-62750000D02*
X104745000Y-63995000D01*
D92*
X102250000Y-65250000D02*
X104940000Y-65250000D01*
X99000000Y-53450000D02*
X99000000Y-55300000D01*
X99000000Y-49800000D02*
X99000000Y-51600000D01*
D93*
X142291250Y-43368825D02*
X142291250Y-44699925D01*
D92*
X99050000Y-46000000D02*
X99050000Y-47800000D01*
D95*
%TO.N,Net-(D14-K)*%
X162454762Y-42222187D02*
X164747262Y-42222187D01*
D93*
X162342262Y-42109687D02*
X162454762Y-42222187D01*
X164032262Y-35337262D02*
X162364687Y-35337262D01*
X162364687Y-35337262D02*
X162364687Y-29049762D01*
X163179762Y-28234687D02*
X164807262Y-28234687D01*
X162342262Y-39259687D02*
X162342262Y-35359687D01*
X162364687Y-35337262D02*
X162342262Y-35359687D01*
X162342262Y-39259687D02*
X162342262Y-42109687D01*
X162364687Y-29049762D02*
X163179762Y-28234687D01*
%TO.N,Net-(D15-K)*%
X152558637Y-35001288D02*
X152536212Y-35023713D01*
X154226212Y-35001288D02*
X152558637Y-35001288D01*
X152558637Y-35001288D02*
X152558637Y-28713788D01*
D95*
X152648712Y-41886213D02*
X154941212Y-41886213D01*
D93*
X152536212Y-38923713D02*
X152536212Y-41773713D01*
X152536212Y-41773713D02*
X152648712Y-41886213D01*
X152536212Y-38923713D02*
X152536212Y-35023713D01*
X153373712Y-27898713D02*
X155001212Y-27898713D01*
D95*
X154941212Y-41886213D02*
X154948712Y-41893713D01*
D93*
X152558637Y-28713788D02*
X153373712Y-27898713D01*
%TO.N,Net-(D16-K)*%
X144027500Y-34602575D02*
X142359925Y-34602575D01*
X142359925Y-28315075D02*
X143175000Y-27500000D01*
X142359925Y-34602575D02*
X142359925Y-28315075D01*
X142359925Y-34602575D02*
X142337500Y-34625000D01*
X143175000Y-27500000D02*
X144802500Y-27500000D01*
D95*
X142450000Y-41487500D02*
X144742500Y-41487500D01*
D93*
X142337500Y-38525000D02*
X142337500Y-34625000D01*
X142337500Y-38525000D02*
X142337500Y-41375000D01*
X142337500Y-41375000D02*
X142450000Y-41487500D01*
%TO.N,Net-(D21-K)*%
X165385000Y-100159925D02*
X164569925Y-100975000D01*
X165385000Y-93872425D02*
X165385000Y-98000000D01*
X165407425Y-87100000D02*
X165294925Y-86987500D01*
X165385000Y-93872425D02*
X165407425Y-93850000D01*
X163717425Y-93872425D02*
X165385000Y-93872425D01*
X165407425Y-89950000D02*
X165407425Y-87100000D01*
X165407425Y-89950000D02*
X165407425Y-93850000D01*
X165385000Y-98000000D02*
X165385000Y-100159925D01*
X165472500Y-98087500D02*
X165385000Y-98000000D01*
D95*
X165294925Y-86987500D02*
X163002425Y-86987500D01*
D93*
X164569925Y-100975000D02*
X162942425Y-100975000D01*
X168600000Y-98087500D02*
X165472500Y-98087500D01*
%TO.N,Net-(D24-K)*%
X195317650Y-97250000D02*
X195317650Y-100037500D01*
X195340075Y-89827575D02*
X195340075Y-93727575D01*
X193650075Y-93750000D02*
X195317650Y-93750000D01*
X195317650Y-93750000D02*
X195340075Y-93727575D01*
D95*
X195227575Y-86865075D02*
X192935075Y-86865075D01*
D93*
X195442650Y-97375000D02*
X195317650Y-97250000D01*
D95*
X192935075Y-86865075D02*
X192927575Y-86857575D01*
D93*
X195317650Y-93750000D02*
X195317650Y-97250000D01*
X195317650Y-100037500D02*
X194502575Y-100852575D01*
X197142650Y-97375000D02*
X195442650Y-97375000D01*
X195340075Y-89827575D02*
X195340075Y-86977575D01*
X194502575Y-100852575D02*
X192875075Y-100852575D01*
%TO.N,Net-(D25-K)*%
X181190075Y-94159925D02*
X181190075Y-98000000D01*
X181315075Y-98125000D02*
X181190075Y-98000000D01*
X180375000Y-101262500D02*
X178747500Y-101262500D01*
X181190075Y-94159925D02*
X181212500Y-94137500D01*
X183192575Y-98125000D02*
X181315075Y-98125000D01*
D95*
X178807500Y-87275000D02*
X178800000Y-87267500D01*
D93*
X181190075Y-100447425D02*
X180375000Y-101262500D01*
X179522500Y-94159925D02*
X181190075Y-94159925D01*
X181212500Y-90237500D02*
X181212500Y-87387500D01*
X181212500Y-90237500D02*
X181212500Y-94137500D01*
D95*
X181100000Y-87275000D02*
X178807500Y-87275000D01*
D93*
X181190075Y-98000000D02*
X181190075Y-100447425D01*
D92*
%TO.N,Net-(D1-A)*%
X48450000Y-129050000D02*
X48905000Y-129050000D01*
D95*
X34290000Y-129022500D02*
X36650100Y-129022500D01*
X36650100Y-129022500D02*
X36677600Y-129050000D01*
X34290000Y-130772500D02*
X34290000Y-129022500D01*
D92*
X39680000Y-129050000D02*
X36677600Y-129050000D01*
X36677600Y-129921000D02*
X37656600Y-130900000D01*
X46600000Y-130900000D02*
X48450000Y-129050000D01*
X36677600Y-129050000D02*
X36677600Y-129921000D01*
%TO.N,Net-(D2-K)*%
X96324300Y-140050000D02*
X98324300Y-140050000D01*
%TO.N,Net-(D3-K)*%
X100675000Y-65250000D02*
X98500000Y-65250000D01*
%TO.N,Net-(D4-K)*%
X119145000Y-119770000D02*
X119275000Y-119900000D01*
X119145000Y-117945000D02*
X119145000Y-119770000D01*
D94*
%TO.N,+5V*%
X208000000Y-123197056D02*
X203697056Y-127500000D01*
X178275000Y-123700000D02*
X178650000Y-123325000D01*
X178775000Y-132700000D02*
X178775000Y-132500000D01*
X178362500Y-133362500D02*
X178400000Y-133325000D01*
X177150000Y-124825000D02*
X178237500Y-123737500D01*
D96*
X183275000Y-137450000D02*
X185415000Y-139590000D01*
X185415000Y-139590000D02*
X186665000Y-139590000D01*
D92*
X183885000Y-139590000D02*
X186665000Y-139590000D01*
D94*
X199000000Y-80000000D02*
X208000000Y-89000000D01*
D92*
X183275000Y-140200000D02*
X183885000Y-139590000D01*
D94*
X177275000Y-134450000D02*
X178362500Y-133362500D01*
X178775000Y-132500000D02*
X178775000Y-132200000D01*
X208000000Y-89000000D02*
X208000000Y-119000000D01*
X178650000Y-123325000D02*
X178650000Y-123075000D01*
D92*
X207750000Y-119250000D02*
X208000000Y-119000000D01*
D94*
X199000000Y-78150000D02*
X199000000Y-80000000D01*
X178650000Y-123000000D02*
X178650000Y-122575000D01*
X178400000Y-133325000D02*
X178775000Y-132950000D01*
X203697056Y-127500000D02*
X202000000Y-127500000D01*
X178650000Y-123075000D02*
X178650000Y-123000000D01*
X208000000Y-119000000D02*
X208000000Y-123197056D01*
D92*
X202500000Y-119250000D02*
X207750000Y-119250000D01*
D94*
X178650000Y-122575000D02*
X178650000Y-122075000D01*
X178775000Y-132200000D02*
X178775000Y-131700000D01*
D96*
X183275000Y-137275000D02*
X183275000Y-137450000D01*
D94*
X178237500Y-123737500D02*
X178275000Y-123700000D01*
D92*
X183275000Y-140950000D02*
X183275000Y-140200000D01*
D94*
X178775000Y-132950000D02*
X178775000Y-132700000D01*
D92*
%TO.N,Net-(D5-K)*%
X181700000Y-140950000D02*
X179275000Y-140950000D01*
D94*
%TO.N,Net-(D6-K)*%
X198905000Y-70950000D02*
X198905000Y-74905000D01*
X198905000Y-74905000D02*
X199000000Y-75000000D01*
D92*
%TO.N,5V_KillSW*%
X163037500Y-116500000D02*
X163500000Y-116500000D01*
D93*
X197142650Y-99250000D02*
X197142650Y-100250000D01*
D92*
X163500000Y-116500000D02*
X166000000Y-114000000D01*
D94*
X193525000Y-112887500D02*
X193525000Y-114475000D01*
D93*
X168600000Y-99962500D02*
X168600000Y-101025000D01*
X183192575Y-100000000D02*
X183192575Y-101000000D01*
D92*
%TO.N,Net-(D7-K)*%
X161462500Y-116500000D02*
X159500000Y-116500000D01*
D95*
%TO.N,Net-(D11-A)*%
X164404762Y-33809687D02*
X165054762Y-34459687D01*
X165054762Y-34459687D02*
X165054762Y-38372187D01*
X164404762Y-33797187D02*
X164404762Y-33809687D01*
X165054762Y-38372187D02*
X164167262Y-39259687D01*
X163954762Y-33347187D02*
X164404762Y-33797187D01*
%TO.N,Net-(D12-A)*%
X155248712Y-38036213D02*
X154361212Y-38923713D01*
X154598712Y-33461213D02*
X154598712Y-33473713D01*
X154148712Y-33011213D02*
X154598712Y-33461213D01*
X155248712Y-34123713D02*
X155248712Y-38036213D01*
X154598712Y-33473713D02*
X155248712Y-34123713D01*
%TO.N,Net-(D13-A)*%
X143950000Y-32612500D02*
X144400000Y-33062500D01*
X145050000Y-33725000D02*
X145050000Y-37637500D01*
X144400000Y-33062500D02*
X144400000Y-33075000D01*
X144400000Y-33075000D02*
X145050000Y-33725000D01*
X145050000Y-37637500D02*
X144162500Y-38525000D01*
D93*
%TO.N,Net-(D14-A)*%
X168579762Y-28234687D02*
X166807262Y-28234687D01*
X166832262Y-35337262D02*
X169182337Y-35337262D01*
X169204762Y-36949762D02*
X169204762Y-35359687D01*
X169182337Y-35337262D02*
X169182337Y-28837262D01*
X168104762Y-38049762D02*
X169204762Y-36949762D01*
X169182337Y-28837262D02*
X168579762Y-28234687D01*
X169182337Y-35337262D02*
X169204762Y-35359687D01*
%TO.N,Net-(D15-A)*%
X159398712Y-36613788D02*
X159398712Y-35023713D01*
X158773712Y-27898713D02*
X157001212Y-27898713D01*
X159376287Y-28501288D02*
X158773712Y-27898713D01*
X159376287Y-35001288D02*
X159376287Y-28501288D01*
X158298712Y-37713788D02*
X159398712Y-36613788D01*
X159376287Y-35001288D02*
X159398712Y-35023713D01*
X157026212Y-35001288D02*
X159376287Y-35001288D01*
%TO.N,Net-(D16-A)*%
X148575000Y-27500000D02*
X146802500Y-27500000D01*
X146827500Y-34602575D02*
X149177575Y-34602575D01*
X149177575Y-28102575D02*
X148575000Y-27500000D01*
X148100000Y-37315075D02*
X149200000Y-36215075D01*
X149177575Y-34602575D02*
X149200000Y-34625000D01*
X149200000Y-36215075D02*
X149200000Y-34625000D01*
X149177575Y-34602575D02*
X149177575Y-28102575D01*
D95*
%TO.N,Net-(D17-A)*%
X165804762Y-41109687D02*
X167167337Y-42472262D01*
X165804762Y-33347187D02*
X165804762Y-41109687D01*
%TO.N,Net-(D18-A)*%
X155998712Y-33011213D02*
X155998712Y-40773713D01*
X155998712Y-40773713D02*
X157361287Y-42136288D01*
%TO.N,Net-(D19-A)*%
X145800000Y-32612500D02*
X145800000Y-40375000D01*
X147162575Y-41737575D02*
X147207500Y-41737575D01*
X145800000Y-40375000D02*
X147162575Y-41737575D01*
%TO.N,Net-(D20-A)*%
X162694925Y-90837500D02*
X163582425Y-89950000D01*
X163794925Y-95862500D02*
X163344925Y-95412500D01*
X162694925Y-94750000D02*
X162694925Y-90837500D01*
X163344925Y-95400000D02*
X162694925Y-94750000D01*
X163344925Y-95412500D02*
X163344925Y-95400000D01*
D93*
%TO.N,Net-(D21-A)*%
X158567350Y-100372425D02*
X159169925Y-100975000D01*
X158544925Y-92259925D02*
X158544925Y-93850000D01*
X158567350Y-93872425D02*
X158544925Y-93850000D01*
X160917425Y-93872425D02*
X158567350Y-93872425D01*
X159644925Y-91159925D02*
X158544925Y-92259925D01*
X159169925Y-100975000D02*
X160942425Y-100975000D01*
X158567350Y-93872425D02*
X158567350Y-100372425D01*
D95*
%TO.N,Net-(D22-A)*%
X192627575Y-94627575D02*
X192627575Y-90715075D01*
X193277575Y-95277575D02*
X192627575Y-94627575D01*
X193727575Y-95740075D02*
X193277575Y-95290075D01*
X192627575Y-90715075D02*
X193515075Y-89827575D01*
X193277575Y-95290075D02*
X193277575Y-95277575D01*
%TO.N,Net-(D23-A)*%
X179150000Y-95700000D02*
X179150000Y-95687500D01*
X178500000Y-91125000D02*
X179387500Y-90237500D01*
X179150000Y-95687500D02*
X178500000Y-95037500D01*
X178500000Y-95037500D02*
X178500000Y-91125000D01*
X179600000Y-96150000D02*
X179150000Y-95700000D01*
D93*
%TO.N,Net-(D24-A)*%
X189577575Y-91037500D02*
X188477575Y-92137500D01*
X189102575Y-100852575D02*
X190875075Y-100852575D01*
X190850075Y-93750000D02*
X188500000Y-93750000D01*
X188500000Y-93750000D02*
X188477575Y-93727575D01*
X188477575Y-92137500D02*
X188477575Y-93727575D01*
X188500000Y-100250000D02*
X189102575Y-100852575D01*
X188500000Y-93750000D02*
X188500000Y-100250000D01*
%TO.N,Net-(D25-A)*%
X174372425Y-94159925D02*
X174350000Y-94137500D01*
X174975000Y-101262500D02*
X176747500Y-101262500D01*
X174350000Y-92547425D02*
X174350000Y-94137500D01*
X174372425Y-100659925D02*
X174975000Y-101262500D01*
X176722500Y-94159925D02*
X174372425Y-94159925D01*
X175450000Y-91447425D02*
X174350000Y-92547425D01*
X174372425Y-94159925D02*
X174372425Y-100659925D01*
D95*
%TO.N,Net-(D26-A)*%
X161944925Y-88100000D02*
X160582350Y-86737425D01*
X161944925Y-95862500D02*
X161944925Y-88100000D01*
%TO.N,Net-(D27-A)*%
X191877575Y-87977575D02*
X190515000Y-86615000D01*
X191877575Y-95740075D02*
X191877575Y-87977575D01*
X190515000Y-86615000D02*
X190470075Y-86615000D01*
%TO.N,Net-(D28-A)*%
X177750000Y-96150000D02*
X177750000Y-88387500D01*
X176387425Y-87024925D02*
X176342500Y-87024925D01*
X177750000Y-88387500D02*
X176387425Y-87024925D01*
D94*
%TO.N,Net-(J27-Pin_2)*%
X197450000Y-108460000D02*
X193602500Y-108460000D01*
X193602500Y-108460000D02*
X193450000Y-108612500D01*
%TO.N,Net-(J34-Pin_2)*%
X153727500Y-108110000D02*
X153575000Y-108262500D01*
X157575000Y-108110000D02*
X153727500Y-108110000D01*
D92*
%TO.N,+12V*%
X119350000Y-99725000D02*
X119350000Y-97825000D01*
X119350000Y-101475000D02*
X119350000Y-99725000D01*
X119145000Y-116370000D02*
X119145000Y-114270000D01*
X119350000Y-107225000D02*
X119350000Y-105325000D01*
D96*
X127000000Y-124075000D02*
X129288400Y-126363400D01*
X129288400Y-126363400D02*
X129874600Y-126363400D01*
D92*
X119350000Y-103525000D02*
X119350000Y-101475000D01*
X119350000Y-105325000D02*
X119350000Y-103525000D01*
X119350000Y-97825000D02*
X119350000Y-95975000D01*
%TO.N,KillSW*%
X156016224Y-82100000D02*
X156016224Y-80316224D01*
X156016224Y-80316224D02*
X156000000Y-80300000D01*
X155862330Y-82100000D02*
X150587330Y-87375000D01*
X57895000Y-63995000D02*
X57895000Y-64570000D01*
X68555000Y-75230000D02*
X68555000Y-89775000D01*
X200500000Y-114000000D02*
X200000000Y-113500000D01*
X150587330Y-87375000D02*
X70955000Y-87375000D01*
X70955000Y-87375000D02*
X68555000Y-89775000D01*
X155975000Y-82058776D02*
X156016224Y-82100000D01*
X156016224Y-82100000D02*
X155862330Y-82100000D01*
X57895000Y-64570000D02*
X68555000Y-75230000D01*
X200500000Y-115000000D02*
X200500000Y-114000000D01*
D95*
%TO.N,UART(TX)*%
X203475000Y-46700000D02*
X202300000Y-46700000D01*
X202300000Y-46700000D02*
X201445000Y-47555000D01*
X201445000Y-47555000D02*
X201445000Y-53170000D01*
D96*
X201230000Y-52955000D02*
X201445000Y-53170000D01*
D95*
%TO.N,UART(RX)*%
X203475000Y-44700000D02*
X202300000Y-44700000D01*
D96*
X199230000Y-52845000D02*
X198905000Y-53170000D01*
D95*
X198905000Y-48095000D02*
X198905000Y-53170000D01*
X202300000Y-44700000D02*
X198905000Y-48095000D01*
D97*
%TO.N,RUN*%
X48075000Y-26100000D02*
X44700000Y-29475000D01*
X171637500Y-29162500D02*
X168575000Y-26100000D01*
X168575000Y-26100000D02*
X48075000Y-26100000D01*
D95*
%TO.N,A1*%
X50400000Y-120000000D02*
X43250000Y-120000000D01*
X51300000Y-120900000D02*
X50400000Y-120000000D01*
%TO.N,A0*%
X43250000Y-119400000D02*
X51600000Y-119400000D01*
D92*
%TO.N,Net-(Q3-G)*%
X200500000Y-119250000D02*
X199890000Y-118640000D01*
X200500000Y-117000000D02*
X200500000Y-119250000D01*
X199890000Y-118640000D02*
X196862400Y-118640000D01*
X196862400Y-118640000D02*
X196177400Y-119325000D01*
D95*
%TO.N,SW2*%
X169037262Y-43362738D02*
X169037262Y-41807262D01*
X167277187Y-44987262D02*
X167412738Y-44987262D01*
X167412738Y-44987262D02*
X169037262Y-43362738D01*
X168292187Y-46177262D02*
X167202187Y-45087262D01*
X175075000Y-46171740D02*
X175069478Y-46177262D01*
X169037262Y-41807262D02*
X167154762Y-39924762D01*
X175069478Y-46177262D02*
X168292187Y-46177262D01*
%TO.N,SW0*%
X157606688Y-44651288D02*
X159231212Y-43026764D01*
X159231212Y-41471288D02*
X157348712Y-39588788D01*
X159231212Y-43026764D02*
X159231212Y-41471288D01*
X157471137Y-44651288D02*
X157606688Y-44651288D01*
X173750000Y-46917262D02*
X173742262Y-46925000D01*
X173742262Y-46925000D02*
X159725000Y-46925000D01*
X159725000Y-46925000D02*
X157562262Y-44762262D01*
D97*
X157525000Y-44600000D02*
X157592499Y-44600000D01*
D95*
%TO.N,SW1*%
X147272425Y-44252575D02*
X147272425Y-43943750D01*
X147272425Y-43943750D02*
X149032500Y-42183675D01*
X149032500Y-42183675D02*
X149032500Y-41072575D01*
X147178750Y-44231325D02*
X153077425Y-50130000D01*
X168425000Y-51100000D02*
X168425000Y-53170000D01*
X153077425Y-50130000D02*
X167455000Y-50130000D01*
X149032500Y-41072575D02*
X147150000Y-39190075D01*
X167455000Y-50130000D02*
X168425000Y-51100000D01*
%TO.N,SW5*%
X158712425Y-87402425D02*
X160594925Y-89284925D01*
X160336949Y-84222425D02*
X158712425Y-85846949D01*
X161775000Y-83160000D02*
X160760000Y-84175000D01*
X160472500Y-84222425D02*
X160336949Y-84222425D01*
X160760000Y-84175000D02*
X160569925Y-84175000D01*
X158712425Y-85846949D02*
X158712425Y-87402425D01*
D96*
%TO.N,SW3*%
X189000000Y-81500000D02*
X190387537Y-82887537D01*
D95*
X188645075Y-87280000D02*
X190527575Y-89162500D01*
X190405150Y-84100000D02*
X190269599Y-84100000D01*
D96*
X190387537Y-82887537D02*
X190387537Y-84150000D01*
D95*
X190269599Y-84100000D02*
X188645075Y-85724524D01*
X188645075Y-85724524D02*
X188645075Y-87280000D01*
%TO.N,SW4*%
X174517500Y-87689925D02*
X176400000Y-89572425D01*
D96*
X176212500Y-83787500D02*
X177887537Y-82112463D01*
D95*
X174517500Y-86134449D02*
X174517500Y-87689925D01*
D96*
X176212500Y-84550000D02*
X176212500Y-83787500D01*
D95*
X176142024Y-84509925D02*
X174517500Y-86134449D01*
X176277575Y-84509925D02*
X176142024Y-84509925D01*
D96*
%TO.N,ALERT*%
X39550000Y-119400000D02*
X36175000Y-119400000D01*
X150740000Y-88085000D02*
X154825000Y-84000000D01*
X80621800Y-88085000D02*
X150740000Y-88085000D01*
X61181800Y-107525000D02*
X80621800Y-88085000D01*
X156000000Y-84000000D02*
X158000000Y-82000000D01*
X33975000Y-117200000D02*
X33975000Y-108400000D01*
X155725000Y-72630000D02*
X155725000Y-70950000D01*
X33975000Y-108400000D02*
X34850000Y-107525000D01*
X154825000Y-84000000D02*
X156000000Y-84000000D01*
X36175000Y-119400000D02*
X33975000Y-117200000D01*
X34850000Y-107525000D02*
X61181800Y-107525000D01*
X158000000Y-82000000D02*
X158000000Y-74905000D01*
X158000000Y-74905000D02*
X155725000Y-72630000D01*
%TO.N,Net-(U3-V_adj)*%
X104625000Y-56375000D02*
X106195000Y-56375000D01*
X103150000Y-54900000D02*
X104625000Y-56375000D01*
X103500000Y-58425000D02*
X103500000Y-57500000D01*
X103500000Y-57500000D02*
X104625000Y-56375000D01*
X103150000Y-53875000D02*
X103150000Y-54900000D01*
D92*
%TO.N,Net-(C9-Pad2)*%
X92912500Y-46000000D02*
X95950000Y-46000000D01*
%TO.N,Net-(C10-Pad2)*%
X93000000Y-49800000D02*
X95900000Y-49800000D01*
%TO.N,Net-(C11-Pad2)*%
X95900000Y-53450000D02*
X92850000Y-53450000D01*
%TO.N,Net-(C12-Pad2)*%
X92762500Y-57200000D02*
X95850000Y-57200000D01*
X95850000Y-57200000D02*
X95900000Y-57150000D01*
D96*
%TO.N,Net-(U4-V_adj)*%
X127000000Y-120925000D02*
X127000000Y-120500000D01*
X128993400Y-118743400D02*
X129874600Y-118743400D01*
X128756600Y-118743400D02*
X129874600Y-118743400D01*
X127000000Y-120500000D02*
X128756600Y-118743400D01*
X127250000Y-117000000D02*
X128993400Y-118743400D01*
X127250000Y-116575000D02*
X127250000Y-117000000D01*
D92*
%TO.N,Net-(C16-Pad2)*%
X116250000Y-99725000D02*
X113562500Y-99725000D01*
%TO.N,Net-(C17-Pad2)*%
X116250000Y-103525000D02*
X113462500Y-103525000D01*
%TO.N,Net-(C18-Pad2)*%
X116250000Y-107225000D02*
X113512500Y-107225000D01*
D96*
%TO.N,Net-(U5-TRIM)*%
X183275000Y-131950000D02*
X183275000Y-129775000D01*
X183275000Y-131950000D02*
X183295000Y-131970000D01*
X183275000Y-134125000D02*
X183275000Y-131950000D01*
X183295000Y-131970000D02*
X186665000Y-131970000D01*
D95*
%TO.N,Net-(U2-IN+)*%
X43250000Y-121200000D02*
X43250000Y-121800001D01*
%TO.N,Net-(U2-IN-)*%
X39550002Y-117599999D02*
X39550002Y-118200000D01*
D92*
%TO.N,esc_status*%
X152950000Y-71185000D02*
X153185000Y-70950000D01*
X151850000Y-76025000D02*
X152950000Y-76025000D01*
X152950000Y-76025000D02*
X153875000Y-76025000D01*
X152950000Y-76025000D02*
X152950000Y-71185000D01*
D95*
X153185000Y-70950000D02*
X153100000Y-71035000D01*
D92*
%TO.N,Net-(C15-Pad2)*%
X116250000Y-95975000D02*
X113612500Y-95975000D01*
D94*
%TO.N,Net-(J28-Pin_2)*%
X189550000Y-108460000D02*
X185790000Y-108460000D01*
X185790000Y-108460000D02*
X185525000Y-108725000D01*
%TO.N,Net-(J29-Pin_2)*%
X181500000Y-108460000D02*
X177677500Y-108460000D01*
X177677500Y-108460000D02*
X177525000Y-108612500D01*
%TO.N,Net-(J35-Pin_2)*%
X165525000Y-108172500D02*
X161515000Y-108172500D01*
X161515000Y-108172500D02*
X161500000Y-108187500D01*
%TO.N,Net-(J36-Pin_2)*%
X173500000Y-108452500D02*
X169610000Y-108452500D01*
X169610000Y-108452500D02*
X169525000Y-108537500D01*
D95*
%TO.N,/BoardBoardConnections/DEBUG-*%
X150375000Y-63300000D02*
X151215000Y-63300000D01*
X151215000Y-63300000D02*
X152515000Y-64600000D01*
X147190000Y-60707696D02*
X148802304Y-62320000D01*
X146450000Y-52777501D02*
X147190000Y-53517501D01*
X150235000Y-62320000D02*
X150375000Y-62460000D01*
X146450000Y-51615000D02*
X146450000Y-52777501D01*
D96*
X152515000Y-64600000D02*
X153415000Y-64600000D01*
D95*
X147190000Y-53517501D02*
X147190000Y-60707696D01*
X150375000Y-62460000D02*
X150375000Y-63300000D01*
X148802304Y-62320000D02*
X150235000Y-62320000D01*
%TO.N,/BoardBoardConnections/DEBUG+*%
X147710000Y-60492304D02*
X149017696Y-61800000D01*
D96*
X152515000Y-59520000D02*
X153415000Y-59520000D01*
D95*
X149017696Y-61800000D02*
X150235000Y-61800000D01*
X150375000Y-61660000D02*
X150375000Y-60820000D01*
X151215000Y-60820000D02*
X152515000Y-59520000D01*
X148450000Y-52777501D02*
X147710000Y-53517501D01*
X148450000Y-51615000D02*
X148450000Y-52777501D01*
X150235000Y-61800000D02*
X150375000Y-61660000D01*
X147710000Y-53517501D02*
X147710000Y-60492304D01*
X150375000Y-60820000D02*
X151215000Y-60820000D01*
%TO.N,I2C+*%
X43250000Y-118800000D02*
X46318424Y-118800000D01*
X36895000Y-53880000D02*
X36200000Y-53880000D01*
X46318424Y-118800000D02*
X47329412Y-117789012D01*
X192815000Y-65447304D02*
X192815000Y-54180000D01*
X192815000Y-54180000D02*
X193825000Y-53170000D01*
X205335000Y-67000000D02*
X203652500Y-68682500D01*
X196050196Y-68682500D02*
X192815000Y-65447304D01*
X203652500Y-68682500D02*
X196050196Y-68682500D01*
X43497919Y-32015000D02*
X38525000Y-36987919D01*
X38525000Y-36987919D02*
X38525000Y-52250000D01*
X38525000Y-52250000D02*
X36895000Y-53880000D01*
X44700000Y-32015000D02*
X43497919Y-32015000D01*
%TO.N,I2C-*%
X45960776Y-117800000D02*
X46650588Y-117110188D01*
X43250000Y-117599999D02*
X44099999Y-117599999D01*
X192295000Y-54180000D02*
X191285000Y-53170000D01*
X203652500Y-69202500D02*
X195834804Y-69202500D01*
X192295000Y-65662696D02*
X192295000Y-54180000D01*
X44700000Y-34555000D02*
X42870000Y-34555000D01*
X39925000Y-55235000D02*
X36200000Y-58960000D01*
X42870000Y-34555000D02*
X39925000Y-37500000D01*
X44099999Y-117599999D02*
X44300000Y-117800000D01*
X195834804Y-69202500D02*
X192295000Y-65662696D01*
X44300000Y-117800000D02*
X45960776Y-117800000D01*
X205450000Y-71000000D02*
X203652500Y-69202500D01*
X39925000Y-37500000D02*
X39925000Y-55235000D01*
D92*
%TO.N,Net-(JP5-A)*%
X156000000Y-76150000D02*
X155875000Y-76025000D01*
X156000000Y-79000000D02*
X156000000Y-76150000D01*
D95*
%TO.N,SCK*%
X183145784Y-29275000D02*
X185375000Y-29275000D01*
X178065000Y-34355784D02*
X183145784Y-29275000D01*
X185375000Y-29275000D02*
X186925000Y-27725000D01*
X181125000Y-51010000D02*
X178065000Y-47950000D01*
X189290000Y-30125000D02*
X195025000Y-30125000D01*
X181125000Y-53170000D02*
X181125000Y-51010000D01*
X186925000Y-27760000D02*
X189290000Y-30125000D01*
X186925000Y-27725000D02*
X186925000Y-26625000D01*
X178065000Y-47950000D02*
X178065000Y-34355784D01*
X186925000Y-26625000D02*
X186925000Y-27760000D01*
%TO.N,MISO*%
X181785000Y-25360000D02*
X188765000Y-25360000D01*
X176076740Y-47651740D02*
X176505000Y-47223480D01*
X188765000Y-25360000D02*
X189125000Y-25720000D01*
X176505000Y-47223480D02*
X176505000Y-33709608D01*
X176505000Y-33709608D02*
X181250000Y-28964608D01*
X181250000Y-28964608D02*
X181250000Y-25895000D01*
X181250000Y-25895000D02*
X181785000Y-25360000D01*
X189125000Y-25720000D02*
X189125000Y-26625000D01*
%TO.N,CS*%
X177025000Y-47750000D02*
X177025000Y-33925000D01*
X183625000Y-27325000D02*
X183625000Y-26625000D01*
X173505000Y-51270000D02*
X177025000Y-47750000D01*
X177025000Y-33925000D02*
X183625000Y-27325000D01*
X173505000Y-53170000D02*
X173505000Y-51270000D01*
%TO.N,MOSI*%
X184365000Y-27890000D02*
X184725000Y-27530000D01*
X178585000Y-53170000D02*
X177545000Y-52130000D01*
X183795392Y-27890000D02*
X184365000Y-27890000D01*
X177545000Y-52130000D02*
X177545000Y-34140392D01*
X184725000Y-27530000D02*
X184725000Y-26625000D01*
X177545000Y-34140392D02*
X183795392Y-27890000D01*
D92*
%TO.N,Net-(U6-GPIO26_ADC0)*%
X178585000Y-75015000D02*
X178550000Y-75050000D01*
X178585000Y-70950000D02*
X178585000Y-75015000D01*
%TO.N,Net-(D30-A)*%
X173500000Y-77100000D02*
X173500000Y-78837500D01*
X173500000Y-78837500D02*
X173525000Y-78862500D01*
%TO.N,Net-(D31-A)*%
X178550000Y-77050000D02*
X178550000Y-78787500D01*
%TO.N,Net-(U6-GPIO22)*%
X173500000Y-70955000D02*
X173505000Y-70950000D01*
X173500000Y-75100000D02*
X173500000Y-70955000D01*
%TD*%
%TA.AperFunction,Conductor*%
%TO.N,PWR_IN*%
G36*
X69177547Y-129779831D02*
G01*
X69450686Y-129798440D01*
X69468310Y-129800921D01*
X69731611Y-129857516D01*
X69748687Y-129862492D01*
X70001178Y-129956214D01*
X70017368Y-129963586D01*
X70253829Y-130092497D01*
X70268797Y-130102113D01*
X70299796Y-130125329D01*
X70484354Y-130263553D01*
X70497799Y-130275219D01*
X70546149Y-130323678D01*
X70688013Y-130465863D01*
X70699646Y-130479330D01*
X70709234Y-130492192D01*
X70860598Y-130695247D01*
X70870186Y-130710248D01*
X70998560Y-130946992D01*
X71005901Y-130963212D01*
X71099045Y-131215892D01*
X71103988Y-131232996D01*
X71159987Y-131496417D01*
X71162429Y-131514052D01*
X71180421Y-131787228D01*
X71180687Y-131796131D01*
X71075069Y-149162216D01*
X71074703Y-149171004D01*
X71053901Y-149440534D01*
X71051309Y-149457922D01*
X70993554Y-149717505D01*
X70988529Y-149734353D01*
X70894643Y-149983159D01*
X70887286Y-149999126D01*
X70759158Y-150232154D01*
X70749617Y-150246920D01*
X70589818Y-150459490D01*
X70578284Y-150472758D01*
X70390040Y-150660583D01*
X70376747Y-150672087D01*
X70163818Y-150831414D01*
X70149030Y-150840922D01*
X69915725Y-150968526D01*
X69899742Y-150975848D01*
X69650719Y-151069181D01*
X69633861Y-151074168D01*
X69374151Y-151131344D01*
X69356756Y-151133897D01*
X69087177Y-151154099D01*
X69078389Y-151154445D01*
X36185628Y-151281175D01*
X33312146Y-151292246D01*
X33303281Y-151291964D01*
X33031173Y-151273508D01*
X33013609Y-151271045D01*
X32751281Y-151214893D01*
X32734248Y-151209950D01*
X32482611Y-151116946D01*
X32466458Y-151109624D01*
X32230658Y-150981671D01*
X32215715Y-150972119D01*
X32135606Y-150912435D01*
X32000582Y-150811835D01*
X31987164Y-150800259D01*
X31797095Y-150610920D01*
X31785459Y-150597539D01*
X31624345Y-150383022D01*
X31614736Y-150368115D01*
X31485878Y-150132814D01*
X31478499Y-150116703D01*
X31384521Y-149865412D01*
X31379514Y-149848400D01*
X31352844Y-149726109D01*
X31322350Y-149586286D01*
X31319822Y-149568747D01*
X31300317Y-149296699D01*
X31300000Y-149287832D01*
X31300000Y-144280419D01*
X33715048Y-144280419D01*
X33734523Y-144701658D01*
X33734523Y-144701663D01*
X33734524Y-144701668D01*
X33792781Y-145119301D01*
X33792783Y-145119309D01*
X33868037Y-145439271D01*
X33889328Y-145529792D01*
X33992679Y-145838151D01*
X34023341Y-145929632D01*
X34023342Y-145929636D01*
X34193657Y-146315361D01*
X34193662Y-146315371D01*
X34193666Y-146315380D01*
X34193670Y-146315388D01*
X34193671Y-146315389D01*
X34398857Y-146683769D01*
X34398860Y-146683773D01*
X34398862Y-146683777D01*
X34637174Y-147031670D01*
X34637176Y-147031672D01*
X34637183Y-147031682D01*
X34906559Y-147356078D01*
X34906569Y-147356090D01*
X35204748Y-147654269D01*
X35204759Y-147654278D01*
X35529155Y-147923654D01*
X35529161Y-147923658D01*
X35529168Y-147923664D01*
X35877061Y-148161976D01*
X36245458Y-148367172D01*
X36245475Y-148367179D01*
X36245476Y-148367180D01*
X36631201Y-148537495D01*
X36631205Y-148537496D01*
X36631207Y-148537496D01*
X36631217Y-148537501D01*
X37031046Y-148671510D01*
X37441534Y-148768056D01*
X37859180Y-148826315D01*
X38280419Y-148845790D01*
X38701658Y-148826315D01*
X39119304Y-148768056D01*
X39529792Y-148671510D01*
X39929621Y-148537501D01*
X39929632Y-148537495D01*
X39929636Y-148537495D01*
X40167041Y-148432669D01*
X40315380Y-148367172D01*
X40683777Y-148161976D01*
X41031670Y-147923664D01*
X41356090Y-147654269D01*
X41654269Y-147356090D01*
X41923664Y-147031670D01*
X42161976Y-146683777D01*
X42367172Y-146315380D01*
X42490864Y-146035245D01*
X42537495Y-145929636D01*
X42537496Y-145929632D01*
X42537501Y-145929621D01*
X42671510Y-145529792D01*
X42768056Y-145119304D01*
X42826315Y-144701658D01*
X42845790Y-144280419D01*
X42826315Y-143859180D01*
X42768056Y-143441534D01*
X42671510Y-143031046D01*
X42661104Y-142999999D01*
X48895197Y-142999999D01*
X48895197Y-143000000D01*
X48914397Y-143366353D01*
X48971784Y-143728684D01*
X48971784Y-143728686D01*
X49066736Y-144083051D01*
X49198204Y-144425535D01*
X49364754Y-144752406D01*
X49564553Y-145060070D01*
X49753297Y-145293148D01*
X50641777Y-144404668D01*
X50704731Y-144486711D01*
X50913289Y-144695269D01*
X50995330Y-144758221D01*
X50106850Y-145646701D01*
X50339929Y-145835446D01*
X50647593Y-146035245D01*
X50974464Y-146201795D01*
X51316948Y-146333263D01*
X51671314Y-146428215D01*
X52033646Y-146485602D01*
X52399999Y-146504803D01*
X52400001Y-146504803D01*
X52766353Y-146485602D01*
X53128684Y-146428215D01*
X53128686Y-146428215D01*
X53483051Y-146333263D01*
X53825535Y-146201795D01*
X54152406Y-146035245D01*
X54460064Y-145835450D01*
X54693148Y-145646701D01*
X53804669Y-144758222D01*
X53886711Y-144695269D01*
X54095269Y-144486711D01*
X54158222Y-144404669D01*
X55046701Y-145293148D01*
X55235450Y-145060064D01*
X55435245Y-144752406D01*
X55601795Y-144425535D01*
X55733263Y-144083051D01*
X55828215Y-143728686D01*
X55828215Y-143728684D01*
X55885602Y-143366353D01*
X55904803Y-143000000D01*
X55904803Y-142999999D01*
X55885602Y-142633646D01*
X55828215Y-142271315D01*
X55828215Y-142271313D01*
X55733263Y-141916948D01*
X55601795Y-141574464D01*
X55519062Y-141412093D01*
X56339500Y-141412093D01*
X56339500Y-144587891D01*
X56339501Y-144587907D01*
X56345664Y-144697667D01*
X56345665Y-144697674D01*
X56394716Y-144956918D01*
X56394717Y-144956923D01*
X56394718Y-144956928D01*
X56394719Y-144956929D01*
X56481867Y-145205984D01*
X56481868Y-145205987D01*
X56481869Y-145205988D01*
X56605160Y-145439265D01*
X56605163Y-145439271D01*
X56761848Y-145651571D01*
X56948428Y-145838151D01*
X57072385Y-145929636D01*
X57160731Y-145994838D01*
X57394016Y-146118133D01*
X57643071Y-146205281D01*
X57643075Y-146205281D01*
X57643076Y-146205282D01*
X57643081Y-146205283D01*
X57902322Y-146254334D01*
X57902324Y-146254334D01*
X57902334Y-146254336D01*
X58012091Y-146260500D01*
X61187908Y-146260499D01*
X61297666Y-146254336D01*
X61556929Y-146205281D01*
X61805984Y-146118133D01*
X62039269Y-145994838D01*
X62251572Y-145838151D01*
X62438151Y-145651572D01*
X62594838Y-145439269D01*
X62718133Y-145205984D01*
X62805281Y-144956929D01*
X62854336Y-144697666D01*
X62860500Y-144587909D01*
X62860499Y-141412092D01*
X62854336Y-141302334D01*
X62805281Y-141043071D01*
X62718133Y-140794016D01*
X62594838Y-140560731D01*
X62438151Y-140348428D01*
X62251572Y-140161849D01*
X62251571Y-140161848D01*
X62039271Y-140005163D01*
X62039265Y-140005160D01*
X61962813Y-139964754D01*
X61805984Y-139881867D01*
X61556929Y-139794719D01*
X61556928Y-139794718D01*
X61556923Y-139794717D01*
X61556918Y-139794716D01*
X61297677Y-139745665D01*
X61297667Y-139745664D01*
X61297666Y-139745664D01*
X61187909Y-139739500D01*
X61187899Y-139739500D01*
X58012108Y-139739500D01*
X58012092Y-139739501D01*
X57902332Y-139745664D01*
X57902325Y-139745665D01*
X57643081Y-139794716D01*
X57643076Y-139794717D01*
X57633111Y-139798204D01*
X57394016Y-139881867D01*
X57394014Y-139881867D01*
X57394011Y-139881869D01*
X57160734Y-140005160D01*
X57160728Y-140005163D01*
X56948428Y-140161848D01*
X56761848Y-140348428D01*
X56605163Y-140560728D01*
X56605160Y-140560734D01*
X56481869Y-140794011D01*
X56481867Y-140794014D01*
X56481867Y-140794016D01*
X56442487Y-140906559D01*
X56394717Y-141043076D01*
X56394716Y-141043081D01*
X56345665Y-141302322D01*
X56345664Y-141302335D01*
X56339500Y-141412093D01*
X55519062Y-141412093D01*
X55435245Y-141247594D01*
X55235446Y-140939929D01*
X55046701Y-140706850D01*
X54158221Y-141595329D01*
X54095269Y-141513289D01*
X53886711Y-141304731D01*
X53804668Y-141241776D01*
X54693148Y-140353297D01*
X54460070Y-140164553D01*
X54152406Y-139964754D01*
X53825535Y-139798204D01*
X53483051Y-139666736D01*
X53128685Y-139571784D01*
X52766353Y-139514397D01*
X52400001Y-139495197D01*
X52399999Y-139495197D01*
X52033646Y-139514397D01*
X51671315Y-139571784D01*
X51671313Y-139571784D01*
X51316948Y-139666736D01*
X50974464Y-139798204D01*
X50647594Y-139964754D01*
X50339924Y-140164557D01*
X50106850Y-140353295D01*
X50106849Y-140353296D01*
X50995330Y-141241777D01*
X50913289Y-141304731D01*
X50704731Y-141513289D01*
X50641777Y-141595330D01*
X49753296Y-140706849D01*
X49753295Y-140706850D01*
X49564557Y-140939924D01*
X49364754Y-141247594D01*
X49198204Y-141574464D01*
X49066736Y-141916948D01*
X48971784Y-142271313D01*
X48971784Y-142271315D01*
X48914397Y-142633646D01*
X48895197Y-142999999D01*
X42661104Y-142999999D01*
X42537501Y-142631217D01*
X42537496Y-142631205D01*
X42537495Y-142631201D01*
X42367180Y-142245476D01*
X42367179Y-142245475D01*
X42367172Y-142245458D01*
X42161976Y-141877061D01*
X41923664Y-141529168D01*
X41923658Y-141529161D01*
X41923654Y-141529155D01*
X41654278Y-141204759D01*
X41654269Y-141204748D01*
X41356090Y-140906569D01*
X41213903Y-140788498D01*
X41031682Y-140637183D01*
X41031672Y-140637176D01*
X41031670Y-140637174D01*
X40683777Y-140398862D01*
X40683773Y-140398860D01*
X40683769Y-140398857D01*
X40315389Y-140193671D01*
X40315388Y-140193670D01*
X40315380Y-140193666D01*
X40315371Y-140193662D01*
X40315361Y-140193657D01*
X39929636Y-140023342D01*
X39929632Y-140023341D01*
X39929623Y-140023338D01*
X39929621Y-140023337D01*
X39529792Y-139889328D01*
X39529791Y-139889327D01*
X39529789Y-139889327D01*
X39119309Y-139792783D01*
X39119301Y-139792781D01*
X38701668Y-139734524D01*
X38701663Y-139734523D01*
X38701658Y-139734523D01*
X38280419Y-139715048D01*
X37859180Y-139734523D01*
X37859174Y-139734523D01*
X37859169Y-139734524D01*
X37441536Y-139792781D01*
X37441528Y-139792783D01*
X37031048Y-139889327D01*
X36631205Y-140023341D01*
X36631201Y-140023342D01*
X36245476Y-140193657D01*
X36245448Y-140193671D01*
X35877068Y-140398857D01*
X35877062Y-140398861D01*
X35529165Y-140637176D01*
X35529155Y-140637183D01*
X35204759Y-140906559D01*
X35204739Y-140906577D01*
X34906577Y-141204739D01*
X34906559Y-141204759D01*
X34637183Y-141529155D01*
X34637176Y-141529165D01*
X34398861Y-141877062D01*
X34398857Y-141877068D01*
X34193671Y-142245448D01*
X34193657Y-142245476D01*
X34023342Y-142631201D01*
X34023341Y-142631205D01*
X33889327Y-143031048D01*
X33792783Y-143441528D01*
X33792781Y-143441536D01*
X33734524Y-143859169D01*
X33734523Y-143859174D01*
X33734523Y-143859180D01*
X33715048Y-144280419D01*
X31300000Y-144280419D01*
X31300000Y-133423670D01*
X33154500Y-133423670D01*
X33154500Y-134321330D01*
X33161037Y-134382131D01*
X33161037Y-134382133D01*
X33161038Y-134382134D01*
X33212335Y-134519670D01*
X33212336Y-134519672D01*
X33212337Y-134519673D01*
X33300310Y-134637190D01*
X33417827Y-134725163D01*
X33417829Y-134725164D01*
X33553723Y-134775849D01*
X33609657Y-134817720D01*
X33634074Y-134883184D01*
X33619223Y-134951457D01*
X33602541Y-134975002D01*
X33590009Y-134988919D01*
X33590004Y-134988926D01*
X33499564Y-135145574D01*
X33499561Y-135145580D01*
X33443669Y-135317601D01*
X33443668Y-135317603D01*
X33424760Y-135497500D01*
X33443668Y-135677396D01*
X33443669Y-135677398D01*
X33499561Y-135849419D01*
X33499564Y-135849425D01*
X33590004Y-136006073D01*
X33590009Y-136006080D01*
X33711040Y-136140498D01*
X33711042Y-136140500D01*
X33857378Y-136246819D01*
X33857379Y-136246820D01*
X33912462Y-136271344D01*
X34022626Y-136320392D01*
X34199558Y-136358000D01*
X34199559Y-136358000D01*
X34380440Y-136358000D01*
X34380442Y-136358000D01*
X34557374Y-136320392D01*
X34722620Y-136246820D01*
X34868959Y-136140499D01*
X34946666Y-136054195D01*
X34989990Y-136006080D01*
X34989995Y-136006073D01*
X35080436Y-135849425D01*
X35136332Y-135677394D01*
X35155240Y-135497500D01*
X35136332Y-135317606D01*
X35080436Y-135145575D01*
X34989994Y-134988925D01*
X34977459Y-134975003D01*
X34947230Y-134912014D01*
X34955854Y-134842678D01*
X35000594Y-134789012D01*
X35026272Y-134775850D01*
X35162173Y-134725163D01*
X35279690Y-134637190D01*
X35367663Y-134519673D01*
X35418963Y-134382131D01*
X35425500Y-134321330D01*
X35425500Y-133423670D01*
X35418963Y-133362869D01*
X35367663Y-133225327D01*
X35279690Y-133107810D01*
X35162173Y-133019837D01*
X35162172Y-133019836D01*
X35162170Y-133019835D01*
X35024634Y-132968538D01*
X35024633Y-132968537D01*
X35024631Y-132968537D01*
X34963830Y-132962000D01*
X33616170Y-132962000D01*
X33555369Y-132968537D01*
X33555366Y-132968537D01*
X33555365Y-132968538D01*
X33417829Y-133019835D01*
X33417827Y-133019836D01*
X33300310Y-133107810D01*
X33212336Y-133225327D01*
X33212335Y-133225329D01*
X33161038Y-133362865D01*
X33161037Y-133362869D01*
X33154500Y-133423670D01*
X31300000Y-133423670D01*
X31300000Y-131921229D01*
X31300314Y-131912405D01*
X31319629Y-131641681D01*
X31322132Y-131624225D01*
X31378750Y-131363305D01*
X31383702Y-131346397D01*
X31476788Y-131096160D01*
X31484098Y-131080111D01*
X31611762Y-130845634D01*
X31621274Y-130830784D01*
X31780944Y-130616793D01*
X31792456Y-130603460D01*
X31980890Y-130414305D01*
X31994191Y-130402731D01*
X32207556Y-130242254D01*
X32222378Y-130232678D01*
X32456367Y-130104116D01*
X32472386Y-130096747D01*
X32722257Y-130002707D01*
X32739153Y-129997688D01*
X32999857Y-129940072D01*
X33017303Y-129937503D01*
X33100887Y-129931218D01*
X33169214Y-129945820D01*
X33218799Y-129995045D01*
X33233901Y-130063263D01*
X33214334Y-130116313D01*
X33216587Y-130117544D01*
X33212336Y-130125328D01*
X33161038Y-130262865D01*
X33161037Y-130262869D01*
X33154500Y-130323670D01*
X33154500Y-131221330D01*
X33161037Y-131282131D01*
X33161037Y-131282133D01*
X33161038Y-131282134D01*
X33212335Y-131419670D01*
X33212336Y-131419672D01*
X33212337Y-131419673D01*
X33300310Y-131537190D01*
X33416574Y-131624225D01*
X33417827Y-131625163D01*
X33417829Y-131625164D01*
X33462114Y-131641681D01*
X33555369Y-131676463D01*
X33616170Y-131683000D01*
X33616180Y-131683000D01*
X34963820Y-131683000D01*
X34963830Y-131683000D01*
X35024631Y-131676463D01*
X35162173Y-131625163D01*
X35279690Y-131537190D01*
X35367663Y-131419673D01*
X35418963Y-131282131D01*
X35425500Y-131221330D01*
X35425500Y-130323670D01*
X35418963Y-130262869D01*
X35367664Y-130125329D01*
X35367664Y-130125328D01*
X35367662Y-130125326D01*
X35367655Y-130125317D01*
X35353842Y-130106865D01*
X35329425Y-130041402D01*
X35344276Y-129973129D01*
X35393681Y-129923723D01*
X35452631Y-129908555D01*
X36049525Y-129906272D01*
X36116636Y-129925699D01*
X36162592Y-129978327D01*
X36169769Y-129998172D01*
X36201890Y-130118046D01*
X36206089Y-130125319D01*
X36206092Y-130125329D01*
X36206095Y-130125328D01*
X36268073Y-130232678D01*
X36269097Y-130234452D01*
X36269099Y-130234455D01*
X37027738Y-130993094D01*
X37054733Y-131040956D01*
X37056827Y-131040163D01*
X37059485Y-131047173D01*
X37059486Y-131047175D01*
X37112059Y-131185797D01*
X37196278Y-131307810D01*
X37196280Y-131307812D01*
X37196282Y-131307814D01*
X37307247Y-131406121D01*
X37307249Y-131406122D01*
X37438524Y-131475020D01*
X37582472Y-131510500D01*
X37730728Y-131510500D01*
X37874676Y-131475020D01*
X38005951Y-131406122D01*
X38116922Y-131307810D01*
X38201141Y-131185797D01*
X38253714Y-131047175D01*
X38271584Y-130900000D01*
X38253714Y-130752825D01*
X38201141Y-130614203D01*
X38116922Y-130492190D01*
X38116919Y-130492187D01*
X38116917Y-130492185D01*
X38005952Y-130393878D01*
X37874674Y-130324979D01*
X37813827Y-130309982D01*
X37755822Y-130277266D01*
X37590278Y-130111722D01*
X37556793Y-130050399D01*
X37561777Y-129980707D01*
X37603649Y-129924774D01*
X37669113Y-129900357D01*
X37677460Y-129900042D01*
X46612355Y-129865854D01*
X46679467Y-129885282D01*
X46725423Y-129937910D01*
X46735631Y-130007030D01*
X46706850Y-130070697D01*
X46700508Y-130077534D01*
X46500776Y-130277266D01*
X46442771Y-130309981D01*
X46381930Y-130324977D01*
X46381927Y-130324978D01*
X46250647Y-130393878D01*
X46139682Y-130492185D01*
X46139676Y-130492192D01*
X46055460Y-130614200D01*
X46002885Y-130752825D01*
X45985016Y-130899999D01*
X45985016Y-130900000D01*
X46002885Y-131047174D01*
X46055460Y-131185799D01*
X46088038Y-131232996D01*
X46139678Y-131307810D01*
X46139680Y-131307812D01*
X46139682Y-131307814D01*
X46250647Y-131406121D01*
X46250649Y-131406122D01*
X46381924Y-131475020D01*
X46525872Y-131510500D01*
X46674128Y-131510500D01*
X46818076Y-131475020D01*
X46949351Y-131406122D01*
X47060322Y-131307810D01*
X47144541Y-131185797D01*
X47197114Y-131047175D01*
X47197114Y-131047174D01*
X47199774Y-131040161D01*
X47201870Y-131040956D01*
X47228861Y-130993093D01*
X48326679Y-129895275D01*
X48387998Y-129861793D01*
X48413868Y-129858961D01*
X69168647Y-129779546D01*
X69177547Y-129779831D01*
G37*
%TD.AperFunction*%
%TD*%
%TA.AperFunction,Conductor*%
%TO.N,5V_KillSW*%
G36*
X198008059Y-114001061D02*
G01*
X198113223Y-114014906D01*
X198144491Y-114023284D01*
X198234918Y-114060740D01*
X198262952Y-114076925D01*
X198340602Y-114136509D01*
X198363491Y-114159398D01*
X198423074Y-114237048D01*
X198439259Y-114265081D01*
X198476715Y-114355508D01*
X198485093Y-114386775D01*
X198498939Y-114491939D01*
X198500000Y-114508125D01*
X198500000Y-117720674D01*
X198498939Y-117736860D01*
X198485093Y-117842024D01*
X198476715Y-117873291D01*
X198439259Y-117963718D01*
X198423074Y-117991751D01*
X198363491Y-118069401D01*
X198340607Y-118092286D01*
X198325511Y-118103871D01*
X198260344Y-118129069D01*
X198250019Y-118129500D01*
X196795191Y-118129500D01*
X196717288Y-118150374D01*
X196665352Y-118164290D01*
X196665351Y-118164291D01*
X196582394Y-118212187D01*
X196520394Y-118228800D01*
X191008126Y-118228800D01*
X190991941Y-118227739D01*
X190978917Y-118226024D01*
X190886775Y-118213893D01*
X190855508Y-118205515D01*
X190765081Y-118168059D01*
X190737048Y-118151874D01*
X190659398Y-118092291D01*
X190636508Y-118069401D01*
X190576925Y-117991751D01*
X190560740Y-117963718D01*
X190523284Y-117873291D01*
X190514906Y-117842023D01*
X190501061Y-117736859D01*
X190500000Y-117720674D01*
X190500000Y-114508125D01*
X190501061Y-114491940D01*
X190514906Y-114386776D01*
X190523284Y-114355508D01*
X190560740Y-114265081D01*
X190576923Y-114237050D01*
X190636513Y-114159392D01*
X190659392Y-114136513D01*
X190737050Y-114076923D01*
X190765079Y-114060740D01*
X190855509Y-114023283D01*
X190886775Y-114014906D01*
X190991941Y-114001061D01*
X191008126Y-114000000D01*
X197991874Y-114000000D01*
X198008059Y-114001061D01*
G37*
%TD.AperFunction*%
%TD*%
%TA.AperFunction,Conductor*%
%TO.N,SHUNT+*%
G36*
X71453932Y-118850596D02*
G01*
X71487693Y-118911768D01*
X71490645Y-118939361D01*
X71425485Y-130661223D01*
X71405428Y-130728152D01*
X71352371Y-130773613D01*
X71301422Y-130784534D01*
X71286237Y-130784526D01*
X71219208Y-130764806D01*
X71177296Y-130719634D01*
X71167967Y-130702430D01*
X71103581Y-130583690D01*
X71103578Y-130583684D01*
X71093894Y-130567262D01*
X71084302Y-130552253D01*
X71073463Y-130536568D01*
X70923084Y-130334835D01*
X70923071Y-130334817D01*
X70923071Y-130334818D01*
X70922100Y-130333515D01*
X70922098Y-130333512D01*
X70912510Y-130320650D01*
X70900565Y-130305773D01*
X70888932Y-130292306D01*
X70883937Y-130286926D01*
X70875957Y-130278332D01*
X70716750Y-130118766D01*
X70716749Y-130118765D01*
X70716650Y-130118667D01*
X70685747Y-130087694D01*
X70671799Y-130074684D01*
X70670021Y-130073141D01*
X70658355Y-130063018D01*
X70643512Y-130051047D01*
X70457611Y-129911816D01*
X70457590Y-129911802D01*
X70427951Y-129889604D01*
X70427938Y-129889594D01*
X70412308Y-129878740D01*
X70397353Y-129869133D01*
X70397348Y-129869130D01*
X70397334Y-129869121D01*
X70380913Y-129859388D01*
X70252738Y-129789511D01*
X70144447Y-129730474D01*
X70127394Y-129721956D01*
X70111198Y-129714582D01*
X70093571Y-129707308D01*
X69853516Y-129618203D01*
X69841078Y-129613586D01*
X69822965Y-129607594D01*
X69816774Y-129605790D01*
X69805890Y-129602618D01*
X69796937Y-129600355D01*
X69787404Y-129597945D01*
X69731117Y-129585846D01*
X69524094Y-129541347D01*
X69505334Y-129538015D01*
X69505325Y-129538013D01*
X69505321Y-129538013D01*
X69500393Y-129537319D01*
X69487693Y-129535531D01*
X69468729Y-129533553D01*
X69195616Y-129514946D01*
X69186055Y-129514467D01*
X69181100Y-129514308D01*
X69177145Y-129514182D01*
X69167631Y-129514048D01*
X69167616Y-129514048D01*
X69167613Y-129514048D01*
X49589271Y-129588961D01*
X49522157Y-129569533D01*
X49476201Y-129516905D01*
X49465993Y-129447785D01*
X49471756Y-129424007D01*
X49512741Y-129306881D01*
X49512741Y-129306879D01*
X49515500Y-129277457D01*
X49515499Y-128822544D01*
X49512741Y-128793121D01*
X49469381Y-128669206D01*
X49427087Y-128611900D01*
X49391423Y-128563576D01*
X49319860Y-128510761D01*
X49285794Y-128485619D01*
X49285792Y-128485618D01*
X49161880Y-128442258D01*
X49132461Y-128439500D01*
X48677546Y-128439500D01*
X48648125Y-128442258D01*
X48648115Y-128442260D01*
X48524207Y-128485618D01*
X48524206Y-128485619D01*
X48484029Y-128515270D01*
X48418402Y-128539241D01*
X48410397Y-128539500D01*
X48382791Y-128539500D01*
X48252954Y-128574290D01*
X48187810Y-128611901D01*
X48172579Y-128620694D01*
X48136546Y-128641497D01*
X48136544Y-128641499D01*
X47060878Y-129717164D01*
X46999555Y-129750649D01*
X46929863Y-129745665D01*
X46881679Y-129712339D01*
X46881551Y-129712462D01*
X46881453Y-129712565D01*
X46881448Y-129712560D01*
X46881359Y-129712646D01*
X46879872Y-129711090D01*
X46879779Y-129711025D01*
X46879444Y-129710641D01*
X46845269Y-129677917D01*
X46793795Y-129651242D01*
X46753294Y-129630253D01*
X46746143Y-129628183D01*
X46732806Y-129624322D01*
X46686182Y-129610825D01*
X46686179Y-129610824D01*
X46686174Y-129610823D01*
X46686177Y-129610823D01*
X46611343Y-129600356D01*
X46611340Y-129600355D01*
X40347654Y-129624322D01*
X40280540Y-129604894D01*
X40234584Y-129552266D01*
X40224376Y-129483146D01*
X40241968Y-129440029D01*
X40240039Y-129439010D01*
X40244377Y-129430798D01*
X40244381Y-129430794D01*
X40272298Y-129351013D01*
X40287741Y-129306881D01*
X40287741Y-129306879D01*
X40290500Y-129277457D01*
X40290499Y-128822544D01*
X40287741Y-128793121D01*
X40244381Y-128669206D01*
X40202087Y-128611900D01*
X40166423Y-128563576D01*
X40094860Y-128510761D01*
X40060794Y-128485619D01*
X40060792Y-128485618D01*
X39936880Y-128442258D01*
X39907461Y-128439500D01*
X39452546Y-128439500D01*
X39423125Y-128442258D01*
X39423115Y-128442260D01*
X39299207Y-128485618D01*
X39299206Y-128485619D01*
X39259029Y-128515270D01*
X39193402Y-128539241D01*
X39185397Y-128539500D01*
X36744809Y-128539500D01*
X36610391Y-128539500D01*
X36532488Y-128560374D01*
X36480552Y-128574290D01*
X36480551Y-128574291D01*
X36424415Y-128606701D01*
X36415412Y-128611900D01*
X36409372Y-128615387D01*
X36347372Y-128632000D01*
X34836253Y-128632000D01*
X34779550Y-128615350D01*
X34779024Y-128616542D01*
X34769921Y-128612522D01*
X34769214Y-128612315D01*
X34768742Y-128612002D01*
X34768514Y-128611901D01*
X34723329Y-128591950D01*
X34662321Y-128565012D01*
X34636357Y-128562000D01*
X33943651Y-128562000D01*
X33943627Y-128562002D01*
X33917685Y-128565010D01*
X33917675Y-128565013D01*
X33811486Y-128611900D01*
X33729401Y-128693985D01*
X33682512Y-128800178D01*
X33679500Y-128826139D01*
X33679500Y-129218848D01*
X33679502Y-129218872D01*
X33682510Y-129244814D01*
X33682513Y-129244824D01*
X33729400Y-129351013D01*
X33729401Y-129351014D01*
X33811486Y-129433099D01*
X33825583Y-129439323D01*
X33878961Y-129484408D01*
X33899490Y-129551193D01*
X33899500Y-129552759D01*
X33899500Y-129738000D01*
X33879815Y-129805039D01*
X33827011Y-129850794D01*
X33775500Y-129862000D01*
X33616170Y-129862000D01*
X33555369Y-129868537D01*
X33555360Y-129868538D01*
X33547817Y-129870321D01*
X33547150Y-129867499D01*
X33491056Y-129871498D01*
X33429740Y-129837999D01*
X33414591Y-129819603D01*
X33405850Y-129806624D01*
X33405848Y-129806621D01*
X33356273Y-129757406D01*
X33319834Y-129727178D01*
X33224698Y-129686182D01*
X33171604Y-129674836D01*
X33156373Y-129671581D01*
X33080979Y-129666465D01*
X33080976Y-129666465D01*
X33080974Y-129666465D01*
X32997405Y-129672749D01*
X32997398Y-129672749D01*
X32997395Y-129672750D01*
X32978624Y-129674836D01*
X32970624Y-129676014D01*
X32961184Y-129677404D01*
X32961180Y-129677404D01*
X32961178Y-129677405D01*
X32958393Y-129677917D01*
X32942541Y-129680831D01*
X32681866Y-129738441D01*
X32663541Y-129743182D01*
X32646671Y-129748193D01*
X32628730Y-129754224D01*
X32400138Y-129840256D01*
X32378868Y-129848262D01*
X32361429Y-129855544D01*
X32361415Y-129855550D01*
X32345419Y-129862908D01*
X32328527Y-129871419D01*
X32094519Y-129999992D01*
X32078293Y-130009675D01*
X32063497Y-130019234D01*
X32055723Y-130024659D01*
X32047968Y-130030071D01*
X32047959Y-130030077D01*
X32047950Y-130030084D01*
X31834615Y-130190538D01*
X31819898Y-130202449D01*
X31806611Y-130214011D01*
X31792807Y-130226915D01*
X31604348Y-130416095D01*
X31591510Y-130429935D01*
X31591498Y-130429949D01*
X31579986Y-130443282D01*
X31579978Y-130443292D01*
X31568154Y-130458013D01*
X31523383Y-130518016D01*
X31467514Y-130559974D01*
X31397831Y-130565067D01*
X31336455Y-130531678D01*
X31302875Y-130470407D01*
X31300000Y-130443860D01*
X31300000Y-122697210D01*
X31300058Y-122693422D01*
X31319601Y-122054042D01*
X31367153Y-120498297D01*
X31388875Y-120431895D01*
X31443053Y-120387775D01*
X31512483Y-120379949D01*
X31575122Y-120410902D01*
X31607036Y-120458118D01*
X31651299Y-120574829D01*
X31655460Y-120585799D01*
X31689766Y-120635500D01*
X31739678Y-120707810D01*
X31739680Y-120707812D01*
X31739682Y-120707814D01*
X31850647Y-120806121D01*
X31850649Y-120806122D01*
X31981924Y-120875020D01*
X32125872Y-120910500D01*
X32274128Y-120910500D01*
X32418076Y-120875020D01*
X32549351Y-120806122D01*
X32660322Y-120707810D01*
X32726125Y-120612476D01*
X32780407Y-120568487D01*
X32849856Y-120560827D01*
X32887362Y-120577090D01*
X32888597Y-120574829D01*
X32896382Y-120579080D01*
X33030549Y-120629121D01*
X33030548Y-120629121D01*
X33030554Y-120629123D01*
X33089868Y-120635500D01*
X33569387Y-120635500D01*
X33636426Y-120655185D01*
X33657068Y-120671819D01*
X34062727Y-121077478D01*
X34151773Y-121128889D01*
X34251090Y-121155501D01*
X34251093Y-121155501D01*
X34361506Y-121155501D01*
X34361522Y-121155500D01*
X36086408Y-121155500D01*
X36086410Y-121155500D01*
X36185728Y-121128888D01*
X36274773Y-121077478D01*
X36325432Y-121026819D01*
X36334365Y-121021941D01*
X42633900Y-121021941D01*
X42633900Y-121378058D01*
X42651397Y-121466020D01*
X42649876Y-121466322D01*
X42655865Y-121522014D01*
X42649391Y-121544064D01*
X42633900Y-121621942D01*
X42633900Y-121978059D01*
X42649014Y-122054042D01*
X42649014Y-122054043D01*
X42683528Y-122105696D01*
X42706590Y-122140211D01*
X42758243Y-122174724D01*
X42792757Y-122197786D01*
X42868741Y-122212900D01*
X42868744Y-122212901D01*
X42868746Y-122212901D01*
X43631256Y-122212901D01*
X43631257Y-122212900D01*
X43707242Y-122197786D01*
X43793410Y-122140211D01*
X43850985Y-122054043D01*
X43866100Y-121978055D01*
X43866100Y-121621947D01*
X43866100Y-121621944D01*
X43866099Y-121621942D01*
X43848603Y-121533980D01*
X43850123Y-121533677D01*
X43844135Y-121477986D01*
X43850607Y-121455944D01*
X43866099Y-121378058D01*
X43866100Y-121378056D01*
X43866100Y-121021943D01*
X43866099Y-121021941D01*
X43850985Y-120945958D01*
X43850985Y-120945957D01*
X43820277Y-120900000D01*
X43793410Y-120859790D01*
X43758895Y-120836728D01*
X43707242Y-120802214D01*
X43631257Y-120787100D01*
X43631254Y-120787100D01*
X42868746Y-120787100D01*
X42868743Y-120787100D01*
X42792758Y-120802214D01*
X42792757Y-120802214D01*
X42706590Y-120859790D01*
X42649014Y-120945957D01*
X42649014Y-120945958D01*
X42633900Y-121021941D01*
X36334365Y-121021941D01*
X36386755Y-120993334D01*
X36413113Y-120990500D01*
X39050507Y-120990500D01*
X39080567Y-120996478D01*
X39080782Y-120995403D01*
X39168743Y-121012899D01*
X39168746Y-121012900D01*
X39168748Y-121012900D01*
X39931258Y-121012900D01*
X39931259Y-121012899D01*
X40007244Y-120997785D01*
X40093412Y-120940210D01*
X40150987Y-120854042D01*
X40166102Y-120778054D01*
X40166102Y-120421946D01*
X40166102Y-120421943D01*
X40166101Y-120421941D01*
X40148605Y-120333980D01*
X40150124Y-120333677D01*
X40144136Y-120277981D01*
X40150606Y-120255948D01*
X40156577Y-120225927D01*
X40166100Y-120178054D01*
X40166100Y-119963995D01*
X40185785Y-119896956D01*
X40238589Y-119851201D01*
X40289817Y-119839995D01*
X40290983Y-119839992D01*
X40290988Y-119839993D01*
X42509619Y-119834935D01*
X42576702Y-119854467D01*
X42622577Y-119907167D01*
X42633900Y-119958935D01*
X42633900Y-120178058D01*
X42649014Y-120254041D01*
X42649014Y-120254042D01*
X42665010Y-120277981D01*
X42706590Y-120340210D01*
X42758243Y-120374723D01*
X42792757Y-120397785D01*
X42868741Y-120412899D01*
X42868744Y-120412900D01*
X42868746Y-120412900D01*
X43631256Y-120412900D01*
X43631257Y-120412899D01*
X43654182Y-120408339D01*
X43719220Y-120395403D01*
X43719434Y-120396478D01*
X43749495Y-120390500D01*
X50186887Y-120390500D01*
X50253926Y-120410185D01*
X50274568Y-120426819D01*
X50461952Y-120614203D01*
X50649116Y-120801366D01*
X50682601Y-120862689D01*
X50683995Y-120892500D01*
X50685016Y-120892500D01*
X50685016Y-120900000D01*
X50702885Y-121047174D01*
X50714379Y-121077480D01*
X50755459Y-121185797D01*
X50839678Y-121307810D01*
X50839680Y-121307812D01*
X50839682Y-121307814D01*
X50950647Y-121406121D01*
X50950649Y-121406122D01*
X51081924Y-121475020D01*
X51225872Y-121510500D01*
X51374128Y-121510500D01*
X51518076Y-121475020D01*
X51649351Y-121406122D01*
X51760322Y-121307810D01*
X51844541Y-121185797D01*
X51897114Y-121047175D01*
X51914984Y-120900000D01*
X51897114Y-120752825D01*
X51844541Y-120614203D01*
X51760322Y-120492190D01*
X51760319Y-120492187D01*
X51760317Y-120492185D01*
X51649352Y-120393878D01*
X51518074Y-120324979D01*
X51374128Y-120289500D01*
X51293112Y-120289500D01*
X51226073Y-120269815D01*
X51205431Y-120253181D01*
X50954432Y-120002181D01*
X50920947Y-119940858D01*
X50925931Y-119871166D01*
X50967803Y-119815233D01*
X51033267Y-119790816D01*
X51042113Y-119790500D01*
X51073112Y-119790500D01*
X51140151Y-119810185D01*
X51155339Y-119821685D01*
X51250647Y-119906121D01*
X51250649Y-119906122D01*
X51381924Y-119975020D01*
X51525872Y-120010500D01*
X51674128Y-120010500D01*
X51818076Y-119975020D01*
X51949351Y-119906122D01*
X52060322Y-119807810D01*
X52060325Y-119807804D01*
X52065039Y-119803629D01*
X52128272Y-119773908D01*
X52190151Y-119780985D01*
X52190230Y-119780717D01*
X52191796Y-119781173D01*
X52193439Y-119781361D01*
X52196076Y-119782419D01*
X52196078Y-119782420D01*
X52263162Y-119801951D01*
X52337984Y-119812534D01*
X69459882Y-119773509D01*
X69469408Y-119773317D01*
X69478233Y-119772980D01*
X69487692Y-119772449D01*
X69599281Y-119764193D01*
X69599280Y-119764192D01*
X69678644Y-119758321D01*
X69678643Y-119758321D01*
X69759671Y-119752327D01*
X69778559Y-119750248D01*
X69791466Y-119748357D01*
X69796093Y-119747680D01*
X69796095Y-119747679D01*
X69796106Y-119747678D01*
X69814790Y-119744255D01*
X70076756Y-119686502D01*
X70095150Y-119681751D01*
X70112152Y-119676704D01*
X70130161Y-119670649D01*
X70381210Y-119576114D01*
X70398734Y-119568789D01*
X70414841Y-119561369D01*
X70431803Y-119552806D01*
X70666802Y-119423425D01*
X70683104Y-119413675D01*
X70697988Y-119404033D01*
X70713556Y-119393137D01*
X70927696Y-119231554D01*
X70942445Y-119219574D01*
X70955801Y-119207907D01*
X70969650Y-119194907D01*
X71158543Y-119004435D01*
X71171425Y-118990481D01*
X71182981Y-118977028D01*
X71194840Y-118962178D01*
X71267048Y-118864808D01*
X71322790Y-118822687D01*
X71392458Y-118817388D01*
X71453932Y-118850596D01*
G37*
%TD.AperFunction*%
%TD*%
%TA.AperFunction,Conductor*%
%TO.N,5V_KillSW*%
G36*
X156407539Y-110519685D02*
G01*
X156453294Y-110572489D01*
X156464500Y-110624000D01*
X156464500Y-111525658D01*
X156479614Y-111601641D01*
X156479614Y-111601642D01*
X156514128Y-111653295D01*
X156537190Y-111687810D01*
X156588843Y-111722323D01*
X156623357Y-111745385D01*
X156699341Y-111760499D01*
X156699344Y-111760500D01*
X156699346Y-111760500D01*
X158450656Y-111760500D01*
X158450657Y-111760499D01*
X158526642Y-111745385D01*
X158612810Y-111687810D01*
X158670385Y-111601642D01*
X158685500Y-111525654D01*
X158685500Y-110624000D01*
X158705185Y-110556961D01*
X158757989Y-110511206D01*
X158809500Y-110500000D01*
X164290500Y-110500000D01*
X164357539Y-110519685D01*
X164403294Y-110572489D01*
X164414500Y-110624000D01*
X164414500Y-111588158D01*
X164429614Y-111664141D01*
X164429614Y-111664142D01*
X164445429Y-111687810D01*
X164487190Y-111750310D01*
X164538843Y-111784823D01*
X164573357Y-111807885D01*
X164649341Y-111822999D01*
X164649344Y-111823000D01*
X164649346Y-111823000D01*
X166400656Y-111823000D01*
X166400657Y-111822999D01*
X166476642Y-111807885D01*
X166562810Y-111750310D01*
X166620385Y-111664142D01*
X166635500Y-111588154D01*
X166635500Y-110624000D01*
X166655185Y-110556961D01*
X166707989Y-110511206D01*
X166759500Y-110500000D01*
X172265500Y-110500000D01*
X172332539Y-110519685D01*
X172378294Y-110572489D01*
X172389500Y-110624000D01*
X172389500Y-111800658D01*
X172404614Y-111876641D01*
X172404614Y-111876642D01*
X172439128Y-111928295D01*
X172462190Y-111962810D01*
X172513843Y-111997323D01*
X172548357Y-112020385D01*
X172624341Y-112035499D01*
X172624344Y-112035500D01*
X172624346Y-112035500D01*
X174375656Y-112035500D01*
X174375657Y-112035499D01*
X174451642Y-112020385D01*
X174537810Y-111962810D01*
X174595385Y-111876642D01*
X174610500Y-111800654D01*
X174610500Y-110624000D01*
X174630185Y-110556961D01*
X174682989Y-110511206D01*
X174734500Y-110500000D01*
X180265500Y-110500000D01*
X180332539Y-110519685D01*
X180378294Y-110572489D01*
X180389500Y-110624000D01*
X180389500Y-111875658D01*
X180404614Y-111951641D01*
X180404614Y-111951642D01*
X180439128Y-112003295D01*
X180462190Y-112037810D01*
X180513843Y-112072323D01*
X180548357Y-112095385D01*
X180624341Y-112110499D01*
X180624344Y-112110500D01*
X180624346Y-112110500D01*
X182375656Y-112110500D01*
X182375657Y-112110499D01*
X182451642Y-112095385D01*
X182537810Y-112037810D01*
X182595385Y-111951642D01*
X182610500Y-111875654D01*
X182610500Y-110624000D01*
X182630185Y-110556961D01*
X182682989Y-110511206D01*
X182734500Y-110500000D01*
X188041874Y-110500000D01*
X188058059Y-110501061D01*
X188163223Y-110514906D01*
X188194491Y-110523284D01*
X188284918Y-110560740D01*
X188312952Y-110576925D01*
X188390602Y-110636509D01*
X188413433Y-110659323D01*
X188413823Y-110659831D01*
X188439063Y-110724979D01*
X188439500Y-110735385D01*
X188439500Y-111875658D01*
X188454614Y-111951641D01*
X188454614Y-111951642D01*
X188512190Y-112037810D01*
X188513681Y-112039301D01*
X188515891Y-112043349D01*
X188518975Y-112047964D01*
X188518562Y-112048239D01*
X188547166Y-112100624D01*
X188550000Y-112126982D01*
X188550000Y-114491874D01*
X188548939Y-114508060D01*
X188535093Y-114613224D01*
X188526715Y-114644491D01*
X188489259Y-114734918D01*
X188473074Y-114762951D01*
X188413491Y-114840601D01*
X188390601Y-114863491D01*
X188312951Y-114923074D01*
X188284918Y-114939259D01*
X188194491Y-114976715D01*
X188163224Y-114985093D01*
X188069398Y-114997446D01*
X188058058Y-114998939D01*
X188041874Y-115000000D01*
X151508126Y-115000000D01*
X151491941Y-114998939D01*
X151478917Y-114997224D01*
X151386775Y-114985093D01*
X151355508Y-114976715D01*
X151265081Y-114939259D01*
X151237048Y-114923074D01*
X151159398Y-114863491D01*
X151136508Y-114840601D01*
X151076925Y-114762951D01*
X151060740Y-114734918D01*
X151023284Y-114644491D01*
X151014906Y-114613223D01*
X151001061Y-114508059D01*
X151000000Y-114491874D01*
X151000000Y-112883217D01*
X151775001Y-112883217D01*
X151784912Y-112951249D01*
X151836215Y-113056191D01*
X151918811Y-113138787D01*
X152023748Y-113190087D01*
X152023751Y-113190088D01*
X152091780Y-113199999D01*
X153324999Y-113199999D01*
X153825000Y-113199999D01*
X155058218Y-113199999D01*
X155126249Y-113190087D01*
X155191440Y-113158217D01*
X167725001Y-113158217D01*
X167734912Y-113226249D01*
X167786215Y-113331191D01*
X167868811Y-113413787D01*
X167973748Y-113465087D01*
X167973751Y-113465088D01*
X168041780Y-113474999D01*
X169274999Y-113474999D01*
X169775000Y-113474999D01*
X171008218Y-113474999D01*
X171076249Y-113465087D01*
X171181191Y-113413784D01*
X171263787Y-113331188D01*
X171311682Y-113233217D01*
X175725001Y-113233217D01*
X175734912Y-113301249D01*
X175786215Y-113406191D01*
X175868811Y-113488787D01*
X175973748Y-113540087D01*
X175973751Y-113540088D01*
X176041780Y-113549999D01*
X177274999Y-113549999D01*
X177775000Y-113549999D01*
X179008218Y-113549999D01*
X179076249Y-113540087D01*
X179181191Y-113488784D01*
X179263787Y-113406188D01*
X179293349Y-113345717D01*
X183725001Y-113345717D01*
X183734912Y-113413749D01*
X183786215Y-113518691D01*
X183868811Y-113601287D01*
X183973748Y-113652587D01*
X183973751Y-113652588D01*
X184041780Y-113662499D01*
X185274999Y-113662499D01*
X185775000Y-113662499D01*
X187008218Y-113662499D01*
X187076249Y-113652587D01*
X187181191Y-113601284D01*
X187263787Y-113518688D01*
X187315087Y-113413751D01*
X187315088Y-113413748D01*
X187325000Y-113345719D01*
X187325000Y-113250000D01*
X185775000Y-113250000D01*
X185775000Y-113662499D01*
X185274999Y-113662499D01*
X185275000Y-113662498D01*
X185275000Y-113250000D01*
X183725001Y-113250000D01*
X183725001Y-113345717D01*
X179293349Y-113345717D01*
X179315087Y-113301251D01*
X179315088Y-113301248D01*
X179325000Y-113233219D01*
X179325000Y-113137500D01*
X177775000Y-113137500D01*
X177775000Y-113549999D01*
X177274999Y-113549999D01*
X177275000Y-113549998D01*
X177275000Y-113137500D01*
X175725001Y-113137500D01*
X175725001Y-113233217D01*
X171311682Y-113233217D01*
X171315087Y-113226251D01*
X171315088Y-113226248D01*
X171325000Y-113158219D01*
X171325000Y-113062500D01*
X169775000Y-113062500D01*
X169775000Y-113474999D01*
X169274999Y-113474999D01*
X169275000Y-113474998D01*
X169275000Y-113062500D01*
X167725001Y-113062500D01*
X167725001Y-113158217D01*
X155191440Y-113158217D01*
X155231191Y-113138784D01*
X155313787Y-113056188D01*
X155365087Y-112951251D01*
X155365088Y-112951248D01*
X155375000Y-112883219D01*
X155375000Y-112808217D01*
X159700001Y-112808217D01*
X159709912Y-112876249D01*
X159761215Y-112981191D01*
X159843811Y-113063787D01*
X159948748Y-113115087D01*
X159948751Y-113115088D01*
X160016780Y-113124999D01*
X161249999Y-113124999D01*
X161750000Y-113124999D01*
X162983218Y-113124999D01*
X163051249Y-113115087D01*
X163156191Y-113063784D01*
X163238787Y-112981188D01*
X163290087Y-112876251D01*
X163290088Y-112876248D01*
X163300000Y-112808219D01*
X163300000Y-112712500D01*
X161750000Y-112712500D01*
X161750000Y-113124999D01*
X161249999Y-113124999D01*
X161250000Y-113124998D01*
X161250000Y-112712500D01*
X159700001Y-112712500D01*
X159700001Y-112808217D01*
X155375000Y-112808217D01*
X155375000Y-112787500D01*
X153825000Y-112787500D01*
X153825000Y-113199999D01*
X153324999Y-113199999D01*
X153325000Y-113199998D01*
X153325000Y-112787500D01*
X151775001Y-112787500D01*
X151775001Y-112883217D01*
X151000000Y-112883217D01*
X151000000Y-112654280D01*
X183725000Y-112654280D01*
X183725000Y-112750000D01*
X185275000Y-112750000D01*
X185775000Y-112750000D01*
X187324999Y-112750000D01*
X187324999Y-112654282D01*
X187315087Y-112586250D01*
X187263784Y-112481308D01*
X187181188Y-112398712D01*
X187076251Y-112347412D01*
X187076248Y-112347411D01*
X187008220Y-112337500D01*
X185775000Y-112337500D01*
X185775000Y-112750000D01*
X185275000Y-112750000D01*
X185275000Y-112337500D01*
X184041782Y-112337500D01*
X183973750Y-112347412D01*
X183868808Y-112398715D01*
X183786212Y-112481311D01*
X183734912Y-112586248D01*
X183734911Y-112586251D01*
X183725000Y-112654280D01*
X151000000Y-112654280D01*
X151000000Y-112466780D01*
X167725000Y-112466780D01*
X167725000Y-112562500D01*
X169275000Y-112562500D01*
X169775000Y-112562500D01*
X171324999Y-112562500D01*
X171324999Y-112541780D01*
X175725000Y-112541780D01*
X175725000Y-112637500D01*
X177275000Y-112637500D01*
X177775000Y-112637500D01*
X179324999Y-112637500D01*
X179324999Y-112541782D01*
X179315087Y-112473750D01*
X179263784Y-112368808D01*
X179181188Y-112286212D01*
X179076251Y-112234912D01*
X179076248Y-112234911D01*
X179008220Y-112225000D01*
X177775000Y-112225000D01*
X177775000Y-112637500D01*
X177275000Y-112637500D01*
X177275000Y-112225000D01*
X176041782Y-112225000D01*
X175973750Y-112234912D01*
X175868808Y-112286215D01*
X175786212Y-112368811D01*
X175734912Y-112473748D01*
X175734911Y-112473751D01*
X175725000Y-112541780D01*
X171324999Y-112541780D01*
X171324999Y-112466782D01*
X171315087Y-112398750D01*
X171263784Y-112293808D01*
X171181188Y-112211212D01*
X171076251Y-112159912D01*
X171076248Y-112159911D01*
X171008220Y-112150000D01*
X169775000Y-112150000D01*
X169775000Y-112562500D01*
X169275000Y-112562500D01*
X169275000Y-112150000D01*
X168041782Y-112150000D01*
X167973750Y-112159912D01*
X167868808Y-112211215D01*
X167786212Y-112293811D01*
X167734912Y-112398748D01*
X167734911Y-112398751D01*
X167725000Y-112466780D01*
X151000000Y-112466780D01*
X151000000Y-112191780D01*
X151775000Y-112191780D01*
X151775000Y-112287500D01*
X153325000Y-112287500D01*
X153825000Y-112287500D01*
X155374999Y-112287500D01*
X155374999Y-112191782D01*
X155365087Y-112123750D01*
X155361680Y-112116780D01*
X159700000Y-112116780D01*
X159700000Y-112212500D01*
X161250000Y-112212500D01*
X161750000Y-112212500D01*
X163299999Y-112212500D01*
X163299999Y-112116782D01*
X163290087Y-112048750D01*
X163238784Y-111943808D01*
X163156188Y-111861212D01*
X163051251Y-111809912D01*
X163051248Y-111809911D01*
X162983220Y-111800000D01*
X161750000Y-111800000D01*
X161750000Y-112212500D01*
X161250000Y-112212500D01*
X161250000Y-111800000D01*
X160016782Y-111800000D01*
X159948750Y-111809912D01*
X159843808Y-111861215D01*
X159761212Y-111943811D01*
X159709912Y-112048748D01*
X159709911Y-112048751D01*
X159700000Y-112116780D01*
X155361680Y-112116780D01*
X155313784Y-112018808D01*
X155231188Y-111936212D01*
X155126251Y-111884912D01*
X155126248Y-111884911D01*
X155058220Y-111875000D01*
X153825000Y-111875000D01*
X153825000Y-112287500D01*
X153325000Y-112287500D01*
X153325000Y-111875000D01*
X152091782Y-111875000D01*
X152023750Y-111884912D01*
X151918808Y-111936215D01*
X151836212Y-112018811D01*
X151784912Y-112123748D01*
X151784911Y-112123751D01*
X151775000Y-112191780D01*
X151000000Y-112191780D01*
X151000000Y-111008125D01*
X151001061Y-110991940D01*
X151014906Y-110886776D01*
X151023284Y-110855508D01*
X151060740Y-110765081D01*
X151076923Y-110737050D01*
X151136513Y-110659392D01*
X151159392Y-110636513D01*
X151237050Y-110576923D01*
X151265079Y-110560740D01*
X151355509Y-110523283D01*
X151386775Y-110514906D01*
X151491941Y-110501061D01*
X151508126Y-110500000D01*
X156340500Y-110500000D01*
X156407539Y-110519685D01*
G37*
%TD.AperFunction*%
%TD*%
%TA.AperFunction,Conductor*%
%TO.N,60V*%
G36*
X69427631Y-110403751D02*
G01*
X69698437Y-110422387D01*
X69715910Y-110424848D01*
X69977008Y-110480823D01*
X69993959Y-110485742D01*
X70041255Y-110503204D01*
X70244451Y-110578223D01*
X70260533Y-110585499D01*
X70495366Y-110712616D01*
X70510252Y-110722103D01*
X70724648Y-110881274D01*
X70738034Y-110892777D01*
X70927655Y-111080779D01*
X70939274Y-111094068D01*
X71100281Y-111307095D01*
X71109895Y-111321900D01*
X71239016Y-111555622D01*
X71246431Y-111571642D01*
X71341056Y-111821335D01*
X71346121Y-111838245D01*
X71404333Y-112098849D01*
X71406945Y-112116308D01*
X71427902Y-112386947D01*
X71428270Y-112395771D01*
X71459066Y-117491481D01*
X71458802Y-117500349D01*
X71440945Y-117772474D01*
X71438521Y-117790043D01*
X71382948Y-118052482D01*
X71378043Y-118069524D01*
X71285603Y-118321351D01*
X71278317Y-118337520D01*
X71150896Y-118573586D01*
X71141378Y-118588550D01*
X70981582Y-118804028D01*
X70970026Y-118817481D01*
X70781133Y-119007953D01*
X70767777Y-119019620D01*
X70553637Y-119181203D01*
X70538753Y-119190845D01*
X70303754Y-119320226D01*
X70287647Y-119327646D01*
X70036598Y-119422181D01*
X70019596Y-119427228D01*
X69757630Y-119484981D01*
X69740083Y-119487551D01*
X69579691Y-119499417D01*
X69468102Y-119507673D01*
X69459277Y-119508010D01*
X52337379Y-119547035D01*
X52270295Y-119527504D01*
X52224420Y-119474804D01*
X52214002Y-119408084D01*
X52214142Y-119406936D01*
X52214984Y-119400000D01*
X52197114Y-119252825D01*
X52144541Y-119114203D01*
X52060322Y-118992190D01*
X52060319Y-118992187D01*
X52060317Y-118992185D01*
X51949352Y-118893878D01*
X51818074Y-118824979D01*
X51674128Y-118789500D01*
X51525872Y-118789500D01*
X51381925Y-118824979D01*
X51250647Y-118893878D01*
X51155339Y-118978315D01*
X51092106Y-119008037D01*
X51073112Y-119009500D01*
X46960537Y-119009500D01*
X46893498Y-118989815D01*
X46847743Y-118937011D01*
X46837799Y-118867853D01*
X46866824Y-118804297D01*
X46872856Y-118797819D01*
X47234844Y-118435831D01*
X47296167Y-118402346D01*
X47322525Y-118399512D01*
X47403540Y-118399512D01*
X47547488Y-118364032D01*
X47678763Y-118295134D01*
X47789734Y-118196822D01*
X47873953Y-118074809D01*
X47926526Y-117936187D01*
X47944396Y-117789012D01*
X47926526Y-117641837D01*
X47873953Y-117503215D01*
X47789734Y-117381202D01*
X47789731Y-117381199D01*
X47789729Y-117381197D01*
X47678763Y-117282890D01*
X47547486Y-117213991D01*
X47403540Y-117178512D01*
X47383723Y-117178512D01*
X47316684Y-117158827D01*
X47270929Y-117106023D01*
X47260627Y-117069459D01*
X47247702Y-116963013D01*
X47195129Y-116824391D01*
X47110910Y-116702378D01*
X47110907Y-116702375D01*
X47110905Y-116702373D01*
X46999940Y-116604066D01*
X46868662Y-116535167D01*
X46724716Y-116499688D01*
X46576460Y-116499688D01*
X46432513Y-116535167D01*
X46301235Y-116604066D01*
X46190270Y-116702373D01*
X46190264Y-116702380D01*
X46106048Y-116824388D01*
X46053473Y-116963013D01*
X46035604Y-117110187D01*
X46035604Y-117117688D01*
X46033208Y-117117688D01*
X46023658Y-117175117D01*
X45999705Y-117208820D01*
X45835342Y-117373182D01*
X45774021Y-117406666D01*
X45747663Y-117409500D01*
X44513113Y-117409500D01*
X44446074Y-117389815D01*
X44425432Y-117373181D01*
X44339774Y-117287523D01*
X44339772Y-117287521D01*
X44331751Y-117282890D01*
X44331750Y-117282889D01*
X44250729Y-117236112D01*
X44250728Y-117236111D01*
X44250727Y-117236111D01*
X44151409Y-117209499D01*
X44151408Y-117209499D01*
X43749495Y-117209499D01*
X43719434Y-117203520D01*
X43719220Y-117204596D01*
X43631257Y-117187099D01*
X43631254Y-117187099D01*
X42868746Y-117187099D01*
X42868743Y-117187099D01*
X42792758Y-117202213D01*
X42792757Y-117202213D01*
X42706590Y-117259789D01*
X42649014Y-117345956D01*
X42649014Y-117345957D01*
X42633900Y-117421940D01*
X42633900Y-117778057D01*
X42649014Y-117854040D01*
X42649014Y-117854041D01*
X42679723Y-117899999D01*
X42706590Y-117940209D01*
X42758243Y-117974722D01*
X42792757Y-117997784D01*
X42868741Y-118012898D01*
X42868744Y-118012899D01*
X42868746Y-118012899D01*
X43631256Y-118012899D01*
X43631257Y-118012898D01*
X43654182Y-118008338D01*
X43719220Y-117995402D01*
X43719434Y-117996477D01*
X43749495Y-117990499D01*
X43886886Y-117990499D01*
X43953925Y-118010184D01*
X43974567Y-118026817D01*
X43987520Y-118039771D01*
X43987522Y-118039773D01*
X44060227Y-118112478D01*
X44149272Y-118163888D01*
X44156131Y-118165726D01*
X44215790Y-118202090D01*
X44246319Y-118264937D01*
X44238024Y-118334313D01*
X44193539Y-118388191D01*
X44126987Y-118409465D01*
X44124036Y-118409500D01*
X43749495Y-118409500D01*
X43719434Y-118403521D01*
X43719220Y-118404597D01*
X43631257Y-118387100D01*
X43631254Y-118387100D01*
X42868746Y-118387100D01*
X42868743Y-118387100D01*
X42792758Y-118402214D01*
X42792757Y-118402214D01*
X42706590Y-118459790D01*
X42649014Y-118545957D01*
X42649014Y-118545958D01*
X42633900Y-118621941D01*
X42633900Y-118978058D01*
X42651397Y-119066020D01*
X42649877Y-119066322D01*
X42655862Y-119122024D01*
X42649392Y-119144059D01*
X42633900Y-119221941D01*
X42633900Y-119445434D01*
X42614215Y-119512473D01*
X42561411Y-119558228D01*
X42510183Y-119569434D01*
X40290383Y-119574494D01*
X40223298Y-119554962D01*
X40177423Y-119502262D01*
X40166100Y-119450494D01*
X40166100Y-119221943D01*
X40166099Y-119221941D01*
X40150985Y-119145958D01*
X40150985Y-119145957D01*
X40120277Y-119100000D01*
X40093410Y-119059790D01*
X40031769Y-119018603D01*
X40007242Y-119002214D01*
X39931257Y-118987100D01*
X39931254Y-118987100D01*
X39168746Y-118987100D01*
X39168743Y-118987100D01*
X39092758Y-119002214D01*
X39092757Y-119002214D01*
X39068230Y-119018603D01*
X39001552Y-119039480D01*
X38999341Y-119039500D01*
X36375686Y-119039500D01*
X36308647Y-119019815D01*
X36288005Y-119003181D01*
X34706764Y-117421940D01*
X38933902Y-117421940D01*
X38933902Y-117778057D01*
X38951399Y-117866019D01*
X38949878Y-117866321D01*
X38955867Y-117922013D01*
X38949393Y-117944063D01*
X38933902Y-118021941D01*
X38933902Y-118378058D01*
X38949016Y-118454041D01*
X38949016Y-118454042D01*
X38983530Y-118505695D01*
X39006592Y-118540210D01*
X39056543Y-118573586D01*
X39092759Y-118597785D01*
X39168743Y-118612899D01*
X39168746Y-118612900D01*
X39168748Y-118612900D01*
X39931258Y-118612900D01*
X39931259Y-118612899D01*
X40007244Y-118597785D01*
X40093412Y-118540210D01*
X40150987Y-118454042D01*
X40166102Y-118378054D01*
X40166102Y-118021946D01*
X40166102Y-118021943D01*
X40166101Y-118021941D01*
X40148605Y-117933979D01*
X40150125Y-117933676D01*
X40144137Y-117877985D01*
X40150609Y-117855943D01*
X40166101Y-117778057D01*
X40166102Y-117778055D01*
X40166102Y-117421942D01*
X40166101Y-117421940D01*
X40150987Y-117345957D01*
X40150987Y-117345956D01*
X40111943Y-117287523D01*
X40093412Y-117259789D01*
X40058897Y-117236727D01*
X40007244Y-117202213D01*
X39931259Y-117187099D01*
X39931256Y-117187099D01*
X39168748Y-117187099D01*
X39168745Y-117187099D01*
X39092760Y-117202213D01*
X39092759Y-117202213D01*
X39006592Y-117259789D01*
X38949016Y-117345956D01*
X38949016Y-117345957D01*
X38933902Y-117421940D01*
X34706764Y-117421940D01*
X34371819Y-117086995D01*
X34338334Y-117025672D01*
X34335500Y-116999314D01*
X34335500Y-114849999D01*
X53985016Y-114849999D01*
X53985016Y-114850000D01*
X54002885Y-114997174D01*
X54040735Y-115096973D01*
X54055459Y-115135797D01*
X54139678Y-115257810D01*
X54139680Y-115257812D01*
X54139682Y-115257814D01*
X54250647Y-115356121D01*
X54250649Y-115356122D01*
X54381924Y-115425020D01*
X54525872Y-115460500D01*
X54674128Y-115460500D01*
X54818076Y-115425020D01*
X54949351Y-115356122D01*
X55060322Y-115257810D01*
X55144541Y-115135797D01*
X55197114Y-114997175D01*
X55214984Y-114850000D01*
X55197114Y-114702825D01*
X55144541Y-114564203D01*
X55060322Y-114442190D01*
X55060319Y-114442187D01*
X55060317Y-114442185D01*
X54949352Y-114343878D01*
X54818074Y-114274979D01*
X54674128Y-114239500D01*
X54525872Y-114239500D01*
X54381925Y-114274979D01*
X54250647Y-114343878D01*
X54139682Y-114442185D01*
X54139676Y-114442192D01*
X54055460Y-114564200D01*
X54002885Y-114702825D01*
X53985016Y-114849999D01*
X34335500Y-114849999D01*
X34335500Y-110615998D01*
X34355185Y-110548959D01*
X34407989Y-110503204D01*
X34459180Y-110491999D01*
X36487835Y-110486861D01*
X36554923Y-110506376D01*
X36600812Y-110559064D01*
X36611801Y-110620126D01*
X36609563Y-110649994D01*
X36609563Y-110650004D01*
X36629280Y-110913123D01*
X36647249Y-110991849D01*
X36687996Y-111170372D01*
X36784396Y-111415994D01*
X36916327Y-111644506D01*
X37049204Y-111811128D01*
X37080846Y-111850806D01*
X37160734Y-111924930D01*
X37274268Y-112030274D01*
X37492282Y-112178913D01*
X37730013Y-112293399D01*
X37982153Y-112371174D01*
X37982154Y-112371174D01*
X37982157Y-112371175D01*
X38243061Y-112410499D01*
X38243066Y-112410499D01*
X38243069Y-112410500D01*
X38243070Y-112410500D01*
X38506930Y-112410500D01*
X38506931Y-112410500D01*
X38506938Y-112410499D01*
X38767842Y-112371175D01*
X38767843Y-112371174D01*
X38767847Y-112371174D01*
X39019987Y-112293399D01*
X39257719Y-112178913D01*
X39475732Y-112030274D01*
X39669157Y-111850802D01*
X39833673Y-111644506D01*
X39965604Y-111415994D01*
X40062004Y-111170372D01*
X40120719Y-110913125D01*
X40140437Y-110650000D01*
X40137482Y-110610571D01*
X40152101Y-110542250D01*
X40201337Y-110492676D01*
X40260818Y-110477305D01*
X58492012Y-110431132D01*
X58559099Y-110450647D01*
X58604988Y-110503335D01*
X58615977Y-110564398D01*
X58609563Y-110649996D01*
X58609563Y-110650004D01*
X58629280Y-110913123D01*
X58647249Y-110991849D01*
X58687996Y-111170372D01*
X58784396Y-111415994D01*
X58916327Y-111644506D01*
X59049204Y-111811128D01*
X59080846Y-111850806D01*
X59160734Y-111924930D01*
X59274268Y-112030274D01*
X59492282Y-112178913D01*
X59730013Y-112293399D01*
X59982153Y-112371174D01*
X59982154Y-112371174D01*
X59982157Y-112371175D01*
X60243061Y-112410499D01*
X60243066Y-112410499D01*
X60243069Y-112410500D01*
X60243070Y-112410500D01*
X60506930Y-112410500D01*
X60506931Y-112410500D01*
X60506938Y-112410499D01*
X60767842Y-112371175D01*
X60767843Y-112371174D01*
X60767847Y-112371174D01*
X61019987Y-112293399D01*
X61257719Y-112178913D01*
X61475732Y-112030274D01*
X61669157Y-111850802D01*
X61833673Y-111644506D01*
X61965604Y-111415994D01*
X62062004Y-111170372D01*
X62120719Y-110913125D01*
X62140437Y-110650000D01*
X62133307Y-110554862D01*
X62147926Y-110486541D01*
X62197163Y-110436968D01*
X62256640Y-110421598D01*
X69418811Y-110403459D01*
X69427631Y-110403751D01*
G37*
%TD.AperFunction*%
%TD*%
%TA.AperFunction,Conductor*%
%TO.N,+5V*%
G36*
X195826071Y-118519685D02*
G01*
X195871826Y-118572489D01*
X195881770Y-118641647D01*
X195852745Y-118705203D01*
X195827923Y-118727102D01*
X195784390Y-118756190D01*
X195726814Y-118842357D01*
X195726814Y-118842358D01*
X195711700Y-118918341D01*
X195711700Y-119079124D01*
X195703561Y-119120043D01*
X195703794Y-119120106D01*
X195702842Y-119123655D01*
X195702263Y-119126571D01*
X195701692Y-119127948D01*
X195701690Y-119127954D01*
X195701690Y-119127955D01*
X195666900Y-119257791D01*
X195666900Y-119257793D01*
X195666900Y-119392206D01*
X195666899Y-119392206D01*
X195701690Y-119522046D01*
X195702262Y-119523425D01*
X195702842Y-119526345D01*
X195703794Y-119529895D01*
X195703561Y-119529957D01*
X195711700Y-119570876D01*
X195711700Y-119731658D01*
X195726814Y-119807641D01*
X195726814Y-119807642D01*
X195761328Y-119859295D01*
X195784390Y-119893810D01*
X195836043Y-119928323D01*
X195870557Y-119951385D01*
X195946541Y-119966499D01*
X195946544Y-119966500D01*
X195946546Y-119966500D01*
X196353456Y-119966500D01*
X196353457Y-119966499D01*
X196429442Y-119951385D01*
X196515610Y-119893810D01*
X196573185Y-119807642D01*
X196588300Y-119731654D01*
X196588300Y-119687418D01*
X196607985Y-119620379D01*
X196624619Y-119599737D01*
X197037537Y-119186819D01*
X197098860Y-119153334D01*
X197125218Y-119150500D01*
X198376000Y-119150500D01*
X198443039Y-119170185D01*
X198488794Y-119222989D01*
X198500000Y-119274500D01*
X198500000Y-122991874D01*
X198498939Y-123008060D01*
X198485093Y-123113224D01*
X198476715Y-123144491D01*
X198439259Y-123234918D01*
X198423074Y-123262951D01*
X198363491Y-123340601D01*
X198340601Y-123363491D01*
X198262951Y-123423074D01*
X198234918Y-123439259D01*
X198144491Y-123476715D01*
X198113224Y-123485093D01*
X198019398Y-123497446D01*
X198008058Y-123498939D01*
X197991874Y-123500000D01*
X191508126Y-123500000D01*
X191491941Y-123498939D01*
X191478917Y-123497224D01*
X191386775Y-123485093D01*
X191355508Y-123476715D01*
X191265081Y-123439259D01*
X191237048Y-123423074D01*
X191159398Y-123363491D01*
X191136508Y-123340601D01*
X191076925Y-123262951D01*
X191060740Y-123234918D01*
X191023284Y-123144491D01*
X191014906Y-123113223D01*
X191001061Y-123008059D01*
X191000000Y-122991874D01*
X191000000Y-119008125D01*
X191001061Y-118991940D01*
X191010751Y-118918341D01*
X191014906Y-118886775D01*
X191023284Y-118855508D01*
X191060740Y-118765081D01*
X191076923Y-118737050D01*
X191136513Y-118659392D01*
X191159392Y-118636513D01*
X191237050Y-118576923D01*
X191265079Y-118560740D01*
X191355509Y-118523283D01*
X191386775Y-118514906D01*
X191491941Y-118501061D01*
X191508126Y-118500000D01*
X195759032Y-118500000D01*
X195826071Y-118519685D01*
G37*
%TD.AperFunction*%
%TD*%
M02*
